<?xml version="1.0" standalone="no"?>
<!DOCTYPE svg PUBLIC "-//W3C//DTD SVG 20010904//EN"
 "http://www.w3.org/TR/2001/REC-SVG-20010904/DTD/svg10.dtd">
<svg version="1.0" xmlns="http://www.w3.org/2000/svg"
 width="700.000000pt" height="700.000000pt" viewBox="0 0 700.000000 700.000000"
 preserveAspectRatio="xMidYMid meet">
<metadata>
Created by potrace 1.14, written by Peter Selinger 2001-2017
</metadata>
<g transform="translate(0.000000,700.000000) scale(0.100000,-0.100000)"
fill="#000000" stroke="none">
<path d="M3409 6893 c-13 -16 -12 -17 4 -4 9 7 17 15 17 17 0 8 -8 3 -21 -13z"/>
<path d="M3359 6853 c-13 -15 -12 -15 9 -4 23 12 28 21 13 21 -5 0 -15 -7 -22
-17z"/>
<path d="M3333 6834 c3 -5 -21 -34 -54 -63 -32 -29 -56 -58 -52 -64 4 -6 0 -8
-11 -4 -9 4 -16 3 -14 -1 5 -10 -60 -71 -68 -63 -4 3 -5 2 -2 -4 4 -9 -68 -87
-77 -82 -7 4 -44 -41 -38 -47 4 -3 -1 -6 -10 -6 -9 0 -17 -7 -17 -16 0 -8 -4
-12 -10 -9 -5 3 -10 1 -10 -5 0 -15 -26 -41 -34 -33 -3 4 -6 -1 -6 -11 0 -9
-4 -14 -10 -11 -5 3 -10 0 -10 -7 0 -8 -13 -22 -30 -31 -16 -10 -30 -24 -30
-32 0 -8 -5 -17 -12 -21 -7 -5 -8 -3 -3 7 8 12 6 12 -8 0 -10 -8 -15 -16 -12
-19 3 -3 -5 -10 -18 -17 -12 -6 -21 -17 -19 -23 1 -7 -2 -12 -8 -12 -10 0 -87
-71 -89 -82 -1 -5 -2 -7 -4 -5 -6 5 -35 -28 -30 -35 2 -5 -1 -8 -7 -8 -15 0
-41 -26 -33 -34 4 -3 -1 -6 -11 -6 -9 0 -14 -4 -11 -10 3 -5 1 -10 -5 -10 -15
0 -90 -76 -90 -91 0 -7 -3 -10 -6 -6 -8 8 -34 -18 -34 -33 0 -6 -4 -8 -10 -5
-5 3 -10 -2 -10 -11 0 -10 -3 -15 -6 -12 -7 8 -54 -36 -54 -51 0 -7 -5 -9 -12
-5 -8 5 -9 2 -5 -10 4 -10 3 -15 -3 -11 -12 7 -100 -78 -100 -96 0 -7 -3 -10
-6 -6 -10 10 -36 -22 -28 -34 4 -8 3 -9 -4 -5 -12 7 -399 -371 -394 -386 1 -4
-1 -7 -5 -6 -11 4 -79 -64 -75 -74 1 -4 -1 -7 -5 -6 -14 5 -94 -82 -87 -94 4
-7 3 -8 -5 -4 -12 8 -118 -91 -113 -106 1 -4 -4 -8 -12 -8 -18 0 -58 -49 -50
-61 3 -5 -3 -6 -12 -2 -13 5 -16 3 -11 -10 4 -12 2 -14 -10 -10 -11 4 -14 2
-9 -5 4 -7 2 -12 -4 -12 -15 0 -100 -87 -92 -94 3 -3 -2 -6 -12 -6 -9 0 -14
-4 -11 -10 3 -5 1 -10 -6 -10 -15 0 -69 -56 -69 -72 0 -6 -3 -9 -6 -5 -8 8
-34 -18 -34 -34 0 -7 -3 -9 -6 -6 -9 8 -74 -57 -74 -74 0 -7 -3 -10 -6 -6 -10
10 -36 -22 -28 -34 4 -7 1 -10 -7 -7 -16 6 -141 -111 -133 -123 3 -5 -1 -9 -8
-9 -14 0 -250 -234 -249 -247 1 -4 -3 -8 -8 -8 -5 0 -21 -12 -36 -27 -15 -16
-22 -28 -15 -28 7 0 10 -3 6 -7 -7 -8 -11 -9 -37 -12 -6 0 -8 -8 -5 -17 5 -12
2 -15 -9 -10 -9 3 -14 2 -11 -3 3 -5 -1 -12 -10 -15 -8 -3 -12 -11 -9 -17 4
-6 0 -9 -11 -7 -12 2 -18 -2 -16 -11 3 -17 -16 -41 -43 -51 -12 -6 -14 -9 -5
-9 8 0 66 51 129 114 63 63 110 115 105 115 -5 0 2 6 16 13 14 8 24 19 23 25
-2 7 3 12 10 12 18 0 83 71 79 87 -2 7 3 11 10 8 16 -6 291 268 281 279 -5 4
-1 6 7 4 8 -1 14 3 12 10 -1 6 2 11 6 10 12 -4 101 85 96 94 -3 5 -2 7 3 6 13
-4 303 284 297 294 -3 5 -1 7 4 6 12 -4 628 612 624 623 -1 5 2 8 7 7 14 -5
536 524 533 539 -2 9 1 12 8 8 6 -4 102 85 230 214 121 122 216 221 213 221
-3 0 12 14 33 31 22 17 39 34 39 38 0 14 33 40 41 33 5 -4 6 -3 3 1 -4 5 11
25 34 46 30 28 37 40 27 46 -8 5 -11 4 -7 -1z m-2283 -2309 c0 -2 -10 -10 -22
-16 -21 -11 -22 -11 -9 4 13 16 31 23 31 12z m-41 -38 c-2 -1 -13 -9 -24 -17
-19 -14 -19 -14 -6 3 7 9 18 17 24 17 6 0 8 -1 6 -3z m-39 -41 c0 -3 -4 -8
-10 -11 -5 -3 -10 -1 -10 4 0 6 5 11 10 11 6 0 10 -2 10 -4z m-82 -80 c-18
-18 -35 -31 -38 -29 -5 5 56 63 65 63 3 0 -9 -15 -27 -34z m-100 -98 c-8 -12
-20 -24 -27 -26 -7 -2 -3 7 10 22 28 32 37 34 17 4z m-58 -58 c0 -5 -5 -10
-11 -10 -5 0 -7 5 -4 10 3 6 8 10 11 10 2 0 4 -4 4 -10z m-79 -83 l-23 -22 17
28 c10 15 20 25 23 22 3 -3 -5 -16 -17 -28z"/>
<path d="M3331 6684 c-63 -63 -112 -116 -110 -119 3 -2 56 48 118 111 63 63
112 117 110 119 -3 2 -56 -48 -118 -111z"/>
<path d="M3650 6706 c0 -2 8 -10 18 -17 15 -13 16 -12 3 4 -13 16 -21 21 -21
13z"/>
<path d="M3750 6608 c41 -45 50 -53 50 -45 0 2 -21 23 -47 47 l-48 45 45 -47z"/>
<path d="M3171 6524 c-19 -19 -31 -34 -27 -34 10 0 71 58 66 63 -3 2 -20 -11
-39 -29z"/>
<path d="M3801 6547 c2 -1 15 -11 29 -22 l25 -20 -19 23 c-11 12 -24 22 -29
22 -6 0 -8 -1 -6 -3z"/>
<path d="M3876 6478 c10 -14 21 -24 23 -22 3 3 -6 15 -18 27 l-24 22 19 -27z"/>
<path d="M2960 6310 c-67 -66 -118 -120 -112 -120 6 0 14 5 18 11 16 26 99 0
280 -90 101 -50 186 -91 188 -91 3 0 15 -4 28 -9 64 -24 116 -31 122 -15 4 11
11 11 38 -1 18 -7 93 -27 167 -45 153 -36 313 -86 388 -123 29 -14 56 -21 59
-16 3 5 10 6 16 3 6 -4 9 -3 7 2 -2 5 14 27 35 49 22 22 34 31 26 20 -14 -20
-14 -20 7 -1 13 10 20 23 17 27 -3 5 2 9 10 9 8 0 18 5 22 12 5 7 3 8 -7 3 -8
-5 5 10 29 33 23 24 42 45 42 47 0 10 -192 195 -201 195 -6 0 -8 4 -5 8 3 5
-4 16 -15 25 -10 9 -19 13 -19 9 0 -4 -9 7 -20 23 -11 17 -20 27 -20 23 0 -4
-13 5 -28 20 -15 15 -26 30 -24 35 2 4 -2 7 -8 7 -6 0 -22 12 -35 26 -13 14
-35 27 -50 28 -14 2 -23 1 -21 -1 3 -3 -12 -21 -32 -40 -20 -20 -36 -39 -35
-44 2 -5 -5 -5 -14 -2 -13 5 -15 2 -10 -11 4 -9 3 -15 -2 -12 -11 7 -51 -28
-51 -44 0 -7 -3 -11 -6 -7 -10 10 -36 -22 -28 -34 4 -8 3 -9 -4 -5 -7 4 -23
-4 -37 -18 -14 -15 -24 -26 -21 -26 2 0 -10 -15 -27 -33 -18 -18 -34 -32 -37
-32 -3 1 -16 -10 -30 -23 -14 -14 -18 -22 -10 -18 8 4 2 -4 -14 -19 l-29 -27
-56 61 c-31 34 -62 61 -69 61 -7 0 -11 3 -9 8 3 4 -1 13 -9 20 -8 7 -14 9 -14
5 -1 -4 -8 4 -16 20 -8 15 -20 27 -27 27 -14 0 -123 111 -119 123 1 4 -4 7
-12 7 -8 0 -21 8 -28 18 -7 9 -25 27 -39 40 l-26 23 -123 -121z"/>
<path d="M3270 6256 c0 -2 8 -10 18 -17 15 -13 16 -12 3 4 -13 16 -21 21 -21
13z"/>
<path d="M4230 6246 c0 -2 7 -7 16 -10 8 -3 12 -2 9 4 -6 10 -25 14 -25 6z"/>
<path d="M4280 6206 c0 -2 8 -10 18 -17 15 -13 16 -12 3 4 -13 16 -21 21 -21
13z"/>
<path d="M2822 6175 c3 -3 -30 -40 -73 -82 -44 -43 -79 -80 -79 -83 0 -3 15
-23 34 -43 l33 -37 47 16 c25 9 48 19 51 23 9 15 15 91 7 91 -4 0 -6 18 -4 40
2 22 8 37 13 34 5 -3 9 0 9 5 0 6 -4 11 -10 11 -5 0 -10 7 -10 15 0 8 -5 15
-12 15 -6 0 -9 -2 -6 -5z"/>
<path d="M2883 6155 c4 -8 2 -17 -4 -21 -7 -4 -6 -10 1 -19 12 -14 7 -163 -7
-176 -4 -4 -57 -28 -117 -54 -110 -45 -190 -87 -201 -104 -3 -5 16 -44 41 -88
64 -107 134 -238 134 -250 0 -5 -24 -26 -52 -45 -72 -49 -227 -150 -252 -165
-12 -7 -18 -13 -14 -13 4 0 -1 -15 -12 -32 -11 -18 -20 -42 -20 -54 0 -11 -3
-24 -7 -28 -4 -4 -8 -19 -9 -34 -3 -53 -16 -127 -25 -144 -6 -10 -7 -18 -4
-18 13 0 -31 -65 -142 -210 -287 -375 -500 -691 -527 -782 -10 -37 -9 -52 8
-108 18 -59 27 -80 68 -151 28 -49 143 -149 171 -149 3 0 -21 26 -52 58 -31
31 -39 41 -16 20 89 -81 217 -138 309 -138 39 0 45 4 75 46 18 25 93 105 166
178 l133 133 109 1 c154 1 271 12 392 37 100 20 248 89 330 156 32 26 63 44
67 41 4 -4 5 -2 2 3 -3 6 12 28 34 50 24 24 38 32 34 21 -3 -10 -20 -74 -36
-142 -44 -183 -101 -313 -218 -494 -112 -173 -348 -459 -420 -509 -12 -8 -20
-17 -19 -21 1 -3 -14 -22 -33 -41 -84 -82 -217 -249 -306 -384 -151 -229 -248
-473 -269 -675 -3 -30 -9 -66 -12 -80 -3 -14 -6 -36 -7 -50 -1 -20 -6 -25 -28
-25 -14 1 -24 -3 -21 -8 3 -5 0 -7 -8 -5 -22 8 -84 -28 -116 -66 -27 -33 -28
-40 -27 -125 0 -50 4 -94 7 -98 4 -3 7 -16 7 -27 0 -35 38 -86 75 -102 19 -8
59 -14 88 -14 61 0 76 -11 103 -75 22 -53 22 -167 0 -233 -20 -59 -35 -72
-186 -172 -58 -38 -117 -80 -132 -94 -15 -14 -32 -26 -38 -26 -5 0 -10 -6 -11
-12 0 -7 -22 -40 -48 -73 -38 -47 -55 -61 -83 -66 -53 -8 -105 -46 -134 -95
-15 -25 -24 -47 -21 -50 3 -4 2 -16 -2 -28 -5 -11 -5 -30 -1 -41 4 -11 3 -26
-2 -32 -6 -7 -6 -13 -2 -13 5 0 9 -22 9 -50 0 -27 -4 -50 -8 -50 -5 0 -5 -6
-1 -12 5 -7 9 -35 10 -63 1 -27 2 -52 3 -55 0 -3 856 -6 1901 -6 l1900 0 1 61
c1 33 1 120 0 194 -1 118 -4 138 -23 169 -24 39 -125 93 -137 73 -5 -7 -25 -8
-61 -3 -55 6 -55 7 -17 12 l39 5 -36 47 c-20 26 -36 49 -36 52 0 7 -62 67 -94
91 -15 11 -75 50 -132 86 -111 70 -119 78 -159 157 -22 43 -24 60 -21 120 3
43 13 87 25 113 22 45 20 54 -14 61 -27 6 65 11 147 8 14 -1 46 8 70 19 23 11
40 20 35 21 -4 0 -1 12 7 27 7 16 16 46 19 68 3 22 8 49 10 60 3 11 0 26 -6
33 -6 8 -6 12 2 12 7 0 9 5 6 10 -4 6 -7 33 -8 60 0 28 -4 50 -9 50 -4 0 -8 6
-8 14 0 15 -64 50 -112 61 -14 4 -35 16 -44 26 -17 19 -17 24 0 112 33 167 66
277 207 702 125 374 219 695 219 748 0 10 3 16 8 14 4 -3 7 8 6 24 0 16 6 60
13 97 8 37 14 76 14 87 0 10 5 26 12 34 8 10 8 12 1 8 -14 -8 -6 82 9 101 6 7
6 12 0 12 -5 0 -9 16 -9 35 1 19 3 35 6 35 6 0 2 181 -4 187 -3 3 -1 16 5 30
5 13 5 22 1 19 -5 -3 -9 14 -10 37 -1 35 -14 128 -26 189 -2 7 -6 31 -10 53
-39 201 -167 518 -289 714 -54 88 -229 320 -262 349 -14 13 -23 28 -19 34 5 8
1 9 -12 4 -10 -4 -15 -4 -12 -1 4 4 -14 26 -39 48 -25 23 -60 56 -78 72 -17
17 -39 35 -47 40 -8 6 -63 44 -122 85 -214 150 -435 253 -666 310 -47 11 -92
24 -100 27 -8 3 -19 5 -24 4 -5 -1 -31 3 -58 9 -41 8 -100 16 -198 24 -14 1
-115 49 -293 138 -44 22 -76 34 -72 29 3 -7 0 -8 -9 -5 -9 3 -14 10 -11 14 3
4 -2 11 -11 14 -8 3 -12 2 -9 -4 3 -6 -1 -7 -9 -4 -9 3 -14 10 -11 14 6 9 -19
20 -47 20 -14 0 -18 -5 -15 -15z m177 -71 c0 -2 -9 0 -20 6 -11 6 -20 13 -20
16 0 2 9 0 20 -6 11 -6 20 -13 20 -16z m156 -95 c3 -6 -5 -3 -20 6 -14 10 -26
19 -26 22 0 7 39 -17 46 -28z m78 -58 c-2 -3 -12 3 -22 13 -16 17 -16 18 5 5
12 -7 20 -15 17 -18z m-319 -166 c8 -38 17 -81 20 -95 3 -14 -1 -9 -9 11 -14
37 -47 210 -45 238 1 9 6 -6 11 -34 5 -27 16 -81 23 -120z m390 125 c3 -6 -1
-7 -9 -4 -18 7 -21 14 -7 14 6 0 13 -4 16 -10z m202 -27 c-4 -3 -1 -13 6 -22
11 -14 10 -14 -5 -2 -21 15 -23 31 -6 31 6 0 8 -3 5 -7z m-762 -30 c-38 -14
-86 -36 -107 -49 -21 -13 -38 -22 -38 -19 0 17 164 94 200 94 8 0 -16 -12 -55
-26z m93 -9 c-3 -14 -5 -12 -10 9 -3 19 -2 25 4 19 6 -6 8 -18 6 -28z m747 26
c3 -6 -1 -7 -9 -4 -18 7 -21 14 -7 14 6 0 13 -4 16 -10z m90 -20 c13 -5 14 -9
5 -9 -8 0 -24 4 -35 9 -13 5 -14 9 -5 9 8 0 24 -4 35 -9z m-85 -36 c0 -2 -9 0
-20 6 -11 6 -20 13 -20 16 0 2 9 0 20 -6 11 -6 20 -13 20 -16z m137 20 c-3 -3
-12 -4 -19 -1 -8 3 -5 6 6 6 11 1 17 -2 13 -5z m64 -19 c19 -8 29 -14 23 -15
-7 0 -27 7 -45 15 -19 8 -29 14 -23 15 7 0 27 -7 45 -15z m-882 -185 c11 -23
11 -24 -3 -6 -17 20 -66 162 -66 186 1 8 13 -23 29 -70 15 -47 33 -96 40 -110z
m731 154 c0 -2 -9 0 -20 6 -11 6 -20 13 -20 16 0 2 9 0 20 -6 11 -6 20 -13 20
-16z m265 -10 c36 -15 64 -28 62 -30 -3 -4 -128 44 -136 52 -10 9 12 3 74 -22z
m-1242 -155 c79 -137 64 -129 158 -84 44 22 85 47 90 55 4 8 8 11 9 5 0 -5 -4
-15 -8 -21 -11 -17 -169 -87 -180 -80 -17 10 -141 231 -147 262 -4 21 -1 18
12 -12 10 -23 40 -79 66 -125z m1052 121 c3 -5 -10 -1 -29 11 -20 12 -36 23
-36 25 0 7 58 -25 65 -36z m290 -10 c3 -6 -1 -7 -9 -4 -18 7 -21 14 -7 14 6 0
13 -4 16 -10z m-195 -50 c26 -23 18 -19 -42 19 -21 12 -38 25 -38 27 0 7 53
-24 80 -46z m-185 -18 c-3 -3 -6 -3 -7 -1 -2 2 -14 18 -28 34 l-25 30 32 -29
c18 -16 31 -32 28 -34z m435 43 c14 -8 21 -14 15 -14 -5 0 -21 6 -35 14 -14 8
-20 14 -15 14 6 0 21 -6 35 -14z m70 -41 c0 -2 -9 0 -20 6 -11 6 -20 13 -20
16 0 2 9 0 20 -6 11 -6 20 -13 20 -16z m70 -40 c0 -2 -13 2 -30 11 -16 9 -30
18 -30 21 0 2 14 -2 30 -11 17 -9 30 -18 30 -21z m-309 -1 c13 -16 12 -17 -3
-4 -10 7 -18 15 -18 17 0 8 8 3 21 -13z m-887 -13 c34 0 32 -5 -4 -13 -20 -5
-29 -1 -39 16 -11 18 -11 20 0 10 7 -7 26 -13 43 -13z m119 13 c-7 -2 -19 -2
-25 0 -7 3 -2 5 12 5 14 0 19 -2 13 -5z m414 1 c-3 -3 -12 -4 -19 -1 -8 3 -5
6 6 6 11 1 17 -2 13 -5z m-470 -10 c-3 -3 -12 -4 -19 -1 -8 3 -5 6 6 6 11 1
17 -2 13 -5z m118 -4 c-3 -5 -12 -10 -18 -10 -7 0 -6 4 3 10 19 12 23 12 15 0z
m1071 -21 c3 -6 -5 -3 -20 6 -14 10 -26 19 -26 22 0 7 39 -17 46 -28z m-300
-10 c3 -6 -5 -3 -20 6 -14 10 -26 19 -26 22 0 7 39 -17 46 -28z m-836 1 c-8
-5 -19 -10 -25 -10 -5 0 -3 5 5 10 8 5 20 10 25 10 6 0 3 -5 -5 -10z m1196
-31 c3 -6 -5 -3 -20 6 -14 10 -26 19 -26 22 0 7 39 -17 46 -28z m-1241 11 c-3
-5 -12 -10 -18 -10 -7 0 -6 4 3 10 19 12 23 12 15 0z m645 0 c8 -5 11 -10 5
-10 -5 0 -17 5 -25 10 -8 5 -10 10 -5 10 6 0 17 -5 25 -10z m271 -7 c13 -16
12 -17 -3 -4 -10 7 -18 15 -18 17 0 8 8 3 21 -13z m-191 -28 c25 -13 41 -24
35 -24 -5 0 -30 11 -55 24 -25 13 -40 24 -35 24 6 0 30 -11 55 -24z m-785 5
c-3 -5 -12 -10 -18 -10 -7 0 -6 4 3 10 19 12 23 12 15 0z m1016 -7 c13 -16 12
-17 -3 -4 -10 7 -18 15 -18 17 0 8 8 3 21 -13z m320 0 c13 -16 12 -17 -3 -4
-10 7 -18 15 -18 17 0 8 8 3 21 -13z m-276 -33 c10 -11 16 -20 13 -20 -3 0
-13 9 -23 20 -10 11 -16 20 -13 20 3 0 13 -9 23 -20z m316 3 c13 -16 12 -17
-3 -4 -10 7 -18 15 -18 17 0 8 8 3 21 -13z m-490 -20 c13 -17 13 -17 -6 -3
-11 8 -22 16 -24 17 -2 2 0 3 6 3 6 0 17 -8 24 -17z m549 -28 c19 -19 32 -35
29 -35 -3 0 -20 16 -39 35 -19 19 -32 35 -29 35 3 0 20 -16 39 -35z m-325 5
c10 -11 16 -20 13 -20 -3 0 -13 9 -23 20 -10 11 -16 20 -13 20 3 0 13 -9 23
-20z m-180 0 c3 -6 -1 -7 -9 -4 -18 7 -21 14 -7 14 6 0 13 -4 16 -10z m230
-40 c10 -11 16 -20 13 -20 -3 0 -13 9 -23 20 -10 11 -16 20 -13 20 3 0 13 -9
23 -20z m85 -75 c30 -30 52 -55 49 -55 -2 0 -29 25 -59 55 -30 30 -52 55 -49
55 2 0 29 -25 59 -55z m290 20 c13 -14 21 -25 18 -25 -2 0 -15 11 -28 25 -13
14 -21 25 -18 25 2 0 15 -11 28 -25z m-1845 -11 c-29 -24 -77 -54 -64 -40 11
12 84 65 89 65 3 0 -8 -11 -25 -25z m1446 -41 c13 -16 12 -17 -3 -4 -10 7 -18
15 -18 17 0 8 8 3 21 -13z m-1531 -28 c-7 -8 -20 -15 -29 -15 -11 0 -8 5 9 14
33 19 35 19 20 1z m2026 -17 l29 -33 -32 29 c-31 28 -38 36 -30 36 2 0 16 -15
33 -32z m-2221 -36 c-11 -9 -26 -28 -33 -42 l-12 -25 6 25 c5 23 38 60 53 60
3 -1 -3 -8 -14 -18z m2285 -37 c13 -14 21 -25 18 -25 -2 0 -15 11 -28 25 -13
14 -21 25 -18 25 2 0 15 -11 28 -25z m-264 -37 l29 -33 -32 29 c-31 28 -38 36
-30 36 2 0 16 -15 33 -32z m324 -43 c14 -19 14 -19 -2 -6 -10 7 -18 18 -18 24
0 6 1 8 3 6 1 -2 9 -13 17 -24z m-380 -30 c19 -19 32 -35 29 -35 -3 0 -20 16
-39 35 -19 19 -32 35 -29 35 3 0 20 -16 39 -35z m105 15 c10 -11 16 -20 13
-20 -3 0 -13 9 -23 20 -10 11 -16 20 -13 20 3 0 13 -9 23 -20z m-2128 -22 c-3
-8 -6 -5 -6 6 -1 11 2 17 5 13 3 -3 4 -12 1 -19z m204 -8 c-18 -4 -37 -14 -42
-22 -6 -9 -9 -9 -9 -1 0 17 30 33 60 32 20 -1 19 -3 -9 -9z m2237 -15 c-3 -3
-9 2 -12 12 -6 14 -5 15 5 6 7 -7 10 -15 7 -18z m-2451 -42 c-3 -10 -5 -2 -5
17 0 19 2 27 5 18 2 -10 2 -26 0 -35z m337 33 l26 -13 -27 -18 c-16 -10 -22
-12 -15 -4 17 19 15 28 -10 39 -13 5 -18 9 -12 9 7 1 24 -5 38 -13z m1851 -6
c10 -11 16 -20 13 -20 -3 0 -13 9 -23 20 -10 11 -16 20 -13 20 3 0 13 -9 23
-20z m-63 -62 c30 -44 16 -33 -27 20 -21 26 -28 38 -16 27 13 -11 32 -32 43
-47z m-1933 14 c14 -11 13 -11 -6 -2 -13 6 -23 18 -22 28 0 14 2 14 6 2 4 -8
13 -21 22 -28z m2032 1 c13 -16 12 -17 -3 -4 -17 13 -22 21 -14 21 2 0 10 -8
17 -17z m30 -40 c13 -16 12 -17 -3 -4 -17 13 -22 21 -14 21 2 0 10 -8 17 -17z
m-57 -75 c22 -39 11 -29 -29 27 -17 23 -21 33 -9 23 10 -9 28 -32 38 -50z
m-2243 -11 c-10 -9 -11 -8 -5 6 3 10 9 15 12 12 3 -3 0 -11 -7 -18z m2617 -2
c-3 -3 -9 2 -12 12 -6 14 -5 15 5 6 7 -7 10 -15 7 -18z m-2650 -50 c-13 -19
-27 -35 -31 -35 -4 0 4 16 19 35 34 45 41 45 12 0z m2672 15 c6 -11 8 -20 6
-20 -3 0 -10 9 -16 20 -6 11 -8 20 -6 20 3 0 10 -9 16 -20z m-350 -21 c15 -28
5 -23 -15 7 -9 15 -12 23 -6 20 6 -4 16 -16 21 -27z m115 -19 c9 -16 13 -30
11 -30 -3 0 -12 14 -21 30 -9 17 -13 30 -11 30 3 0 12 -13 21 -30z m-64 -65
l10 -20 -16 20 c-9 11 -21 29 -26 40 l-10 20 16 -20 c9 -11 21 -29 26 -40z
m348 0 c0 -5 -6 1 -14 15 -8 14 -14 30 -14 35 0 6 6 -1 14 -15 8 -14 14 -29
14 -35z m-2789 5 c-17 -22 -34 -40 -37 -40 -2 0 10 18 27 40 17 22 34 40 37
40 2 0 -10 -18 -27 -40z m2554 -26 c3 -8 2 -12 -4 -9 -6 3 -10 10 -10 16 0 14
7 11 14 -7z m-1927 -10 c-3 -3 -12 -4 -19 -1 -8 3 -5 6 6 6 11 1 17 -2 13 -5z
m38 -12 c-3 -3 -11 0 -18 7 -9 10 -8 11 6 5 10 -3 15 -9 12 -12z m1805 -2 c6
-11 8 -20 6 -20 -3 0 -10 9 -16 20 -6 11 -8 20 -6 20 3 0 10 -9 16 -20z
m-1880 6 c0 -2 -9 -6 -20 -9 -11 -3 -18 -1 -14 4 5 9 34 13 34 5z m-630 -10
c0 -2 -8 -10 -17 -17 -16 -13 -17 -12 -4 4 13 16 21 21 21 13z m2614 -12 c3
-8 2 -12 -4 -9 -6 3 -10 10 -10 16 0 14 7 11 14 -7z m244 -9 c-3 -3 -9 2 -12
12 -6 14 -5 15 5 6 7 -7 10 -15 7 -18z m-2118 -75 c-6 -12 -14 -19 -18 -16 -3
4 0 12 6 18 7 7 13 26 13 43 2 29 2 29 6 3 2 -15 -1 -37 -7 -48z m1794 54 c3
-8 2 -12 -4 -9 -6 3 -10 10 -10 16 0 14 7 11 14 -7z m-2564 3 c0 -2 -10 -12
-22 -23 l-23 -19 19 23 c18 21 26 27 26 19z m2673 -37 c3 -11 1 -18 -4 -14 -5
3 -9 12 -9 20 0 20 7 17 13 -6z m-85 -15 c-3 -3 -9 2 -12 12 -6 14 -5 15 5 6
7 -7 10 -15 7 -18z m326 9 c3 -8 2 -12 -4 -9 -6 3 -10 10 -10 16 0 14 7 11 14
-7z m-1557 -35 c-15 -24 -20 -18 -11 16 4 18 9 23 14 14 5 -7 3 -20 -3 -30z
m-1397 27 c0 -2 -8 -10 -17 -17 -16 -13 -17 -12 -4 4 13 16 21 21 21 13z m530
-9 c0 -2 -13 -16 -30 -32 -36 -35 -40 -26 -5 10 24 23 35 30 35 22z m2219 -67
c0 -8 -6 0 -14 19 -8 18 -15 36 -15 40 1 13 29 -45 29 -59z m-1983 25 c-11 -8
-25 -15 -30 -15 -6 1 0 7 14 15 32 19 40 18 16 0z m627 -13 c-7 -5 -10 -20 -8
-37 4 -19 2 -25 -3 -17 -7 10 -12 4 -22 -20 -22 -58 -44 -99 -65 -116 -19 -17
-20 -16 -3 3 21 26 63 119 73 163 4 20 13 32 23 32 12 0 13 -3 5 -8z m1591 -8
c3 -8 2 -12 -4 -9 -6 3 -10 10 -10 16 0 14 7 11 14 -7z m-2487 -10 c-3 -3 -12
-4 -19 -1 -8 3 -5 6 6 6 11 1 17 -2 13 -5z m40 0 c-3 -3 -12 -4 -19 -1 -8 3
-5 6 6 6 11 1 17 -2 13 -5z m2141 -19 c-3 -3 -9 2 -12 12 -6 14 -5 15 5 6 7
-7 10 -15 7 -18z m-2748 1 c0 -2 -8 -10 -17 -17 -16 -13 -17 -12 -4 4 13 16
21 21 21 13z m2840 -31 c0 -5 -5 -3 -10 5 -5 8 -10 20 -10 25 0 6 5 3 10 -5 5
-8 10 -19 10 -25z m-2870 -9 c0 -2 -8 -10 -17 -17 -16 -13 -17 -12 -4 4 13 16
21 21 21 13z m1477 -18 c-3 -8 -6 -5 -6 6 -1 11 2 17 5 13 3 -3 4 -12 1 -19z
m1327 6 c3 -8 2 -12 -4 -9 -6 3 -10 10 -10 16 0 14 7 11 14 -7z m84 -39 c-3
-3 -9 2 -12 12 -6 14 -5 15 5 6 7 -7 10 -15 7 -18z m-2918 11 c0 -2 -8 -10
-17 -17 -16 -13 -17 -12 -4 4 13 16 21 21 21 13z m3147 -18 c-3 -8 -6 -5 -6 6
-1 11 2 17 5 13 3 -3 4 -12 1 -19z m-214 -28 c3 -11 1 -18 -4 -14 -5 3 -9 12
-9 20 0 20 7 17 13 -6z m-3003 -50 c-12 -16 -24 -30 -26 -30 -3 0 4 14 16 30
12 17 24 30 26 30 3 0 -4 -13 -16 -30z m3237 -2 c-3 -8 -6 -5 -6 6 -1 11 2 17
5 13 3 -3 4 -12 1 -19z m-220 -20 c-3 -8 -6 -5 -6 6 -1 11 2 17 5 13 3 -3 4
-12 1 -19z m-1566 -16 c-6 -11 -27 -32 -48 -47 -37 -28 -37 -28 7 17 51 53 54
55 41 30z m53 -7 c-9 -14 -18 -25 -21 -25 -5 0 5 18 20 38 17 22 18 13 1 -13z
m1523 -17 c-3 -8 -6 -5 -6 6 -1 11 2 17 5 13 3 -3 4 -12 1 -19z m-3136 -100
c-37 -57 -76 -118 -85 -135 -9 -18 -19 -33 -22 -33 -11 0 113 204 154 253 30
35 19 15 -47 -85z m3366 80 c-3 -8 -6 -5 -6 6 -1 11 2 17 5 13 3 -3 4 -12 1
-19z m-1797 -21 c0 -2 -15 -16 -32 -33 l-33 -29 29 33 c28 30 36 37 36 29z
m1584 -13 c3 -8 2 -12 -4 -9 -6 3 -10 10 -10 16 0 14 7 11 14 -7z m-1684 2 c0
-2 -8 -10 -17 -17 -16 -13 -17 -12 -4 4 13 16 21 21 21 13z m1649 -36 c0 -10
-3 -8 -9 5 -12 27 -12 43 0 25 5 -8 9 -22 9 -30z m38 -22 c-3 -8 -6 -5 -6 6
-1 11 2 17 5 13 3 -3 4 -12 1 -19z m-1658 -1 c-2 -1 -13 -9 -24 -17 -19 -14
-19 -14 -6 3 7 9 18 17 24 17 6 0 8 -1 6 -3z m1640 -47 c0 -9 -4 -8 -9 5 -5
11 -9 27 -9 35 0 9 4 8 9 -5 5 -11 9 -27 9 -35z m-1792 29 c-23 -13 -127 -49
-141 -48 -12 0 132 56 149 57 6 1 2 -3 -8 -9z m103 -15 c0 -7 -187 -94 -202
-94 -7 1 16 13 52 29 36 16 81 38 100 49 37 21 50 26 50 16z m583 -24 c-3 -11
-10 -20 -15 -20 -6 0 -7 -18 -4 -42 3 -27 2 -33 -2 -18 -7 23 -9 22 -30 -23
-34 -73 -35 -55 0 26 36 85 64 128 51 77z m1141 -44 c5 -44 -8 -47 -23 -5 -13
39 -14 49 -1 29 8 -13 10 -12 10 4 0 32 11 11 14 -28z m-2029 20 c-80 -20
-119 -27 -112 -20 8 8 115 32 142 32 11 0 -2 -6 -30 -12z m-125 -20 c0 -9 -40
-13 -46 -5 -3 5 6 9 20 9 14 0 26 -2 26 -4z m-295 -16 c-3 -5 -16 -10 -28 -10
-12 0 -43 -11 -69 -25 -62 -33 -76 -32 -18 1 24 14 60 29 80 34 19 4 36 8 38
9 2 1 0 -3 -3 -9z m2682 -42 c-3 -7 -5 -2 -5 12 0 14 2 19 5 13 2 -7 2 -19 0
-25z m-1400 -40 c-3 -7 -5 -2 -5 12 0 14 2 19 5 13 2 -7 2 -19 0 -25z m-1177
16 c0 -8 -19 -13 -24 -6 -3 5 1 9 9 9 8 0 15 -2 15 -3z m78 -1 c-10 -2 -28 -2
-40 0 -13 2 -5 4 17 4 22 1 32 -1 23 -4z m-198 -13 c-8 -5 -19 -10 -25 -10 -5
0 -3 5 5 10 8 5 20 10 25 10 6 0 3 -5 -5 -10z m2707 -32 c-3 -8 -6 -5 -6 6 -1
11 2 17 5 13 3 -3 4 -12 1 -19z m-2887 8 c0 -2 -8 -10 -17 -17 -16 -13 -17
-12 -4 4 13 16 21 21 21 13z m85 -4 c-6 -4 -27 -23 -49 -42 -21 -19 -35 -27
-30 -18 9 16 72 68 83 68 3 0 1 -3 -4 -8z m1319 -29 c-54 -86 -106 -162 -134
-193 -17 -19 -2 6 33 55 35 50 74 109 87 132 13 24 25 41 28 39 2 -2 -4 -17
-14 -33z m40 -42 c-9 -23 -18 -40 -20 -38 -2 2 4 22 13 45 9 23 18 40 20 38 2
-2 -4 -22 -13 -45z m1443 27 c-3 -8 -6 -5 -6 6 -1 11 2 17 5 13 3 -3 4 -12 1
-19z m-2977 -41 c0 -2 -15 -16 -32 -33 l-33 -29 29 33 c28 30 36 37 36 29z
m-70 -70 c0 -2 -15 -16 -32 -33 l-33 -29 29 33 c28 30 36 37 36 29z m35 -38
c-40 -41 -120 -99 -138 -99 -5 0 17 18 49 39 33 22 72 53 88 70 17 17 32 31
35 31 3 0 -13 -19 -34 -41z m3019 -9 c-6 -6 -10 -3 -10 10 0 13 4 16 10 10 7
-7 7 -13 0 -20z m-1545 -50 c-17 -27 -35 -53 -41 -56 -9 -6 32 65 55 94 22 27
15 9 -14 -38z m-1598 16 c-13 -14 -38 -32 -56 -41 -36 -17 -104 -32 -94 -21 4
4 19 9 35 12 40 7 89 32 110 55 9 10 19 19 22 19 3 0 -5 -11 -17 -24z m1475
-51 c-9 -9 -16 -13 -16 -8 0 12 22 34 28 28 2 -2 -3 -11 -12 -20z m-72 -82
c-27 -31 -84 -93 -127 -138 -43 -44 -24 -20 42 54 67 74 121 139 121 144 0 6
3 7 6 4 4 -4 -15 -32 -42 -64z m117 4 c-10 -9 -11 -8 -5 6 3 10 9 15 12 12 3
-3 0 -11 -7 -18z m-40 -50 l-24 -22 19 27 c10 14 21 24 23 22 3 -3 -6 -15 -18
-27z m1646 -29 c-3 -8 -6 -5 -6 6 -1 11 2 17 5 13 3 -3 4 -12 1 -19z m-1741
-86 c-17 -16 -18 -16 -5 5 7 12 15 20 18 17 3 -2 -3 -12 -13 -22z m-266 -136
c0 -2 -8 -10 -17 -17 -16 -13 -17 -12 -4 4 13 16 21 21 21 13z m-40 -40 c0 -2
-8 -10 -17 -17 -16 -13 -17 -12 -4 4 13 16 21 21 21 13z m-40 -39 c0 -1 -26
-27 -57 -57 l-58 -55 55 58 c50 53 60 62 60 54z m-77 -210 c-15 -19 -30 -32
-32 -30 -5 3 49 63 57 63 2 0 -9 -15 -25 -33z m-114 -125 c-90 -98 -167 -196
-217 -277 -40 -64 -42 -52 -2 15 53 90 136 195 218 277 51 50 51 40 1 -15z
m2128 -44 c-3 -8 -6 -5 -6 6 -1 11 2 17 5 13 3 -3 4 -12 1 -19z m-64 -213 c-3
-9 -8 -14 -10 -11 -3 3 -2 9 2 15 9 16 15 13 8 -4z m-36 -107 c-3 -8 -6 -5 -6
6 -1 11 2 17 5 13 3 -3 4 -12 1 -19z m-2477 -101 c-22 -47 -60 -145 -85 -219
-25 -73 -43 -119 -40 -103 17 93 148 425 162 411 2 -2 -14 -42 -37 -89z m2441
0 c-10 -9 -11 -8 -5 6 3 10 9 15 12 12 3 -3 0 -11 -7 -18z m-44 -149 c-3 -8
-6 -5 -6 6 -1 11 2 17 5 13 3 -3 4 -12 1 -19z m-2330 -40 c-3 -8 -6 -5 -6 6
-1 11 2 17 5 13 3 -3 4 -12 1 -19z m2316 -18 c-3 -12 -8 -19 -11 -16 -5 6 5
36 12 36 2 0 2 -9 -1 -20z m-2326 -22 c-3 -8 -6 -5 -6 6 -1 11 2 17 5 13 3 -3
4 -12 1 -19z m-10 -50 c-3 -7 -5 -2 -5 12 0 14 2 19 5 13 2 -7 2 -19 0 -25z
m2310 -10 c-3 -8 -6 -5 -6 6 -1 11 2 17 5 13 3 -3 4 -12 1 -19z m-2320 -30
c-3 -8 -6 -5 -6 6 -1 11 2 17 5 13 3 -3 4 -12 1 -19z m-14 -79 c-6 -6 -7 3 -4
23 4 28 6 29 9 9 2 -13 0 -27 -5 -32z m2314 29 c-3 -8 -6 -5 -6 6 -1 11 2 17
5 13 3 -3 4 -12 1 -19z m-2474 -49 c-6 -6 -7 3 -4 23 4 28 6 29 9 9 2 -13 0
-27 -5 -32z m154 -21 c-3 -8 -6 -5 -6 6 -1 11 2 17 5 13 3 -3 4 -12 1 -19z
m2300 -25 c-3 -10 -5 -4 -5 12 0 17 2 24 5 18 2 -7 2 -21 0 -30z m-2460 -5
c-3 -7 -5 -2 -5 12 0 14 2 19 5 13 2 -7 2 -19 0 -25z m2450 -40 c-3 -8 -6 -5
-6 6 -1 11 2 17 5 13 3 -3 4 -12 1 -19z m-2303 -13 c-4 -8 -16 -15 -28 -15
-20 0 -20 1 4 14 14 8 26 14 27 15 1 1 0 -6 -3 -14z m-131 -12 c-7 -2 -19 -2
-25 0 -7 3 -2 5 12 5 14 0 19 -2 13 -5z m2424 -105 c-3 -7 -5 -2 -5 12 0 14 2
19 5 13 2 -7 2 -19 0 -25z m-2472 -8 c-3 -5 -21 -10 -38 -10 -18 -1 -49 -7
-69 -14 -21 -8 -38 -12 -38 -10 0 10 49 27 94 34 28 4 52 8 54 9 2 0 0 -3 -3
-9z m2182 4 c-3 -3 -12 -4 -19 -1 -8 3 -5 6 6 6 11 1 17 -2 13 -5z m127 -2 c3
-5 -1 -9 -9 -9 -8 0 -12 4 -9 9 3 4 7 8 9 8 2 0 6 -4 9 -8z m-1944 -23 c-19
-12 -43 -29 -54 -38 -17 -15 -15 -16 45 -22 l64 -6 -67 -1 c-59 -2 -68 -5 -68
-20 0 -16 -9 -18 -75 -18 -41 1 -75 4 -75 8 0 4 8 7 18 6 61 -5 122 3 122 16
0 19 88 96 109 96 9 0 0 -10 -19 -21z m2023 14 c-13 -2 -33 -2 -45 0 -13 2 -3
4 22 4 25 0 35 -2 23 -4z m-837 -35 c23 -26 24 -28 4 -12 -14 12 -34 26 -45
32 -15 9 -16 11 -4 12 8 0 28 -15 45 -32z m919 1 c42 -37 48 -69 10 -61 -14 2
-22 8 -20 13 3 4 12 6 20 2 38 -14 -3 40 -50 65 -11 6 -15 12 -8 12 7 0 28
-14 48 -31z m75 5 c0 -2 -9 0 -20 6 -11 6 -20 13 -20 16 0 2 9 0 20 -6 11 -6
20 -13 20 -16z m49 -88 c-1 -20 -3 -24 -6 -11 -2 11 -8 34 -13 50 -9 28 -9 29
5 11 8 -11 14 -34 14 -50z m-2738 30 c-16 -19 -9 -21 86 -21 46 0 83 -3 83 -7
0 -10 -191 -15 -197 -5 -3 5 3 17 13 28 20 22 32 26 15 5z m596 8 c-3 -3 -12
-4 -19 -1 -8 3 -5 6 6 6 11 1 17 -2 13 -5z m40 0 c-3 -3 -12 -4 -19 -1 -8 3
-5 6 6 6 11 1 17 -2 13 -5z m120 0 c-3 -3 -12 -4 -19 -1 -8 3 -5 6 6 6 11 1
17 -2 13 -5z m976 -1 c-7 -2 -19 -2 -25 0 -7 3 -2 5 12 5 14 0 19 -2 13 -5z
m128 -24 c54 0 99 -4 99 -7 0 -4 -52 -7 -115 -7 -91 0 -115 3 -115 13 0 9 6
12 16 8 8 -3 60 -6 115 -7z m-1661 -9 c0 -5 -4 -10 -10 -10 -5 0 -10 5 -10 10
0 6 5 10 10 10 6 0 10 -4 10 -10z m64 1 c3 -4 -8 -8 -25 -9 -16 0 -27 3 -25 6
6 11 45 12 50 3z m1756 1 c0 -5 -7 -9 -15 -9 -8 0 -12 4 -9 9 3 4 9 8 15 8 5
0 9 -4 9 -8z m40 4 c0 -3 -4 -8 -10 -11 -5 -3 -10 -1 -10 4 0 6 5 11 10 11 6
0 10 -2 10 -4z m60 0 c0 -3 -4 -8 -10 -11 -5 -3 -10 -1 -10 4 0 6 5 11 10 11
6 0 10 -2 10 -4z m60 0 c0 -3 -4 -8 -10 -11 -5 -3 -10 -1 -10 4 0 6 5 11 10
11 6 0 10 -2 10 -4z m157 -12 c-3 -3 -12 -4 -19 -1 -8 3 -5 6 6 6 11 1 17 -2
13 -5z m56 -1 c-7 -2 -21 -2 -30 0 -10 3 -4 5 12 5 17 0 24 -2 18 -5z m257 -8
c0 -8 -5 -15 -11 -15 -5 0 -7 4 -4 10 3 6 -39 11 -112 13 l-118 3 123 2 c103
2 122 0 122 -13z m-2445 -27 c4 -3 -41 -5 -99 -4 -58 1 -108 5 -111 8 -4 4 41
5 99 4 58 -1 108 -5 111 -8z m325 -1 c36 -2 -19 -4 -122 -5 -104 -1 -188 1
-188 6 0 6 150 6 310 -1z m118 -4 c-10 -2 -26 -2 -35 0 -10 3 -2 5 17 5 19 0
27 -2 18 -5z m139 1 c-3 -3 -12 -4 -19 -1 -8 3 -5 6 6 6 11 1 17 -2 13 -5z
m60 0 c-3 -3 -12 -4 -19 -1 -8 3 -5 6 6 6 11 1 17 -2 13 -5z m1879 -200 c-4
-9 -9 -15 -11 -12 -3 3 -3 13 1 22 4 9 9 15 11 12 3 -3 3 -13 -1 -22z m-2413
-104 c3 -11 2 -18 -3 -15 -4 3 -10 14 -13 25 -3 11 -2 18 3 15 4 -3 10 -14 13
-25z m2171 23 c-25 -5 -64 -94 -64 -144 0 -17 -4 -28 -9 -25 -12 8 5 88 29
136 15 30 26 40 43 39 22 -2 22 -2 1 -6z m-2315 -68 c0 -5 -4 -3 -9 5 -5 8 -9
22 -9 30 0 16 17 -16 18 -35z m158 -17 c-3 -7 -5 -2 -5 12 0 14 2 19 5 13 2
-7 2 -19 0 -25z m-138 -77 c1 -51 -5 -34 -12 29 -4 36 -3 46 3 30 4 -14 8 -40
9 -59z m2235 -63 c3 -24 9 -54 12 -68 4 -14 4 -22 -1 -18 -11 10 -34 128 -25
128 4 0 10 -19 14 -42z m-2237 -25 c-3 -10 -5 -2 -5 17 0 19 2 27 5 18 2 -10
2 -26 0 -35z m143 -69 c-7 -24 -16 -47 -21 -50 -5 -2 -2 14 6 37 8 23 15 51
16 63 0 12 3 15 6 8 3 -8 0 -34 -7 -58z m-153 24 c-3 -8 -6 -5 -6 6 -1 11 2
17 5 13 3 -3 4 -12 1 -19z m2428 -167 c92 -61 168 -122 129 -102 -11 5 -26 17
-33 25 -7 8 -54 42 -104 75 -51 32 -105 74 -122 93 l-30 33 35 -32 c19 -17 76
-59 125 -92z m-2428 73 c-3 -3 -12 -4 -19 -1 -8 3 -5 6 6 6 11 1 17 -2 13 -5z
m100 0 c-3 -3 -12 -4 -19 -1 -8 3 -5 6 6 6 11 1 17 -2 13 -5z m2562 -279 c48
-66 32 -55 -24 18 -26 34 -39 54 -28 44 11 -9 34 -37 52 -62z m-866 -62 c-24
-2 -62 -2 -85 0 -24 2 -5 4 42 4 47 0 66 -2 43 -4z m74 1 c-3 -3 -12 -4 -19
-1 -8 3 -5 6 6 6 11 1 17 -2 13 -5z m100 0 c-3 -3 -12 -4 -19 -1 -8 3 -5 6 6
6 11 1 17 -2 13 -5z m113 -4 c0 -5 -2 -10 -4 -10 -3 0 -8 5 -11 10 -3 6 -1 10
4 10 6 0 11 -4 11 -10z m40 0 c0 -5 -7 -7 -15 -4 -8 4 -15 8 -15 10 0 2 7 4
15 4 8 0 15 -4 15 -10z m30 0 c0 -5 -2 -10 -4 -10 -3 0 -8 5 -11 10 -3 6 -1
10 4 10 6 0 11 -4 11 -10z m30 0 c0 -5 -2 -10 -4 -10 -3 0 -8 5 -11 10 -3 6
-1 10 4 10 6 0 11 -4 11 -10z m60 2 c0 -10 -38 -13 -44 -3 -3 3 6 8 20 9 13 1
24 -2 24 -6z m87 -5 c2 -3 -8 -4 -22 -4 -14 0 -25 3 -25 8 0 7 38 4 47 -4z
m28 3 c3 -5 1 -10 -4 -10 -6 0 -11 5 -11 10 0 6 2 10 4 10 3 0 8 -4 11 -10z
m30 0 c3 -5 1 -10 -4 -10 -6 0 -11 5 -11 10 0 6 2 10 4 10 3 0 8 -4 11 -10z
m39 -2 c-3 -4 -9 -8 -15 -8 -5 0 -9 4 -9 8 0 5 7 9 15 9 8 0 12 -4 9 -9z m196
-1 c0 -4 -40 -7 -90 -6 -49 0 -90 4 -90 8 0 3 40 6 90 6 49 0 90 -3 90 -8z
m58 -2 c3 -3 -7 -5 -21 -5 -15 0 -27 4 -27 9 0 10 38 7 48 -4z m-3088 0 c0 -6
-61 -38 -77 -41 -25 -4 -12 7 30 26 47 22 47 22 47 15z m760 -1 c0 -1 -20 -13
-44 -27 -29 -16 -43 -20 -39 -11 3 8 16 17 29 20 13 3 22 9 20 13 -3 4 4 7 15
7 10 0 19 -1 19 -2z m1237 -25 c17 -11 34 -27 37 -37 5 -15 4 -14 -8 2 -8 10
-36 29 -63 43 -26 13 -37 21 -23 17 14 -3 39 -15 57 -25z m1163 -15 c0 -2 -9
0 -20 6 -11 6 -20 13 -20 16 0 2 9 0 20 -6 11 -6 20 -13 20 -16z m186 -91 c3
-48 -13 -40 -19 10 -2 23 -8 51 -12 62 -3 11 2 7 11 -10 10 -16 18 -45 20 -62z
m-3443 26 c-49 -14 -39 -35 13 -28 4 0 11 -5 15 -13 5 -7 9 -8 9 -2 0 16 28
13 34 -3 4 -8 11 -11 18 -7 20 13 78 13 78 0 0 -6 5 -4 10 4 7 11 10 11 10 2
0 -9 5 -10 18 -4 16 8 76 7 115 -2 9 -2 17 1 17 7 0 7 5 5 10 -3 8 -12 11 -13
19 -1 6 9 11 10 15 2 4 -6 12 -11 17 -11 6 0 7 6 3 13 -5 8 -2 8 9 -2 12 -9
17 -10 17 -2 0 7 5 9 12 5 19 -12 87 -8 105 7 16 13 17 12 4 -3 -16 -22 -2
-23 25 -3 10 8 23 15 28 15 6 0 2 -6 -7 -13 -15 -10 -10 -12 38 -12 30 0 55 3
55 8 0 4 -6 7 -12 8 -7 1 2 5 20 9 17 4 51 6 75 4 23 -1 138 -3 256 -3 118 -1
211 -4 207 -8 -3 -4 -24 -6 -46 -5 -34 2 -39 0 -34 -15 5 -17 5 -17 -6 -1 -9
15 -32 17 -210 16 -156 -1 -200 -4 -200 -14 0 -11 -76 -13 -374 -14 -355 0
-374 1 -390 19 -27 30 -13 61 27 60 l32 -1 -32 -9z m761 2 c3 -5 -5 -8 -19 -8
-14 0 -22 3 -19 8 3 5 11 9 19 9 8 0 16 -4 19 -9z m94 2 c-16 -2 -40 -2 -55 0
-16 2 -3 4 27 4 30 0 43 -2 28 -4z m1312 -3 c0 -7 -123 -3 -145 5 -5 2 25 4
68 3 42 0 77 -4 77 -8z m1135 0 c-3 -5 -12 -10 -18 -10 -7 0 -6 4 3 10 19 12
23 12 15 0z m15 -24 c0 -43 -14 -44 -362 -45 -256 -1 -334 2 -340 11 -6 10 -8
10 -8 1 0 -7 -7 -13 -15 -13 -8 0 -15 6 -16 13 0 10 -2 10 -6 0 -2 -7 -18 -13
-34 -13 -16 0 -29 5 -29 13 0 9 -2 9 -8 0 -9 -14 -54 -13 -64 2 -5 6 -8 6 -8
-2 0 -17 -17 -16 -23 0 -4 10 5 14 33 13 21 0 36 -4 33 -8 -2 -5 1 -8 6 -8 6
0 11 4 11 8 0 5 23 9 50 8 28 0 50 -4 50 -8 0 -5 6 -6 13 -1 16 10 77 11 71 1
-3 -4 0 -8 5 -8 6 0 11 5 11 11 0 8 6 7 17 -2 9 -8 14 -9 11 -4 -8 12 81 13
101 0 10 -6 12 -4 6 4 -6 10 -3 11 15 1 12 -7 20 -8 17 -3 -3 4 86 8 196 8
232 0 257 2 257 21 0 8 2 14 5 14 3 0 5 -6 5 -14z m-1143 -11 c2 -7 -84 -10
-259 -9 -145 1 -265 4 -268 5 -5 3 355 14 464 14 33 0 61 -5 63 -10z m-918
-11 c-12 -15 -11 -16 9 -10 12 4 22 3 22 -1 0 -5 -27 -10 -60 -11 -33 -1 -60
2 -60 7 0 4 16 7 36 6 23 -2 37 2 41 11 3 8 10 14 15 14 6 0 4 -7 -3 -16z m67
7 c-29 -11 -7 -19 42 -16 23 1 42 -1 42 -6 0 -15 -94 -5 -111 12 -15 15 -14
16 15 17 24 0 26 -2 12 -7z m181 -9 c-1 -15 -8 -19 -38 -18 -21 1 -41 5 -46
10 -5 5 -2 6 6 1 10 -6 13 -4 9 6 -5 12 3 16 32 17 33 2 39 0 37 -16z m53 6
c0 -8 3 -9 8 -3 4 6 16 11 27 13 18 2 18 1 -3 -11 -12 -7 -19 -16 -16 -20 4
-4 5 -7 2 -7 -3 0 -13 9 -23 20 -10 11 -13 20 -7 20 7 0 12 -6 12 -12z m75 2
c-3 -5 -1 -10 4 -10 6 0 11 -4 11 -8 0 -5 -13 -8 -29 -8 -17 0 -28 3 -25 7 2
5 11 6 19 2 11 -4 13 -1 9 11 -3 9 -1 16 6 16 6 0 8 -4 5 -10z m759 -15 c2 -7
-8 -11 -25 -11 -16 0 -29 4 -29 10 0 7 -3 8 -8 1 -10 -14 -32 -17 -32 -5 0 6
-5 10 -11 10 -5 0 -8 -4 -5 -8 3 -5 -1 -9 -9 -9 -8 0 -15 5 -15 11 0 6 -4 5
-9 -2 -4 -8 -12 -14 -16 -14 -4 0 -12 6 -16 14 -7 10 -9 10 -9 1 0 -8 -13 -13
-30 -13 -16 0 -30 4 -30 10 0 5 6 7 14 4 8 -3 16 -2 19 3 8 13 206 11 211 -2z
m-1460 -6 c3 -3 -37 -5 -89 -6 -52 0 -95 2 -95 6 0 8 177 8 184 0z m121 0 c3
-3 -20 -6 -50 -6 -30 0 -55 3 -55 7 0 8 97 7 105 -1z m82 -2 c3 -3 -11 -5 -31
-4 -20 1 -36 5 -36 9 0 9 58 4 67 -5z m408 3 c3 -5 2 -10 -4 -10 -5 0 -13 5
-16 10 -3 6 -2 10 4 10 5 0 13 -4 16 -10z m155 0 c0 -5 -8 -10 -17 -10 -15 0
-16 2 -3 10 19 12 20 12 20 0z m45 1 c3 -6 -3 -9 -14 -8 -11 0 -17 5 -15 9 7
11 22 10 29 -1z m40 -1 c3 -5 2 -10 -4 -10 -5 0 -13 5 -16 10 -3 6 -2 10 4 10
5 0 13 -4 16 -10z m105 0 c0 -3 -20 -6 -44 -6 -25 0 -43 2 -41 5 5 8 85 9 85
1z m100 -1 c0 -8 -76 -7 -83 1 -3 3 15 5 39 5 24 0 44 -3 44 -6z m87 -3 c3 -3
-11 -4 -30 -3 -20 2 -39 5 -42 9 -4 4 10 5 30 3 20 -2 39 -6 42 -9z m61 -1 c3
-3 -7 -5 -21 -5 -15 0 -27 4 -27 9 0 10 38 7 48 -4z m1309 -105 c-1 -21 -10
-18 -13 5 -1 8 2 15 6 15 5 0 8 -9 7 -20z m-5 -172 c-8 -8 -9 -4 -5 13 4 13 8
18 11 10 2 -7 -1 -18 -6 -23z"/>
<path d="M2585 350 c3 -5 10 -10 16 -10 5 0 9 5 9 10 0 6 -7 10 -16 10 -8 0
-12 -4 -9 -10z"/>
<path d="M3330 350 c0 -12 8 -12 35 0 18 8 17 9 -7 9 -16 1 -28 -3 -28 -9z"/>
<path d="M2567 5919 c-26 -23 -46 -43 -43 -46 2 -3 26 16 53 41 60 57 54 60
-10 5z"/>
<path d="M4600 5886 c0 -2 8 -10 18 -17 15 -13 16 -12 3 4 -13 16 -21 21 -21
13z"/>
<path d="M2402 5755 c-57 -58 -99 -105 -95 -105 12 0 219 210 207 210 -5 0
-56 -47 -112 -105z"/>
<path d="M4546 5808 c10 -14 21 -24 23 -22 3 3 -6 15 -18 27 l-24 22 19 -27z"/>
<path d="M4693 5795 c0 -8 4 -12 9 -9 5 3 6 10 3 15 -9 13 -12 11 -12 -6z"/>
<path d="M4586 5765 c4 -8 11 -15 16 -15 6 0 5 6 -2 15 -7 8 -14 15 -16 15 -2
0 -1 -7 2 -15z"/>
<path d="M4750 5744 c0 -3 14 -22 30 -41 17 -18 30 -31 30 -27 0 3 -13 22 -30
41 -16 18 -30 31 -30 27z"/>
<path d="M4620 5737 c0 -2 15 -16 33 -33 l32 -29 -29 33 c-28 30 -36 37 -36
29z"/>
<path d="M4681 5667 c2 -1 13 -9 24 -17 19 -14 19 -14 6 3 -7 9 -18 17 -24 17
-6 0 -8 -1 -6 -3z"/>
<path d="M4820 5667 c0 -2 14 -16 31 -33 22 -20 28 -23 19 -8 -11 18 -50 50
-50 41z"/>
<path d="M4886 5602 c-3 -5 1 -9 9 -9 8 0 12 4 9 9 -3 4 -7 8 -9 8 -2 0 -6 -4
-9 -8z"/>
<path d="M2179 5528 c-35 -33 -63 -64 -61 -69 1 -5 -2 -8 -6 -6 -8 2 -532
-518 -532 -528 0 -4 55 48 122 114 79 77 126 117 135 113 7 -4 92 -85 188
-180 97 -94 180 -172 184 -172 5 0 25 24 44 53 34 49 53 102 62 165 2 15 6 47
9 72 7 49 55 162 66 155 4 -2 13 7 21 22 7 14 27 35 44 47 27 19 50 57 26 42
-5 -4 -12 -2 -16 4 -3 5 0 10 7 10 10 0 9 3 -2 9 -8 6 -17 8 -21 5 -4 -2 -11
1 -15 7 -4 8 -3 9 4 5 7 -4 12 -2 12 3 0 6 -5 11 -11 11 -6 0 -20 11 -31 25
-11 14 -24 22 -30 19 -6 -4 -8 -2 -5 4 4 5 -6 21 -22 35 -17 14 -28 27 -25 30
3 3 -3 8 -14 11 -11 4 -23 13 -26 21 -2 7 -13 18 -24 24 -15 8 -29 -1 -83 -51z"/>
<path d="M4701 5542 c-28 -27 -51 -54 -51 -61 0 -7 -6 -9 -12 -6 -7 4 -3 -3
10 -14 13 -11 21 -25 17 -31 -4 -6 1 -7 11 -3 13 5 16 3 11 -10 -4 -10 -2 -16
6 -14 7 1 11 -3 10 -9 -1 -7 8 -20 20 -30 21 -19 21 -19 7 1 -15 19 -15 19 12
0 14 -11 26 -22 26 -25 -1 -20 4 -30 15 -30 15 0 47 -31 47 -45 0 -4 -8 -1
-17 6 -16 13 -17 12 -4 -4 8 -9 16 -15 19 -12 7 6 42 -25 42 -37 0 -5 -5 -6
-12 -2 -7 4 -8 3 -4 -5 4 -6 11 -9 17 -6 5 3 39 -35 75 -85 37 -49 71 -90 77
-90 5 0 4 -7 -3 -15 -21 -26 -4 -16 31 17 19 17 33 35 31 40 -1 4 3 8 9 8 12
0 63 53 80 83 8 15 -22 49 -198 222 -114 113 -211 205 -214 205 -4 0 -30 -22
-58 -48z"/>
<path d="M4900 5576 c0 -2 7 -7 16 -10 8 -3 12 -2 9 4 -6 10 -25 14 -25 6z"/>
<path d="M4935 5551 c-3 -5 -2 -12 3 -15 5 -3 9 1 9 9 0 17 -3 19 -12 6z"/>
<path d="M4993 5495 c0 -8 4 -12 8 -9 4 2 9 -2 12 -8 2 -7 7 -10 11 -7 3 3 -2
13 -12 22 -15 14 -19 15 -19 2z"/>
<path d="M5042 5444 c10 -10 20 -16 22 -13 3 3 -5 11 -17 18 -21 13 -21 12 -5
-5z"/>
<path d="M5070 5416 c0 -2 7 -9 15 -16 9 -7 15 -8 15 -2 0 5 -7 12 -15 16 -8
3 -15 4 -15 2z"/>
<path d="M5105 5380 c-4 -6 -1 -9 7 -8 7 2 12 -3 10 -10 -1 -8 2 -11 8 -7 8 5
7 11 -1 21 -14 17 -16 17 -24 4z"/>
<path d="M5150 5337 c8 -7 21 -19 29 -27 11 -13 12 -12 3 6 -7 12 -19 24 -29
28 -16 5 -16 4 -3 -7z"/>
<path d="M5196 5291 c-3 -5 1 -11 9 -14 9 -4 12 -1 8 9 -6 16 -10 17 -17 5z"/>
<path d="M5230 5262 c0 -12 14 -27 28 -29 17 -4 15 0 -8 20 -11 9 -20 13 -20
9z"/>
<path d="M5283 5210 c9 -6 15 -15 12 -20 -3 -4 2 -11 11 -14 15 -6 15 -4 2 16
-8 12 -21 24 -29 26 -8 2 -6 -2 4 -8z"/>
<path d="M5330 5164 c0 -9 97 -104 106 -104 6 0 -32 41 -77 85 -16 14 -29 23
-29 19z"/>
<path d="M5445 5038 c24 -13 55 -47 55 -60 0 -4 6 -7 13 -5 6 1 11 -5 9 -13
-2 -8 -1 -12 3 -9 8 9 70 -53 66 -66 -1 -5 1 -7 5 -3 4 4 18 -7 31 -24 12 -18
23 -28 23 -24 0 5 14 -7 32 -25 18 -19 31 -38 30 -42 -1 -5 1 -6 5 -4 11 7 33
-19 25 -29 -4 -4 -1 -4 5 0 8 4 17 -2 24 -18 7 -14 16 -23 21 -20 12 7 -335
354 -353 354 -9 0 -6 -5 6 -12z"/>
<path d="M5411 4944 c19 -22 36 -39 39 -37 2 2 -13 20 -35 41 l-39 37 35 -41z"/>
<path d="M5460 4896 c0 -2 8 -10 18 -17 15 -13 16 -12 3 4 -13 16 -21 21 -21
13z"/>
<path d="M1521 4874 c-7 -8 -11 -17 -9 -20 3 -2 13 5 23 16 10 11 14 20 9 20
-5 -1 -15 -8 -23 -16z"/>
<path d="M5518 4832 c15 -15 29 -26 31 -25 6 4 -41 53 -50 53 -4 0 4 -13 19
-28z"/>
<path d="M1474 4828 l-19 -23 23 19 c21 18 27 26 19 26 -2 0 -12 -10 -23 -22z"/>
<path d="M5560 4796 c0 -2 8 -10 18 -17 15 -13 16 -12 3 4 -13 16 -21 21 -21
13z"/>
<path d="M5592 4744 c-6 -10 -12 -15 -12 -11 0 4 -15 -7 -32 -25 -18 -18 -32
-36 -30 -40 1 -5 -1 -7 -5 -5 -5 1 -9 -2 -10 -7 -1 -4 -15 -17 -32 -27 -17
-10 -31 -22 -31 -25 0 -4 8 0 18 7 15 13 16 12 3 -3 -7 -10 -20 -18 -29 -18
-8 0 -13 -3 -9 -6 8 -8 -63 -80 -75 -76 -5 1 -7 -1 -4 -6 3 -5 -7 -21 -23 -36
l-28 -27 29 -122 c16 -67 31 -131 33 -142 2 -11 57 -73 120 -137 l116 -117
-22 -31 c-13 -16 -26 -30 -31 -30 -9 0 -139 -130 -129 -130 3 0 0 -4 -8 -9
-17 -11 -18 -16 -26 -136 -4 -49 -8 -92 -10 -95 -2 -3 -6 -33 -10 -65 -3 -33
-8 -67 -11 -75 -5 -20 226 -260 250 -260 9 0 19 7 22 15 4 8 10 13 14 10 5 -3
11 4 15 15 3 11 11 21 16 21 5 1 15 2 22 3 6 1 11 10 9 20 -3 14 1 17 13 12 9
-3 13 -2 10 4 -3 6 -2 10 3 10 5 0 12 9 15 20 3 13 11 18 20 14 8 -3 18 0 23
7 5 8 3 10 -7 5 -8 -4 -5 0 5 8 11 9 16 16 12 16 -5 0 -3 7 4 15 7 8 16 13 20
10 12 -8 41 25 34 37 -4 7 -2 8 4 4 6 -3 14 0 19 8 4 8 12 15 18 15 5 0 11 5
14 12 2 7 -2 9 -10 5 -8 -4 -5 -1 6 6 10 7 34 28 52 46 18 18 33 30 33 26 0
-3 9 4 19 17 l19 24 207 -207 206 -208 29 22 c16 12 27 25 24 29 -3 5 1 7 8 4
7 -3 22 8 33 24 11 17 21 28 23 26 6 -6 100 90 95 98 -2 4 -1 6 4 5 4 -2 40
30 79 70 39 39 70 72 69 72 -2 0 10 14 26 31 16 17 29 36 29 42 0 12 -59 67
-72 67 -4 0 -7 4 -6 8 4 10 -160 171 -167 164 -3 -3 -5 -1 -5 5 0 13 -149 163
-162 163 -14 0 -94 -81 -90 -92 1 -5 -2 -7 -7 -4 -12 8 -172 -154 -164 -167 3
-5 1 -7 -5 -3 -13 8 -44 -22 -36 -35 3 -5 0 -8 -8 -7 -7 2 -12 -3 -10 -10 1
-8 -2 -11 -7 -7 -12 7 -46 -29 -46 -48 0 -7 -6 -12 -13 -12 -7 0 -16 -4 -20
-10 -4 -5 -18 -19 -32 -30 l-25 -20 20 23 c19 22 19 25 3 36 -10 7 -16 15 -14
17 2 2 -6 13 -17 24 -11 11 -16 14 -12 6 5 -9 4 -12 -3 -7 -7 4 -12 13 -12 19
0 13 -40 52 -40 39 -1 -4 -8 5 -16 21 -8 15 -21 27 -28 27 -7 0 -20 8 -27 17
-12 14 -12 16 0 8 10 -5 12 -4 7 3 -4 7 -11 12 -17 12 -11 0 -52 40 -41 40 4
0 -4 6 -18 13 -14 8 -24 19 -23 25 2 7 -3 11 -10 9 -6 -1 -11 4 -10 10 2 7 -3
12 -10 10 -6 -1 -11 4 -9 11 1 8 -1 11 -6 8 -9 -5 -87 71 -81 79 2 3 96 97
208 210 l204 205 -24 27 c-51 56 -352 353 -358 353 -3 0 -14 12 -22 26 -16 25
-17 26 -27 8z"/>
<path d="M1344 4693 c-32 -31 -58 -61 -56 -65 1 -4 -4 -7 -10 -5 -7 1 -12 -4
-10 -11 1 -8 -1 -11 -6 -8 -10 6 -77 -62 -77 -78 0 -6 -7 -11 -15 -11 -8 -1
-14 -6 -13 -13 2 -7 0 -11 -5 -10 -4 2 -36 -26 -72 -61 -35 -36 -58 -61 -50
-57 8 5 3 -3 -12 -16 l-28 -25 90 -94 c50 -51 90 -94 90 -96 0 -7 64 -63 72
-63 5 0 7 -3 5 -7 -3 -5 10 -19 29 -33 18 -14 34 -31 34 -38 0 -7 5 -10 10 -7
6 3 10 -1 10 -9 0 -8 5 -18 12 -22 7 -5 8 -3 3 7 -8 12 -6 12 8 0 9 -7 14 -18
10 -24 -3 -6 -1 -7 5 -3 6 4 17 -2 23 -13 12 -18 15 -17 57 23 115 106 237
230 234 238 -1 5 2 7 7 4 5 -4 16 2 23 12 7 10 21 21 31 25 9 4 21 17 26 29 5
13 18 33 30 45 13 14 18 28 14 40 -8 22 -199 213 -213 213 -6 0 -10 7 -10 15
0 8 -3 15 -7 15 -14 1 -93 78 -93 91 0 7 -3 10 -6 6 -3 -3 -21 10 -40 29 -19
19 -36 34 -38 34 -1 0 -29 -26 -62 -57z"/>
<path d="M5806 4675 c3 -8 14 -17 25 -20 10 -4 18 -11 16 -18 -1 -6 5 -11 13
-12 8 0 15 -7 15 -15 1 -8 6 -14 12 -13 7 2 15 -6 18 -17 4 -11 10 -20 15 -20
5 0 29 -20 53 -45 25 -25 48 -45 53 -45 4 0 -42 50 -103 110 -62 61 -114 110
-117 110 -3 0 -3 -7 0 -15z"/>
<path d="M1928 4448 c-15 -15 -16 -18 -3 -18 9 0 18 7 22 15 8 23 0 24 -19 3z"/>
<path d="M6030 4456 c0 -2 7 -9 15 -16 9 -7 15 -8 15 -2 0 5 -7 12 -15 16 -8
3 -15 4 -15 2z"/>
<path d="M6070 4428 c0 -3 25 -32 55 -63 30 -32 55 -55 55 -51 0 4 -25 33 -55
64 -30 31 -55 54 -55 50z"/>
<path d="M1890 4410 c0 -6 -14 -24 -31 -41 -17 -17 -29 -33 -26 -36 3 -2 -9
-18 -26 -35 l-32 -30 33 26 c19 14 37 26 41 26 8 0 71 84 71 94 0 3 -7 6 -15
6 -8 0 -15 -5 -15 -10z"/>
<path d="M6190 4304 c0 -4 64 -72 143 -150 78 -78 147 -148 153 -156 6 -7 22
-22 35 -33 13 -11 45 -43 71 -71 26 -29 49 -49 52 -46 3 3 6 -2 6 -11 0 -8 9
-19 20 -22 11 -3 20 -10 20 -15 0 -5 11 -20 25 -34 14 -14 25 -22 25 -18 0 3
10 -7 23 -22 34 -44 67 -76 77 -76 6 0 10 -7 10 -16 0 -8 4 -13 8 -10 5 3 15
-6 22 -19 7 -14 17 -25 21 -25 4 0 25 -18 46 -41 l39 -41 -600 -600 c-331
-330 -614 -617 -631 -638 -16 -22 -34 -39 -38 -40 -13 0 -527 -513 -527 -525
0 -5 8 -1 16 10 8 11 20 19 25 17 5 -1 8 1 7 5 -4 10 44 58 57 58 6 1 9 6 8
12 -2 7 6 15 17 18 11 4 18 11 15 16 -4 5 -3 9 2 9 14 0 73 57 66 64 -3 3 1 6
10 6 8 0 19 9 22 21 4 11 9 18 12 15 7 -6 53 44 53 57 0 6 3 8 6 5 7 -8 62 45
57 55 -2 4 0 7 5 7 14 0 82 65 82 78 0 7 4 11 8 10 11 -4 342 329 335 336 -4
3 0 6 7 6 15 0 260 247 260 263 0 5 3 8 6 5 7 -7 434 419 434 433 0 6 3 9 8 7
9 -5 91 79 84 87 -3 3 2 5 11 5 8 0 19 9 22 20 4 12 11 17 18 14 7 -4 9 -4 6
0 -3 3 30 42 74 85 l81 79 -407 407 c-224 224 -407 404 -407 399z"/>
<path d="M781 4135 c-91 -91 -161 -165 -156 -165 4 0 79 71 167 159 135 136
169 173 156 171 -2 -1 -77 -75 -167 -165z"/>
<path d="M6190 4160 c0 -5 5 -10 11 -10 5 0 7 5 4 10 -3 6 -8 10 -11 10 -2 0
-4 -4 -4 -10z"/>
<path d="M6230 4126 c0 -2 8 -10 18 -17 15 -13 16 -12 3 4 -13 16 -21 21 -21
13z"/>
<path d="M6281 4067 c2 -1 13 -9 24 -17 19 -14 19 -14 6 3 -7 9 -18 17 -24 17
-6 0 -8 -1 -6 -3z"/>
<path d="M6321 4028 c2 -2 24 -21 49 -43 l45 -40 -40 43 c-21 23 -43 42 -49
42 -5 0 -7 -1 -5 -2z"/>
<path d="M479 3983 c-13 -16 -12 -17 4 -4 9 7 17 15 17 17 0 8 -8 3 -21 -13z"/>
<path d="M600 3950 c-9 -6 -10 -10 -3 -10 6 0 15 5 18 10 8 12 4 12 -15 0z"/>
<path d="M435 3910 c-4 -6 -11 -7 -17 -4 -7 4 -8 2 -4 -5 6 -9 11 -9 22 0 14
11 18 19 10 19 -3 0 -8 -5 -11 -10z"/>
<path d="M504 3855 c-33 -31 -57 -62 -56 -68 2 -7 1 -9 -3 -5 -9 9 -66 -42
-59 -54 3 -5 1 -7 -5 -6 -10 3 -101 -91 -101 -104 0 -5 -6 -8 -13 -8 -19 0
-49 -35 -40 -45 5 -4 3 -5 -3 -2 -14 8 -47 -26 -37 -38 5 -4 3 -5 -3 -2 -7 4
-17 1 -23 -6 -8 -10 14 -39 94 -123 58 -60 105 -112 105 -116 0 -5 7 -8 15 -8
8 0 15 -5 15 -10 0 -15 589 -606 601 -603 5 2 8 -3 6 -10 -1 -6 4 -11 10 -10
7 2 12 -3 10 -10 -1 -6 4 -11 10 -10 7 2 12 -3 10 -10 -1 -6 4 -11 11 -9 8 1
11 -1 8 -6 -6 -10 177 -192 193 -192 7 0 11 -3 9 -7 -2 -5 12 -24 31 -43 18
-19 31 -28 27 -20 -4 8 1 4 11 -9 10 -14 24 -30 31 -35 7 -6 29 -29 50 -51 78
-86 387 -394 395 -395 5 0 -4 15 -20 34 -15 19 -34 35 -40 35 -7 1 -13 6 -13
12 0 6 -72 82 -160 168 -141 139 -185 188 -149 166 14 -9 72 53 63 67 -4 7 -3
8 4 4 13 -8 159 133 154 148 -2 6 0 8 4 4 10 -11 174 161 174 182 0 12 -127
140 -139 140 -6 0 -11 6 -11 14 0 8 -5 18 -12 22 -7 5 -8 2 -3 -7 4 -8 -1 -5
-12 6 -11 11 -19 23 -16 28 2 4 0 7 -6 7 -16 0 -116 101 -113 114 2 6 1 8 -3
4 -7 -7 -95 69 -95 82 0 3 27 34 60 67 33 33 60 58 60 56 0 -6 107 104 147
150 18 22 33 36 33 33 0 -3 9 3 20 14 11 11 20 23 20 26 0 12 28 33 35 26 5
-4 5 -2 2 4 -4 6 4 21 18 34 20 19 22 25 10 36 -7 8 -18 14 -24 14 -6 0 -11 7
-11 15 0 9 -8 19 -17 22 -20 8 -43 28 -43 39 0 16 -135 156 -164 170 -17 8
-22 12 -11 9 13 -4 0 14 -34 49 -30 30 -58 53 -62 51 -4 -3 -12 1 -18 9 -16
19 -43 14 -52 -10 -4 -10 -8 -14 -8 -7 -1 6 -16 -3 -34 -20 -18 -18 -31 -35
-29 -39 2 -5 -5 -8 -14 -8 -10 0 -15 -3 -11 -6 3 -4 -31 -43 -76 -88 -45 -44
-81 -85 -79 -90 2 -4 -3 -6 -10 -3 -8 2 -24 -12 -37 -34 -15 -24 -28 -34 -32
-28 -4 8 -9 4 -13 -8 -4 -11 -16 -29 -27 -39 -19 -17 -21 -16 -95 59 -42 42
-80 77 -85 77 -6 0 -8 4 -5 8 3 5 -4 16 -15 25 -10 9 -19 15 -19 12 0 -3 -9 4
-20 15 -11 11 -20 25 -20 30 0 6 -5 10 -11 10 -6 0 -28 17 -48 38 -20 20 -58
56 -83 80 l-45 44 -59 -57z m991 -17 c22 -23 29 -34 15 -23 -26 21 -60 56 -60
62 0 8 8 1 45 -39z m157 -163 c6 -10 -10 3 -36 30 -25 27 -46 51 -46 54 0 9
71 -64 82 -84z m43 -45 c10 -11 16 -20 13 -20 -3 0 -13 9 -23 20 -10 11 -16
20 -13 20 3 0 13 -9 23 -20z m-497 -347 l202 -208 -135 -135 c-75 -74 -140
-142 -145 -150 -5 -8 -10 -12 -10 -8 0 4 -19 -14 -42 -40 -66 -72 -66 -72 -76
-72 -5 0 -37 29 -70 64 -33 36 -63 62 -66 59 -3 -4 -6 1 -6 11 0 9 -10 20 -22
25 -13 5 -43 31 -68 58 l-45 48 55 -50 55 -50 -55 58 c-30 31 -60 57 -68 57
-7 0 -10 5 -7 10 3 6 1 10 -5 10 -5 0 -34 24 -63 53 l-52 52 103 100 c56 55
105 102 110 104 15 10 47 56 44 66 -2 5 0 7 4 2 10 -9 45 23 38 35 -3 4 -2 7
3 6 4 -2 23 12 42 30 19 17 31 32 27 32 -10 0 28 38 39 39 6 1 101 -92 213
-206z m-97 -730 c13 -16 12 -17 -3 -4 -10 7 -18 15 -18 17 0 8 8 3 21 -13z"/>
<path d="M224 3720 c-182 -184 -206 -210 -129 -140 27 25 53 51 58 58 4 7 14
9 20 6 7 -4 9 -3 4 1 -10 11 33 56 46 48 6 -3 7 -1 4 4 -8 13 17 36 27 25 4
-4 6 0 4 8 -2 8 3 14 10 13 6 -2 11 3 10 10 -2 6 3 11 10 9 8 -1 11 2 8 7 -7
10 11 26 29 26 6 0 10 5 10 10 0 18 16 36 26 29 5 -3 8 0 7 8 -2 7 3 12 10 10
8 -1 11 2 8 7 -4 5 2 14 11 20 10 6 13 11 7 11 -6 0 -87 -77 -180 -170z"/>
<path d="M3045 3800 c-55 -14 -102 -28 -103 -33 -2 -4 -7 -5 -10 -3 -4 2 -13
-2 -20 -10 -7 -8 -9 -14 -5 -14 4 0 -3 -6 -17 -13 -14 -8 -24 -19 -23 -25 2
-7 -3 -11 -10 -9 -6 1 -11 -4 -9 -10 1 -7 -3 -13 -10 -13 -16 0 -68 -51 -68
-67 0 -7 -3 -12 -7 -11 -11 4 -53 -34 -53 -48 0 -14 -33 -44 -48 -44 -7 0 -12
6 -12 14 0 7 -8 20 -17 27 -14 12 -16 12 -8 0 6 -10 4 -12 -4 -7 -7 5 -10 11
-7 14 8 8 -15 33 -24 27 -5 -3 -12 0 -16 6 -5 8 -3 9 7 4 12 -8 12 -6 0 8 -7
9 -20 17 -29 17 -8 0 -13 3 -9 6 6 6 -32 40 -69 61 -19 10 -25 8 -50 -20 -16
-18 -28 -36 -26 -40 1 -5 -2 -6 -6 -3 -5 3 -18 -4 -28 -17 -19 -21 -19 -21 1
-7 11 8 5 -1 -12 -20 -18 -19 -58 -65 -89 -102 -50 -62 -84 -85 -84 -58 0 7
-6 7 -17 2 -10 -5 -27 -8 -38 -6 -11 2 -39 6 -61 9 -47 6 -135 35 -183 60 -65
33 -61 28 152 -195 27 -27 53 -50 59 -50 5 0 7 -4 3 -9 -3 -5 4 -12 15 -16 11
-3 20 -13 20 -21 0 -8 4 -14 8 -14 5 0 30 -20 57 -44 l48 -44 -66 -65 c-36
-36 -63 -68 -59 -72 4 -5 2 -5 -4 -2 -14 8 -47 -26 -37 -38 5 -4 3 -5 -3 -2
-12 7 -104 -84 -104 -102 0 -6 -6 -10 -12 -8 -7 1 -12 -4 -11 -10 2 -7 -1 -12
-5 -10 -5 1 -25 -15 -45 -35 -20 -21 -34 -38 -32 -38 3 0 -4 -9 -16 -21 l-21
-21 58 -60 c33 -33 125 -127 206 -209 l148 -149 -193 -192 c-106 -106 -199
-201 -206 -210 -12 -16 -9 -22 17 -47 17 -15 30 -30 29 -32 -2 -2 16 -23 38
-46 l42 -42 39 21 c51 27 102 39 111 25 10 -17 25 32 28 95 5 77 47 247 91
365 65 175 148 324 300 537 l34 49 -21 11 c-13 6 -25 18 -27 26 -4 11 -1 10
12 -3 27 -27 32 -20 6 8 -13 14 -29 25 -36 25 -7 0 -16 5 -20 12 -5 7 -3 8 7
3 12 -7 12 -6 1 7 -8 9 -20 14 -28 11 -10 -4 -12 0 -7 13 5 14 3 16 -11 11
-10 -4 -15 -3 -11 3 3 6 -1 13 -9 16 -9 3 -16 13 -16 21 0 8 -3 12 -7 10 -5
-3 -40 28 -78 68 l-71 72 37 34 c21 19 35 37 32 41 -2 5 1 8 7 8 13 0 134 120
122 121 -4 0 3 4 16 10 13 5 20 13 17 19 -3 5 0 10 8 10 7 0 23 11 35 25 12
14 20 25 17 25 -2 0 7 11 21 25 14 14 27 25 30 25 3 0 21 16 40 36 l34 37 49
-52 c27 -28 54 -51 60 -51 7 0 10 -4 7 -8 -3 -5 10 -21 29 -37 19 -15 32 -31
29 -36 -3 -5 0 -8 8 -7 7 2 12 -3 10 -10 -1 -8 1 -11 6 -8 10 6 59 -41 55 -52
-2 -4 3 -7 10 -7 6 -1 11 -5 10 -11 -1 -5 7 -10 17 -11 31 -3 282 338 334 454
l18 42 -28 28 c-15 15 -31 28 -35 28 -4 0 -11 4 -16 9 -5 5 -3 6 5 2 6 -4 12
-2 12 3 0 6 -4 11 -8 11 -12 0 -53 36 -48 41 12 11 -60 1 -149 -21z m-585
-124 c0 -2 -8 -10 -17 -17 -16 -13 -17 -12 -4 4 13 16 21 21 21 13z"/>
<path d="M115 3390 c10 -11 20 -20 23 -20 3 0 -3 9 -13 20 -10 11 -20 20 -23
20 -3 0 3 -9 13 -20z"/>
<path d="M210 3296 c138 -145 1343 -1347 1347 -1343 3 4 -1384 1393 -1405
1407 -4 2 22 -26 58 -64z"/>
<path d="M5795 3280 c-3 -5 -1 -10 4 -10 6 0 11 5 11 10 0 6 -2 10 -4 10 -3 0
-8 -4 -11 -10z"/>
<path d="M5575 3046 c-11 -13 -23 -22 -27 -20 -4 3 -12 -5 -18 -16 -6 -11 -16
-17 -22 -14 -6 4 -8 3 -5 -3 4 -5 -9 -22 -28 -38 -19 -15 -32 -32 -28 -38 3
-6 1 -7 -5 -3 -7 4 -12 2 -12 -3 0 -6 -4 -11 -10 -11 -13 0 -59 -48 -52 -54 3
-3 -3 -6 -13 -6 -10 0 -16 -2 -13 -6 3 -3 -38 -46 -91 -96 -96 -91 -119 -118
-104 -118 5 0 14 9 20 19 11 18 30 2 216 -185 112 -112 209 -204 214 -204 6 0
36 26 68 58 32 31 54 51 50 43 -5 -9 -4 -12 3 -7 7 4 12 13 12 20 0 7 15 25
33 42 l32 29 -30 -35 -30 -35 33 29 c17 17 32 35 32 42 0 6 8 18 18 25 16 13
16 12 3 -6 -8 -11 -1 -6 15 10 17 17 29 33 27 38 -2 4 1 7 8 7 6 0 29 19 52
41 22 23 35 39 29 35 -8 -5 -10 -1 -6 8 3 9 9 14 14 11 6 -4 37 25 53 52 8 12
-93 123 -112 123 -6 0 -10 4 -8 8 3 10 -69 82 -83 82 -6 0 -8 5 -5 10 3 6 2
10 -4 10 -5 0 -51 41 -103 90 -51 50 -95 90 -98 90 -3 0 -14 -11 -25 -24z"/>
<path d="M6235 2887 c-94 -94 -179 -183 -189 -197 -11 -14 0 -6 22 17 23 23
42 40 42 37 0 -3 56 53 125 123 69 70 140 143 158 160 17 18 28 33 22 33 -5 0
-87 -78 -180 -173z"/>
<path d="M5381 2034 c-106 -107 -189 -194 -184 -194 5 0 74 64 153 143 187
184 247 247 235 246 -6 0 -97 -88 -204 -195z"/>
<path d="M4931 1968 c-26 -101 -37 -158 -35 -178 0 -8 2 -23 2 -33 1 -11 24
-27 60 -44 67 -32 83 -34 100 -13 12 13 12 13 6 0 -5 -8 14 8 42 37 83 88 80
78 39 129 -20 24 -41 42 -46 38 -5 -3 -9 -2 -8 3 4 21 -3 32 -21 38 -11 4 -18
11 -15 16 4 5 -1 9 -10 9 -9 0 -13 5 -10 10 3 6 -1 10 -9 10 -8 0 -18 9 -21
21 -4 11 -9 18 -13 15 -3 -3 -13 1 -22 9 -16 14 -19 9 -39 -67z"/>
<path d="M1567 1944 c-2 -3 38 -48 89 -101 52 -53 96 -94 100 -91 3 4 -4 11
-15 18 -12 6 -18 16 -15 22 4 6 3 8 -4 4 -6 -3 -13 3 -17 14 -3 11 -13 20 -21
20 -8 0 -14 3 -14 8 0 10 -98 111 -103 106z"/>
<path d="M1767 1744 c-3 -5 19 -33 49 -61 30 -29 54 -48 54 -43 0 4 -15 21
-32 36 -18 15 -31 32 -30 38 2 6 0 7 -4 3 -4 -4 -13 2 -20 14 -6 12 -14 18
-17 13z"/>
<path d="M4870 1741 c0 -6 4 -13 10 -16 6 -3 7 1 4 9 -7 18 -14 21 -14 7z"/>
<path d="M5154 1668 c-19 -23 -19 -23 2 -5 11 9 24 14 29 10 4 -5 5 -2 1 5 -9
16 -10 16 -32 -10z"/>
</g>
</svg>
