<?xml version="1.0" standalone="no"?>
<!DOCTYPE svg PUBLIC "-//W3C//DTD SVG 20010904//EN"
 "http://www.w3.org/TR/2001/REC-SVG-20010904/DTD/svg10.dtd">
<svg version="1.0" xmlns="http://www.w3.org/2000/svg"
 width="700.000000pt" height="700.000000pt" viewBox="0 0 700.000000 700.000000"
 preserveAspectRatio="xMidYMid meet">
<metadata>
Created by potrace 1.14, written by Peter Selinger 2001-2017
</metadata>
<g transform="translate(0.000000,700.000000) scale(0.100000,-0.100000)"
fill="#000000" stroke="none">
<path d="M3465 6182 c-315 -31 -490 -374 -331 -647 33 -55 112 -128 175 -159
28 -15 51 -28 51 -31 0 -3 -16 -80 -35 -171 -19 -92 -38 -181 -41 -198 -2 -17
-9 -47 -14 -66 -5 -19 -11 -48 -14 -65 -3 -23 -62 -306 -141 -685 -2 -8 -22
-105 -44 -215 -23 -110 -44 -211 -47 -225 -3 -14 -8 -42 -11 -62 -10 -69 3
-97 -192 412 -49 129 -165 431 -256 670 -179 467 -188 490 -176 490 23 0 108
80 142 133 66 102 87 209 63 324 -70 338 -492 455 -729 202 -127 -135 -149
-332 -57 -502 47 -88 171 -181 267 -201 l31 -7 -2 -72 c-1 -40 -5 -214 -9
-387 -3 -173 -8 -400 -10 -505 -3 -104 -7 -307 -10 -449 -3 -143 -7 -261 -9
-263 -1 -2 -119 176 -262 394 -142 219 -322 496 -401 615 -78 119 -153 234
-167 256 l-24 39 32 34 c158 168 152 437 -15 599 -262 254 -715 72 -720 -291
-2 -129 30 -215 115 -307 65 -71 180 -128 269 -134 38 -2 38 -2 52 -78 3 -14
12 -56 20 -95 8 -38 17 -81 19 -95 2 -14 7 -36 10 -50 3 -14 8 -36 10 -50 2
-14 25 -126 50 -250 25 -124 47 -236 50 -250 2 -14 20 -104 40 -200 19 -96 37
-186 40 -200 2 -14 11 -59 20 -100 8 -41 17 -86 20 -100 3 -14 16 -80 30 -148
14 -67 28 -153 32 -189 12 -142 60 -229 207 -380 61 -61 128 -140 150 -175 22
-35 67 -103 100 -153 58 -87 59 -91 53 -140 -19 -157 -31 -196 -72 -234 -85
-81 -134 -189 -138 -311 -3 -64 -8 -83 -35 -126 -85 -136 -75 -293 26 -405 45
-50 87 -80 116 -83 35 -5 130 -17 157 -21 32 -5 126 -16 260 -30 30 -4 66 -8
80 -10 14 -2 66 -7 115 -10 50 -3 113 -7 140 -10 220 -21 635 -35 1065 -35
435 1 666 8 1055 35 50 4 106 8 125 10 19 2 71 6 115 10 44 3 94 8 110 10 101
13 125 16 170 21 28 3 61 7 75 9 14 2 45 7 70 10 25 3 54 8 65 10 11 2 26 4
33 4 26 2 119 102 147 158 25 49 29 70 29 138 1 67 -4 89 -28 140 -16 33 -35
68 -44 78 -10 11 -16 40 -17 80 -4 144 -50 246 -157 349 -16 14 -28 37 -29 50
0 12 -2 30 -4 38 -13 58 -25 127 -25 150 0 17 24 65 63 123 34 52 77 120 95
149 18 30 84 106 146 169 151 153 194 230 211 384 9 82 10 86 35 205 12 58 24
116 26 130 3 14 16 77 29 140 13 63 27 135 30 160 4 24 8 48 11 51 2 4 6 24
10 45 3 22 12 71 21 109 8 39 17 81 19 95 10 48 75 375 79 395 12 54 15 73 21
110 3 22 8 43 10 46 2 4 6 24 9 45 4 22 8 47 11 56 3 10 7 30 10 45 2 16 9 51
15 78 5 28 12 59 14 70 3 14 13 21 32 23 108 8 204 54 277 132 126 137 154
310 77 476 -100 215 -360 304 -578 197 -68 -33 -151 -115 -186 -185 -33 -65
-38 -83 -44 -171 -8 -110 26 -211 102 -302 l42 -50 -36 -56 c-20 -30 -70 -106
-111 -169 -41 -63 -77 -119 -80 -125 -3 -5 -48 -75 -101 -155 -53 -80 -126
-191 -162 -247 -36 -56 -122 -186 -189 -290 -68 -103 -134 -205 -147 -226 -13
-21 -25 -37 -27 -35 -3 4 -10 261 -29 1218 -4 179 -8 354 -9 389 l-1 63 61 23
c110 41 185 103 237 195 152 268 -25 608 -330 634 -340 30 -576 -327 -415
-628 24 -45 124 -156 141 -156 31 -1 29 -20 -9 -121 -22 -57 -63 -165 -91
-239 -28 -74 -54 -144 -60 -155 -21 -48 -419 -1097 -419 -1107 0 -38 -22 32
-36 112 -3 19 -12 62 -19 95 -8 33 -16 71 -19 85 -2 14 -18 90 -34 170 -17 80
-33 158 -36 175 -7 41 -72 349 -97 460 -23 104 -27 125 -35 179 -3 22 -7 43
-9 47 -3 4 -85 396 -85 405 0 1 24 14 53 28 73 37 148 110 185 183 109 213 20
481 -193 583 -59 28 -162 48 -220 42z"/>
</g>
</svg>
