<?xml version="1.0" encoding="UTF-8" standalone="no"?>

<svg width="103.49165mm"
		 height="25.36751mm"
		 preserveAspectRatio="none"
		 viewBox="0 0 103.49165 25.36751"
		 version="1.1"
		 id="chess-pieces"
		 xml:space="preserve"
		 xmlns:xlink="http://www.w3.org/1999/xlink"
		 xmlns="http://www.w3.org/2000/svg"
		 xmlns:svg="http://www.w3.org/2000/svg">
	<g id="g-id"
		 transform="translate(-12.445513,-105.60459)">
		<path style="fill:#fff; fill-opacity:0.9;"
					d="m 32.961367,130.43337 c 0,-0.30979 -0.407541,-1.01435 -0.905646,-1.56569 -0.820607,-0.90831 -1.434813,-2.40476 -1.867611,-4.55025 -0.08056,-0.39933 -0.293198,-0.69698 -0.472541,-0.66145 -0.558573,0.11065 -0.363238,-2.22635 0.290998,-3.48154 0.32453,-0.62262 1.307902,-1.96609 2.185273,-2.98549 l 1.59522,-1.85346 -0.18093,-2.07414 c -0.231885,-2.65829 -0.03712,-3.6292 1.013809,-5.05381 0.468911,-0.63565 0.853106,-1.45079 0.853768,-1.81143 0.0013,-0.72622 0.54565,-0.95264 1.633685,-0.67956 0.456651,0.11461 0.615966,0.29351 0.509188,0.57177 -0.08547,0.22273 -0.03315,0.63338 0.116267,0.91257 0.199533,0.37283 0.162354,0.71899 -0.140036,1.30375 -0.4839,0.93576 -0.285561,1.04252 0.389049,0.20941 0.393774,-0.48629 0.544065,-0.5295 0.877935,-0.25242 1.19689,0.99333 1.573456,3.44794 0.818435,5.33492 l -0.426886,1.06689 1.500301,2.23169 c 2.064036,3.07023 3.08347,6.11891 2.223752,6.65025 -0.167598,0.10358 -0.464024,-0.0295 -0.658726,-0.2958 -0.443751,-0.60687 -0.441097,-0.61079 -0.988515,1.46162 -0.249851,0.94588 -0.724577,2.38362 -1.054944,3.19498 -0.45195,1.10996 -0.536829,1.61827 -0.342818,2.05306 0.360921,0.80885 0.03394,1.00731 -0.959855,0.58255 -1.340152,-0.57279 -4.056287,-0.66583 -4.820466,-0.16513 -0.865716,0.56724 -1.188706,0.52831 -1.188706,-0.14329 z m 6.515518,-0.32461 c -0.09451,-0.37656 0.147365,-1.45569 0.611079,-2.72629 1.912006,-5.23902 1.879161,-7.78176 -0.138665,-10.73495 l -1.247958,-1.82645 0.437303,-0.91704 c 0.24052,-0.50437 0.437306,-1.51422 0.437306,-2.24412 0,-1.2744 -0.572023,-2.8883 -1.023718,-2.8883 -0.119009,0 -0.621966,0.59508 -1.117685,1.32241 -0.862572,1.26557 -1.29818,1.62263 -1.29818,1.06408 0,-0.14264 0.323813,-1.04784 0.719584,-2.01157 0.710452,-1.72998 0.71297,-1.75713 0.198438,-2.13918 -0.481921,-0.35784 -0.60282,-0.2974 -1.606222,0.80301 -0.642202,0.70429 -1.223306,1.6837 -1.423754,2.39963 -0.316824,1.13158 -0.295438,1.7618 0.140377,4.13678 0.155398,0.84685 0.05618,1.08034 -0.955692,2.24896 -1.364312,1.57567 -1.959175,2.86563 -2.365607,5.12986 -0.505517,2.81622 0.2119,5.58889 1.89659,7.32993 0.505489,0.5224 0.732717,0.96199 0.604501,1.16944 -0.153411,0.24823 -0.07719,0.2736 0.300985,0.10017 0.278534,-0.12773 1.399394,-0.27397 2.4908,-0.32498 1.483407,-0.0693 2.117966,0.009 2.513542,0.31116 0.75439,0.57579 1.006811,0.51397 0.826976,-0.20255 z m -3.205559,-16.31438 c 0.0914,-0.14789 0.277024,-0.2004 0.41249,-0.11668 0.366989,0.22681 0.298559,0.38558 -0.166189,0.38558 -0.226869,0 -0.337705,-0.12101 -0.246301,-0.2689 z m 6.433063,8.07074 c -0.31936,-1.53925 -0.747188,-2.16874 -0.747188,-1.09938 0,0.7433 0.714015,2.72589 0.91083,2.52907 0.06057,-0.0606 -0.01307,-0.70393 -0.163642,-1.42969 z m -12.424294,-0.36689 c 0.162418,-0.72287 0.164232,-1.055 0.0049,-0.89566 -0.269428,0.26943 -0.68152,2.42154 -0.418277,2.18441 0.08538,-0.0769 0.271407,-0.65685 0.413385,-1.28875 z m 6.782314,-15.37245 c -0.08994,-0.14552 -0.454151,-0.26459 -0.809365,-0.26459 -0.355214,0 -0.645844,0.11907 -0.645844,0.26459 0,0.14552 0.364215,0.26458 0.809365,0.26458 0.472202,0 0.741246,-0.11022 0.645844,-0.26458 z m 32.410851,24.56215 c 2.65e-4,-0.097 0.125254,-0.21794 0.277601,-0.26872 0.17816,-0.0594 0.126672,-0.45209 -0.144306,-1.10064 -0.618556,-1.48041 -0.518573,-6.72635 0.158295,-8.30542 0.271999,-0.63454 0.466627,-1.23746 0.432509,-1.33982 -0.03412,-0.10235 0.443984,-0.69211 1.062448,-1.31057 1.180822,-1.18082 1.388864,-1.65365 0.727604,-1.65365 -0.389919,0 -0.586386,-0.78988 -0.198438,-0.7978 0.109141,-0.002 0.355608,-0.10371 0.547709,-0.22551 0.274828,-0.17426 0.208095,-0.42949 -0.313103,-1.19752 -0.806325,-1.18819 -1.560679,-3.37246 -1.444442,-4.18248 0.07209,-0.50238 0.328864,-0.637 1.65195,-0.86607 1.794941,-0.31078 2.314218,-0.87975 0.758878,-0.83151 -0.94447,0.0293 -1.002554,-0.0149 -1.002554,-0.76265 0,-0.70906 0.08057,-0.78803 0.755179,-0.74016 0.626748,0.0445 0.732515,-0.0331 0.621914,-0.45603 -0.105754,-0.40439 0.04,-0.54211 0.705985,-0.66705 0.461587,-0.0866 1.372351,-0.11951 2.02392,-0.0731 1.026281,0.073 1.174609,0.15794 1.109429,0.63512 -0.06406,0.46897 0.03846,0.53414 0.689896,0.43852 0.814612,-0.11955 1.225055,0.37466 0.936234,1.12732 -0.253358,0.66024 -0.560637,0.44484 -0.419399,-0.294 0.129349,-0.67665 0.109526,-0.68706 -0.962732,-0.50591 -1.035794,0.175 -1.493287,-0.1132 -0.830218,-0.523 0.631807,-0.39048 0.162105,-0.66146 -1.146527,-0.66146 -1.651182,0 -1.927069,0.17489 -1.325118,0.84004 0.585672,0.64716 0.404818,0.76265 -0.776927,0.49612 -0.922595,-0.20808 -0.984761,-0.18242 -0.984761,0.40643 0,0.59611 0.06483,0.6202 1.256771,0.46701 0.999675,-0.12849 1.193345,-0.0938 0.946716,0.16959 -0.170529,0.18212 -0.247086,0.49521 -0.17013,0.69576 0.09863,0.25701 -0.08318,0.36549 -0.615987,0.36754 -0.415753,0.002 -1.202396,0.0767 -1.748099,0.16691 -0.914035,0.15108 -0.992188,0.2331 -0.992188,1.04119 0,0.50613 0.44768,1.74231 1.058334,2.92236 0.582083,1.12485 1.058333,2.08376 1.058333,2.13091 0,0.0472 -0.231098,0.0857 -0.513551,0.0857 -0.282453,0 -0.587137,0.11906 -0.677074,0.26459 -0.08994,0.14552 0.08163,0.26458 0.381259,0.26458 0.29963,0 0.544783,0.0733 0.544783,0.16285 0,0.0896 -0.517271,0.95278 -1.149493,1.91823 -1.774564,2.70992 -2.083084,3.72214 -2.115159,6.93962 -0.02199,2.20659 0.07652,3.03465 0.463008,3.89173 l 0.49095,1.08873 1.88295,0.0803 1.882952,0.0803 -2.448005,0.12898 c -1.346401,0.0709 -2.447729,0.0496 -2.447396,-0.0474 z m 7.012068,-0.39336 c 0.436562,-0.0515 1.410187,-0.16018 2.163612,-0.24158 1.35332,-0.1462 1.374883,-0.16273 1.785937,-1.36911 0.805971,-2.3654 0.491623,-4.81503 -1.138602,-8.8728 -0.454616,-1.13158 -0.822786,-2.3222 -0.818158,-2.64583 0.01064,-0.74348 0.666779,-1.65577 0.908997,-1.26385 0.09595,0.15525 -0.01167,0.35371 -0.239183,0.44101 -0.227505,0.0873 -0.413645,0.44906 -0.413645,0.80391 0,0.63949 0.505791,1.22349 2.117,2.44435 1.020035,0.77291 1.465813,1.78643 1.021297,2.32204 -0.171963,0.20721 -0.472178,0.31552 -0.667144,0.2407 -0.426228,-0.16355 -0.42586,-0.17492 -0.07539,2.34485 0.227499,1.63565 0.202912,2.30396 -0.132998,3.61514 -0.22665,0.8847 -0.355243,1.70052 -0.285766,1.81294 0.152617,0.24694 -2.179148,0.55091 -3.829079,0.49916 -0.801743,-0.0251 -0.931371,-0.0679 -0.396875,-0.13093 z m 5.159375,-8.9756 c 0,-0.6766 -1.456862,-2.44744 -1.762255,-2.14205 -0.217352,0.21735 0.369263,1.77872 0.880526,2.34366 0.601469,0.66461 0.881729,0.60053 0.881729,-0.20161 z m -30.731935,8.15755 -2.818395,-0.0848 0.119663,-1.64495 c 0.202896,-2.78914 0.35646,-3.34487 1.185037,-4.28857 0.44065,-0.50187 0.738378,-1.01412 0.661614,-1.13833 -0.07677,-0.12421 0.442879,-0.37511 1.154764,-0.55756 1.470996,-0.377 2.178907,-0.96335 1.405279,-1.16395 -0.328554,-0.0852 -0.263329,-0.13326 0.209526,-0.1544 0.816957,-0.0365 1.478502,-0.70395 1.603915,-1.61819 0.07775,-0.56678 -0.103936,-0.75614 -1.269357,-1.32292 -1.84906,-0.89925 -2.171235,-1.21883 -2.360748,-2.34169 -0.08963,-0.53108 -0.39044,-1.80663 -0.668459,-2.83456 -0.664239,-2.45591 -0.655042,-2.59157 0.161779,-2.38656 0.47229,0.11854 0.713563,0.0468 0.825702,-0.24539 0.142808,-0.37216 0.222773,-0.37071 0.810895,0.0146 0.358857,0.23513 0.721508,0.35847 0.805897,0.27408 0.08439,-0.0844 0.01452,-0.15344 -0.155247,-0.15344 -0.440278,0 -0.381752,-0.66831 0.09303,-1.06234 0.560364,-0.46506 2.468446,-0.79599 3.525496,-0.61145 0.583851,0.10193 1.036871,0.40498 1.332778,0.89155 0.447784,0.73633 0.448998,0.73659 1.099876,0.23641 0.835787,-0.64227 0.954672,-0.63518 1.138547,0.0679 0.148315,0.56717 0.164168,0.56926 0.692317,0.0913 l 0.540525,-0.48917 -0.0016,2.88528 c -0.0019,3.6878 -0.267356,4.66378 -1.459968,5.36744 -0.505894,0.29848 -0.919361,0.63601 -0.918816,0.75006 0.0031,0.65536 1.210212,2.01912 2.185474,2.46915 0.616456,0.28445 0.852938,0.44944 0.525516,0.36664 -0.818909,-0.20709 -0.747329,0.2722 0.132292,0.88582 0.682111,0.47583 3.03163,1.38054 3.585257,1.38054 0.524431,0 -0.38227,-0.72116 -1.657852,-1.31862 -0.731806,-0.34275 -1.283571,-0.67018 -1.226148,-0.7276 0.169328,-0.16933 3.729273,1.69881 4.108868,2.1562 0.457367,0.55109 0.02887,0.55734 -1.725367,0.0252 -1.942827,-0.58938 -2.052084,-0.52708 -1.236429,0.70503 0.618535,0.93435 0.745484,1.43806 0.822925,3.26518 l 0.09157,2.16039 -3.398859,0.17334 c -1.869371,0.0953 -4.232296,0.14854 -5.250942,0.11822 -1.018646,-0.0303 -3.120361,-0.0933 -4.670476,-0.13991 z m 12.53126,-0.91329 c 0.130032,-0.18961 0.182859,-1.02003 0.117393,-1.84537 -0.136258,-1.71782 -0.755288,-2.76079 -3.315055,-5.5854 -1.385451,-1.52879 -2.414164,-3.01055 -2.414164,-3.47737 0,-0.0763 0.345908,-0.31752 0.768683,-0.53614 1.509083,-0.78038 1.612567,-1.02862 1.612567,-3.86832 0,-2.11866 -0.07424,-2.62693 -0.383728,-2.62693 -0.21105,0 -0.498946,-0.20589 -0.639765,-0.45752 -0.242671,-0.43363 -0.28243,-0.43363 -0.761585,0 -0.596225,0.53958 -1.03782,0.58653 -1.192557,0.12679 -0.08747,-0.2599 -0.202805,-0.25522 -0.538517,0.0219 -0.234963,0.19392 -0.656944,0.27967 -0.937736,0.19055 -0.339823,-0.10786 -0.56755,-0.0135 -0.681059,0.28236 -0.151698,0.39532 -0.24281,0.37649 -0.825084,-0.17053 -0.525188,-0.49339 -0.654553,-0.53046 -0.654553,-0.18754 0,0.61173 -0.431332,0.79417 -1.069779,0.45248 -0.397603,-0.21279 -0.648237,-0.21493 -0.897972,-0.008 -0.190537,0.15813 -0.540113,0.21319 -0.776838,0.12235 -0.514125,-0.19729 -0.517184,-0.17185 -0.11725,0.9754 0.172241,0.49409 0.441047,1.61318 0.597349,2.48688 0.27526,1.53863 0.325689,1.61121 1.605069,2.30997 0.726482,0.39678 1.529239,0.7242 1.7839,0.7276 0.345533,0.005 0.463021,0.22622 0.463021,0.87335 0,1.1732 -0.527576,1.84585 -2.46284,3.14005 -2.18875,1.46373 -2.786591,2.02771 -3.383743,3.19214 -0.507672,0.98994 -0.679029,3.22726 -0.293613,3.83357 0.272605,0.42884 2.879754,0.56119 9.026335,0.45822 3.843565,-0.0644 5.194559,-0.17274 5.371521,-0.43078 z m -8.786827,-12.41197 c 0,-0.17516 0.248772,-0.23083 0.617742,-0.13822 0.561975,0.14104 1.188532,0.0271 2.68955,-0.48914 0.461918,-0.15887 0.449787,-0.11193 -0.09546,0.36932 -0.687874,0.60714 -3.211836,0.80991 -3.211836,0.25804 z m -0.132291,-1.29423 c -0.08994,-0.14552 -0.03743,-0.26458 0.116676,-0.26458 0.154109,0 0.280199,0.11906 0.280199,0.26458 0,0.14552 -0.0525,0.26458 -0.116676,0.26458 -0.06417,0 -0.190262,-0.11906 -0.280199,-0.26458 z m 2.116667,-0.26458 c -0.08994,-0.14553 -0.03743,-0.26459 0.116675,-0.26459 0.15411,0 0.2802,0.11906 0.2802,0.26459 0,0.14552 -0.0525,0.26458 -0.116676,0.26458 -0.06417,0 -0.190262,-0.11906 -0.280199,-0.26458 z m -1.452502,-4.89806 c 0.258802,-0.31184 0.414851,-0.33145 0.707136,-0.0889 0.292462,0.24272 0.46641,0.2199 0.78995,-0.10364 0.228198,-0.2282 0.334259,-0.54539 0.235691,-0.70488 -0.227279,-0.36774 -2.925379,-0.37978 -3.604961,-0.0161 -0.709335,0.37963 -0.640146,0.78444 0.13407,0.78444 0.355213,0 0.719428,0.11906 0.809365,0.26458 0.231262,0.37419 0.543526,0.32862 0.928749,-0.13555 z m 32.079117,19.4237 c -0.680138,-0.16277 -1.240663,-0.48798 -1.420609,-0.82421 -0.431099,-0.80552 -0.08008,-3.18214 0.696267,-4.71419 0.807842,-1.59421 0.851527,-2.53988 0.127937,-2.76954 -0.570368,-0.18102 -0.688586,-0.5317 -0.267071,-0.79221 0.155665,-0.0962 0.04525,-0.45529 -0.271904,-0.88426 -1.729473,-2.33924 0.101634,-5.33153 3.264093,-5.334 2.872772,-0.002 4.729544,2.34283 3.736608,4.71926 -0.346427,0.82911 -0.339379,0.96744 0.07247,1.42253 0.393259,0.43455 0.4029,0.53784 0.06986,0.74849 -0.212495,0.13441 -0.475652,0.24621 -0.584793,0.24843 -0.41901,0.009 -0.166338,1.04805 0.607015,2.49728 0.704675,1.32053 0.795713,1.73041 0.727604,3.27588 -0.0715,1.62251 -0.135908,1.79424 -0.790146,2.10684 -0.950122,0.45398 -4.564251,0.63549 -5.967339,0.2997 z m 5.555158,-0.52723 0.992187,-0.26048 v -1.54006 c 0,-1.20423 -0.17308,-1.8644 -0.79375,-3.02751 -0.896747,-1.68046 -1.074076,-3.34953 -0.355867,-3.34953 0.399695,0 0.401471,-0.0404 0.02037,-0.46302 -0.362757,-0.4023 -0.369366,-0.54977 -0.05038,-1.12448 1.102667,-1.98666 -0.246891,-4.42549 -2.595383,-4.69019 -1.50286,-0.1694 -2.613422,0.244 -3.506383,1.30522 -0.885404,1.05225 -0.887912,2.53971 -0.0061,3.58774 0.456952,0.54305 0.566934,0.85566 0.370242,1.05235 -0.196691,0.1967 -0.107386,0.33454 0.300625,0.46404 0.505264,0.16036 0.557252,0.3078 0.401421,1.13845 -0.09846,0.52483 -0.41651,1.41976 -0.706782,1.98874 -0.647665,1.26953 -1.033229,3.53938 -0.734621,4.32478 0.403331,1.06084 3.749869,1.35909 6.664379,0.59395 z m -2.905382,-9.15468 c 0.257431,-0.0671 0.614619,-0.0627 0.79375,0.01 0.179131,0.0725 -0.03149,0.12736 -0.468056,0.12197 -0.436563,-0.005 -0.583126,-0.0647 -0.325694,-0.13177 z m 8.488172,8.81607 c -1.299477,-0.59687 -1.383117,-0.97604 -0.843727,-3.825 0.719188,-3.79862 3.304877,-9.08441 5.240717,-10.71331 0.6733,-0.56655 0.80199,-0.86515 0.80199,-1.8609 0,-2.01913 0.55493,-2.68571 1.08192,-1.2996 l 0.27508,0.7235 0.46622,-1.05423 c 0.42866,-0.96926 0.48878,-1.01158 0.74599,-0.52506 0.15387,0.29104 0.36483,1.04259 0.46881,1.6701 0.20083,1.21202 0.76326,1.6372 2.1657,1.6372 1.08223,0 5.45646,1.56914 6.13151,2.19952 0.98561,0.92038 1.18362,1.45822 0.8412,2.28488 -0.56963,1.37522 -2.78687,2.41698 -5.80703,2.72842 l -0.90664,0.0935 0.0651,3.02757 c 0.0358,1.66517 0.0866,3.2508 0.11289,3.52362 0.0738,0.76525 -2.71881,1.44153 -6.69906,1.62233 -2.575827,0.11701 -3.491606,0.0656 -4.14065,-0.23253 z m 8.87914,-0.86155 1.43121,-0.49513 0.10062,-1.5875 c 0.0553,-0.87312 -5.3e-4,-2.31024 -0.12414,-3.19359 -0.27437,-1.96057 -0.19735,-2.23037 0.63666,-2.23037 0.35933,0 1.48958,-0.1902 2.51166,-0.42267 1.96442,-0.44679 3.67008,-1.59252 3.67008,-2.46526 0,-0.73683 -0.93813,-1.52699 -2.5121,-2.11589 -1.89708,-0.70979 -2.00188,-0.69887 -1.8241,0.19 0.18727,0.93636 -0.4721,1.62061 -1.07751,1.11816 -0.64254,-0.53326 -0.75867,-1.32595 -0.2729,-1.86272 0.42716,-0.472 0.40239,-0.50053 -0.57146,-0.65837 -2.91207,-0.47197 -2.84988,-0.43479 -3.04834,-1.82223 -0.2467,-1.72465 -0.40205,-1.77791 -0.7822,-0.26821 l -0.32285,1.28217 -0.41667,-1.18384 -0.41666,-1.18385 -0.13229,1.37596 c -0.11665,1.21323 -0.26153,1.48625 -1.22498,2.30851 -1.8301,1.56189 -4.365216,6.91475 -5.011344,10.58139 -0.552681,3.13634 -0.211897,3.37293 4.648824,3.22752 2.33018,-0.0697 3.73013,-0.24523 4.73849,-0.59408 z m 1.76154,-9.85914 c -0.0802,-0.12973 0.26998,-0.28442 0.77813,-0.34375 0.95105,-0.11103 1.24709,0.13443 0.50541,0.41904 -0.59661,0.22894 -1.11429,0.19857 -1.28354,-0.0753 z m -3.82001,-1.37655 -0.59476,-0.5541 0.96508,-0.51726 c 0.75235,-0.40323 1.04743,-0.44892 1.33862,-0.20725 0.59829,0.49653 0.4446,1.28963 -0.30514,1.57468 -0.84868,0.32266 -0.70777,0.35238 -1.4038,-0.29607 z m 0.75956,-0.38756 c 0,-0.22687 -0.11906,-0.3389 -0.26458,-0.24896 -0.14552,0.0899 -0.26459,0.27556 -0.26459,0.41249 0,0.13693 0.11907,0.24897 0.26459,0.24897 0.14552,0 0.26458,-0.18563 0.26458,-0.4125 z m 1.05833,-0.11667 c 0,-0.14552 -0.11906,-0.26458 -0.26458,-0.26458 -0.14552,0 -0.26458,0.11906 -0.26458,0.26458 0,0.14552 0.11906,0.26458 0.26458,0.26458 0.14552,0 0.26458,-0.11906 0.26458,-0.26458 z m 3.23622,-0.41541 c -0.089,-0.46552 -0.21575,-0.59423 -0.40189,-0.40809 -0.18614,0.18615 -0.16508,0.40061 0.0668,0.67999 0.45431,0.54742 0.4867,0.52114 0.3351,-0.2719 z m -95.195725,12.13797 c -1.814394,-4.21841 -2.553624,-7.90426 -2.603002,-12.97875 l -0.03668,-3.76974 0.91701,-0.17203 c 0.745306,-0.13982 0.984149,-0.0709 1.275577,0.368 0.483224,0.72777 1.389934,0.49275 1.389934,-0.36028 0,-0.58831 0.09801,-0.6306 1.461757,-0.6306 1.325398,0 1.485812,0.0633 1.719622,0.67824 0.214954,0.56537 0.400984,0.66444 1.11793,0.59531 0.665402,-0.0641 0.879592,-0.22063 0.946335,-0.69136 0.07907,-0.55765 0.200546,-0.60183 1.455209,-0.52917 l 1.368939,0.0793 0.330478,3.43958 c 0.410519,4.27266 0.720582,12.29816 0.507879,13.14564 -0.151917,0.60528 -0.330491,0.65077 -4.334859,1.1042 -2.297028,0.2601 -4.380403,0.53045 -4.629723,0.60076 -0.328601,0.0927 -0.572455,-0.14916 -0.886404,-0.87908 z m 4.911588,-0.24189 c 2.771179,-0.31314 3.928293,-0.54868 4.167187,-0.84828 0.452024,-0.5669 0.422235,-4.55844 -0.06849,-9.17718 -0.216455,-2.03729 -0.393774,-4.38878 -0.394042,-5.22552 l -4.88e-4,-1.52136 h -0.863301 c -0.641501,0 -0.930404,0.15295 -1.124479,0.59531 -0.209192,0.47682 -0.511149,0.61136 -1.517033,0.67592 -1.132717,0.0727 -1.286639,0.013 -1.569815,-0.60846 -0.253865,-0.55717 -0.468863,-0.67389 -1.123229,-0.60977 -0.564041,0.0553 -0.839243,0.23964 -0.908188,0.60846 -0.126047,0.67428 -0.508029,0.91691 -1.451538,0.92199 -0.531873,0.003 -0.79293,-0.15103 -0.890754,-0.52511 -0.08052,-0.3079 -0.360896,-0.52917 -0.670529,-0.52917 -0.517609,0 -0.528272,0.12108 -0.390273,4.43177 0.102415,3.19911 0.292587,5.03009 0.683727,6.58289 0.578213,2.29548 1.832396,5.65149 2.114485,5.65805 0.09367,0.002 1.896708,-0.19111 4.006761,-0.42954 z m 0.286631,-9.72578 c 0.06063,-0.0535 0.586494,-0.16971 1.168577,-0.25834 0.737605,-0.11231 0.897969,-0.0885 0.529167,0.0786 -0.507924,0.23012 -1.925068,0.38016 -1.697744,0.17975 z m -6.19566,-0.87295 c -0.363189,-0.36319 -0.156549,-1.13041 0.41165,-1.5284 1.140255,-0.79866 3.116128,-0.3093 3.116128,0.77177 0,0.64271 -2.998572,1.28584 -3.527778,0.75663 z m 2.255177,-0.2267 c 0.07618,-0.0762 0.08214,-0.43337 0.01325,-0.79375 -0.08865,-0.46377 -0.29755,-0.65524 -0.714864,-0.65524 -0.682174,0 -1.599451,0.89192 -1.343383,1.30624 0.176065,0.28488 1.79019,0.39755 2.044994,0.14275 z m 4.091734,-0.0808 c -0.240836,-0.26612 -0.437882,-0.61481 -0.437882,-0.77485 0,-0.35412 0.737414,-1.12255 1.077232,-1.12255 0.135126,0 0.0076,0.23813 -0.283482,0.52917 -0.291042,0.29104 -0.529167,0.64404 -0.529167,0.78444 0,0.41356 1.035045,0.84611 1.597494,0.66759 0.672629,-0.21348 0.711726,-1.57817 0.05615,-1.96001 -0.418513,-0.24376 -0.408614,-0.27045 0.10298,-0.27773 0.836375,-0.0119 1.75424,0.82125 1.534793,1.39312 -0.207334,0.54031 -1.44041,1.24467 -2.17894,1.24467 -0.275714,0 -0.698345,-0.21773 -0.93918,-0.48385 z m 25.091188,7.09322 c -0.240075,-0.38845 5.112261,-2.65922 6.196206,-2.62878 0.231881,0.007 -0.411837,0.28325 -1.430483,0.61498 -1.018646,0.33173 -2.209271,0.80654 -2.645833,1.05513 l -0.79375,0.45199 0.926041,-0.13782 c 1.100347,-0.16375 0.850408,-0.022 -0.860224,0.48797 -0.691404,0.20611 -1.317784,0.27655 -1.391957,0.15653 z m 3.525489,-0.96927 c 0.190994,-0.0764 0.419198,-0.067 0.507119,0.0209 0.08792,0.0879 -0.06835,0.15045 -0.347266,0.13897 -0.308226,-0.0127 -0.370919,-0.0754 -0.159853,-0.15985 z m 18.965855,-0.0862 c -0.271758,-0.43971 0.08942,-1.18067 0.975659,-2.00156 l 0.835817,-0.77419 -0.586595,0.85189 c -0.32263,0.46854 -0.700117,0.92205 -0.838861,1.00781 -0.423839,0.26194 -0.29558,0.99166 0.14461,0.82274 0.218282,-0.0838 0.396875,-0.037 0.396875,0.10398 0,0.33848 -0.716819,0.33023 -0.927505,-0.0107 z M 78.20512,115.5508 c 0,-0.055 0.178593,-0.52741 0.396875,-1.04984 0.218281,-0.52242 0.396875,-1.01321 0.396875,-1.09064 0,-0.0774 -0.521203,-0.14079 -1.15823,-0.14079 -1.38449,0 -2.098019,-0.59005 -1.257498,-1.03988 0.290872,-0.15567 1.079309,-0.28304 1.752089,-0.28304 h 1.223232 l -0.08136,-1.12448 -0.08136,-1.12448 -1.926577,-0.0779 c -1.138656,-0.046 -1.862672,-0.18131 -1.770322,-0.33073 0.08594,-0.13905 0.411165,-0.25283 0.722722,-0.25283 0.440587,0 0.495912,-0.0706 0.248968,-0.3175 -0.511265,-0.51126 -0.372385,-0.65724 0.503055,-0.52875 0.514993,0.0756 0.699424,0.1953 0.495271,0.32147 -0.461939,0.2855 -0.06977,0.78869 0.618019,0.79298 0.318834,0.002 0.862079,0.0792 1.207212,0.17157 0.583785,0.15626 0.616529,0.26071 0.469879,1.49894 -0.174223,1.47104 -1.242105,4.67588 -1.55805,4.67588 -0.110442,0 -0.200802,-0.045 -0.200802,-0.1 z m 0.595312,-2.94273 c -0.09764,-0.39057 -0.929084,-0.3216 -1.065755,0.0884 -0.08067,0.242 0.07878,0.32519 0.507119,0.26458 0.34363,-0.0486 0.595016,-0.20747 0.558636,-0.35299 z m -4.034896,1.48235 c 0,-0.49255 1.102051,-0.62598 1.541407,-0.18663 0.252383,0.25239 0.300321,0.42407 0.118404,0.42407 -0.168117,0 -0.379447,-0.11938 -0.469628,-0.2653 -0.109037,-0.17642 -0.335854,-0.1733 -0.677074,0.009 -0.317915,0.17014 -0.513109,0.17719 -0.513109,0.0185 z m -1.80558,-0.8364 c -0.818158,-0.32802 -0.649357,-1.08198 0.299027,-1.3356 0.793578,-0.21223 2.300303,0.17864 2.300303,0.59674 0,0.20408 -1.637427,1.06336 -1.909731,1.00218 -0.04106,-0.009 -0.351374,-0.12772 -0.689599,-0.26332 z m 0.747247,-0.64595 c 0,-0.21828 -0.178594,-0.39687 -0.396875,-0.39687 -0.413166,0 -0.524926,0.31292 -0.220486,0.61736 0.304438,0.30444 0.617361,0.19268 0.617361,-0.22049 z m -1.058334,-1.40153 c 0.618011,-0.38227 2.290453,-0.6508 1.953271,-0.31362 -0.153533,0.15354 -0.745125,0.34214 -1.314649,0.41913 -0.696457,0.0941 -0.905552,0.0596 -0.638622,-0.10551 z m 5.054817,-0.0761 c -0.348548,-0.13943 -0.570759,-0.31647 -0.493799,-0.39343 0.07696,-0.0769 0.540729,0.0349 1.030599,0.24869 0.973717,0.42484 0.489699,0.55535 -0.5368,0.14474 z"
					id="path-id" />
	</g>
</svg>
