<?xml version="1.0" encoding="UTF-8" standalone="no"?>
<svg
   xmlns:dc="http://purl.org/dc/elements/1.1/"
   xmlns:cc="http://creativecommons.org/ns#"
   xmlns:rdf="http://www.w3.org/1999/02/22-rdf-syntax-ns#"
   xmlns:svg="http://www.w3.org/2000/svg"
   xmlns="http://www.w3.org/2000/svg"
   xmlns:sodipodi="http://sodipodi.sourceforge.net/DTD/sodipodi-0.dtd"
   xmlns:inkscape="http://www.inkscape.org/namespaces/inkscape"
   width="132.02708mm"
   height="132.0289mm"
   viewBox="0 0 132.02708 132.0289"
   version="1.1"
   id="svg8"
   inkscape:version="1.0.2 (e86c8708, 2021-01-15)"
   sodipodi:docname="lcc-logo-white.svg">
  <defs
     id="defs2">
    <filter
       style="color-interpolation-filters:sRGB;"
       inkscape:label="Invert"
       id="filter1620">
      <feColorMatrix
         type="hueRotate"
         values="180"
         result="color1"
         id="feColorMatrix1616" />
      <feColorMatrix
         values="-1 0 0 0 1 0 -1 0 0 1 0 0 -1 0 1 -0.21 -0.72 -0.07 2 0 "
         result="color2"
         id="feColorMatrix1618" />
    </filter>
    <filter
       style="color-interpolation-filters:sRGB;"
       inkscape:label="Invert"
       id="filter1626">
      <feColorMatrix
         type="hueRotate"
         values="180"
         result="color1"
         id="feColorMatrix1622" />
      <feColorMatrix
         values="-1 0 0 0 1 0 -1 0 0 1 0 0 -1 0 1 -0.21 -0.72 -0.07 2 0 "
         result="color2"
         id="feColorMatrix1624" />
    </filter>
    <filter
       style="color-interpolation-filters:sRGB;"
       inkscape:label="Invert"
       id="filter1632">
      <feColorMatrix
         type="hueRotate"
         values="180"
         result="color1"
         id="feColorMatrix1628" />
      <feColorMatrix
         values="-1 0 0 0 1 0 -1 0 0 1 0 0 -1 0 1 -0.21 -0.72 -0.07 2 0 "
         result="color2"
         id="feColorMatrix1630" />
    </filter>
    <filter
       style="color-interpolation-filters:sRGB;"
       inkscape:label="Invert"
       id="filter1638">
      <feColorMatrix
         type="hueRotate"
         values="180"
         result="color1"
         id="feColorMatrix1634" />
      <feColorMatrix
         values="-1 0 0 0 1 0 -1 0 0 1 0 0 -1 0 1 -0.21 -0.72 -0.07 2 0 "
         result="color2"
         id="feColorMatrix1636" />
    </filter>
    <filter
       style="color-interpolation-filters:sRGB;"
       inkscape:label="Invert"
       id="filter1644">
      <feColorMatrix
         type="hueRotate"
         values="180"
         result="color1"
         id="feColorMatrix1640" />
      <feColorMatrix
         values="-1 0 0 0 1 0 -1 0 0 1 0 0 -1 0 1 -0.21 -0.72 -0.07 2 0 "
         result="color2"
         id="feColorMatrix1642" />
    </filter>
    <filter
       style="color-interpolation-filters:sRGB;"
       inkscape:label="Invert"
       id="filter1650">
      <feColorMatrix
         type="hueRotate"
         values="180"
         result="color1"
         id="feColorMatrix1646" />
      <feColorMatrix
         values="-1 0 0 0 1 0 -1 0 0 1 0 0 -1 0 1 -0.21 -0.72 -0.07 2 0 "
         result="color2"
         id="feColorMatrix1648" />
    </filter>
    <filter
       style="color-interpolation-filters:sRGB;"
       inkscape:label="Invert"
       id="filter1656">
      <feColorMatrix
         type="hueRotate"
         values="180"
         result="color1"
         id="feColorMatrix1652" />
      <feColorMatrix
         values="-1 0 0 0 1 0 -1 0 0 1 0 0 -1 0 1 -0.21 -0.72 -0.07 2 0 "
         result="color2"
         id="feColorMatrix1654" />
    </filter>
    <filter
       style="color-interpolation-filters:sRGB;"
       inkscape:label="Invert"
       id="filter1662">
      <feColorMatrix
         type="hueRotate"
         values="180"
         result="color1"
         id="feColorMatrix1658" />
      <feColorMatrix
         values="-1 0 0 0 1 0 -1 0 0 1 0 0 -1 0 1 -0.21 -0.72 -0.07 2 0 "
         result="color2"
         id="feColorMatrix1660" />
    </filter>
    <filter
       style="color-interpolation-filters:sRGB;"
       inkscape:label="Invert"
       id="filter1668">
      <feColorMatrix
         type="hueRotate"
         values="180"
         result="color1"
         id="feColorMatrix1664" />
      <feColorMatrix
         values="-1 0 0 0 1 0 -1 0 0 1 0 0 -1 0 1 -0.21 -0.72 -0.07 2 0 "
         result="color2"
         id="feColorMatrix1666" />
    </filter>
    <filter
       style="color-interpolation-filters:sRGB;"
       inkscape:label="Invert"
       id="filter1674">
      <feColorMatrix
         type="hueRotate"
         values="180"
         result="color1"
         id="feColorMatrix1670" />
      <feColorMatrix
         values="-1 0 0 0 1 0 -1 0 0 1 0 0 -1 0 1 -0.21 -0.72 -0.07 2 0 "
         result="color2"
         id="feColorMatrix1672" />
    </filter>
    <filter
       style="color-interpolation-filters:sRGB;"
       inkscape:label="Invert"
       id="filter1680">
      <feColorMatrix
         type="hueRotate"
         values="180"
         result="color1"
         id="feColorMatrix1676" />
      <feColorMatrix
         values="-1 0 0 0 1 0 -1 0 0 1 0 0 -1 0 1 -0.21 -0.72 -0.07 2 0 "
         result="color2"
         id="feColorMatrix1678" />
    </filter>
    <filter
       style="color-interpolation-filters:sRGB;"
       inkscape:label="Invert"
       id="filter1686">
      <feColorMatrix
         type="hueRotate"
         values="180"
         result="color1"
         id="feColorMatrix1682" />
      <feColorMatrix
         values="-1 0 0 0 1 0 -1 0 0 1 0 0 -1 0 1 -0.21 -0.72 -0.07 2 0 "
         result="color2"
         id="feColorMatrix1684" />
    </filter>
    <filter
       style="color-interpolation-filters:sRGB;"
       inkscape:label="Invert"
       id="filter1692">
      <feColorMatrix
         type="hueRotate"
         values="180"
         result="color1"
         id="feColorMatrix1688" />
      <feColorMatrix
         values="-1 0 0 0 1 0 -1 0 0 1 0 0 -1 0 1 -0.21 -0.72 -0.07 2 0 "
         result="color2"
         id="feColorMatrix1690" />
    </filter>
    <filter
       style="color-interpolation-filters:sRGB;"
       inkscape:label="Invert"
       id="filter1698">
      <feColorMatrix
         type="hueRotate"
         values="180"
         result="color1"
         id="feColorMatrix1694" />
      <feColorMatrix
         values="-1 0 0 0 1 0 -1 0 0 1 0 0 -1 0 1 -0.21 -0.72 -0.07 2 0 "
         result="color2"
         id="feColorMatrix1696" />
    </filter>
    <filter
       style="color-interpolation-filters:sRGB;"
       inkscape:label="Invert"
       id="filter1704">
      <feColorMatrix
         type="hueRotate"
         values="180"
         result="color1"
         id="feColorMatrix1700" />
      <feColorMatrix
         values="-1 0 0 0 1 0 -1 0 0 1 0 0 -1 0 1 -0.21 -0.72 -0.07 2 0 "
         result="color2"
         id="feColorMatrix1702" />
    </filter>
  </defs>
  <sodipodi:namedview
     id="base"
     pagecolor="#ffffff"
     bordercolor="#666666"
     borderopacity="1.0"
     inkscape:pageopacity="0.0"
     inkscape:pageshadow="2"
     inkscape:zoom="0.98994949"
     inkscape:cx="261.07672"
     inkscape:cy="270.90307"
     inkscape:document-units="mm"
     inkscape:current-layer="g875"
     inkscape:document-rotation="0"
     showgrid="false"
     inkscape:window-width="1252"
     inkscape:window-height="985"
     inkscape:window-x="0"
     inkscape:window-y="23"
     inkscape:window-maximized="0" />
  <metadata
     id="metadata5">
    <rdf:RDF>
      <cc:Work
         rdf:about="">
        <dc:format>image/svg+xml</dc:format>
        <dc:type
           rdf:resource="http://purl.org/dc/dcmitype/StillImage" />
        <dc:title></dc:title>
      </cc:Work>
    </rdf:RDF>
  </metadata>
  <g
     inkscape:label="Layer 1"
     inkscape:groupmode="layer"
     id="layer1"
     transform="translate(-36.756783,-76.490229)">
    <g
       id="g875"
       transform="translate(-12.444444,16.797292)">
      <path
         style="fill:#e7e7e7;stroke-width:0.176389;filter:url(#filter1704)"
         d="m 99.427964,191.67594 c 9.192066,-0.0252 24.233626,-0.0252 33.425696,0 9.19207,0.0252 1.67128,0.0459 -16.71285,0.0459 -18.384131,0 -25.904912,-0.0207 -16.712846,-0.0459 z m 46.500066,-11.81807 -0.24208,-0.30868 0.30868,0.24208 c 0.16978,0.13315 0.30868,0.27206 0.30868,0.30868 0,0.14518 -0.14485,0.0517 -0.37528,-0.24208 z m -61.184441,-0.28708 c 0,-0.0366 0.138906,-0.17554 0.30868,-0.30868 l 0.308681,-0.24209 -0.242083,0.30868 c -0.230429,0.29382 -0.375278,0.38726 -0.375278,0.24209 z m 60.220051,-0.68306 -0.33602,-0.39687 0.39687,0.33602 c 0.37297,0.31577 0.47718,0.45773 0.33602,0.45773 -0.0335,0 -0.21206,-0.1786 -0.39687,-0.39688 z m -52.960257,-7.18785 c 0,-0.24253 0.04004,-0.34175 0.08897,-0.22048 0.04893,0.12127 0.04893,0.3197 0,0.44097 -0.04893,0.12127 -0.08897,0.0221 -0.08897,-0.22049 z M 141.33135,168.228 c 0.12733,-0.051 0.27947,-0.0447 0.33808,0.0139 0.0586,0.0586 -0.0456,0.1003 -0.23151,0.0926 -0.20548,-0.008 -0.24728,-0.0503 -0.10657,-0.10656 z m 1.79696,-0.65166 c 0,-0.0366 0.13891,-0.17553 0.30868,-0.30868 l 0.30868,-0.24208 -0.24208,0.30868 c -0.23043,0.29382 -0.37528,0.38726 -0.37528,0.24208 z m 0.24783,-6.85666 -0.33602,-0.39688 0.39687,0.33602 c 0.37297,0.31578 0.47718,0.45773 0.33602,0.45773 -0.0335,0 -0.21206,-0.17859 -0.39687,-0.39687 z m -58.372106,-1.76389 -1.406973,-1.45521 1.455208,1.40697 c 1.351554,1.30676 1.535623,1.50345 1.406973,1.50345 -0.02653,0 -0.681372,-0.65485 -1.455208,-1.45521 z m 60.329136,0.0441 c 0.77156,-0.77611 1.44253,-1.41111 1.49103,-1.41111 0.0485,0 -0.54308,0.635 -1.31464,1.41111 -0.77156,0.77612 -1.44252,1.41112 -1.49103,1.41112 -0.0485,0 0.54309,-0.635 1.31464,-1.41112 z m -56.223956,0.76513 c 0.121267,-0.0489 0.319705,-0.0489 0.440972,0 0.121267,0.0489 0.02205,0.089 -0.220486,0.089 -0.242535,0 -0.341753,-0.04 -0.220486,-0.089 z m 51.454206,-0.24769 c -0.064,-0.10347 -0.0784,-0.22596 -0.0322,-0.2722 0.0462,-0.0462 0.13107,0.0384 0.18852,0.18813 0.11927,0.31082 0.0176,0.36549 -0.15632,0.0841 z m 0.50909,-0.43685 c -0.0574,-0.1497 -0.0549,-0.32168 0.006,-0.38217 0.0605,-0.0605 0.10999,0.0157 0.10999,0.16929 0,0.15361 0.0992,0.31932 0.22048,0.36825 0.1727,0.0697 0.1715,0.092 -0.006,0.1029 -0.12432,0.008 -0.27303,-0.10856 -0.33048,-0.25827 z m -51.376106,-0.53626 c 0.0085,-0.20548 0.05026,-0.24728 0.106567,-0.10657 0.05095,0.12733 0.04469,0.27947 -0.01392,0.33808 -0.05861,0.0586 -0.100302,-0.0456 -0.09264,-0.23151 z M 79.552977,153.5447 c -2.114764,-2.1164 -3.771438,-3.89349 -3.681497,-3.94907 0.08994,-0.0556 1.893788,1.63053 4.008554,3.74694 2.114763,2.1164 3.771438,3.89349 3.681497,3.94907 -0.08994,0.0556 -1.893789,-1.63054 -4.008554,-3.74694 z m 3.955889,3.64566 c 0,-0.0251 -1.726406,-1.75151 -3.836458,-3.83646 l -3.836458,-3.79082 3.790823,3.83646 c 3.52235,3.56475 3.882093,3.91604 3.882093,3.79082 z m 63.558794,-0.0162 c 0,-0.34578 7.44947,-7.78934 7.58159,-7.57557 0.0556,0.0899 -1.62754,1.89076 -3.74027,4.00185 -2.11272,2.11108 -3.84132,3.71926 -3.84132,3.57372 z m 3.90996,-3.81876 c 2.03556,-2.03729 3.66133,-3.70417 3.61282,-3.70417 -0.0485,0 -1.75365,1.66688 -3.78921,3.70417 -2.03556,2.03729 -3.66133,3.70417 -3.61282,3.70417 0.0485,0 1.75365,-1.66688 3.78921,-3.70417 z M 63.664622,137.61319 c -6.499659,-6.52394 -9.932406,-9.99723 -7.628326,-7.71843 2.30408,2.27881 4.189236,4.06523 4.189236,3.96984 0,-0.0954 1.703601,1.52877 3.785779,3.60926 2.082177,2.08049 3.746062,3.82242 3.697524,3.87096 -0.04854,0.0485 1.719867,1.89766 3.929796,4.10916 2.209929,2.2115 3.97879,4.0209 3.930804,4.0209 -0.04799,0 -5.405154,-5.33776 -11.904813,-11.86169 z m 0.353272,0.0436 c -2.03556,-2.03729 -3.740704,-3.70417 -3.789211,-3.70417 -0.04851,0 1.577262,1.66688 3.612822,3.70417 2.035559,2.03729 3.740704,3.70416 3.789211,3.70416 0.04851,0 -1.577263,-1.66687 -3.612822,-3.70416 z m 94.720836,7.9375 c 2.13265,-2.13431 3.91724,-3.88056 3.96574,-3.88056 0.0485,0 -1.6567,1.74625 -3.78935,3.88056 -2.13265,2.1343 -3.91724,3.88055 -3.96574,3.88055 -0.0485,0 1.6567,-1.74625 3.78935,-3.88055 z m 4.08949,-4.18067 c -0.0556,-0.0899 1.63054,-1.89379 3.74694,-4.00855 2.11641,-2.11477 3.89349,-3.77144 3.94908,-3.6815 0.0556,0.0899 -1.63054,1.89379 -3.74694,4.00855 -2.11641,2.11477 -3.89349,3.77144 -3.94908,3.6815 z m 3.9362,-3.84503 c 2.08411,-2.08579 3.7496,-3.79236 3.7011,-3.79236 -0.0485,0 -1.79338,1.70657 -3.87748,3.79236 -2.08411,2.0858 -3.7496,3.79236 -3.70109,3.79236 0.0485,0 1.79337,-1.70656 3.87747,-3.79236 z m -79.374998,0 c 2.084107,-2.08579 3.828973,-3.79236 3.87748,-3.79236 0.04851,0 -1.616984,1.70657 -3.701091,3.79236 -2.084107,2.0858 -3.828972,3.79236 -3.877479,3.79236 -0.04851,0 1.616983,-1.70656 3.70109,-3.79236 z m 7.318194,-1.01423 -2.996666,-3.04271 3.042708,2.99666 c 2.826849,2.78408 3.122446,3.08876 2.996666,3.08876 -0.02532,0 -1.394543,-1.36922 -3.042708,-3.04271 z m 7.322084,-0.54027 c 0,-0.0303 0.25797,-0.28832 0.57326,-0.57326 l 0.57327,-0.51807 -0.51807,0.57326 c -0.48292,0.53437 -0.62846,0.65435 -0.62846,0.51807 z m -38.100001,-6.20661 c 2.084107,-2.0858 3.828973,-3.79236 3.87748,-3.79236 0.04851,0 -1.616984,1.70656 -3.701091,3.79236 -2.084107,2.0858 -3.828972,3.79236 -3.877479,3.79236 -0.04851,0 1.616983,-1.70656 3.70109,-3.79236 z m 23.458185,-0.0441 -3.790823,-3.83646 3.836458,3.79082 c 3.564755,3.52235 3.91604,3.88209 3.790823,3.88209 -0.0251,0 -1.751506,-1.7264 -3.836458,-3.83645 z m 87.225846,-0.0441 c 2.13265,-2.13431 3.91724,-3.88056 3.96574,-3.88056 0.0485,0 -1.6567,1.74625 -3.78935,3.88056 -2.13265,2.1343 -3.91724,3.88055 -3.96574,3.88055 -0.0485,0 1.6567,-1.74625 3.78935,-3.88055 z m -72.32151,-0.92604 -2.820159,-2.86632 2.866319,2.82015 c 1.57648,1.55109 2.86632,2.84093 2.86632,2.86632 0,0.12595 -0.29249,-0.15727 -2.91248,-2.82015 z m 46.67085,0.82315 c 0.008,-0.20549 0.0503,-0.24728 0.10657,-0.10657 0.051,0.12733 0.0447,0.27946 -0.0139,0.33808 -0.0586,0.0586 -0.1003,-0.0456 -0.0926,-0.23151 z m 0.52917,-3.17501 c 0.008,-0.20548 0.0503,-0.24727 0.10657,-0.10656 0.051,0.12733 0.0447,0.27946 -0.0139,0.33808 -0.0586,0.0586 -0.1003,-0.0456 -0.0926,-0.23152 z M 82.18595,92.67766 c 18.1414,-18.141597 33.02406,-32.984723 33.07256,-32.984723 0.0485,0 -14.75477,14.843126 -32.896171,32.984723 -18.141404,18.1416 -33.024057,32.98472 -33.072564,32.98472 -0.04851,0 14.754771,-14.84312 32.896175,-32.98472 z m 0.264583,0.264584 C 100.44641,74.946167 115.21,60.222104 115.25851,60.222104 c 0.0485,0 -14.63571,14.724063 -32.631588,32.72014 -17.995881,17.996076 -32.759471,32.720136 -32.807978,32.720136 -0.04851,0 14.635708,-14.72406 32.631589,-32.720136 z m 19.667357,29.897916 c 1.45279,-1.45521 2.68111,-2.64583 2.72962,-2.64583 0.0485,0 -1.10044,1.19062 -2.55323,2.64583 -1.45278,1.45521 -2.681106,2.64583 -2.729613,2.64583 -0.04851,0 1.100443,-1.19062 2.553223,-2.64583 z m 56.7075,-1.19062 -3.79083,-3.83646 3.83646,3.79082 c 2.11005,2.08495 3.83646,3.81136 3.83646,3.83646 0,0.12522 -0.35974,-0.22607 -3.88209,-3.79082 z m -9.14284,3.30729 c 0,-0.24254 0.04,-0.34176 0.089,-0.22049 0.0489,0.12127 0.0489,0.31971 0,0.44097 -0.0489,0.12127 -0.089,0.022 -0.089,-0.22048 z m -66.019795,-0.30868 -0.242083,-0.30868 0.308681,0.24208 c 0.293819,0.23043 0.387258,0.37528 0.242083,0.37528 -0.03663,0 -0.175534,-0.13891 -0.308681,-0.30868 z m 9.812084,-0.57327 c 0.175593,-0.19402 0.358948,-0.35277 0.407455,-0.35277 0.04851,0 -0.05547,0.15875 -0.231066,0.35277 -0.175593,0.19403 -0.358948,0.35278 -0.407455,0.35278 -0.04851,0 0.05547,-0.15875 0.231066,-0.35278 z m -11.223195,-0.83784 -0.242083,-0.30868 0.30868,0.24208 c 0.169775,0.13315 0.308681,0.27205 0.308681,0.30868 0,0.14517 -0.144849,0.0517 -0.375278,-0.24208 z m 67.620366,-0.39688 c 0,-0.33955 0.0363,-0.47845 0.0807,-0.30868 0.0444,0.16977 0.0444,0.44759 0,0.61736 -0.0444,0.16978 -0.0807,0.0309 -0.0807,-0.30868 z m 0.53273,-0.0882 c 0.002,-0.38806 0.0381,-0.52604 0.0803,-0.30663 0.0422,0.21941 0.0406,0.53691 -0.004,0.70556 -0.0442,0.16864 -0.0787,-0.0109 -0.0767,-0.39893 z M 78.658172,120.5471 c -1.452783,-1.45521 -2.601735,-2.64584 -2.553228,-2.64584 0.04851,0 1.276834,1.19063 2.729617,2.64584 1.452783,1.4552 2.601734,2.64583 2.553227,2.64583 -0.04851,0 -1.276833,-1.19063 -2.729616,-2.64583 z m 16.580556,1.76388 c 0.175593,-0.19402 0.358948,-0.35277 0.407455,-0.35277 0.04851,0 -0.05547,0.15875 -0.231066,0.35277 -0.175594,0.19403 -0.358948,0.35278 -0.407455,0.35278 -0.04851,0 0.05547,-0.15875 0.231066,-0.35278 z m 0.08819,-0.77215 c 0,-0.0366 0.138907,-0.17553 0.308681,-0.30868 l 0.308681,-0.24208 -0.242084,0.30868 c -0.230429,0.29382 -0.375278,0.38726 -0.375278,0.24208 z m -14.948574,-2.84382 c 0.002,-0.38805 0.03808,-0.52603 0.08027,-0.30662 0.04219,0.21941 0.04059,0.53691 -0.0036,0.70555 -0.04415,0.16865 -0.07867,-0.0109 -0.07671,-0.39893 z m -8.777235,-4.7184 -3.879053,-3.92465 3.924653,3.87905 c 2.158559,2.13348 3.924653,3.89957 3.924653,3.92465 0,0.12517 -0.365876,-0.2323 -3.970253,-3.87905 z m 78.270901,3.39549 c 0,-0.33955 0.0363,-0.47846 0.0807,-0.30869 0.0444,0.16978 0.0444,0.44759 0,0.61737 -0.0444,0.16977 -0.0807,0.0309 -0.0807,-0.30868 z m -70.027373,-3.43544 c 3.180916,-3.21667 3.870484,-3.8343 4.056945,-3.63368 0.183083,0.19699 0.180174,0.2164 -0.01572,0.10494 -0.168291,-0.0958 -1.384782,0.99381 -4.056945,3.63367 l -3.816587,3.77045 z m 69.823993,1.39226 c 0.008,-0.20548 0.0503,-0.24727 0.10656,-0.10656 0.051,0.12733 0.0447,0.27946 -0.0139,0.33808 -0.0586,0.0586 -0.1003,-0.0456 -0.0926,-0.23152 z m -0.17639,-1.41111 c 0.008,-0.20548 0.0503,-0.24728 0.10657,-0.10657 0.051,0.12733 0.0447,0.27947 -0.0139,0.33808 -0.0586,0.0586 -0.1003,-0.0456 -0.0926,-0.23151 z M 93.224182,98.924768 c 0.0085,-0.205485 0.05026,-0.24728 0.106567,-0.106569 0.05095,0.12733 0.04469,0.279467 -0.01392,0.338079 -0.05861,0.05861 -0.100302,-0.04557 -0.09264,-0.23151 z M 143.6776,97.396063 c 0.0434,-0.02425 0.83054,-0.758472 1.74919,-1.631597 l 1.67027,-1.5875 -1.58382,1.631597 c -0.8711,0.897379 -1.65824,1.631598 -1.74919,1.631598 -0.0909,0 -0.12985,-0.01984 -0.0864,-0.0441 z M 93.753348,95.573379 c 0.0085,-0.205485 0.05026,-0.24728 0.106567,-0.106569 0.05095,0.12733 0.04469,0.279467 -0.01392,0.338079 -0.05861,0.05861 -0.100302,-0.04557 -0.09264,-0.23151 z m 47.059412,-2.146066 -0.24209,-0.30868 0.30868,0.242083 c 0.29382,0.230429 0.38726,0.375278 0.24209,0.375278 -0.0366,0 -0.17554,-0.138907 -0.30868,-0.308681 z m -1.41111,-0.881944 -0.24209,-0.308681 0.30868,0.242083 c 0.29382,0.230429 0.38726,0.375278 0.24209,0.375278 -0.0366,0 -0.17554,-0.138906 -0.30868,-0.30868 z m 0.52916,-0.176389 -0.24208,-0.308681 0.30868,0.242083 c 0.16977,0.133148 0.30868,0.272054 0.30868,0.308681 0,0.145175 -0.14485,0.05174 -0.37528,-0.242083 z m -2.27055,-1.719792 c -0.42846,-0.436562 -0.73932,-0.79375 -0.69082,-0.79375 0.0485,0 0.43875,0.357188 0.86721,0.79375 0.42845,0.436563 0.73932,0.79375 0.69081,0.79375 -0.0485,0 -0.43875,-0.357187 -0.8672,-0.79375 z m 0.0827,-0.661458 -1.05281,-1.102431 1.10243,1.052813 c 0.60634,0.579045 1.10243,1.075139 1.10243,1.10243 0,0.130334 -0.17408,-0.02875 -1.15205,-1.052812 z m -2.22184,-1.322917 -0.24208,-0.308681 0.30868,0.242084 c 0.16977,0.133147 0.30868,0.272053 0.30868,0.30868 0,0.145175 -0.14485,0.05174 -0.37528,-0.242083 z m 1.96278,-1.190625 c 0.62498,-0.63059 1.17602,-1.146528 1.22453,-1.146528 0.0485,0 -0.42316,0.515938 -1.04814,1.146528 -0.62499,0.63059 -1.17603,1.146528 -1.22453,1.146528 -0.0485,0 0.42315,-0.515938 1.04814,-1.146528 z m -19.78863,-7.440632 c 0.12733,-0.05095 0.27947,-0.04469 0.33808,0.01392 0.0586,0.05861 -0.0456,0.100302 -0.23151,0.09264 -0.20549,-0.0085 -0.24728,-0.05026 -0.10657,-0.106567 z m 2.11667,0 c 0.12733,-0.05095 0.27946,-0.04469 0.33808,0.01392 0.0586,0.05861 -0.0456,0.100302 -0.23152,0.09264 -0.20548,-0.0085 -0.24727,-0.05026 -0.10656,-0.106567 z m -4.23334,-0.352778 c 0.12733,-0.05095 0.27947,-0.04469 0.33808,0.01392 0.0586,0.05861 -0.0456,0.100302 -0.23151,0.09264 -0.20548,-0.0085 -0.24728,-0.05026 -0.10657,-0.106567 z m -12.10991,-0.408674 c 0,-0.242534 0.04,-0.341753 0.089,-0.220486 0.0489,0.121268 0.0489,0.319705 0,0.440973 -0.0489,0.121267 -0.089,0.02205 -0.089,-0.220487 z m 11.05158,0.232285 c 0.12733,-0.05095 0.27947,-0.04469 0.33808,0.01392 0.0586,0.05861 -0.0456,0.100302 -0.23151,0.09264 -0.20549,-0.0085 -0.24728,-0.05026 -0.10657,-0.106567 z M 112.75635,79.328 c 0.12733,-0.05095 0.27947,-0.04469 0.33808,0.01392 0.0586,0.05861 -0.0456,0.100302 -0.23151,0.09264 -0.20549,-0.0085 -0.24728,-0.05026 -0.10657,-0.106567 z m 3.70417,0 c 0.12733,-0.05095 0.27946,-0.04469 0.33808,0.01392 0.0586,0.05861 -0.0456,0.100302 -0.23151,0.09264 -0.20549,-0.0085 -0.24728,-0.05026 -0.10657,-0.106567 z m -3.00758,-0.357037 c 0.21941,-0.04219 0.53691,-0.04059 0.70555,0.0036 0.16865,0.04415 -0.0109,0.07867 -0.39893,0.07671 -0.38805,-0.002 -0.52603,-0.03808 -0.30662,-0.08027 z m -2.07617,-4.770039 -3.79082,-3.836459 3.83646,3.790823 c 2.11005,2.084952 3.83646,3.811359 3.83646,3.836459 0,0.125217 -0.35975,-0.226069 -3.8821,-3.790823 z m -7.9155,2.038883 c -0.0113,-0.455091 0.0423,-0.866243 0.11907,-0.91367 0.0767,-0.04743 0.11185,0.205858 0.078,0.562855 -0.10334,1.090754 -0.17561,1.219385 -0.19709,0.350815 z m -0.5087,-0.319092 c 0,-0.339548 0.0363,-0.478454 0.0807,-0.30868 0.0444,0.169774 0.0444,0.447587 0,0.617361 -0.0444,0.169774 -0.0807,0.03087 -0.0807,-0.308681 z m 0.71208,-1.180569 c 0.17163,-0.04472 0.40975,-0.04178 0.52917,0.0065 0.11942,0.04832 -0.021,0.08491 -0.31204,0.08131 -0.29104,-0.0036 -0.38875,-0.04313 -0.21713,-0.08785 z"
         id="path905"
         sodipodi:nodetypes="ssssscssssscssscssssssscscccsscssscsssscsssssssscsscsssssscsscsssssssssssssscssscssssssssssscssssssssssssssssssssssssssssscssssscsssssssscssssssssscsssccsccccsccsssssssssssssssscsssscssscssssssssccsscsssscscccsssssssssssscsscscccscssssssssscscsccsccccsccssssscscssccsssssscsssscsssscssssssssscsssscsssssssssscsssscsssscssscsssscsssscsssscsscccccscssscccccssssccscc" />
      <path
         style="fill:#cdd2d1;stroke-width:0.176389;filter:url(#filter1698)"
         d="m 151.31686,188.01586 c 1.5e-4,-2.03729 0.0258,-2.84657 0.0571,-1.7984 0.0312,1.04817 0.0311,2.71504 -1.7e-4,3.70416 -0.0314,0.98912 -0.057,0.13153 -0.0568,-1.90576 z m -54.137854,-3.79236 -1.058334,-0.11709 1.102431,-0.0297 c 0.637129,-0.0172 1.102431,0.0448 1.102431,0.14674 0,0.097 -0.01984,0.16304 -0.0441,0.14673 -0.02425,-0.0163 -0.520347,-0.0823 -1.10243,-0.14673 z m -11.950348,-0.11682 c 0.121268,-0.0489 0.319705,-0.0489 0.440972,0 0.121268,0.0489 0.02205,0.089 -0.220486,0.089 -0.242534,0 -0.341753,-0.04 -0.220486,-0.089 z m 44.450002,-0.0153 c 2.25557,-0.0279 5.94651,-0.0279 8.20208,0 2.25558,0.0279 0.41011,0.0508 -4.10104,0.0508 -4.51114,0 -6.35661,-0.0228 -4.10104,-0.0508 z m 8.73519,-12.39149 c 0,-0.43656 0.0344,-0.61515 0.0764,-0.39687 0.042,0.21828 0.042,0.57547 0,0.79375 -0.042,0.21828 -0.0764,0.0397 -0.0764,-0.39688 z m 5.66375,-7.67291 c 3.5e-4,-1.16417 0.0289,-1.61747 0.0634,-1.00733 0.0345,0.61014 0.0343,1.56264 -7e-4,2.11667 -0.0349,0.55403 -0.0632,0.0548 -0.0628,-1.10934 z m -4.51014,-2.50175 c 0.12733,-0.051 0.27947,-0.0447 0.33808,0.0139 0.0586,0.0586 -0.0456,0.1003 -0.23151,0.0926 -0.20548,-0.008 -0.24728,-0.0503 -0.10657,-0.10656 z m 5.06016,-6.58228 c -1.16114,-1.16417 -2.07147,-2.11667 -2.02296,-2.11667 0.0485,0 1.03821,0.9525 2.19935,2.11667 1.16113,1.16417 2.07146,2.11667 2.02296,2.11667 -0.0485,0 -1.03822,-0.9525 -2.19935,-2.11667 z m 7.49408,-23.7684 -2.3788,-2.42535 2.42534,2.3788 c 2.25299,2.20975 2.50527,2.47189 2.3788,2.47189 -0.0256,0 -1.11701,-1.0914 -2.42534,-2.42534 z m -2.62946,-5.26227 c 0.008,-0.20549 0.0503,-0.24728 0.10657,-0.10657 0.051,0.12733 0.0447,0.27947 -0.0139,0.33808 -0.0586,0.0586 -0.1003,-0.0456 -0.0926,-0.23151 z m 0.17639,-1.5875 c 0.008,-0.20549 0.0503,-0.24728 0.10656,-0.10657 0.051,0.12733 0.0447,0.27947 -0.0139,0.33808 -0.0586,0.0586 -0.1003,-0.0456 -0.0926,-0.23151 z m -66.702281,-0.38218 -0.427621,-0.48507 0.485069,0.42762 c 0.453371,0.39968 0.56596,0.54252 0.427621,0.54252 -0.03159,0 -0.249876,-0.21828 -0.485069,-0.48507 z m 10.949462,-0.27568 c 0,-0.0303 0.257969,-0.28832 0.573264,-0.57326 l 0.573264,-0.51807 -0.51807,0.57326 c -0.482914,0.53436 -0.628458,0.65434 -0.628458,0.51807 z m 55.968139,-2.23786 c 0,-0.53358 0.0331,-0.75186 0.0735,-0.48507 0.0404,0.26679 0.0404,0.70335 0,0.97014 -0.0404,0.26679 -0.0735,0.0485 -0.0735,-0.48507 z m -39.56397,-0.79375 c -0.72275,-0.7276 -1.2744,-1.32292 -1.22589,-1.32292 0.0485,0 0.67953,0.59532 1.40228,1.32292 0.72275,0.7276 1.2744,1.32292 1.22589,1.32292 -0.0485,0 -0.67953,-0.59532 -1.40228,-1.32292 z m 39.56397,-1.85208 c 0,-0.53358 0.0331,-0.75186 0.0735,-0.48507 0.0404,0.26679 0.0404,0.70335 0,0.97014 -0.0404,0.26678 -0.0735,0.0485 -0.0735,-0.48507 z m -0.21532,-2.92512 c 0.008,-0.20548 0.0503,-0.24728 0.10656,-0.10657 0.051,0.12733 0.0447,0.27947 -0.0139,0.33808 -0.0586,0.0586 -0.1003,-0.0456 -0.0926,-0.23151 z M 86.860255,106.6228 c 0,-0.0913 0.07847,-0.21447 0.17437,-0.27374 0.09999,-0.0618 0.129557,0.009 0.06932,0.16598 -0.117261,0.30558 -0.243692,0.36149 -0.243692,0.10776 z m 6.893093,-10.520245 c 0.0085,-0.205484 0.05026,-0.247279 0.106567,-0.106569 0.05095,0.12733 0.04469,0.279467 -0.01392,0.33808 -0.05861,0.05861 -0.100302,-0.04557 -0.09264,-0.231511 z m 0.868019,-2.785926 c 0,-0.03663 0.138906,-0.175534 0.30868,-0.308681 l 0.308681,-0.242083 -0.242083,0.30868 c -0.230429,0.29382 -0.375278,0.387259 -0.375278,0.242084 z m 44.168663,-1.388611 -0.33602,-0.396875 0.39687,0.336019 c 0.37297,0.315775 0.47718,0.457731 0.33602,0.457731 -0.0335,0 -0.21206,-0.178594 -0.39687,-0.396875 z m 0.25884,-0.617362 -0.24209,-0.30868 0.30869,0.242083 c 0.29382,0.230429 0.38725,0.375278 0.24208,0.375278 -0.0366,0 -0.17553,-0.138906 -0.30868,-0.308681 z m -2.81308,-1.940277 -0.42762,-0.48507 0.48507,0.427622 c 0.26679,0.235193 0.48507,0.453474 0.48507,0.485069 0,0.138338 -0.14284,0.02575 -0.54252,-0.427621 z m -1.42026,-1.234723 -0.24208,-0.30868 0.30868,0.242083 c 0.29382,0.230429 0.38726,0.375278 0.24209,0.375278 -0.0366,0 -0.17554,-0.138906 -0.30869,-0.308681 z m -34.7356,-8.995833 -0.607869,-0.661459 0.661459,0.607867 c 0.3638,0.334325 0.66146,0.631982 0.66146,0.661458 0,0.134694 -0.14927,0.0078 -0.71505,-0.607866 z m 13.72373,0.36825 c 0.12127,-0.04893 0.3197,-0.04893 0.44097,0 0.12127,0.04893 0.022,0.08897 -0.22048,0.08897 -0.24254,0 -0.34176,-0.04004 -0.22049,-0.08897 z m -10.30819,-1.558877 c 0.001,-0.582084 0.0339,-0.798943 0.0732,-0.481911 0.0392,0.317033 0.0384,0.793283 -0.002,1.058334 -0.0403,0.265051 -0.0724,0.0057 -0.0714,-0.576423 z"
         id="path903"
         sodipodi:nodetypes="ccccccccsscccssccsscsssscsccccscccsssssscsssccsccccsccscssssscsssssssssssssssccsccsssssssssssscssscsssscsssscsssscsssscsssssssccccc" />
      <path
         style="fill:#bdc9c9;stroke-width:0.176389;filter:url(#filter1692)"
         d="m 149.6518,187.88357 -0.003,-3.74827 -0.39397,-0.68719 c -0.21668,-0.37796 -0.67178,-0.8404 -1.01133,-1.02765 l -0.61736,-0.34046 0.79375,0.12041 c 1.13755,0.17258 2.096,0.7619 2.48765,1.5296 l 0.33457,0.65582 v 3.623 3.623 h -0.79375 -0.79375 l -0.003,-3.74826 z m -13.33826,-2.91179 -10.60712,-0.0455 -0.0752,-0.3955 -0.0752,-0.39551 10.41771,0.002 c 10.26042,0.002 11.21147,0.0472 11.21147,0.5282 0,0.36628 0.42725,0.35426 -10.87172,0.30583 z m -52.275507,-0.279 c 0,-0.57558 0.81657,-0.64202 7.368013,-0.59952 6.460162,0.0419 6.99267,0.0871 6.804718,0.57686 -0.142107,0.37032 -14.172731,0.39276 -14.172731,0.0227 z m 60.622367,-3.51199 c -0.90979,-1.41498 -3.02682,-3.30325 -5.09136,-4.54121 -2.07667,-1.24524 -2.45582,-1.68602 -2.88352,-3.3522 -0.36566,-1.42451 -0.27752,-2.78262 0.26045,-4.01284 l 0.40495,-0.92604 h 1.03661 c 1.20542,0 1.16998,-0.07 0.56116,1.10829 -0.38989,0.75458 -0.47677,1.15986 -0.48275,2.25203 l -0.007,1.33184 0.61504,1.22579 c 0.53318,1.06266 0.74415,1.29954 1.58518,1.7799 3.20595,1.83109 4.83211,3.14905 6.06949,4.91913 l 0.79786,1.14135 h -1.1352 -1.1352 l -0.59542,-0.92604 z m -3.45467,-13.35993 c 1.17434,-0.62068 1.30522,-1.00423 1.30522,-3.82505 v -2.50061 l -0.36129,-0.49801 c -0.19871,-0.2739 -0.6948,-0.6547 -1.10243,-0.84621 l -0.74114,-0.34822 v -0.59928 c 0,-2.57214 1.00313,-6.56553 3.61456,-14.38935 5.71197,-17.11305 6.16764,-26.17913 1.93774,-38.55452 -4.26819,-12.487439 -15.0578,-22.167062 -27.72029,-24.868562 -2.83824,-0.605527 -2.86653,-0.451254 -0.1997,1.088953 13.81276,7.97747 21.90545,17.197686 24.92977,28.403149 0.97475,3.6116 1.29117,6.97808 0.37779,4.01951 -4.39856,-14.24758 -13.43387,-24.669125 -24.60284,-28.377492 l -1.99561,-0.662589 1.08662,-0.302106 1.08661,-0.302107 -0.23753,-0.290209 c -0.74003,-0.904125 -10.2638,-7.405413 -12.58476,-8.590827 l -1.23472,-0.630627 -0.13727,0.836658 c -0.4038,2.461147 0.5921,8.50594 1.60585,9.746994 l 0.29531,0.36152 0.79375,-0.265589 c 0.72521,-0.242656 3.54418,-0.670179 3.65938,-0.554979 0.0269,0.0269 -0.4878,0.272018 -1.14378,0.544715 -3.28225,1.364472 -7.26456,3.660728 -9.46202,5.455927 l -1.03739,0.847489 -1.039582,0.061 c -1.092106,0.06408 -2.370116,0.528013 -2.761768,1.002556 -0.268702,0.325569 -0.909118,3.27246 -0.912525,4.199009 -0.0038,1.039679 -0.484334,2.135777 -1.505185,3.433517 -4.556854,5.79279 -9.946005,13.43187 -11.108264,15.74588 -1.130061,2.2499 0.09368,5.69226 2.777808,7.81395 1.017348,0.80416 0.892747,0.90412 -0.230408,0.18483 -2.700078,-1.72918 -4.591036,-5.5263 -3.834527,-7.69988 0.587901,-1.68914 6.185556,-9.79143 10.723884,-15.52222 1.930513,-2.437763 1.846476,-2.260041 2.210267,-4.674307 0.584504,-3.879006 0.645945,-3.965486 4.491885,-6.322315 1.406701,-0.862042 2.579575,-1.67782 2.606385,-1.81284 0.0268,-0.135022 -0.755602,-1.628909 -1.738698,-3.319752 l -1.787446,-3.074259 0.327588,-0.246577 c 0.609795,-0.459 3.319526,-1.752646 4.472726,-2.135319 1.66546,-0.552656 1.56997,-0.385191 1.62587,-2.851365 l 0.0498,-2.197991 0.35278,0.04191 c 0.19403,0.02305 2.17841,0.953638 4.40973,2.067971 l 4.05694,2.026057 1.23472,0.110669 c 13.70174,1.228081 25.56241,9.564151 31.82999,22.371168 5.7644,11.77883 5.765,23.09881 0.002,39.43986 -2.72593,7.72956 -3.97472,11.77464 -4.68311,15.16945 -0.65663,3.14681 -0.69535,3.0289 1.15908,3.52964 0.48881,0.13199 1.01148,0.44706 1.36701,0.82403 l 0.57562,0.61034 -7.1e-4,2.41278 c -8.8e-4,3.2168 -0.69738,4.2667 -2.82156,4.25321 l -0.61736,-0.004 0.63506,-0.33565 z M 103.82911,87.784343 c 1.92677,-0.945049 1.9051,-0.907097 1.24472,-2.179957 -0.26601,-0.512722 -0.68573,-1.730516 -0.9327,-2.706209 l -0.44904,-1.773989 -0.43432,0.06089 c -1.59105,0.223042 -4.338862,1.677222 -4.277477,2.263697 0.03047,0.291075 1.509507,2.972749 2.633617,4.77507 0.32139,0.515283 0.23272,0.532874 2.2152,-0.439498 z m 28.33721,74.258307 c -7.3438,-0.0416 -8.41739,-0.0815 -8.50768,-0.31683 l -0.10333,-0.26928 8.22012,0.0198 c 7.91177,0.0191 9.05983,0.0888 9.05983,0.55047 0,0.0814 -0.0595,0.12902 -0.13229,0.10573 -0.0728,-0.0233 -3.91425,-0.0637 -8.53665,-0.0899 z m -41.540299,-0.30249 c 0.507243,-0.3843 8.228679,-0.39505 8.228679,-0.0115 0,0.23487 -0.553665,0.26907 -4.27743,0.26419 -3.706217,-0.005 -4.233872,-0.0386 -3.951249,-0.25273 z m 7.964096,-35.01944 c 0.378926,-0.38806 0.728645,-0.70556 0.777152,-0.70556 0.04851,0 -0.221837,0.3175 -0.600763,0.70556 -0.378926,0.38805 -0.728645,0.70555 -0.777152,0.70555 -0.04851,0 0.221837,-0.3175 0.600763,-0.70555 z m -28.575001,-3.35139 c 1.161135,-1.16417 2.15084,-2.11667 2.199347,-2.11667 0.04851,0 -0.861823,0.9525 -2.022958,2.11667 -1.161135,1.16416 -2.15084,2.11666 -2.199347,2.11666 -0.04851,0 0.861823,-0.9525 2.022958,-2.11666 z M 94.268589,92.787452 c 0,-0.03663 0.138906,-0.175534 0.308681,-0.308681 l 0.30868,-0.242083 -0.242083,0.308681 c -0.230429,0.29382 -0.375278,0.387258 -0.375278,0.242083 z"
         id="path901"
         sodipodi:nodetypes="ccsscsscccccccccccssccssssscssscssccsssccccccscsscsssssssscccsscsscsssscssccssssssssscssccsscsscsssccccccssscsssssssccsssscscccsssssssssssscss" />
      <path
         style="fill:#b6b6b6;stroke-width:0.176389;filter:url(#filter1686)"
         d="m 127.82658,162.04275 c 2.30408,-0.0279 6.07439,-0.0279 8.37847,0 2.30408,0.0279 0.41892,0.0506 -4.18924,0.0506 -4.60816,0 -6.49331,-0.0228 -4.18923,-0.0506 z m -38.706342,-2.81058 c 0.12733,-0.051 0.279467,-0.0447 0.338079,0.0139 0.05861,0.0586 -0.04557,0.1003 -0.23151,0.0926 -0.205484,-0.008 -0.24728,-0.0503 -0.106569,-0.10657 z m -9.403733,-13.63784 c 2.132651,-2.13431 3.917236,-3.88056 3.965743,-3.88056 0.04851,0 -1.656703,1.74625 -3.789354,3.88056 -2.132651,2.1343 -3.917236,3.88055 -3.965743,3.88055 -0.04851,0 1.656703,-1.74625 3.789354,-3.88055 z m -20.108894,-9.39271 -10.406384,-10.45104 10.451042,10.40638 c 9.714819,9.67331 10.530214,10.4957 10.406383,10.4957 -0.02456,0 -4.727531,-4.70297 -10.451041,-10.45104 z m 99.217779,1.32292 -3.79083,-3.83646 3.83646,3.79082 c 2.11005,2.08495 3.83646,3.81136 3.83646,3.83646 0,0.12522 -0.35974,-0.22607 -3.88209,-3.79082 z m -64.027634,-7.01146 c 1.695663,-1.69775 3.122713,-3.08681 3.17122,-3.08681 0.04851,0 -1.299168,1.38906 -2.994831,3.08681 -1.695664,1.69774 -3.122714,3.0868 -3.17122,3.0868 -0.04851,0 1.299167,-1.38906 2.994831,-3.0868 z M 73.807477,119.57697 c 0.917799,-0.92164 1.708415,-1.6757 1.756922,-1.6757 0.04851,0 -0.662734,0.75406 -1.580533,1.6757 -0.917799,0.92163 -1.708414,1.67569 -1.756921,1.67569 -0.04851,0 0.662733,-0.75406 1.580532,-1.67569 z m 85.019443,-5.64445 c 2.08411,-2.0858 3.82898,-3.79236 3.87748,-3.79236 0.0485,0 -1.61698,1.70656 -3.70109,3.79236 -2.0841,2.0858 -3.82897,3.79236 -3.87748,3.79236 -0.0485,0 1.61699,-1.70656 3.70109,-3.79236 z m 7.84781,-0.13229 -3.87906,-3.92465 3.92466,3.87905 c 2.15856,2.13348 3.92465,3.89957 3.92465,3.92465 0,0.12517 -0.36588,-0.2323 -3.97025,-3.87905 z m -81.666558,-5.42396 c 0.771559,-0.77611 1.442523,-1.41111 1.49103,-1.41111 0.04851,0 -0.543082,0.635 -1.314641,1.41111 -0.771559,0.77611 -1.442523,1.41111 -1.491029,1.41111 -0.04851,0 0.543082,-0.635 1.31464,-1.41111 z M 139.24751,84.078702 115.34706,60.13391 139.29185,84.034361 c 13.16964,13.145248 23.9448,23.920409 23.9448,23.944789 0,0.12337 -1.76884,-1.63893 -23.98914,-23.900448 z m 11.55222,13.846528 -3.87906,-3.924653 3.92466,3.879053 c 3.64675,3.60438 4.00422,3.97025 3.87905,3.97025 -0.0251,0 -1.79117,-1.76609 -3.92465,-3.92465 z M 98.116072,92.733556 c 0.12733,-0.05095 0.279467,-0.04469 0.338079,0.01392 0.05861,0.05861 -0.04557,0.100302 -0.23151,0.09264 -0.205485,-0.0085 -0.24728,-0.05026 -0.106569,-0.106567 z m 36.985048,-10.506938 -3.87906,-3.924652 3.92466,3.879052 c 2.15855,2.133479 3.92465,3.899573 3.92465,3.924653 0,0.125168 -0.36588,-0.232304 -3.97025,-3.879053 z m -15.9617,-7.981597 c 2.08411,-2.085799 3.82898,-3.792361 3.87748,-3.792361 0.0485,0 -1.61698,1.706562 -3.70109,3.792361 -2.08411,2.085799 -3.82897,3.792361 -3.87748,3.792361 -0.0485,0 1.61699,-1.706562 3.70109,-3.792361 z m 0.0867,-7.893403 -3.87905,-3.924653 3.92465,3.879053 c 2.15856,2.133478 3.92466,3.899572 3.92466,3.924653 0,0.125167 -0.36588,-0.232304 -3.97026,-3.879053 z"
         id="path899"
         sodipodi:nodetypes="cssccscccsssssscsssscssssssssssssssssssscssssssssscsssscssssscssscssssssssscsss" />
      <path
         style="fill:#a8a8a8;stroke-width:0.176389;filter:url(#filter1680)"
         d="m 77.775476,154.36968 -7.76036,-7.80521 7.805209,7.76036 c 7.254725,7.21304 7.884463,7.85005 7.76036,7.85005 -0.02467,0 -3.537012,-3.51234 -7.805209,-7.8052 z m 15.214294,7.67353 c 1.091406,-0.0309 2.877343,-0.0309 3.96875,0 1.091406,0.031 0.198437,0.0563 -1.984375,0.0563 -2.182813,0 -3.075782,-0.0253 -1.984375,-0.0563 z m 69.98229,-18.03638 c 9.99208,-9.99243 18.2071,-18.16806 18.25561,-18.16806 0.0485,0 -8.08714,8.17563 -18.07922,18.16806 -9.99208,9.99243 -18.2071,18.16805 -18.25561,18.16805 -0.0485,0 8.08715,-8.17562 18.07922,-18.16805 z M 90.246031,158.7353 c 0.0036,-0.29104 0.04313,-0.38875 0.08785,-0.21713 0.04472,0.17162 0.04178,0.40975 -0.0065,0.52917 -0.04832,0.11942 -0.08491,-0.021 -0.08131,-0.31204 z m -0.33971,-31.43126 c 0.171621,-0.0447 0.409746,-0.0418 0.529166,0.007 0.119421,0.0483 -0.02099,0.0849 -0.312037,0.0813 -0.291042,-0.004 -0.388751,-0.0431 -0.217129,-0.0878 z m 84.705909,-5.56631 -3.87906,-3.92465 3.92466,3.87905 c 3.64675,3.60438 4.00422,3.97025 3.87905,3.97025 -0.0251,0 -1.79117,-1.76609 -3.92465,-3.92465 z m -2.64499,-4.93889 -8.81879,-8.86354 8.86354,8.81878 c 4.87495,4.85033 8.86355,8.83893 8.86355,8.86354 0,0.12398 -0.71115,-0.58002 -8.9083,-8.81878 z m -19.40212,3.04271 c 1.06384,-1.06715 1.97395,-1.94028 2.02245,-1.94028 0.0485,0 -0.78222,0.87313 -1.84606,1.94028 -1.06385,1.06715 -1.97395,1.94028 -2.02246,1.94028 -0.0485,0 0.78222,-0.87313 1.84607,-1.94028 z m -88.723615,-5.82083 c 2.132651,-2.13431 3.917236,-3.88056 3.965742,-3.88056 0.04851,0 -1.656702,1.74625 -3.789353,3.88056 -2.132651,2.1343 -3.917236,3.88055 -3.965743,3.88055 -0.04851,0 1.656703,-1.74625 3.789354,-3.88055 z m 94.895725,-8.15799 -3.87906,-3.92465 3.92466,3.87905 c 3.64675,3.60438 4.00422,3.97025 3.87905,3.97025 -0.0251,0 -1.79117,-1.76609 -3.92465,-3.92465 z m -78.976652,-7.716998 3.924628,-3.967725 3.5719,3.614896 3.5719,3.614897 -3.571951,-3.525644 -3.57195,-3.525644 -3.924578,3.878473 -3.924577,3.878475 z m 63.101652,-8.158002 -3.87906,-3.924653 3.92466,3.879053 c 3.64675,3.604376 4.00422,3.970253 3.87905,3.970253 -0.0251,0 -1.79118,-1.766094 -3.92465,-3.924653 z m -43.125585,2.446944 c 0,-0.03663 0.138906,-0.175533 0.308685,-0.30868 l 0.30868,-0.242084 -0.24209,0.308681 c -0.230426,0.29382 -0.375275,0.387258 -0.375275,0.242083 z M 95.503311,82.35891 c 2.084107,-2.085799 3.828973,-3.792361 3.87748,-3.792361 0.04851,0 -1.616984,1.706562 -3.701091,3.792361 -2.084107,2.085799 -3.828972,3.792361 -3.877479,3.792361 -0.04851,0 1.616983,-1.706562 3.70109,-3.792361 z m 7.245869,-4.248032 c 0.008,-0.205484 0.0503,-0.247279 0.10657,-0.106569 0.051,0.12733 0.0447,0.279466 -0.0139,0.33808 -0.0586,0.05861 -0.1003,-0.04557 -0.0926,-0.231511 z m 24.41443,-3.82176 -3.87905,-3.924653 3.92466,3.879053 c 3.64674,3.604377 4.00422,3.970253 3.87905,3.970253 -0.0251,0 -1.79118,-1.766094 -3.92466,-3.924653 z m -22.65054,3.292594 c 0.008,-0.205485 0.0503,-0.24728 0.10657,-0.106569 0.051,0.127329 0.0447,0.279465 -0.0139,0.338079 -0.0586,0.05861 -0.1003,-0.04557 -0.0926,-0.23151 z m 6.86524,-11.097802 c 2.08411,-2.085799 3.82897,-3.792362 3.87748,-3.792362 0.0485,0 -1.61698,1.706563 -3.70109,3.792362 -2.08411,2.085798 -3.82897,3.792361 -3.87748,3.792361 -0.0485,0 1.61698,-1.706563 3.70109,-3.792361 z"
         id="path897"
         sodipodi:nodetypes="scsssccscssssscsccccccccscsssscsssssssssssssscssscccccccccscssssscsssssssccsccscsssccsccsssss" />
      <path
         style="fill:#8b9190;stroke-width:0.176389;filter:url(#filter1674)"
         d="m 131.44255,184.97326 c 2.74064,-0.0273 7.22533,-0.0273 9.96597,0 2.74064,0.0273 0.4983,0.0497 -4.98299,0.0497 -5.48128,0 -7.72362,-0.0224 -4.98298,-0.0497 z m -46.610767,-1.8081 c 0.175594,-0.19403 0.358948,-0.35278 0.407455,-0.35278 0.04851,0 -0.05547,0.15875 -0.231066,0.35278 -0.175593,0.19403 -0.358948,0.35278 -0.407455,0.35278 -0.04851,0 0.05547,-0.15875 0.231066,-0.35278 z m 14.199306,-0.0882 c 0.227851,-0.24254 0.45396,-0.44097 0.502467,-0.44097 0.04851,0 -0.09823,0.19843 -0.326078,0.44097 -0.22785,0.24253 -0.45396,0.44097 -0.502467,0.44097 -0.04851,0 0.09823,-0.19844 0.326078,-0.44097 z m 47.249721,0.13229 -0.24208,-0.30868 0.30868,0.24208 c 0.16977,0.13315 0.30868,0.27206 0.30868,0.30868 0,0.14518 -0.14485,0.0517 -0.37528,-0.24208 z m -2.66743,-1.04286 c 0.12127,-0.0489 0.31971,-0.0489 0.44097,0 0.12127,0.0489 0.0221,0.089 -0.22048,0.089 -0.24254,0 -0.34176,-0.04 -0.22049,-0.089 z M 97.311682,171.96447 c 0.002,-0.38806 0.03808,-0.52604 0.08027,-0.30663 0.04219,0.21942 0.04059,0.53692 -0.0036,0.70556 -0.04415,0.16864 -0.07867,-0.0109 -0.07671,-0.39893 z m -2.852778,-0.0147 c 0.0085,-0.20548 0.05026,-0.24727 0.106567,-0.10656 0.05095,0.12733 0.04469,0.27946 -0.01392,0.33808 -0.05861,0.0586 -0.100302,-0.0456 -0.09264,-0.23152 z m 1.749963,-3.60127 c -0.158978,-0.10274 -0.180733,-0.17207 -0.05451,-0.17369 0.115542,-0.001 0.259133,0.0767 0.319091,0.17369 0.135343,0.21899 0.07428,0.21899 -0.264583,0 z m -9.849928,-3.175 c 0,-0.24254 0.04004,-0.34176 0.08897,-0.22049 0.04893,0.12127 0.04893,0.3197 0,0.44097 -0.04893,0.12127 -0.08897,0.0221 -0.08897,-0.22048 z m 0,-2.11667 c 0,-0.24254 0.04004,-0.34175 0.08897,-0.22049 0.04893,0.12127 0.04893,0.31971 0,0.44097 -0.04893,0.12127 -0.08897,0.0221 -0.08897,-0.22048 z m 4.348799,-1.00244 c 0.12733,-0.051 0.279467,-0.0447 0.33808,0.0139 0.05861,0.0586 -0.04557,0.1003 -0.231511,0.0926 -0.205484,-0.008 -0.247279,-0.0503 -0.106569,-0.10657 z m 8.49974,-1.18083 c 0,-0.0366 0.138906,-0.17553 0.308681,-0.30868 l 0.30868,-0.24208 -0.242083,0.30868 c -0.230429,0.29382 -0.375278,0.38726 -0.375278,0.24208 z m -4.457753,-3.2357 c 0.313131,-0.039 0.868756,-0.0396 1.234722,-10e-4 0.365965,0.0382 0.109767,0.0701 -0.56933,0.0708 -0.679097,7.1e-4 -0.978525,-0.0305 -0.665392,-0.0694 z m 2.178623,-1.21031 c 0.0085,-0.20549 0.05026,-0.24728 0.106567,-0.10657 0.05095,0.12733 0.04469,0.27947 -0.01392,0.33808 -0.05861,0.0586 -0.100301,-0.0456 -0.09264,-0.23151 z m 6.512462,-15.83871 c 0,-0.0366 0.13891,-0.17553 0.30868,-0.30868 l 0.30868,-0.24208 -0.24208,0.30868 c -0.23043,0.29382 -0.37528,0.38726 -0.37528,0.24208 z m -2.29305,-0.17639 c 0,-0.0366 0.1389,-0.17553 0.30868,-0.30868 l 0.30868,-0.24208 -0.24209,0.30868 c -0.23043,0.29382 -0.37527,0.38726 -0.37527,0.24208 z m 2.99861,-0.69415 c 0,-0.0304 0.25797,-0.28832 0.57326,-0.57326 l 0.57326,-0.51807 -0.51807,0.57326 c -0.48291,0.53436 -0.62845,0.65434 -0.62845,0.51807 z m -2.11667,-0.35278 c 0,-0.0303 0.25797,-0.28832 0.57326,-0.57326 l 0.57327,-0.51807 -0.51807,0.57326 c -0.48292,0.53437 -0.62846,0.65434 -0.62846,0.51807 z m 6.61458,-4.17814 c 0.47778,-0.48507 0.90837,-0.88194 0.95688,-0.88194 0.0485,0 -0.30271,0.39687 -0.78049,0.88194 -0.47777,0.48507 -0.90837,0.88195 -0.95688,0.88195 -0.0485,0 0.30272,-0.39688 0.78049,-0.88195 z m -2.38125,-0.0882 c 0.22785,-0.24254 0.45396,-0.44097 0.50247,-0.44097 0.0485,0 -0.0982,0.19843 -0.32608,0.44097 -0.22785,0.24253 -0.45396,0.44097 -0.50246,0.44097 -0.0485,0 0.0982,-0.19844 0.32607,-0.44097 z m 2.1093,-1.89618 c 0.73095,-0.77879 0.88932,-0.91883 0.88932,-0.78638 0,0.0283 -0.37704,0.40534 -0.83785,0.83785 l -0.83785,0.78638 z m 5.8282,-3.53888 c 0,-0.0303 0.25797,-0.28832 0.57327,-0.57326 l 0.57326,-0.51807 -0.51807,0.57326 c -0.48291,0.53437 -0.62846,0.65435 -0.62846,0.51807 z m -0.97013,-1.35591 c 0.37892,-0.38806 0.72864,-0.70556 0.77715,-0.70556 0.0485,0 -0.22184,0.3175 -0.60077,0.70556 -0.37892,0.38805 -0.72864,0.70555 -0.77715,0.70555 -0.0485,0 0.22184,-0.3175 0.60077,-0.70555 z m 2.55763,-0.41938 c 0,-0.0366 0.13891,-0.17553 0.30868,-0.30868 l 0.30869,-0.24208 -0.24209,0.30868 c -0.23043,0.29382 -0.37528,0.38726 -0.37528,0.24208 z m 0.88195,-1.05833 c 0,-0.0366 0.1389,-0.17554 0.30868,-0.30868 l 0.30868,-0.24209 -0.24208,0.30869 c -0.23043,0.29381 -0.37528,0.38725 -0.37528,0.24208 z m -1.6757,-0.46257 c 0.1756,-0.19403 0.35895,-0.35278 0.40746,-0.35278 0.0485,0 -0.0555,0.15875 -0.23107,0.35278 -0.17559,0.19403 -0.35894,0.35278 -0.40745,0.35278 -0.0485,0 0.0555,-0.15875 0.23106,-0.35278 z m -17.465805,-2.68993 -1.76058,-1.80799 1.807986,1.76058 c 1.679264,1.63524 1.888174,1.85539 1.76058,1.85539 -0.02607,0 -0.839668,-0.81359 -1.807986,-1.80798 z m 18.524145,1.45521 c 0.17559,-0.19403 0.35895,-0.35278 0.40745,-0.35278 0.0485,0 -0.0555,0.15875 -0.23106,0.35278 -0.1756,0.19402 -0.35895,0.35277 -0.40746,0.35277 -0.0485,0 0.0555,-0.15875 0.23107,-0.35277 z m 0.61736,-0.77216 c 0,-0.0366 0.1389,-0.17553 0.30868,-0.30868 l 0.30868,-0.24208 -0.24208,0.30868 c -0.23043,0.29382 -0.37528,0.38726 -0.37528,0.24208 z m -29.419044,-0.30388 c 0.165777,-0.0928 0.455286,-0.094 0.696207,-0.003 0.354287,0.13392 0.314288,0.1563 -0.283789,0.15882 -0.504298,0.002 -0.617982,-0.0409 -0.412418,-0.15589 z m 30.124594,-0.57806 c 0,-0.0366 0.13891,-0.17553 0.30868,-0.30868 l 0.30869,-0.24208 -0.24209,0.30868 c -0.23043,0.29382 -0.37528,0.38725 -0.37528,0.24208 z m -27.869441,-0.51776 c 0,-0.0304 0.257969,-0.28833 0.573264,-0.57327 l 0.573264,-0.51807 -0.51807,0.57327 c -0.482914,0.53436 -0.628458,0.65434 -0.628458,0.51807 z m 2.995459,-1.7528 c 1.016914,-1.0429 1.870195,-1.89618 1.896181,-1.89618 0.127389,0 -0.08772,0.22611 -1.848932,1.94343 l -1.89618,1.84893 z m 0.444124,-1.71979 c 0.477776,-0.48507 0.908371,-0.88194 0.956878,-0.88194 0.04851,0 -0.302713,0.39687 -0.780489,0.88194 -0.477776,0.48507 -0.908371,0.88195 -0.956878,0.88195 -0.04851,0 0.302714,-0.39688 0.780489,-0.88195 z m 8.512818,-1.88864 c 0.21942,-0.0422 0.53692,-0.0406 0.70556,0.004 0.16864,0.0442 -0.0109,0.0787 -0.39893,0.0767 -0.38806,-0.002 -0.52604,-0.0381 -0.30663,-0.0803 z m 1.94925,-0.17213 c 0.12733,-0.051 0.27947,-0.0447 0.33808,0.0139 0.0586,0.0586 -0.0456,0.1003 -0.23151,0.0926 -0.20549,-0.008 -0.24728,-0.0503 -0.10657,-0.10657 z m -2.12769,-1.06232 c 0.21828,-0.0421 0.57547,-0.0421 0.79375,0 0.21828,0.042 0.0397,0.0764 -0.39688,0.0764 -0.43656,0 -0.61515,-0.0344 -0.39687,-0.0764 z m 2.12769,-0.1724 c 0.12733,-0.051 0.27947,-0.0447 0.33808,0.0139 0.0586,0.0586 -0.0456,0.1003 -0.23151,0.0926 -0.20549,-0.008 -0.24728,-0.0503 -0.10657,-0.10657 z m 18.64963,-0.2201 c -0.0558,-0.0903 -0.0208,-0.21406 0.0778,-0.27499 0.0986,-0.0609 0.17926,0.013 0.17926,0.1642 0,0.30983 -0.10584,0.35545 -0.25705,0.11079 z m -9.79711,-1.84267 c 0,-0.0366 0.1389,-0.17554 0.30868,-0.30868 l 0.30868,-0.24209 -0.24209,0.30868 c -0.23042,0.29382 -0.37527,0.38726 -0.37527,0.24209 z m -0.17639,-1.05834 c 0,-0.0366 0.1389,-0.17553 0.30868,-0.30868 l 0.30868,-0.24208 -0.24208,0.30868 c -0.23043,0.29382 -0.37528,0.38726 -0.37528,0.24208 z m 1.41111,-0.17638 c 0,-0.0366 0.1389,-0.17554 0.30868,-0.30868 l 0.30868,-0.24209 -0.24208,0.30868 c -0.23043,0.29382 -0.37528,0.38726 -0.37528,0.24209 z m 0.17639,-1.41112 c 0,-0.0366 0.1389,-0.17553 0.30868,-0.30868 l 0.30868,-0.24208 -0.24208,0.30868 c -0.23043,0.29382 -0.37528,0.38726 -0.37528,0.24208 z m -33.956368,-5.62194 -3.879052,-3.92465 3.924652,3.87905 c 2.15856,2.13348 3.924653,3.89957 3.924653,3.92465 0,0.12517 -0.365876,-0.2323 -3.970253,-3.87905 z m 36.190628,1.86678 c -0.0647,-0.0647 -0.1176,-0.19961 -0.1176,-0.29986 0,-0.11052 0.0822,-0.10011 0.20873,0.0265 0.1148,0.1148 0.16772,0.24974 0.11759,0.29986 -0.0501,0.0501 -0.14405,0.0382 -0.20872,-0.0265 z m -16.940923,-0.78845 c 0.349536,-0.38623 0.560589,-0.44704 0.249156,-0.0718 -0.182723,0.22017 -0.02822,0.26599 1.080837,0.32053 l 1.29403,0.0636 -1.46073,0.008 -1.460739,0.008 0.297446,-0.32868 z m 17.002413,-0.0978 c 0.006,-0.32543 0.34452,-0.68933 0.34738,-0.3736 0.001,0.16405 -0.0767,0.34733 -0.17369,0.40729 -0.097,0.06 -0.17517,0.0448 -0.17369,-0.0337 z m -11.46798,-0.29749 c 0,-0.0366 0.13891,-0.17554 0.30869,-0.30868 l 0.30868,-0.24209 -0.24209,0.30868 c -0.23043,0.29382 -0.37528,0.38726 -0.37528,0.24209 z m 0.33028,-2.35875 -0.24208,-0.30868 0.30868,0.24208 c 0.29382,0.23043 0.38726,0.37528 0.24208,0.37528 -0.0366,0 -0.17553,-0.13891 -0.30868,-0.30868 z m 33.07866,-14.19931 -0.33602,-0.396875 0.39688,0.336019 c 0.21828,0.18481 0.39687,0.363403 0.39687,0.396875 0,0.141155 -0.14195,0.03694 -0.45773,-0.336019 z M 104.52699,78.213771 c 0,-0.242535 0.04,-0.341753 0.089,-0.220486 0.0489,0.121267 0.0489,0.319705 0,0.440972 -0.0489,0.121268 -0.089,0.02205 -0.089,-0.220486 z m -1.77781,-0.632059 c 0.008,-0.205485 0.0503,-0.24728 0.10657,-0.106569 0.051,0.127329 0.0447,0.279465 -0.0139,0.338079 -0.0586,0.05861 -0.1003,-0.04557 -0.0926,-0.23151 z"
         id="path895"
         sodipodi:nodetypes="ssssssssssssssscssscssccscccssssssccsssssssssscscccsscssccsccssssssscsssscsssscsssscssssssssssssssscssscssssssssscsssscsscssscscssssscsssscsscccccsscsssscssssscssssssccscccscccccsccscccscssssccsssscsssccsssscssscssscscsccsccccccsccsssccssscsssscsssscssccscc" />
      <path
         style="fill:#798b8a;stroke-width:0.176389;filter:url(#filter1668)"
         d="m 146.90031,184.22077 c -0.11833,-0.11833 -3.80605,-0.16322 -10.86639,-0.13229 -5.87801,0.0257 -10.65765,-0.001 -10.62143,-0.0597 0.14469,-0.23397 -1.13958,-1.42894 -1.78881,-1.66444 l -0.6919,-0.25096 10.75973,0.0537 c 5.91784,0.0295 10.87878,0.0919 11.0243,0.13862 0.84599,0.27166 1.87872,1.05425 2.25046,1.70537 0.24012,0.42059 0.21734,0.493 -0.066,0.2097 z m -62.539716,-0.35005 c 0.150255,-0.39262 0.718989,-0.84 1.67849,-1.32034 l 0.854523,-0.42779 6.901547,-0.0118 c 6.033663,-0.0103 6.858066,0.02 6.555756,0.24106 -0.19019,0.13907 -0.406199,0.21552 -0.480028,0.16989 -0.07383,-0.0456 -0.134237,0.006 -0.134237,0.11424 0,0.10846 -0.06784,0.15528 -0.150749,0.10404 -0.188892,-0.11674 -0.831342,0.57131 -0.973397,1.04248 l -0.106357,0.35278 H 91.38274 c -6.259324,0 -7.11112,-0.0321 -7.022146,-0.26458 z m 9.250564,-8.42257 c 0.983507,-1.88719 1.170082,-4.26261 0.467584,-5.95313 -0.120945,-0.29104 -0.207081,-0.58869 -0.191414,-0.66145 0.01566,-0.0728 -0.0484,-0.1323 -0.142371,-0.1323 -0.09397,0 -0.125163,-0.11906 -0.06932,-0.26458 0.07571,-0.19729 0.390479,-0.26458 1.23761,-0.26458 h 1.136078 l 0.429244,0.46316 c 0.236086,0.25474 0.400366,0.51271 0.365067,0.57326 -0.0353,0.0606 0.0167,0.30854 0.115579,0.55108 0.38158,0.93607 0.443454,2.74869 0.132464,3.88055 -0.119949,0.43656 -0.232563,0.87313 -0.250253,0.97014 -0.01769,0.097 -0.130357,0.35498 -0.250372,0.57327 l -0.218209,0.39687 h -1.415314 c -0.778424,0 -1.384291,-0.0595 -1.346371,-0.13229 z M 86.37913,164.11516 c 0,-0.43656 0.0344,-0.61515 0.07644,-0.39687 0.04204,0.21828 0.04204,0.57547 0,0.79375 -0.04204,0.21828 -0.07644,0.0397 -0.07644,-0.39688 z m 3.903721,-2.35283 c 0.267859,-1.53278 1.408874,-1.88051 6.514333,-1.9853 l 4.262376,-0.0875 -0.81075,0.43854 c -0.445917,0.2412 -0.943842,0.64165 -1.106499,0.8899 l -0.295744,0.45136 h -4.042876 -4.042876 l -0.282737,0.39687 -0.282737,0.39688 z m 60.606569,-6.02564 c 3.34593,-3.34698 6.12319,-6.08542 6.1717,-6.08542 0.0485,0 -2.64938,2.73844 -5.99531,6.08542 -3.34592,3.34698 -6.12318,6.08542 -6.17169,6.08542 -0.0485,0 2.64938,-2.73844 5.9953,-6.08542 z m -18.77027,5.77501 -8.45153,-0.0458 -0.66953,-0.70383 c -0.36825,-0.3871 -0.75209,-0.71374 -0.85299,-0.72587 -0.1009,-0.0121 -0.25621,-0.032 -0.34514,-0.0441 -0.0889,-0.0121 -0.22784,-0.0921 -0.30869,-0.1776 -0.28095,-0.29733 16.88826,-0.005 17.61813,0.29962 0.68309,0.28541 1.83883,1.28278 1.60284,1.3832 -0.0779,0.0331 -3.94475,0.0396 -8.59309,0.0144 z m -38.142398,-3.96702 c -0.04497,-0.0728 -0.03951,-0.20066 0.01214,-0.28421 0.05164,-0.0836 0.140499,-0.46059 0.197462,-0.83785 0.05696,-0.37726 0.142602,-0.88437 0.190305,-1.1269 0.0477,-0.24254 0.118004,-0.59972 0.156224,-0.79375 0.145081,-0.73655 0.252499,-1.10555 0.795884,-2.73403 0.307527,-0.92163 0.575644,-1.75507 0.595817,-1.85208 0.02017,-0.097 0.12425,-0.33514 0.231285,-0.52917 0.107034,-0.19403 0.190699,-0.39247 0.185921,-0.44097 -0.0048,-0.0485 0.153289,-0.4057 0.351261,-0.79375 0.197971,-0.38806 0.372088,-0.76343 0.386926,-0.83416 0.07422,-0.35379 0.987582,-2.19436 1.189616,-2.39727 0.127496,-0.12806 0.280222,-0.42571 0.339392,-0.66146 0.05916,-0.23575 0.160295,-0.42864 0.22473,-0.42864 0.06444,0 0.274112,-0.29766 0.465949,-0.66146 0.191835,-0.3638 0.527385,-0.85908 0.745666,-1.10063 0.21828,-0.24154 0.39687,-0.49951 0.39687,-0.57326 0,-0.0738 0.13891,-0.2796 0.30868,-0.45744 0.16978,-0.17783 0.90399,-1.02954 1.6316,-1.89268 1.5163,-1.79874 2.07165,-2.36439 3.8856,-3.95759 1.52762,-1.34172 7.50072,-7.28391 8.60348,-8.55896 0.41757,-0.48282 0.93963,-1.07628 1.16012,-1.31881 0.66666,-0.73332 1.87302,-2.24737 1.87302,-2.35075 0,-0.0533 0.23813,-0.35764 0.52917,-0.67629 0.29104,-0.31865 0.52916,-0.64437 0.52916,-0.72382 0,-0.0795 0.15875,-0.31485 0.35278,-0.52311 0.19403,-0.20827 0.35278,-0.48276 0.35278,-0.60999 0,-0.12723 0.0779,-0.23132 0.17305,-0.23132 0.0952,0 0.64101,-0.94907 1.21295,-2.10905 1.14507,-2.32237 1.37258,-2.52533 0.8933,-0.7969 -0.17418,0.62813 -0.2723,1.14206 -0.21806,1.14206 0.0542,0 0.0111,0.10545 -0.0959,0.23433 -0.10697,0.12888 -0.2203,0.38685 -0.25185,0.57326 -0.0316,0.18642 -0.19393,0.59691 -0.36082,0.9122 -0.1669,0.3153 -0.25968,0.57326 -0.20619,0.57326 0.10332,0 -0.37258,0.98148 -0.63344,1.30636 -0.42666,0.53141 -1.74781,2.59756 -1.74781,2.73343 0,0.0857 -0.11906,0.20149 -0.26459,0.25734 -0.14552,0.0558 -0.26458,0.22308 -0.26458,0.37165 0,0.14856 -0.0642,0.27011 -0.14255,0.27011 -0.0784,0 -0.37606,0.31958 -0.66146,0.71016 -0.2854,0.39059 -0.71734,0.93186 -0.95988,1.20281 -0.24253,0.27096 -0.9966,1.12199 -1.67569,1.89118 -1.38008,1.56318 -2.45344,2.63543 -6.60964,6.6028 -1.57529,1.50371 -3.25402,3.21028 -3.73053,3.79236 -0.4765,0.58208 -0.98411,1.18405 -1.12803,1.33771 -0.14391,0.15366 -0.26166,0.33572 -0.26166,0.40458 0,0.0688 -0.19308,0.33341 -0.42905,0.5879 -0.23598,0.25449 -0.57332,0.74712 -0.74966,1.09473 -0.17633,0.34761 -0.36643,0.67171 -0.42245,0.72022 -0.10157,0.0879 -1.661376,3.14719 -1.729613,3.39228 -0.01977,0.071 -0.161222,0.42819 -0.314341,0.79375 -0.153122,0.36557 -0.296226,0.74404 -0.318012,0.84105 -0.02179,0.097 -0.133332,0.40549 -0.247879,0.68551 -0.114549,0.28001 -0.233883,0.6372 -0.265189,0.79375 -0.03131,0.15655 -0.106235,0.40369 -0.166512,0.54921 -0.06028,0.14552 -0.147507,0.46302 -0.193847,0.70556 -0.04634,0.24253 -0.13427,0.63941 -0.195405,0.88194 -0.233304,0.92556 -0.570646,2.78717 -0.694096,3.83033 -0.141169,1.19291 -0.146341,1.19676 -1.608818,1.19676 -0.738029,0 -1.378663,-0.0595 -1.423631,-0.13229 z m 56.736288,-19.97605 c 2.0841,-2.08579 3.82897,-3.79236 3.87747,-3.79236 0.0485,0 -1.61698,1.70657 -3.70109,3.79236 -2.0841,2.0858 -3.82897,3.79236 -3.87748,3.79236 -0.0485,0 1.61699,-1.70656 3.7011,-3.79236 z m 12.6007,-11.0684 -0.51807,-0.57326 0.57327,0.51807 c 0.31529,0.28494 0.57326,0.5429 0.57326,0.57326 0,0.13627 -0.14554,0.0163 -0.62846,-0.51807 z m -75.747929,-2.3554 c 0,-0.0212 0.357188,-0.21139 0.79375,-0.42272 0.436563,-0.21134 0.79375,-0.45655 0.79375,-0.54491 0,-0.0884 0.08753,-0.16065 0.19452,-0.16065 0.200207,0 4.63453,-4.35601 4.76159,-4.67749 0.09097,-0.23018 1.67338,-1.23494 2.364029,-1.50106 0.844545,-0.32542 1.266975,-0.37249 3.88056,-0.43242 1.35819,-0.0311 2.74725,-0.10175 3.0868,-0.1569 1.01684,-0.16517 1.47597,-0.25378 1.94028,-0.37448 0.24253,-0.0631 0.59972,-0.13856 0.79375,-0.1678 0.19403,-0.0292 0.35278,-0.0698 0.35278,-0.0902 0,-0.0204 0.2316,-0.0747 0.51466,-0.1207 0.28306,-0.046 0.7806,-0.1948 1.10563,-0.33061 0.32504,-0.13581 0.60937,-0.24058 0.63187,-0.23282 0.1004,0.0346 2.34019,-1.19 2.39274,-1.30825 0.0323,-0.0728 0.17125,-0.13229 0.30868,-0.13229 0.13744,0 0.24989,-0.0794 0.24989,-0.17639 0,-0.097 0.0992,-0.17666 0.22049,-0.17698 0.54473,-0.001 3.19959,-3.21586 3.38451,-4.09783 0.0958,-0.45683 0.56704,-1.37213 0.65908,-1.28009 0.0525,0.0525 -0.0584,0.5499 -0.24638,1.10537 -0.18799,0.55547 -0.36196,1.08932 -0.3866,1.18634 -0.10328,0.40674 -0.56353,1.25873 -0.85171,1.57666 -0.17047,0.18807 -0.30995,0.40635 -0.30995,0.48507 0,0.1692 -1.90938,2.07401 -2.39672,2.39099 -0.72171,0.4694 -3.01827,1.59492 -3.68869,1.80778 -0.38806,0.12321 -0.78493,0.27089 -0.88195,0.32818 -0.097,0.0573 -0.25576,0.12161 -0.35278,0.14292 -0.097,0.0213 -0.37482,0.0871 -0.61736,0.14629 -0.24253,0.0592 -0.63941,0.1448 -0.88194,0.19032 -0.24254,0.0455 -0.6791,0.13353 -0.97014,0.19557 -0.76379,0.16282 -0.98321,0.18184 -3.61597,0.31347 -5.029146,0.25143 -4.985219,0.23317 -8.113141,3.37224 -2.239979,2.24797 -3.429927,3.0651 -4.579412,3.14468 -0.29514,0.0204 -0.536616,0.0198 -0.536616,-10e-4 z m 64.732079,-8.66891 -2.20222,-2.24895 2.24896,2.20221 c 2.08905,2.04563 2.32894,2.2957 2.20222,2.2957 -0.0257,0 -1.03774,-1.01203 -2.24896,-2.24896 z m -36.33347,-8.23577 c 0,-0.13979 0.072,-0.29865 0.15994,-0.35302 0.088,-0.0544 0.1184,0.06 0.0676,0.25418 -0.1077,0.41186 -0.22756,0.46393 -0.22756,0.0988 z m -16.64245,-0.55727 c 0.580369,-0.76244 1.92626,-1.96291 2.35229,-2.09812 0.19549,-0.062 0.35544,-0.20007 0.35544,-0.30672 0,-0.10664 0.0462,-0.14774 0.10258,-0.0913 0.0564,0.0564 0.37137,-0.01 0.69989,-0.14699 1.92708,-0.80518 3.2641,0.84224 1.85959,2.29133 -0.71195,0.73455 -1.27358,0.86423 -3.82718,0.88373 l -1.958877,0.015 0.416267,-0.54686 z m -1.085767,-8.714809 c -0.923286,-1.020219 0.361426,-1.725983 1.941417,-1.066523 0.29104,0.121476 0.62609,0.237143 0.74455,0.257039 0.52796,0.08868 0.17262,0.589312 -0.52407,0.738343 -0.0728,0.01556 -0.15213,0.0443 -0.17639,0.06384 -0.0242,0.01955 -0.20284,0.06413 -0.396871,0.09908 -0.194028,0.03494 -0.562164,0.104483 -0.818077,0.15453 -0.319204,0.06242 -0.561148,-0.01492 -0.770559,-0.246312 z"
         id="path893"
         sodipodi:nodetypes="cccscccscccscsssssscsccsssssscsscssscssssssssscsscccccssssssccscscccscccsssssssssssssssssssssssssssssccsscscssssssssssscssssssssssccsssssscssssssssscsccsssccsscsssssssscsscssscssscssscscccccsccsccccsssscssss" />
      <path
         style="fill:#6f7171;stroke-width:0.176389;filter:url(#filter1662)"
         d="m 149.51924,191.10266 c 0,-0.33955 0.0363,-0.47845 0.0807,-0.30868 0.0444,0.16978 0.0444,0.44759 0,0.61736 -0.0444,0.16978 -0.0807,0.0309 -0.0807,-0.30868 z m -44.44683,-6.30584 c 3.75929,-0.0266 9.91085,-0.0266 13.67014,0 3.75929,0.0266 0.68351,0.0483 -6.83507,0.0483 -7.51858,0 -10.59436,-0.0217 -6.83507,-0.0483 z m -6.25975,-0.69808 c 0.219412,-0.0422 0.536912,-0.0406 0.705555,0.004 0.168644,0.0441 -0.01088,0.0787 -0.398931,0.0767 -0.388056,-0.002 -0.526036,-0.0381 -0.306624,-0.0803 z m 26.11452,0.004 c 0.12733,-0.051 0.27947,-0.0447 0.33808,0.0139 0.0586,0.0586 -0.0456,0.1003 -0.23151,0.0926 -0.20548,-0.008 -0.24728,-0.0503 -0.10657,-0.10656 z m 11.33589,-12.50601 c 0.008,-0.20548 0.0503,-0.24728 0.10657,-0.10657 0.051,0.12733 0.0447,0.27947 -0.0139,0.33808 -0.0586,0.0586 -0.1003,-0.0456 -0.0926,-0.23151 z m -13.90455,-9.54369 c 0.16977,-0.0444 0.44759,-0.0444 0.61736,0 0.16978,0.0444 0.0309,0.0807 -0.30868,0.0807 -0.33955,0 -0.47845,-0.0363 -0.30868,-0.0807 z m -54.724977,-18.1785 -18.079539,-18.12396 18.123959,18.07954 c 9.968178,9.94374 18.123959,18.09952 18.123959,18.12396 0,0.12348 -1.360475,-1.23035 -18.168379,-18.07954 z m 37.716327,17.63895 c 3.32982,-0.0268 8.72732,-0.0268 11.99445,3e-5 3.26713,0.0269 0.54274,0.0488 -6.0542,0.0488 -6.59695,-2e-5 -9.27006,-0.022 -5.94025,-0.0489 z m -11.563925,-1.75823 c 0.268122,-0.0405 0.664997,-0.0395 0.881944,0.002 0.216948,0.0419 -0.0024,0.075 -0.487494,0.0737 -0.48507,-0.001 -0.662572,-0.0356 -0.39445,-0.0761 z m 41.455405,-0.004 c 0.56137,-0.0351 1.4345,-0.0348 1.94028,7e-4 0.50578,0.0355 0.0465,0.0642 -1.02068,0.0638 -1.06715,-3.5e-4 -1.48097,-0.0294 -0.9196,-0.0646 z m -47.763733,-6.39585 c 2.132651,-2.13431 3.917235,-3.88056 3.965742,-3.88056 0.04851,0 -1.656702,1.74625 -3.789354,3.88056 -2.132651,2.13431 -3.917235,3.88056 -3.965742,3.88056 -0.04851,0 1.656703,-1.74625 3.789354,-3.88056 z m 81.403473,-15.61042 c 6.5479,-6.54844 11.94496,-11.90625 11.99347,-11.90625 0.0485,0 -5.26918,5.35781 -11.81708,11.90625 -6.5479,6.54844 -11.94496,11.90625 -11.99346,11.90625 -0.0485,0 5.26917,-5.35781 11.81707,-11.90625 z m -89.254317,-0.22048 -3.790823,-3.83646 3.836458,3.79082 c 2.110052,2.08495 3.836458,3.81136 3.836458,3.83646 0,0.12522 -0.359743,-0.22607 -3.882093,-3.79082 z m 26.636257,0.0441 c 0.52695,-0.53357 0.99778,-0.97014 1.04629,-0.97014 0.0485,0 -0.34295,0.43657 -0.8699,0.97014 -0.52694,0.53358 -0.99777,0.97014 -1.04628,0.97014 -0.0485,0 0.34295,-0.43656 0.86989,-0.97014 z m 4.05695,-3.85895 c 0,-0.0366 0.1389,-0.17554 0.30868,-0.30869 l 0.30868,-0.24208 -0.24208,0.30868 c -0.23043,0.29382 -0.37528,0.38726 -0.37528,0.24209 z m 56.79543,-3.41709 -3.2614,-3.30729 3.30729,3.26141 c 1.81901,1.79377 3.30729,3.28205 3.30729,3.30729 0,0.12556 -0.323,-0.1886 -3.35318,-3.26141 z m -57.2364,1.36702 c 0.17559,-0.19403 0.35894,-0.35278 0.40745,-0.35278 0.0485,0 -0.0555,0.15875 -0.23106,0.35278 -0.1756,0.19402 -0.35895,0.35277 -0.40746,0.35277 -0.0485,0 0.0555,-0.15875 0.23107,-0.35277 z m 3.26319,-0.77216 c 0,-0.0366 0.13891,-0.17553 0.30868,-0.30868 l 0.30868,-0.24208 -0.24208,0.30868 c -0.23043,0.29382 -0.37528,0.38726 -0.37528,0.24208 z m -1.32292,-1.16812 c 0.1756,-0.19403 0.35895,-0.35278 0.40746,-0.35278 0.0485,0 -0.0555,0.15875 -0.23107,0.35278 -0.17559,0.19403 -0.35894,0.35278 -0.40745,0.35278 -0.0485,0 0.0555,-0.15875 0.23106,-0.35278 z m -47.979278,-7.9816 -3.879053,-3.92465 3.924653,3.87905 c 2.158559,2.13348 3.924653,3.89957 3.924653,3.92465 0,0.12517 -0.365877,-0.2323 -3.970253,-3.87905 z m 84.403408,-29.015972 -32.89635,-32.940626 32.94063,32.89635 c 18.11734,18.092998 32.94062,32.916278 32.94062,32.940628 0,0.12327 -2.40002,-2.27032 -32.9849,-32.896352 z m 18.34463,28.971872 c 2.0841,-2.0858 3.82897,-3.79236 3.87748,-3.79236 0.0485,0 -1.61699,1.70656 -3.7011,3.79236 -2.0841,2.0858 -3.82897,3.79236 -3.87747,3.79236 -0.0485,0 1.61698,-1.70656 3.70109,-3.79236 z m -84.160007,2.77813 -0.242083,-0.30868 0.30868,0.24208 c 0.169775,0.13315 0.308681,0.27205 0.308681,0.30868 0,0.14518 -0.144849,0.0517 -0.375278,-0.24208 z m 8.665556,-3.10931 c 0,-0.0366 0.138906,-0.17553 0.30868,-0.30868 l 0.308681,-0.24208 -0.242083,0.30868 c -0.230429,0.29382 -0.375278,0.38726 -0.375278,0.24208 z m 6.493316,-1.465 c 0.12733,-0.051 0.279467,-0.0447 0.338079,0.0139 0.05861,0.0586 -0.04557,0.1003 -0.23151,0.0926 -0.205484,-0.008 -0.24728,-0.0503 -0.106569,-0.10657 z m 0.352778,-2.11667 c 0.12733,-0.0509 0.279467,-0.0447 0.338079,0.0139 0.05861,0.0586 -0.04557,0.1003 -0.23151,0.0926 -0.205484,-0.008 -0.24728,-0.0503 -0.106569,-0.10657 z m -34.098178,-3.93645 c 2.132651,-2.13431 3.917236,-3.88056 3.965742,-3.88056 0.04851,0 -1.656702,1.74625 -3.789353,3.88056 -2.132651,2.1343 -3.917236,3.88055 -3.965743,3.88055 -0.04851,0 1.656703,-1.74625 3.789354,-3.88055 z m 35.67671,2.52108 c 0.219412,-0.0422 0.536915,-0.0406 0.705555,0.004 0.16864,0.0442 -0.0109,0.0787 -0.398931,0.0767 -0.388055,-0.002 -0.526036,-0.0381 -0.306624,-0.0803 z m 0.21843,-10.34879 c 0,-0.0366 0.138906,-0.17553 0.308685,-0.30868 l 0.30868,-0.24208 -0.24209,0.30868 c -0.230426,0.29382 -0.375275,0.38725 -0.375275,0.24208 z M 79.628311,98.057522 c 2.084107,-2.085799 3.828972,-3.792362 3.877479,-3.792362 0.04851,0 -1.616983,1.706563 -3.70109,3.792362 -2.084107,2.085798 -3.828973,3.792358 -3.87748,3.792358 -0.04851,0 1.616984,-1.70656 3.701091,-3.792358 z m 57.136649,-6.217709 -0.42762,-0.485069 0.48507,0.427621 c 0.26679,0.235193 0.48507,0.453475 0.48507,0.485069 0,0.138339 -0.14284,0.02575 -0.54252,-0.427621 z m 2.28391,-0.705555 -0.24209,-0.308681 0.30869,0.242083 c 0.29382,0.230429 0.38725,0.375278 0.24208,0.375278 -0.0366,0 -0.17553,-0.138906 -0.30868,-0.30868 z M 95.415117,82.270716 c 2.132651,-2.134306 3.917236,-3.880556 3.965743,-3.880556 0.04851,0 -1.656703,1.74625 -3.789354,3.880556 -2.132651,2.134305 -3.917236,3.880555 -3.965743,3.880555 -0.04851,0 1.656703,-1.74625 3.789354,-3.880555 z M 111.29012,66.395715 c 2.13265,-2.134305 3.91723,-3.880555 3.96574,-3.880555 0.0485,0 -1.6567,1.74625 -3.78935,3.880555 -2.13265,2.134306 -3.91724,3.880556 -3.96575,3.880556 -0.0485,0 1.65671,-1.74625 3.78936,-3.880556 z m 7.2301,-0.573264 -3.17316,-3.219097 3.2191,3.173162 c 2.99082,2.948145 3.29879,3.265033 3.17316,3.265033 -0.0253,0 -1.47386,-1.448594 -3.2191,-3.219098 z"
         id="path891"
         sodipodi:nodetypes="ssssssssccscccscccccsccssssscsssccsccccccccscccssssssssssscsssssssssscssscssssscsssscsscssscscsssscssssssssccsscsscsscsccccscccsssssccsccsscsssssssscsssscsssssssssssssscsss" />
      <path
         style="fill:#5b6b6c;stroke-width:0.176389;filter:url(#filter1656)"
         d="m 149.53297,189.60336 c 0.001,-0.58209 0.0339,-0.79895 0.0732,-0.48191 0.0392,0.31703 0.0384,0.79328 -0.002,1.05833 -0.0403,0.26505 -0.0724,0.006 -0.0714,-0.57642 z m 0.002,-3.61597 c 0,-0.6306 0.032,-0.88856 0.0711,-0.57327 0.0391,0.3153 0.0391,0.83123 0,1.14653 -0.0391,0.31529 -0.0711,0.0573 -0.0711,-0.57326 z m -49.48944,-0.66145 c 8.56147,-0.0253 22.57116,-0.0253 31.13264,0 8.56147,0.0253 1.55663,0.046 -15.56632,0.046 -17.122957,0 -24.127801,-0.0207 -15.56632,-0.046 z m -1.719796,-0.81273 c 0,-0.41039 1.687036,-0.4661 14.114936,-0.4661 12.14626,0 12.95441,0.0284 13.12034,0.46076 0.0796,0.2075 -1.98789,0.24479 -13.57067,0.24479 -11.39143,0 -13.664606,-0.0398 -13.664606,-0.23945 z m -3.880556,-2.40638 -6.614584,-0.0947 6.658681,-0.0409 c 4.348773,-0.0267 6.658685,0.0203 6.658685,0.13552 0,0.097 -0.0199,0.158 -0.0441,0.13552 -0.0243,-0.0225 -3.020661,-0.0835 -6.658682,-0.13552 z m -3.884094,-19.49524 c -0.122717,-0.14786 -0.188962,-0.303 -0.147213,-0.34475 0.04175,-0.0418 0.172798,0.0792 0.291215,0.26884 0.256083,0.41006 0.170679,0.45508 -0.144002,0.0759 z m 8.470205,-0.73806 v -0.31601 h 12.259031 12.25903 v 0.29297 0.29296 l -12.25903,0.023 -12.259031,0.023 z m -6.030295,-2.11219 c 0.12733,-0.051 0.279467,-0.0447 0.338079,0.0139 0.05861,0.0586 -0.04557,0.1003 -0.23151,0.0926 -0.205485,-0.008 -0.24728,-0.0503 -0.106569,-0.10657 z m 17.848356,-29.07187 c 0.3291,-0.33955 0.63805,-0.61736 0.68656,-0.61736 0.0485,0 -0.18107,0.27781 -0.51018,0.61736 -0.3291,0.33955 -0.63805,0.61736 -0.68656,0.61736 -0.0485,0 0.18107,-0.27781 0.51018,-0.61736 z m -57.767368,-6.08542 c 0.673894,-0.6791 1.264949,-1.23472 1.313456,-1.23472 0.04851,0 -0.463173,0.55562 -1.137067,1.23472 -0.673893,0.6791 -1.264948,1.23472 -1.313455,1.23472 -0.04851,0 0.463173,-0.55562 1.137066,-1.23472 z M 94.0922,122.57558 c 0.22785,-0.24254 0.45396,-0.44097 0.502467,-0.44097 0.04851,0 -0.09823,0.19843 -0.326078,0.44097 -0.22785,0.24253 -0.45396,0.44097 -0.502467,0.44097 -0.04851,0 0.09823,-0.19844 0.326078,-0.44097 z m 72.4943,-8.68716 -3.79083,-3.83645 3.83646,3.79082 c 3.56476,3.52235 3.91604,3.88209 3.79083,3.88209 -0.0251,0 -1.75151,-1.7264 -3.83646,-3.83646 z m -15.875,-15.874996 -3.79083,-3.836458 3.83646,3.790823 c 2.11005,2.084951 3.83646,3.811361 3.83646,3.836461 0,0.12521 -0.35974,-0.22607 -3.88209,-3.790826 z m -15.78677,-15.786806 -3.87906,-3.924652 3.92466,3.879052 c 2.15856,2.133479 3.92465,3.899573 3.92465,3.924653 0,0.125168 -0.36588,-0.232304 -3.97025,-3.879053 z m -12.6198,-12.611805 -0.60787,-0.661459 0.66146,0.607866 c 0.3638,0.334326 0.66146,0.631982 0.66146,0.661459 0,0.134694 -0.14927,0.0078 -0.71505,-0.607866 z"
         id="path889"
         sodipodi:nodetypes="cccccsssssssssssssccsscccscsssccccccccccscccsssssssssssssssscsssscsssscsssscsss" />
      <path
         style="fill:#4e4e4e;stroke-width:0.176389;filter:url(#filter1650)"
         d="m 79.342238,189.51516 c 0,-1.11566 0.02864,-1.57206 0.06365,-1.01423 0.035,0.55783 0.035,1.47064 0,2.02847 -0.035,0.55783 -0.06365,0.10142 -0.06365,-1.01424 z m 70.186522,-1.67569 c 0.001,-0.48507 0.0356,-0.66257 0.0761,-0.39445 0.0405,0.26812 0.0395,0.665 -0.002,0.88194 -0.0419,0.21695 -0.075,-0.002 -0.0737,-0.48749 z m -6.77573,-8.68715 -0.24208,-0.30869 0.30868,0.24209 c 0.16978,0.13315 0.30868,0.27205 0.30868,0.30868 0,0.14517 -0.14485,0.0517 -0.37528,-0.24208 z m -4.95842,-10.92858 c 0.21941,-0.0422 0.53691,-0.0406 0.70555,0.004 0.16864,0.0441 -0.0109,0.0787 -0.39893,0.0767 -0.38806,-0.002 -0.52604,-0.0381 -0.30662,-0.0803 z m -9.69126,-2.30047 c 2.3593,-0.0278 6.1693,-0.0278 8.46667,6e-5 2.29737,0.0278 0.36704,0.0506 -4.28962,0.0506 -4.65667,-3e-5 -6.53634,-0.0228 -4.17705,-0.0506 z m 22.69788,-12.56783 c 2.13265,-2.13431 3.91724,-3.88056 3.96574,-3.88056 0.0485,0 -1.6567,1.74625 -3.78935,3.88056 -2.13265,2.13431 -3.91724,3.88056 -3.96574,3.88056 -0.0485,0 1.6567,-1.74625 3.78935,-3.88056 z m -4.67431,-11.07007 c 0,-0.0737 0.1786,-0.24367 0.39688,-0.37777 l 0.39687,-0.2438 -0.33602,0.37777 c -0.35949,0.40415 -0.45773,0.45648 -0.45773,0.2438 z m 20.46112,-4.71674 c 2.0841,-2.08579 3.82897,-3.79236 3.87748,-3.79236 0.0485,0 -1.61699,1.70657 -3.7011,3.79236 -2.0841,2.0858 -3.82897,3.79236 -3.87747,3.79236 -0.0485,0 1.61698,-1.70656 3.70109,-3.79236 z m -71.880424,-0.83784 -2.996666,-3.04271 3.042708,2.99666 c 2.826849,2.78408 3.122446,3.08875 2.996666,3.08875 -0.02532,0 -1.394543,-1.36921 -3.042708,-3.0427 z m 6.440144,0.30868 c 0.3291,-0.33955 0.63805,-0.61736 0.68656,-0.61736 0.0485,0 -0.18107,0.27781 -0.51018,0.61736 -0.3291,0.33955 -0.63805,0.61736 -0.68656,0.61736 -0.0485,0 0.18107,-0.27781 0.51018,-0.61736 z m 57.59097,-7.32014 c 2.13265,-2.13431 3.91724,-3.88056 3.96574,-3.88056 0.0485,0 -1.6567,1.74625 -3.78935,3.88056 -2.13265,2.1343 -3.91724,3.88055 -3.96574,3.88055 -0.0485,0 1.6567,-1.74625 3.78935,-3.88055 z m -75.511206,-4.45382 -0.336019,-0.39688 0.396875,0.33602 c 0.372964,0.31578 0.477175,0.45773 0.336019,0.45773 -0.03347,0 -0.212065,-0.17859 -0.396875,-0.39687 z m 11.129259,-1.89618 c 0.378926,-0.38806 0.728645,-0.70556 0.777152,-0.70556 0.04851,0 -0.221837,0.3175 -0.600763,0.70556 -0.378925,0.38805 -0.728645,0.70555 -0.777151,0.70555 -0.04851,0 0.221837,-0.3175 0.600762,-0.70555 z m -15.524168,-2.51354 -2.996665,-3.04271 3.042708,2.99666 c 2.826849,2.78408 3.122445,3.08875 2.996666,3.08875 -0.02533,0 -1.394543,-1.36921 -3.042709,-3.0427 z m 14.377641,2.62333 c 0,-0.0366 0.138906,-0.17553 0.30868,-0.30868 l 0.308681,-0.24208 -0.242083,0.30868 c -0.23043,0.29382 -0.375278,0.38725 -0.375278,0.24208 z m -36.071529,-2.93201 c 1.549948,-1.55223 2.857775,-2.82223 2.906281,-2.82223 0.04851,0 -1.179944,1.27 -2.729892,2.82223 -1.549948,1.55222 -2.857775,2.82222 -2.906282,2.82222 -0.04851,0 1.179945,-1.27 2.729893,-2.82222 z m 37.48264,1.5209 c 0,-0.0366 0.138906,-0.17554 0.30868,-0.30868 l 0.308681,-0.24209 -0.242083,0.30869 c -0.230429,0.29381 -0.375278,0.38725 -0.375278,0.24208 z m 3.847483,-2.17056 c 0.127329,-0.051 0.279467,-0.0447 0.338079,0.0139 0.05861,0.0586 -0.04557,0.1003 -0.231511,0.0926 -0.205484,-0.008 -0.247279,-0.0503 -0.106568,-0.10657 z m 0.352777,-2.11667 c 0.12733,-0.0509 0.279467,-0.0447 0.33808,0.0139 0.05861,0.0586 -0.04557,0.1003 -0.231511,0.0926 -0.205484,-0.008 -0.247279,-0.0503 -0.106569,-0.10657 z m 14.937933,-2.52534 c 0.1756,-0.19403 0.35895,-0.35278 0.40746,-0.35278 0.0485,0 -0.0555,0.15875 -0.23107,0.35278 -0.17559,0.19403 -0.35895,0.35278 -0.40745,0.35278 -0.0485,0 0.0555,-0.15875 0.23106,-0.35278 z m 8.46667,-0.35278 c 0.06,-0.097 0.14402,-0.17639 0.1868,-0.17639 0.0428,0 0.0778,0.0794 0.0778,0.17639 0,0.097 -0.0841,0.17639 -0.1868,0.17639 -0.10274,0 -0.13774,-0.0794 -0.0778,-0.17639 z m -50.447225,-8.99583 c 2.229737,-2.23132 4.093755,-4.05695 4.142262,-4.05695 0.04851,0 -1.736136,1.82563 -3.965873,4.05695 -2.229737,2.23132 -4.093755,4.05694 -4.142262,4.05694 -0.04851,0 1.736136,-1.82562 3.965873,-4.05694 z m 79.994945,-0.97014 c 1.59931,-1.64924 2.94407,-2.97561 2.98835,-2.9475 0.0443,0.0281 -1.26424,1.37749 -2.90784,2.99862 l -2.98835,2.94749 z M 87.477617,90.208216 c 2.132651,-2.134306 3.917235,-3.880556 3.965742,-3.880556 0.04851,0 -1.656702,1.74625 -3.789354,3.880556 -2.132651,2.134305 -3.917235,3.880556 -3.965742,3.880556 -0.04851,0 1.656703,-1.746251 3.789354,-3.880556 z m 44.794483,2.778125 -0.69726,-0.749653 0.74965,0.697257 c 0.69717,0.64844 0.83071,0.802049 0.69726,0.802049 -0.0288,0 -0.36616,-0.337344 -0.74965,-0.749653 z M 94.268589,92.611063 c 0,-0.03663 0.138906,-0.175533 0.308681,-0.308681 l 0.30868,-0.242083 -0.242083,0.308681 c -0.230429,0.29382 -0.375278,0.387258 -0.375278,0.242083 z m -0.267129,-4.034444 -2.29051,-2.337153 2.337153,2.29051 c 2.171019,2.127693 2.417099,2.383795 2.29051,2.383795 -0.02565,0 -1.077371,-1.051718 -2.337153,-2.337152 z m 20.51878,-9.777785 c 0.12733,-0.05095 0.27947,-0.04469 0.33808,0.01392 0.0586,0.05861 -0.0456,0.100302 -0.23151,0.09264 -0.20549,-0.0085 -0.24728,-0.05026 -0.10657,-0.106567 z m -11.16913,-4.42226 c 2.13348,-2.158154 3.91813,-3.923914 3.96588,-3.923914 0.0477,0 -0.80754,0.8969 -1.90064,1.993113 -1.0931,1.096211 -1.94509,2.048711 -1.8933,2.116667 0.0518,0.06795 0.0386,0.08121 -0.0293,0.02946 -0.0679,-0.05175 -1.00058,0.761509 -2.07257,1.807247 -1.07199,1.045737 -0.20351,0.135579 1.92997,-2.022572 z"
         id="path887"
         sodipodi:nodetypes="sssscscccccsscccsccccsccssssssscsssssssscsssssssssssssscssssssssscssssscssssssssscsscsccccsccccsssccssscsssssssscssssssscssssscssscssssscsscssssscc" />
      <path
         style="fill:#324447;stroke-width:0.176389;filter:url(#filter1644)"
         d="m 79.30992,187.13391 c 0.0036,-0.29104 0.04313,-0.38875 0.08785,-0.21713 0.04472,0.17162 0.04178,0.40975 -0.0065,0.52917 -0.04832,0.11942 -0.08491,-0.021 -0.08131,-0.31204 z m 5.345474,-2.02847 c 0.40748,-0.1751 32.797036,-0.18128 50.447226,-0.01 8.97879,0.0873 4.10052,0.12225 -19.40278,0.13894 -17.641209,0.0125 -31.242661,-0.0441 -31.044446,-0.12931 z m 39.114236,-3.12896 c 0.55783,-0.035 1.47064,-0.035 2.02847,0 0.55783,0.035 0.10143,0.0636 -1.01423,0.0636 -1.11566,0 -1.57207,-0.0286 -1.01424,-0.0636 z M 90.873103,162.68992 c -0.169774,-0.0989 -0.308681,-0.25401 -0.308681,-0.34473 0,-0.10155 9.627568,-0.16631 25.047228,-0.16848 16.06006,-0.002 25.04722,0.0578 25.04722,0.16751 0,0.0941 -0.15353,0.2532 -0.34118,0.35363 -0.47071,0.25191 -49.011828,0.24413 -49.444587,-0.008 z m -11.24633,-9.29038 -3.790823,-3.83646 3.836458,3.79082 c 2.110052,2.08495 3.836458,3.81136 3.836458,3.83646 0,0.12522 -0.359743,-0.22607 -3.882093,-3.79082 z m 71.084727,-7.9375 -3.79083,-3.83646 3.83646,3.79082 c 3.56476,3.52235 3.91604,3.8821 3.79083,3.8821 -0.0251,0 -1.75151,-1.72641 -3.83646,-3.83646 z m -86.871498,-7.84931 -3.879053,-3.92465 3.924653,3.87905 c 3.646749,3.60438 4.00422,3.97025 3.879053,3.97025 -0.02508,0 -1.791175,-1.76609 -3.924653,-3.92465 z m -10.75822,-15.65451 c 2.132652,-2.13431 3.917236,-3.88056 3.965743,-3.88056 0.04851,0 -1.656702,1.74625 -3.789354,3.88056 -2.132652,2.1343 -3.917236,3.88055 -3.965743,3.88055 -0.04851,0 1.656702,-1.74625 3.789354,-3.88055 z"
         id="path885"
         sodipodi:nodetypes="cscccccsccsssscscssccscsssscsssscssssssss" />
      <path
         style="fill:#373636;stroke-width:0.176389;filter:url(#filter1638)"
         d="m 79.32839,185.811 c 0,-0.53358 0.03307,-0.75186 0.07348,-0.48507 0.04042,0.26678 0.04042,0.70335 0,0.97014 -0.04041,0.26678 -0.07348,0.0485 -0.07348,-0.48507 z m 66.40166,-3.6446 c 0.12127,-0.0489 0.3197,-0.0489 0.44097,0 0.12127,0.0489 0.0221,0.089 -0.22048,0.089 -0.24254,0 -0.34176,-0.04 -0.22049,-0.089 z m -16.92322,-0.19141 c 1.19398,-0.0306 3.09898,-0.0305 4.23333,1.7e-4 1.13435,0.0307 0.15746,0.0557 -2.17088,0.0556 -2.32833,-1.2e-4 -3.25643,-0.0252 -2.06245,-0.0558 z m 10.22044,-13.74331 c 0.12127,-0.0489 0.31971,-0.0489 0.44097,0 0.12127,0.0489 0.022,0.089 -0.22048,0.089 -0.24254,0 -0.34176,-0.04 -0.22049,-0.089 z m 3.42987,-4.20471 c 0.004,-0.29104 0.0431,-0.38875 0.0879,-0.21713 0.0447,0.17162 0.0418,0.40974 -0.007,0.52917 -0.0483,0.11942 -0.0849,-0.021 -0.0813,-0.31204 z m -52.937125,-5.48276 c 0.0085,-0.20548 0.05026,-0.24728 0.106567,-0.10657 0.05095,0.12733 0.04469,0.27947 -0.01392,0.33808 -0.05861,0.0586 -0.100302,-0.0456 -0.09264,-0.23151 z m -2.043901,-12.99398 -3.879053,-3.92465 3.924653,3.87905 c 3.646748,3.60438 4.00422,3.97025 3.879053,3.97025 -0.02508,0 -1.791175,-1.76609 -3.924653,-3.92465 z m 0.0015,-7.8934 c 2.132651,-2.13431 3.917235,-3.88056 3.965742,-3.88056 0.04851,0 -1.656702,1.74625 -3.789354,3.88056 -2.132651,2.1343 -3.917235,3.88055 -3.965742,3.88055 -0.04851,0 1.656703,-1.74625 3.789354,-3.88055 z m -15.786806,-0.0882 c 2.084107,-2.08579 3.828972,-3.79236 3.877479,-3.79236 0.04851,0 -1.616983,1.70657 -3.701091,3.79236 -2.084107,2.0858 -3.828972,3.79236 -3.877479,3.79236 -0.04851,0 1.616983,-1.70656 3.701091,-3.79236 z m 30.603472,-1.67569 c 0.1756,-0.19403 0.35895,-0.35278 0.40746,-0.35278 0.0485,0 -0.0555,0.15875 -0.23107,0.35278 -0.17559,0.19403 -0.35895,0.35278 -0.40745,0.35278 -0.0485,0 0.0555,-0.15875 0.23106,-0.35278 z m -38.540973,-6.08542 c 2.084107,-2.0858 3.828973,-3.79236 3.87748,-3.79236 0.04851,0 -1.616984,1.70656 -3.701091,3.79236 -2.084107,2.0858 -3.828972,3.79236 -3.877479,3.79236 -0.04851,0 1.616983,-1.70656 3.70109,-3.79236 z m 7.935962,-0.0441 -3.790823,-3.83646 3.836459,3.79082 c 3.564754,3.52235 3.91604,3.88209 3.790823,3.88209 -0.0251,0 -1.751507,-1.7264 -3.836459,-3.83645 z m 7.939039,0.0441 c 2.084107,-2.0858 3.828972,-3.79236 3.877479,-3.79236 0.04851,0 -1.616983,1.70656 -3.70109,3.79236 -2.084107,2.0858 -3.828973,3.79236 -3.87748,3.79236 -0.04851,0 1.616984,-1.70656 3.701091,-3.79236 z m -22.62168,-11.64166 c 10.146037,-10.35738 58.252242,-58.426988 58.252242,-58.207932 0,0.09698 -14.7785,14.940007 -32.841103,32.984494 C 64.355163,110.98691 52.92015,122.33745 57.006628,118.16586 Z m 45.111262,4.85069 c 1.45279,-1.45521 2.68111,-2.64583 2.72962,-2.64583 0.0485,0 -1.10044,1.19062 -2.55323,2.64583 -1.45278,1.45521 -2.681106,2.64583 -2.729613,2.64583 -0.04851,0 1.100443,-1.19062 2.553223,-2.64583 z m 56.61934,-1.27882 -3.87906,-3.92465 3.92466,3.87905 c 3.64675,3.60438 4.00422,3.97025 3.87905,3.97025 -0.0251,0 -1.79117,-1.76609 -3.92465,-3.92465 z m -67.202669,0.57326 c 0.175594,-0.19402 0.358948,-0.35277 0.407455,-0.35277 0.04851,0 -0.05547,0.15875 -0.231066,0.35277 -0.175593,0.19403 -0.358948,0.35278 -0.407455,0.35278 -0.04851,0 0.05547,-0.15875 0.231066,-0.35278 z m -11.90625,-8.37847 c 2.084107,-2.0858 3.828972,-3.79236 3.877479,-3.79236 0.04851,0 -1.616983,1.70656 -3.70109,3.79236 -2.084107,2.0858 -3.828973,3.79236 -3.87748,3.79236 -0.04851,0 1.616984,-1.70656 3.701091,-3.79236 z m 51.668599,-19.446873 -0.42763,-0.48507 0.48507,0.427621 c 0.45337,0.399678 0.56596,0.542518 0.42763,0.542518 -0.0316,0 -0.24988,-0.218281 -0.48507,-0.485069 z M 129.1054,80.330438 c 1.06384,-1.067153 1.97394,-1.940278 2.02245,-1.940278 0.0485,0 -0.78222,0.873125 -1.84607,1.940278 -1.06384,1.067153 -1.97394,1.940278 -2.02245,1.940278 -0.0485,0 0.78222,-0.873125 1.84607,-1.940278 z m -17.81679,-6.04132 -3.87905,-3.924653 3.92465,3.879053 c 3.64675,3.604377 4.00422,3.970253 3.87906,3.970253 -0.0251,0 -1.79118,-1.766094 -3.92466,-3.924653 z m -8.5255,1.631597 c 0,-0.242534 0.04,-0.341753 0.089,-0.220486 0.0489,0.121268 0.0489,0.319705 0,0.440973 -0.0489,0.121267 -0.089,0.02205 -0.089,-0.220487 z"
         id="path883"
         sodipodi:nodetypes="sssscssccsscccssccccccsssssscssssssssssssscssscsssssscsssssssscsscsssssscsssssssssssssscssssssssscsssscss" />
      <path
         style="fill:#272627;stroke-width:0.176389;filter:url(#filter1632)"
         d="m 136.81263,181.9753 c 1.03753,-0.0311 2.78378,-0.0312 3.88056,-1.7e-4 1.09678,0.031 0.2479,0.0565 -1.88641,0.0566 -2.1343,1.3e-4 -3.03167,-0.0252 -1.99415,-0.0564 z m -42.499944,-6.34696 c 0.363802,-0.0381 0.959115,-0.0381 1.322917,0 0.363802,0.038 0.06615,0.0692 -0.661458,0.0692 -0.727605,0 -1.025261,-0.0311 -0.661459,-0.0692 z m 9.172224,-12.70378 c 6.6697,-0.0256 17.58377,-0.0256 24.25347,0 6.66971,0.0256 1.21268,0.0465 -12.12673,0.0465 -13.33941,0 -18.796446,-0.0209 -12.12674,-0.0465 z m -18.568827,-4.23336 -1.495411,-1.5434 1.543403,1.49541 c 1.433467,1.3889 1.623753,1.5914 1.495411,1.5914 -0.02639,0 -0.720926,-0.69453 -1.543403,-1.54341 z m 60.417087,0.1323 c 0.77156,-0.77612 1.44253,-1.41112 1.49103,-1.41112 0.0485,0 -0.54308,0.635 -1.31464,1.41112 -0.77156,0.77611 -1.44252,1.41111 -1.49103,1.41111 -0.0485,0 0.54309,-0.635 1.31464,-1.41111 z m -55.813155,-0.80845 c 0.0085,-0.20549 0.05026,-0.24728 0.106567,-0.10657 0.05095,0.12733 0.04469,0.27947 -0.01392,0.33808 -0.05861,0.0586 -0.100302,-0.0456 -0.09264,-0.23151 z m 55.107605,-2.89572 c -1.16114,-1.16417 -2.07147,-2.11667 -2.02296,-2.11667 0.0485,0 1.03821,0.9525 2.19935,2.11667 1.16113,1.16417 2.07146,2.11667 2.02296,2.11667 -0.0485,0 -1.03822,-0.9525 -2.19935,-2.11667 z m -72.768503,-9.48752 -3.960668,-4.00623 3.924653,3.87905 3.924653,3.87905 3.880588,-3.87758 3.880589,-3.87758 -3.924687,-3.97022 -3.924684,-3.97022 4.012863,3.96729 4.012863,3.9673 -3.924669,3.9636 c -2.158568,2.17999 -3.928306,3.98344 -3.932751,4.00769 -0.0044,0.0242 -1.790382,-1.75872 -3.96875,-3.96215 z m 86.878113,-0.16977 3.87905,-3.92466 -3.87905,-3.92465 -3.87906,-3.92465 3.96217,3.88055 c 2.17919,2.13431 3.982,3.8842 4.00623,3.88864 0.0242,0.004 -1.75874,1.79038 -3.96216,3.96875 l -4.00623,3.96067 z m -12.43392,-3.48146 c 0,-0.16406 0.47598,-0.61959 0.64739,-0.61959 0.0789,0 1.89032,-1.7264 4.02541,-3.83645 l 3.88199,-3.83646 -3.61594,3.67188 c -3.3893,3.44175 -4.93885,4.89145 -4.93885,4.62062 z m -51.727986,-5.16349 c -1.623912,-1.62602 -2.952568,-3.03428 -2.952568,-3.12947 0,-0.0952 1.748328,-1.92268 3.885171,-4.06111 l 3.885174,-3.88805 -1.83113,-1.80193 c -1.007121,-0.99106 -1.782542,-1.80192 -1.723159,-1.80192 0.05938,0 2.210844,2.12311 4.781028,4.71803 2.57018,2.59492 3.36259,3.42846 1.76091,1.85231 l -2.912139,-2.86573 -3.834733,3.8377 c -2.109103,2.11074 -3.834733,3.91557 -3.834733,4.01074 0,0.0952 1.328656,1.50341 2.952568,3.12943 1.623912,1.62602 2.912881,2.9564 2.864374,2.9564 -0.04851,0 -1.416851,-1.33038 -3.040763,-2.9564 z m 79.773826,-7.00957 c 2.18119,-2.18281 4.00549,-3.96875 4.054,-3.96875 0.0485,0 -1.69642,1.78594 -3.87761,3.96875 -2.1812,2.18282 -4.0055,3.96875 -4.05401,3.96875 -0.0485,0 1.69642,-1.78593 3.87762,-3.96875 z m -118.446649,-0.13229 -3.879052,-3.92465 3.924653,3.87905 c 3.646748,3.60438 4.00422,3.97025 3.879052,3.97025 -0.02508,0 -1.791174,-1.76609 -3.924653,-3.92465 z m 31.561283,0.0351 c -2.408255,-2.40121 -3.762627,-3.87158 -3.566151,-3.87158 0.174233,0 0.316789,0.0841 0.316789,0.1868 0,0.10274 0.09922,0.1297 0.220486,0.0599 0.121268,-0.0698 0.158004,-0.0583 0.08164,0.0255 -0.07637,0.0838 1.467775,1.7605 3.431429,3.7259 1.963655,1.96541 3.531687,3.61207 3.484515,3.65924 -0.04717,0.0472 -1.833088,-1.65645 -3.968704,-3.78582 z m 71.274946,-0.0887 c 2.23132,-2.22423 5.82158,-5.79319 7.97835,-7.93102 l 3.92141,-3.88696 3.9279,3.97343 3.9279,3.97344 -3.91401,-3.86842 -3.91401,-3.86841 -7.99224,7.826 c -4.39574,4.3043 -6.16662,6.00618 -3.9353,3.78194 z m -69.188544,-2.14537 c 0.266788,-0.0404 0.703351,-0.0404 0.970139,0 0.266788,0.0404 0.04851,0.0735 -0.485069,0.0735 -0.533577,0 -0.751858,-0.0331 -0.48507,-0.0735 z m -1.488281,-0.17054 c 0.12733,-0.051 0.279467,-0.0447 0.338079,0.0139 0.05861,0.0586 -0.04557,0.1003 -0.23151,0.0926 -0.205485,-0.008 -0.24728,-0.0503 -0.106569,-0.10657 z m -24.307178,-5.41864 -3.967333,-4.07406 4.099624,4.0555 c 2.254795,2.23053 4.099626,4.076 4.099626,4.10105 0,0.21465 -0.781452,-0.53921 -4.231917,-4.08249 z m 8.068375,-0.10532 3.924653,-3.96775 3.924653,3.96775 3.924653,3.96775 -3.924653,-3.87855 -3.924653,-3.87855 -3.924653,3.87855 -3.924653,3.87855 z m 21.298959,2.99862 c 0.175594,-0.19403 0.358948,-0.35278 0.407455,-0.35278 0.04851,0 -0.05547,0.15875 -0.231066,0.35278 -0.175593,0.19403 -0.358948,0.35278 -0.407455,0.35278 -0.04851,0 0.05547,-0.15875 0.231066,-0.35278 z m 17.203389,-3.96575 -1.31745,-1.41411 1.39758,1.36037 c 0.76867,0.74821 1.36152,1.38456 1.31745,1.41411 -0.0441,0.0296 -0.67299,-0.58261 -1.39758,-1.36037 z m -18.349917,1.08833 c 0,-0.0303 0.257969,-0.28832 0.573264,-0.57326 l 0.573264,-0.51807 -0.51807,0.57326 c -0.482914,0.53437 -0.628458,0.65434 -0.628458,0.51807 z m 7.540626,-2.0019 c 0.121267,-0.0489 0.319705,-0.0489 0.440972,0 0.121269,0.0489 0.02205,0.089 -0.220486,0.089 -0.242535,0 -0.341754,-0.04 -0.220486,-0.089 z m 0.176389,-2.11667 c 0.121267,-0.0489 0.319702,-0.0489 0.440972,0 0.12127,0.0489 0.022,0.089 -0.220486,0.089 -0.242535,0 -0.341754,-0.04 -0.220486,-0.089 z m -27.99516,-3.84535 c -2.080489,-2.08217 -3.743027,-3.82545 -3.694529,-3.87395 0.0485,-0.0485 1.830106,1.6551 3.95913,3.78578 2.129025,2.13067 3.791562,3.87395 3.694529,3.87395 -0.09703,0 -1.878641,-1.7036 -3.95913,-3.78578 z m 7.932831,-7.94408 -3.966841,-4.05694 4.047444,4.00574 c 2.226095,2.20316 4.011173,4.02878 3.966842,4.05694 -0.04433,0.0282 -1.865682,-1.77442 -4.047445,-4.00574 z m 5.284663,2.68843 c 0.627787,-0.65402 1.173288,-1.18912 1.212224,-1.18912 0.113961,0 -0.392372,0.60395 -0.637574,0.76049 -0.123308,0.0787 -0.170113,0.23747 -0.104013,0.35278 0.0661,0.1153 0.05293,0.1485 -0.02927,0.0738 -0.0822,-0.0747 -0.47196,0.16272 -0.866128,0.52767 -0.394166,0.36495 -0.203022,0.12844 0.424766,-0.52558 z m 73.735828,-2.68825 -3.78911,-3.79219 -3.00032,2.95434 -3.00033,2.95434 2.9969,-3.04295 2.99691,-3.04294 3.83816,3.83519 c 2.111,2.10935 3.83817,3.85571 3.83817,3.88079 0,0.12437 -0.3565,-0.21984 -3.88038,-3.74658 z M 145.24498,95.764466 c 0.82033,-0.824618 1.5312,-1.499306 1.57971,-1.499306 0.0485,0 -0.58299,0.674688 -1.40332,1.499306 -0.82034,0.824618 -1.53121,1.499306 -1.57971,1.499306 -0.0485,0 0.58299,-0.674688 1.40332,-1.499306 z m -2.38275,-5.600347 -3.87906,-3.924653 3.92466,3.879053 c 3.64675,3.604376 4.00422,3.970253 3.87905,3.970253 -0.0251,0 -1.79118,-1.766094 -3.92465,-3.924653 z M 93.921928,88.715042 c -1.303626,-1.306317 -2.334397,-2.397723 -2.290603,-2.425348 0.04379,-0.02763 1.148025,1.041178 2.453848,2.375119 1.305823,1.333941 2.336595,2.425347 2.290605,2.425347 -0.04599,0 -1.150223,-1.068803 -2.45385,-2.375118 z m 44.091102,1.228591 c -0.42845,-0.436563 -0.73932,-0.79375 -0.69081,-0.79375 0.0485,0 0.43875,0.357187 0.8672,0.79375 0.42846,0.436562 0.73932,0.79375 0.69082,0.79375 -0.0485,0 -0.43875,-0.357188 -0.86721,-0.79375 z m -0.35277,-2.469445 c 0.62498,-0.63059 1.17602,-1.146528 1.22453,-1.146528 0.0485,0 -0.42316,0.515938 -1.04814,1.146528 -0.62499,0.63059 -1.17603,1.146528 -1.22453,1.146528 -0.0485,0 0.42315,-0.515938 1.04814,-1.146528 z m -24.55113,-8.851743 c 0.12733,-0.05095 0.27946,-0.04469 0.33808,0.01392 0.0586,0.05861 -0.0456,0.100302 -0.23151,0.09264 -0.20549,-0.0085 -0.24728,-0.05026 -0.10657,-0.106567 z m 6.11849,-4.289235 c 2.13265,-2.134305 3.91723,-3.880555 3.96574,-3.880555 0.0485,0 -1.6567,1.74625 -3.78935,3.880555 -2.13265,2.134306 -3.91724,3.880556 -3.96575,3.880556 -0.0485,0 1.65671,-1.74625 3.78936,-3.880556 z m 7.84777,0.0441 -3.79083,-3.836459 3.83646,3.790823 c 2.11005,2.084952 3.83646,3.811359 3.83646,3.836459 0,0.125216 -0.35974,-0.226069 -3.88209,-3.790823 z"
         id="path881"
         sodipodi:nodetypes="sssssscssssssscssssssssssssssssssscccccccccscsccccscsccssscssssscsssscssssssssssscssscssssscccsscccccsssssscscccscssscccccccccsssssscscssscsscssccsscsssssscscscscsssccscccccssssssssscsssssssssssssssssssscsssssssscsss" />
      <path
         style="fill:#191818;stroke-width:0.176389;filter:url(#filter1626)"
         d="m 84.5672,183.27495 c 0,-0.0366 0.138906,-0.17553 0.30868,-0.30868 l 0.308681,-0.24208 -0.242083,0.30868 c -0.230429,0.29382 -0.375278,0.38726 -0.375278,0.24208 z m 58.16424,-1.28494 c 0.12127,-0.0489 0.3197,-0.0489 0.44097,0 0.12127,0.0489 0.022,0.089 -0.22049,0.089 -0.24253,0 -0.34175,-0.04 -0.22048,-0.089 z M 67.464665,143.92582 c -9.939615,-9.93997 -18.03572,-18.09575 -17.991344,-18.12396 0.04438,-0.0282 8.216188,8.1045 18.159582,18.07268 9.943395,9.96817 18.0395,18.12396 17.991344,18.12396 -0.04815,0 -8.219966,-8.13271 -18.159582,-18.07268 z m 95.463375,-0.0511 18.12382,-18.12382 -32.9406,-32.984864 -32.94059,-32.984864 33.02875,32.984474 33.02875,32.984474 -18.12356,18.12421 c -9.96797,9.96831 -18.16335,18.12421 -18.21198,18.12421 -0.0486,0 8.06731,-8.15572 18.03541,-18.12382 z m -77.794824,14.90014 -1.447858,-1.44786 3.923132,-3.92603 3.923131,-3.92605 -3.923216,-3.92612 -3.923215,-3.92612 3.880589,-3.87759 c 2.134324,-2.13266 3.880588,-3.99662 3.880588,-4.14212 0,-0.14551 -1.644844,-1.9108 -3.65521,-3.92287 l -3.65521,-3.65832 1.229862,0.49701 c 1.581628,0.63917 2.593993,0.88569 4.191934,1.02076 l 1.289842,0.10903 1.200434,-1.45099 c 1.631713,-1.97229 3.45432,-3.88656 3.700453,-3.88656 0.111337,0 0.974477,0.77496 1.918089,1.72212 l 1.715657,1.72212 -3.879732,3.87673 c -2.133851,2.1322 -3.87973,3.95765 -3.87973,4.05656 0,0.0989 1.343198,1.52129 2.984886,3.16085 l 2.984885,2.98101 -1.056519,1.3879 c -3.774459,4.95834 -6.395487,11.27546 -6.956919,16.76737 l -0.121717,1.19062 h -0.601761 c -0.59965,0 -1.486114,0.35813 -2.002655,0.80906 -0.235447,0.20554 -0.46592,0.0433 -1.71974,-1.21051 z m 58.083294,0.8287 c -0.38806,-0.23179 -0.86431,-0.42396 -1.05834,-0.42705 -0.92336,-0.0146 -0.86134,-1.50089 0.21626,-5.18235 l 0.25191,-0.86062 2.14717,2.09535 2.14716,2.09534 -1.42315,1.36701 c -0.78273,0.75186 -1.45742,1.35954 -1.4993,1.35039 -0.0419,-0.009 -0.39366,-0.20627 -0.78171,-0.43807 z m 7.63444,-14.09406 -3.93028,-3.88388 3.96875,-3.92187 3.96875,-3.92187 -2.44913,-2.45425 -2.44913,-2.45424 0.28666,-1.91417 c 0.15767,-1.05279 0.33792,-2.6406 0.40057,-3.52847 l 0.1139,-1.61431 2.00473,-1.99904 2.00472,-1.99904 -2.28212,-2.29568 -2.28212,-2.29567 -0.18807,-1.05834 c -0.10344,-0.58208 -0.37248,-1.74768 -0.59788,-2.59021 l -0.40982,-1.53188 2.92385,-2.91936 2.92384,-2.91936 3.92805,3.91724 3.92804,3.91724 -3.92655,3.92947 -3.92656,3.92947 3.87758,3.88059 3.87758,3.88059 -3.96197,3.96491 -3.96197,3.96491 3.95827,3.97257 3.95827,3.97257 -3.91384,3.92798 -3.91384,3.92798 z m -79.07673,-0.0893 -3.885343,-3.87615 3.841245,-3.83827 c 2.112684,-2.11105 3.841244,-3.91899 3.841244,-4.01766 0,-0.0987 -1.728754,-1.90681 -3.841676,-4.0181 l -3.841674,-3.8387 3.931715,-3.91756 3.931716,-3.91756 3.836083,3.83311 c 2.109845,2.10821 3.916717,3.83311 4.015269,3.83311 0.09855,0 -1.647068,1.82626 -3.879159,4.05835 l -4.058343,4.05834 3.921818,3.92473 3.921817,3.92472 -3.837962,3.83499 c -2.110879,2.10924 -3.876987,3.83449 -3.924686,3.8339 -0.0477,-5.3e-4 -1.835127,-1.74536 -3.972064,-3.87725 z m 36.78187,-9.9466 c 0,-0.0366 0.13891,-0.17553 0.30868,-0.30868 l 0.30868,-0.24208 -0.24208,0.30868 c -0.23043,0.29382 -0.37528,0.38726 -0.37528,0.24208 z m -5.46806,-0.35277 c 0,-0.0366 0.13891,-0.17554 0.30868,-0.30868 l 0.30868,-0.24209 -0.24208,0.30868 c -0.23043,0.29382 -0.37528,0.38726 -0.37528,0.24209 z m -47.050397,-5.4043 -3.923316,-3.97159 3.879723,-3.87672 3.879723,-3.87671 3.921302,3.9213 3.921303,3.9213 -3.877708,3.927 -3.877711,3.92701 z m 110.636757,0.001 -3.87672,-3.87973 3.92131,-3.9213 3.9213,-3.9213 3.927,3.87771 3.92701,3.87765 -3.97159,3.92331 -3.97159,3.92332 -3.87672,-3.87972 z m -64.26073,-1.11347 -2.853663,-2.85759 2.606033,-2.6017 2.60604,-2.60169 2.10626,-0.53195 2.10627,-0.53194 1.32914,1.33194 1.32916,1.33195 -0.67155,1.2746 c -0.76597,1.45383 -3.0512,4.76945 -4.63291,6.72184 l -1.07112,1.32214 z m -9.11521,-8.05697 c 0.175593,-0.19403 0.358948,-0.35278 0.407455,-0.35278 0.04851,0 -0.05547,0.15875 -0.231066,0.35278 -0.175593,0.19402 -0.358948,0.35277 -0.407455,0.35277 -0.04851,0 0.05547,-0.15875 0.231066,-0.35277 z m -0.440972,-1.14653 c 0.22785,-0.24254 0.45396,-0.44097 0.502467,-0.44097 0.04851,0 -0.09823,0.19843 -0.326078,0.44097 -0.227851,0.24253 -0.45396,0.44097 -0.502467,0.44097 -0.04851,0 0.09823,-0.19844 0.326078,-0.44097 z m -17.220703,-1.62351 c 0.175452,-0.17545 -7.49855,-7.81549 -7.726991,-7.69279 -0.103247,0.0554 1.618056,-1.71485 3.825118,-3.93401 l 4.012843,-4.03482 3.922213,3.92221 3.922213,3.92221 -3.878111,3.94377 c -2.132961,2.16908 -3.950871,3.95589 -4.039801,3.9707 -0.08893,0.0148 -0.105798,-0.029 -0.03748,-0.0973 z m 8.229977,-7.63002 c -0.14271,-0.0902 -0.220408,-0.18826 -0.17266,-0.21779 0.04775,-0.0295 0.51268,-0.45056 1.033183,-0.93563 l 0.946367,-0.88194 -0.736182,1.10243 c -0.404901,0.60634 -0.753068,1.10121 -0.773707,1.09973 -0.02064,-10e-4 -0.15429,-0.0765 -0.297001,-0.1668 z m 3.388817,-12.399731 -3.570208,-3.573399 3.926546,-3.923635 3.926545,-3.923637 2.379305,2.401545 c 1.530311,1.544615 2.293733,2.433497 2.139491,2.491091 -1.341908,0.501075 -2.753998,2.472918 -2.939136,4.10421 -0.322074,2.837877 -0.64335,3.932756 -1.462183,4.982986 -0.434924,0.55783 -0.799631,1.01424 -0.810459,1.01424 -0.01083,0 -1.626285,-1.608032 -3.589901,-3.573401 z m 55.700411,-2.01005 c -1.2725,-1.822537 -3.32934,-4.279207 -4.90359,-5.8568 l -1.29514,-1.297887 1.11296,-1.171557 1.11296,-1.171559 3.96875,3.975068 3.96875,3.975068 -1.51041,1.449765 -1.51041,1.449764 z M 126.37137,81.933483 c -1.6298,-0.849111 -5.63575,-2.089954 -8.58415,-2.658936 -1.0421,-0.201106 -2.03581,-0.493319 -2.20823,-0.649361 -0.25608,-0.231745 -0.36281,-0.242798 -0.58265,-0.06034 -0.63728,0.528889 -2.2613,0.06993 -5.1878,-1.466099 -3.49776,-1.835877 -4.82486,-2.428651 -5.70001,-2.546034 l -0.69958,-0.09383 1.99815,-2.003831 1.99814,-2.00383 3.88416,3.881277 c 2.13628,2.134701 3.96355,3.881275 4.0606,3.881275 0.0971,0 1.90303,-1.727914 4.01329,-3.83981 l 3.83684,-3.83981 3.92277,3.883908 3.92277,3.883907 -1.9374,1.984375 c -1.06557,1.091406 -1.97838,1.980866 -2.02847,1.976578 -0.0501,-0.0043 -0.36888,-0.152534 -0.70843,-0.329436 z m -26.19729,-2.841394 -0.692502,-0.709184 1.738192,-1.716163 c 0.95601,-0.943891 1.68808,-1.570768 1.62684,-1.393058 -0.0613,0.177708 -0.11135,1.131422 -0.11135,2.119362 V 79.1893 l -0.86152,0.305986 c -0.47384,0.168292 -0.89429,0.305985 -0.93435,0.305985 -0.0401,0 -0.38444,-0.319131 -0.76531,-0.709182 z"
         id="path879"
         sodipodi:nodetypes="sscsscsscsssssscccccsssscccccssscsscssscssscsscsssscscccscsccccccsscccccssccccccccccccccccscssscccssscccscssscsssscsscccccccccccccccccccccccccccssccssssssssssccccccssccccscsccscccsssssssscccccccsssscsscccssscccssssscscscsss" />
      <path
         style="fill:#000000;stroke-width:0.176389;filter:url(#filter1620)"
         d="m 79.451922,188.13859 v -3.49325 l 0.531379,-0.8379 c 0.55663,-0.87771 1.5915,-1.51274 2.477616,-1.52035 0.589599,-0.005 0.891096,-0.26736 1.462139,-1.27206 0.822628,-1.44734 3.500855,-3.58819 6.62882,-5.29877 1.652889,-0.90391 2.149568,-5.38643 0.77751,-7.01703 l -0.443546,-0.52712 h -1.005277 c -2.462539,0 -3.26398,-0.96533 -3.34172,-4.02507 l -0.05683,-2.23674 0.411032,-0.61736 c 0.498004,-0.74799 1.741927,-1.41111 2.64706,-1.41111 0.756232,0 0.756676,-8.8e-4 0.934409,-2.02847 0.612724,-6.98973 4.287787,-13.98583 11.026016,-20.9899 7.98475,-8.29976 11.81037,-14.2767 13.05865,-20.40208 0.20093,-0.98599 0.44056,-1.93329 0.53251,-2.10509 0.44158,-0.82511 0.0674,-0.66113 -0.87562,0.38375 -3.16871,3.51091 -7.63007,5.09795 -14.337974,5.10047 l -2.768969,0.001 -1.023393,0.856 c -1.279135,1.06992 -3.573679,3.46714 -4.715078,4.92607 l -0.866665,1.10777 -1.072214,-0.10612 c -4.722627,-0.46742 -8.796999,-5.11597 -7.611749,-8.68443 0.552244,-1.66265 6.596044,-10.46005 10.387976,-15.12082 1.929256,-2.3713 2.370357,-3.273203 2.602497,-5.321218 0.42875,-3.782586 1.12277,-4.644773 3.738809,-4.644773 h 0.866488 l 0.910072,-0.767247 c 2.07951,-1.753145 5.62235,-3.868196 8.61709,-5.144344 1.09691,-0.467423 2.06979,-0.916035 2.16195,-0.996913 0.28041,-0.246081 -1.50086,-0.158526 -2.8134,0.138289 -1.82759,0.413283 -1.85812,0.409143 -2.23145,-0.302551 -0.90966,-1.734123 -1.9653,-9.868766 -1.2793,-9.858086 0.8061,0.01254 12.16757,7.511636 13.4522,8.879057 l 0.38297,0.407656 -1.06966,0.297394 c -0.93729,0.26059 -1.30546,0.643967 -0.61843,0.643967 1.19258,0 6.51545,2.368928 9.00256,4.006563 7.77544,5.119742 14.38288,14.777336 17.38223,25.406286 0.68378,2.42313 0.90828,1.79365 0.42464,-1.19063 -2.06174,-12.72186 -10.60662,-23.2925 -26.00896,-32.174972 -1.5148,-0.87358 -1.87214,-1.141444 -1.41111,-1.057787 13.93649,2.528879 25.02801,12.110428 29.56666,25.541529 4.04231,11.96233 3.58186,21.18784 -1.87173,37.50096 -2.9556,8.84096 -3.797,12.21535 -3.87937,15.55806 -0.002,0.0682 0.35201,0.28111 0.78599,0.47307 1.29643,0.57348 1.50269,1.09679 1.50269,3.81262 0,3.41692 -0.63212,4.13319 -3.65469,4.14126 l -1.45114,0.004 -0.25361,0.39688 c -1.57017,2.45712 -0.75304,6.39799 1.60273,7.72961 2.72427,1.53993 4.7671,3.25397 5.81585,4.87981 0.64189,0.99511 0.76396,1.05174 2.48177,1.15137 2.22065,0.1288 2.51596,0.78483 2.51596,5.58913 v 3.71292 H 114.46512 79.451922 Z m 67.642898,-3.03068 0.31703,-0.3503 -0.4322,-0.83984 c -0.35118,-0.68242 -0.62627,-0.93913 -1.46752,-1.36949 l -1.03533,-0.52965 -10.9048,-0.0539 c -10.75625,-0.0532 -12.0099,0.007 -10.20673,0.49288 0.38501,0.10367 0.99807,0.48247 1.36701,0.84465 l 0.66895,0.65667 -13.30154,0.0452 c -7.31585,0.0249 -13.334934,0.0118 -13.37575,-0.029 -0.238529,-0.23853 0.495372,-0.91751 1.51267,-1.39948 l 1.17573,-0.55703 -6.959165,-0.0462 c -8.640864,-0.0573 -9.31275,0.0736 -10.243392,1.99604 l -0.387696,0.80087 0.311701,0.34442 0.3117,0.34443 h 31.166162 31.16615 z m -50.70178,-9.53164 c 1.017213,-0.54439 1.330604,-4.30752 0.532146,-6.38993 l -0.388888,-1.01423 h -1.486632 c -1.690804,0 -1.669386,-0.0273 -1.107462,1.41111 0.526922,1.3488 0.521381,3.41787 -0.01286,4.80431 -0.214468,0.55658 -0.340253,1.09236 -0.279519,1.19063 0.144092,0.23315 2.306837,0.23166 2.743222,-0.002 z m 40.25298,-9.65297 c -2.35259,-0.0278 -6.20227,-0.0278 -8.55486,0 -2.35259,0.0278 -0.42774,0.0505 4.27743,0.0505 4.70517,0 6.63002,-0.0227 4.27743,-0.0505 z m 4.03932,-3.17515 c 0.46414,-0.46418 0.2648,-1.45786 -0.41799,-2.08359 -1.03145,-0.94525 -1.27782,-0.96663 -10.56518,-0.91673 l -8.52509,0.0458 0.85611,0.44098 c 0.47086,0.24253 0.97457,0.61956 1.11935,0.83784 l 0.26324,0.39688 h -12.10415 c -6.65728,0 -12.104152,-0.0655 -12.104152,-0.14564 0,-0.25795 0.778664,-0.88688 1.501712,-1.21296 l 0.70315,-0.3171 -4.409723,-0.0491 c -4.904917,-0.0546 -5.50212,0.0438 -6.344984,1.04546 -0.658969,0.78314 -0.475162,1.98661 0.327831,2.14645 1.0391,0.20683 49.488326,0.0233 49.699876,-0.18828 z m -43.694709,-5.37986 c 0.04561,-0.21828 0.21012,-1.19063 0.365577,-2.16077 1.322617,-8.25389 3.931012,-12.6585 12.273682,-20.72569 8.82666,-8.53521 11.94895,-13.06371 12.69238,-18.4088 0.24048,-1.72899 0.15154,-1.83563 -0.35438,-0.42494 -1.80658,5.03741 -6.47319,10.7614 -16.22248,19.89825 -6.729002,6.3063 -10.826644,13.70364 -11.745945,21.20459 l -0.124303,1.01423 h 1.516269 1.516271 z m -7.308153,-33.5712 c 0.72896,-0.33868 1.533072,-1.02212 3.234526,-2.74912 2.97337,-3.01803 3.087661,-3.07008 7.082845,-3.22603 9.791071,-0.38219 15.066201,-3.77523 16.228121,-10.43814 0.36269,-2.07981 0.14194,-2.77319 -0.27368,-0.85961 -1.35478,6.23766 -6.4572,9.41634 -15.69039,9.77475 l -3.265113,0.12674 -1.041477,0.4768 c -0.848817,0.3886 -1.566316,1.0084 -3.87864,3.35047 -2.924017,2.96163 -3.865766,3.64554 -5.019931,3.64554 -0.336471,0 -0.527184,0.0727 -0.463067,0.17639 0.22152,0.35843 2.076805,0.19147 3.086806,-0.27779 z m 14.552082,-16.89091 c 2.15752,-1.31926 1.23642,-3.74945 -1.17914,-3.11102 -1.29112,0.34125 -4.375837,2.78338 -4.377453,3.46559 -7.05e-4,0.30899 4.992463,-0.01 5.556593,-0.35457 z m -4.0418,-8.843307 c 0.48011,-0.142577 1.02421,-0.369852 1.20912,-0.505056 l 0.33618,-0.245824 -0.97113,-0.363347 c -1.991317,-0.745047 -2.970563,-0.587172 -2.970563,0.478915 0,0.860196 0.866016,1.089787 2.396393,0.635312 z m 0.37006,-11.947185 c -0.754658,-1.280751 -1.388182,-2.491219 -1.407823,-2.68993 -0.04011,-0.405793 1.838153,-1.430195 3.520233,-1.919926 l 0.91012,-0.264977 0.28384,1.264583 c 0.31709,1.412713 1.10264,3.590103 1.35049,3.743286 0.42414,0.26213 0.0271,0.63233 -1.48071,1.38064 -0.90317,0.448229 -1.67855,0.814963 -1.72308,0.814963 -0.0445,0 -0.6984,-1.047888 -1.45307,-2.328639 z"
         id="path877"
         sodipodi:nodetypes="ccscssscsscsssssccccsscssssscssssssscsssssssssccsccsssssccccccsscccscccsccscccccccscssssccssssssscsscssscsssssssssssscccssssssscssscscsccsscsssssscsssss" />
    </g>
  </g>
</svg>
