<?xml version="1.0" encoding="UTF-8" standalone="no"?>
<svg
   width="102.36016mm"
   height="98.887505mm"
   viewBox="0 0 102.36016 98.887504"
   version="1.1"
   id="svg8"
   inkscape:version="1.2 (dc2aeda, 2022-05-15)"
   sodipodi:docname="lcc-logo.svg"
   xmlns:inkscape="http://www.inkscape.org/namespaces/inkscape"
   xmlns:sodipodi="http://sodipodi.sourceforge.net/DTD/sodipodi-0.dtd"
   xmlns="http://www.w3.org/2000/svg"
   xmlns:svg="http://www.w3.org/2000/svg"
   xmlns:rdf="http://www.w3.org/1999/02/22-rdf-syntax-ns#"
   xmlns:cc="http://creativecommons.org/ns#"
   xmlns:dc="http://purl.org/dc/elements/1.1/">
  <defs
     id="defs2" />
  <sodipodi:namedview
     id="base"
     pagecolor="#ffffff"
     bordercolor="#666666"
     borderopacity="0"
     inkscape:pageopacity="0.0"
     inkscape:pageshadow="2"
     inkscape:zoom="0.65115724"
     inkscape:cx="19.196592"
     inkscape:cy="240.34133"
     inkscape:document-units="mm"
     inkscape:current-layer="layer1"
     inkscape:document-rotation="0"
     showgrid="false"
     inkscape:window-width="1252"
     inkscape:window-height="985"
     inkscape:window-x="0"
     inkscape:window-y="38"
     inkscape:window-maximized="0"
     inkscape:showpageshadow="2"
     inkscape:pagecheckerboard="0"
     inkscape:deskcolor="#d1d1d1" />
  <metadata
     id="metadata5">
    <rdf:RDF>
      <cc:Work
         rdf:about="">
        <dc:format>image/svg+xml</dc:format>
        <dc:type
           rdf:resource="http://purl.org/dc/dcmitype/StillImage" />
      </cc:Work>
    </rdf:RDF>
  </metadata>
  <g
     inkscape:label="Layer 1"
     inkscape:groupmode="layer"
     id="layer1"
     transform="translate(-51.456607,-93.32821)">
    <g
       inkscape:groupmode="layer"
       id="layer2"
       inkscape:label="bg" />
    <g
       id="g875"
       transform="translate(-12.444444,16.797292)">
      <path
         style="fill:#e7e7e7;stroke-width:0.134413"
         d="m 102.84168,175.38402 c 7.12657,-0.0189 18.78824,-0.0189 25.91482,0 7.12659,0.0189 1.29574,0.0344 -12.95741,0.0344 -14.25316,0 -20.083993,-0.0155 -12.95741,-0.0344 z m 36.05134,-8.85154 -0.18768,-0.2312 0.23932,0.18132 c 0.13163,0.0997 0.23931,0.20377 0.23931,0.2312 0,0.10873 -0.1123,0.0387 -0.29095,-0.18132 z m -47.436092,-0.21502 c 0,-0.0274 0.107693,-0.13147 0.239319,-0.23119 l 0.239319,-0.18132 -0.187686,0.23119 c -0.178651,0.22007 -0.290952,0.29005 -0.290952,0.18132 z m 46.688402,-0.5116 -0.26051,-0.29725 0.30769,0.25168 c 0.28916,0.2365 0.36996,0.34283 0.26051,0.34283 -0.026,0 -0.16441,-0.13377 -0.30769,-0.29726 z m -41.059908,-5.38358 c 0,-0.18165 0.03104,-0.25596 0.06898,-0.16514 0.03794,0.0908 0.03794,0.23945 0,0.33028 -0.03794,0.0908 -0.06898,0.0166 -0.06898,-0.16514 z m 38.243808,-2.60038 c 0.0987,-0.0382 0.21667,-0.0335 0.26211,0.0104 0.0454,0.0439 -0.0353,0.0751 -0.17949,0.0694 -0.1593,-0.006 -0.19171,-0.0377 -0.0826,-0.0798 z m 1.39318,-0.48808 c 0,-0.0274 0.10769,-0.13147 0.23932,-0.2312 l 0.23931,-0.18131 -0.18768,0.23119 c -0.17865,0.22007 -0.29095,0.29005 -0.29095,0.18132 z m 0.19214,-5.13553 -0.26052,-0.29726 0.3077,0.25168 c 0.28916,0.23651 0.36995,0.34283 0.26051,0.34283 -0.026,0 -0.16441,-0.13376 -0.30769,-0.29725 z m -45.2557,-1.32112 -1.090821,-1.08993 1.128218,1.0538 c 1.047855,0.97874 1.190563,1.12605 1.090821,1.12605 -0.02057,0 -0.528265,-0.49047 -1.128218,-1.08992 z m 46.77298,0.033 c 0.59819,-0.5813 1.11839,-1.0569 1.15599,-1.0569 0.0376,0 -0.42105,0.4756 -1.01924,1.0569 -0.59819,0.5813 -1.11838,1.0569 -1.15599,1.0569 -0.0376,0 0.42106,-0.4756 1.01924,-1.0569 z m -43.590247,0.57307 c 0.09402,-0.0366 0.247866,-0.0366 0.341884,0 0.09402,0.0366 0.01709,0.0667 -0.170942,0.0667 -0.188037,0 -0.26496,-0.03 -0.170942,-0.0667 z m 39.892277,-0.18552 c -0.0496,-0.0775 -0.0608,-0.16924 -0.025,-0.20387 0.0358,-0.0346 0.10162,0.0288 0.14616,0.1409 0.0925,0.2328 0.0136,0.27375 -0.12119,0.063 z m 0.39469,-0.32719 c -0.0445,-0.11213 -0.0426,-0.24094 0.005,-0.28624 0.0469,-0.0453 0.0853,0.0118 0.0853,0.12679 0,0.11505 0.0769,0.23917 0.17094,0.27582 0.13389,0.0522 0.13296,0.0689 -0.005,0.0771 -0.0964,0.006 -0.21167,-0.0813 -0.25622,-0.19344 z m -39.831721,-0.40165 c 0.0066,-0.1539 0.03897,-0.18521 0.08262,-0.0798 0.0395,0.0954 0.03465,0.20932 -0.01079,0.25321 -0.04544,0.0439 -0.07776,-0.0341 -0.07182,-0.17339 z m -7.864166,-3.74456 c -1.639569,-1.58515 -2.923983,-2.91616 -2.854252,-2.95779 0.06973,-0.0416 1.468248,1.22124 3.107819,2.8064 1.639568,1.58515 2.923983,2.91616 2.854252,2.95779 -0.06973,0.0416 -1.468248,-1.22125 -3.107819,-2.8064 z m 3.066988,2.73054 c 0,-0.0188 -1.338477,-1.31185 -2.974393,-2.87345 l -2.974393,-2.83926 2.939012,2.87345 c 2.730867,2.66994 3.009774,2.93305 3.009774,2.83926 z m 49.276919,-0.0121 c 0,-0.25898 5.77555,-5.83408 5.87798,-5.67397 0.0431,0.0673 -1.26182,1.41615 -2.89981,2.99732 -1.63799,1.58116 -2.97817,2.78566 -2.97817,2.67665 z m 3.03138,-2.86018 c 1.57816,-1.5259 2.83862,-2.77437 2.80101,-2.77437 -0.0376,0 -1.3596,1.24847 -2.93776,2.77437 -1.57817,1.52589 -2.83862,2.77436 -2.80101,2.77436 0.0376,0 1.3596,-1.24847 2.93776,-2.77436 z M 75.114474,134.89191 c -5.039165,-4.88632 -7.700562,-7.48776 -5.914216,-5.78098 1.786345,1.70679 3.247901,3.04479 3.247901,2.97335 0,-0.0715 1.320796,1.14502 2.935102,2.70327 1.614305,1.55826 2.904309,2.86293 2.866678,2.89929 -0.03763,0.0363 1.333407,1.42132 3.046758,3.07769 1.713351,1.65638 3.084743,3.01159 3.047539,3.01159 -0.03721,0 -4.190598,-3.99789 -9.229762,-8.88421 z m 0.27389,0.0327 c -1.578163,-1.52589 -2.900155,-2.77436 -2.937762,-2.77436 -0.03761,0 1.222846,1.24847 2.801009,2.77436 1.578162,1.5259 2.900155,2.77436 2.937763,2.77436 0.03761,0 -1.222847,-1.24846 -2.80101,-2.77436 z m 73.436746,5.94506 c 1.65344,-1.59856 3.03703,-2.90647 3.07463,-2.90647 0.0376,0 -1.28443,1.30791 -2.93787,2.90647 -1.65344,1.59856 -3.03702,2.90647 -3.07463,2.90647 -0.0376,0 1.28444,-1.30791 2.93787,-2.90647 z m 3.17057,-3.13125 c -0.0431,-0.0673 1.26416,-1.41842 2.90499,-3.00234 1.64085,-1.58393 3.01861,-2.82475 3.06171,-2.75738 0.0431,0.0673 -1.26415,1.41842 -2.90499,3.00234 -1.64084,1.58392 -3.01861,2.82474 -3.06171,2.75738 z m 3.05173,-2.87987 c 1.6158,-1.56222 2.90705,-2.84041 2.86945,-2.84041 -0.0376,0 -1.39041,1.27819 -3.0062,2.84041 -1.6158,1.56223 -2.90705,2.84042 -2.86944,2.84042 0.0376,0 1.39039,-1.27819 3.00619,-2.84042 z m -61.539176,0 c 1.615801,-1.56222 2.96859,-2.84041 3.006197,-2.84041 0.03761,0 -1.253642,1.27819 -2.869444,2.84041 -1.615801,1.56223 -2.968589,2.84042 -3.006196,2.84042 -0.03761,0 1.253641,-1.27819 2.869443,-2.84042 z m 5.673771,-0.75964 -2.323305,-2.27894 2.359002,2.24445 c 2.191648,2.08523 2.420818,2.31343 2.323308,2.31343 -0.0196,0 -1.08119,-1.02552 -2.359005,-2.27894 z m 5.676785,-0.40465 c 0,-0.0227 0.20001,-0.21595 0.44445,-0.42936 l 0.44445,-0.38803 -0.40165,0.42936 c -0.37441,0.40024 -0.48725,0.4901 -0.48725,0.38803 z m -29.538803,-4.6487 c 1.615801,-1.56223 2.96859,-2.84041 3.006198,-2.84041 0.03761,0 -1.253643,1.27818 -2.869444,2.84041 -1.615801,1.56223 -2.96859,2.84042 -3.006197,2.84042 -0.03761,0 1.253642,-1.27819 2.869443,-2.84042 z m 18.187054,-0.033 -2.939012,-2.87345 2.974393,2.83927 c 2.763743,2.63818 3.036093,2.90762 2.939013,2.90762 -0.01946,0 -1.357937,-1.29305 -2.974394,-2.87344 z m 67.625909,-0.033 c 1.65344,-1.59856 3.03702,-2.90648 3.07463,-2.90648 0.0376,0 -1.28444,1.30792 -2.93788,2.90648 -1.65343,1.59856 -3.03702,2.90647 -3.07462,2.90647 -0.0376,0 1.28443,-1.30791 2.93787,-2.90647 z m -56.07063,-0.69359 -2.18646,-2.14683 2.22225,2.11225 c 1.22224,1.16174 2.22225,2.12781 2.22225,2.14683 0,0.0943 -0.22677,-0.1178 -2.25804,-2.11225 z m 36.18376,0.61653 c 0.006,-0.15391 0.039,-0.18521 0.0826,-0.0798 0.0395,0.0954 0.0347,0.20931 -0.0108,0.25321 -0.0454,0.0439 -0.0778,-0.0341 -0.0718,-0.17339 z m 0.41026,-2.37803 c 0.006,-0.1539 0.039,-0.1852 0.0826,-0.0798 0.0395,0.0954 0.0347,0.20931 -0.0108,0.25321 -0.0454,0.0439 -0.0778,-0.0342 -0.0718,-0.1734 z M 89.473999,101.23593 C 103.53897,87.648179 115.07744,76.530918 115.11504,76.530918 c 0.0376,0 -11.43932,11.117261 -25.504287,24.705012 -14.064972,13.58777 -25.603444,24.70502 -25.641051,24.70502 -0.03761,0 11.439326,-11.11725 25.504297,-24.70502 z m 0.20513,0.19817 C 103.63127,87.955339 115.07743,76.927255 115.11504,76.927255 c 0.0376,0 -11.34701,11.028084 -25.299157,24.506845 -13.952148,13.47877 -25.398311,24.50685 -25.435918,24.50685 -0.03761,0 11.347016,-11.02808 25.299164,-24.50685 z m 15.248041,22.39305 c 1.12634,-1.08993 2.07865,-1.98168 2.11626,-1.98168 0.0376,0 -0.85316,0.89175 -1.97951,1.98168 -1.12633,1.08993 -2.07865,1.98169 -2.11626,1.98169 -0.0376,0 0.85317,-0.89176 1.97951,-1.98169 z m 43.96513,-0.89175 -2.93902,-2.87345 2.9744,2.83926 c 1.63591,1.5616 2.97439,2.85465 2.97439,2.87345 0,0.0938 -0.2789,-0.16932 -3.00977,-2.83926 z m -7.08841,2.4771 c 0,-0.18166 0.031,-0.25597 0.069,-0.16514 0.0379,0.0908 0.0379,0.23946 0,0.33028 -0.0379,0.0908 -0.069,0.0165 -0.069,-0.16514 z m -51.184929,-0.23119 -0.187686,-0.2312 0.239319,0.18131 c 0.227797,0.17259 0.30024,0.28108 0.187686,0.28108 -0.0284,0 -0.136091,-0.10404 -0.239319,-0.23119 z m 7.607276,-0.42937 c 0.136137,-0.14532 0.278292,-0.26422 0.315899,-0.26422 0.03761,0 -0.04301,0.1189 -0.179145,0.26422 -0.136136,0.14532 -0.278291,0.26422 -0.315898,0.26422 -0.03761,0 0.04301,-0.1189 0.179144,-0.26422 z m -8.701306,-0.62753 -0.187686,-0.2312 0.239319,0.18132 c 0.131626,0.0997 0.239319,0.20376 0.239319,0.23119 0,0.10873 -0.112301,0.0387 -0.290952,-0.18131 z m 52.425849,-0.29726 c 0,-0.25432 0.0281,-0.35835 0.0626,-0.23119 0.0344,0.12715 0.0344,0.33523 0,0.46239 -0.0344,0.12716 -0.0626,0.0231 -0.0626,-0.2312 z m 0.41302,-0.0661 c 0.002,-0.29065 0.0295,-0.39399 0.0623,-0.22966 0.0327,0.16434 0.0315,0.40214 -0.003,0.52845 -0.0343,0.12631 -0.061,-0.008 -0.0595,-0.29879 z m -55.624876,-1.6514 c -1.126338,-1.08993 -2.017117,-1.98169 -1.979509,-1.98169 0.03761,0 0.989925,0.89176 2.116263,1.98169 1.126338,1.08992 2.017116,1.98168 1.979508,1.98168 -0.03761,0 -0.989924,-0.89176 -2.116262,-1.98168 z m 12.854851,1.32112 c 0.136137,-0.14532 0.278291,-0.26422 0.315898,-0.26422 0.03761,0 -0.04301,0.1189 -0.179144,0.26422 -0.136138,0.14532 -0.278292,0.26422 -0.315899,0.26422 -0.03761,0 0.04301,-0.1189 0.179145,-0.26422 z m 0.06837,-0.57833 c 0,-0.0274 0.107694,-0.13147 0.23932,-0.2312 l 0.239315,-0.18131 -0.187683,0.23119 c -0.178651,0.22007 -0.290952,0.29005 -0.290952,0.18132 z m -11.58958,-2.12998 c 0.0016,-0.29064 0.02952,-0.39398 0.06223,-0.22965 0.03271,0.16433 0.03147,0.40214 -0.0028,0.52844 -0.03423,0.12632 -0.06099,-0.008 -0.05947,-0.29879 z m -6.804962,-3.534 -3.007417,-2.9395 3.042771,2.90535 c 1.673523,1.59794 3.04277,2.92071 3.04277,2.93949 0,0.0937 -0.283662,-0.17399 -3.078124,-2.90534 z m 60.683177,2.54316 c 0,-0.25431 0.0281,-0.35835 0.0626,-0.2312 0.0344,0.12716 0.0344,0.33524 0,0.4624 -0.0344,0.12716 -0.0626,0.0231 -0.0626,-0.2312 z m -54.291997,-2.57308 c 2.466154,-2.40924 3.000774,-2.87183 3.145337,-2.72157 0.141943,0.14754 0.139688,0.16208 -0.01219,0.0786 -0.130475,-0.0718 -1.073617,0.74435 -3.145336,2.72156 l -2.958988,2.824 z m 54.134317,1.04278 c 0.006,-0.1539 0.039,-0.1852 0.0826,-0.0798 0.0395,0.0954 0.0347,0.20932 -0.0108,0.25322 -0.0454,0.0439 -0.0778,-0.0342 -0.0718,-0.1734 z m -0.13676,-1.0569 c 0.006,-0.1539 0.039,-0.18521 0.0826,-0.0798 0.0395,0.0954 0.0347,0.20932 -0.0108,0.25322 -0.0454,0.0439 -0.0778,-0.0342 -0.0718,-0.1734 z m -43.624436,-11.2295 c 0.0066,-0.15391 0.03897,-0.18521 0.08262,-0.0798 0.0395,0.0954 0.03465,0.20931 -0.01079,0.25321 -0.04544,0.0439 -0.07776,-0.0341 -0.07182,-0.17339 z m 39.116366,-1.14498 c 0.0337,-0.0182 0.64391,-0.56808 1.35614,-1.22204 l 1.29496,-1.18901 -1.22793,1.22204 c -0.67537,0.67212 -1.28563,1.22204 -1.35615,1.22204 -0.0705,0 -0.10067,-0.0149 -0.067,-0.033 z m -38.706105,-1.36516 c 0.0066,-0.1539 0.03897,-0.18521 0.08262,-0.0798 0.0395,0.0954 0.03465,0.20932 -0.01079,0.25322 -0.04544,0.0439 -0.07776,-0.0341 -0.07182,-0.1734 z m 36.485005,-1.60737 -0.18769,-0.23119 0.23932,0.18131 c 0.22779,0.17259 0.30024,0.28108 0.18769,0.28108 -0.0284,0 -0.1361,-0.10404 -0.23932,-0.2312 z m -1.09403,-0.66056 -0.18769,-0.2312 0.23932,0.18132 c 0.22779,0.17259 0.30024,0.28108 0.18769,0.28108 -0.0284,0 -0.1361,-0.10404 -0.23932,-0.2312 z m 0.41026,-0.13211 -0.18769,-0.2312 0.23932,0.18132 c 0.13162,0.0997 0.23932,0.20376 0.23932,0.23119 0,0.10874 -0.1123,0.0388 -0.29095,-0.18131 z m -1.76035,-1.288101 c -0.33219,-0.32698 -0.5732,-0.5945 -0.53559,-0.5945 0.0376,0 0.34016,0.26752 0.67234,0.5945 0.33218,0.326981 0.57319,0.594511 0.53558,0.594511 -0.0376,0 -0.34016,-0.26753 -0.67233,-0.594511 z m 0.0641,-0.49542 -0.81624,-0.8257 0.85471,0.78854 c 0.4701,0.43369 0.85471,0.80526 0.85471,0.825701 0,0.0976 -0.13496,-0.0215 -0.89318,-0.788541 z m -1.72258,-0.99084 -0.18769,-0.2312 0.23932,0.18132 c 0.13162,0.0997 0.23932,0.20376 0.23932,0.23119 0,0.10874 -0.1123,0.0388 -0.29095,-0.18131 z m 1.52173,-0.89176 c 0.48455,-0.4723 0.91177,-0.85873 0.94938,-0.85873 0.0376,0 -0.32808,0.38643 -0.81262,0.85873 -0.48455,0.4723 -0.91177,0.85873 -0.94938,0.85873 -0.0376,0 0.32807,-0.38643 0.81262,-0.85873 z m -15.34206,-5.57291 c 0.0987,-0.0382 0.21668,-0.0335 0.26212,0.0104 0.0454,0.0439 -0.0354,0.0751 -0.17949,0.0694 -0.15932,-0.006 -0.19172,-0.0376 -0.0826,-0.0798 z m 1.64105,0 c 0.0987,-0.0382 0.21667,-0.0335 0.26211,0.0104 0.0454,0.0439 -0.0353,0.0751 -0.17949,0.0694 -0.15931,-0.006 -0.19171,-0.0376 -0.0826,-0.0798 z m -3.28209,-0.26423 c 0.0987,-0.0382 0.21667,-0.0335 0.26211,0.0104 0.0454,0.0439 -0.0353,0.0751 -0.17949,0.0694 -0.15931,-0.006 -0.19171,-0.0376 -0.0826,-0.0798 z m -9.38877,-0.30609 c 0,-0.18165 0.031,-0.25596 0.069,-0.16514 0.0379,0.0908 0.0379,0.23946 0,0.33028 -0.0379,0.0908 -0.069,0.0165 -0.069,-0.16514 z m 8.56825,0.17398 c 0.0987,-0.0382 0.21667,-0.0335 0.26211,0.0104 0.0454,0.0439 -0.0353,0.0751 -0.17948,0.0694 -0.15932,-0.006 -0.19172,-0.0376 -0.0826,-0.0798 z m -1.36756,-0.13211 c 0.0987,-0.0382 0.21667,-0.0335 0.26211,0.0104 0.0454,0.0439 -0.0353,0.0751 -0.17949,0.0694 -0.15931,-0.006 -0.19171,-0.0376 -0.0826,-0.0798 z m 2.87183,0 c 0.0987,-0.0382 0.21666,-0.0335 0.26211,0.0104 0.0454,0.0439 -0.0354,0.0751 -0.17949,0.0694 -0.15932,-0.006 -0.19172,-0.0376 -0.0826,-0.0798 z m -2.33177,-0.26742 c 0.17011,-0.0316 0.41627,-0.0304 0.54701,0.003 0.13076,0.0331 -0.008,0.0589 -0.30928,0.0575 -0.30086,-0.001 -0.40783,-0.0285 -0.23773,-0.0601 z m -1.60964,-3.57268 -2.93901,-2.87344 2.97439,2.83926 c 1.63592,1.5616 2.97439,2.85465 2.97439,2.87345 0,0.0938 -0.27891,-0.16933 -3.00977,-2.83927 z m -6.13686,1.52709 c -0.009,-0.34085 0.0328,-0.6488 0.0923,-0.68432 0.0595,-0.0355 0.0867,0.15418 0.0605,0.42157 -0.0801,0.81695 -0.13615,0.9133 -0.15281,0.26275 z m -0.3944,-0.23899 c 0,-0.25432 0.0281,-0.35836 0.0626,-0.2312 0.0344,0.12716 0.0344,0.33524 0,0.46239 -0.0344,0.12716 -0.0626,0.0231 -0.0626,-0.23119 z m 0.55208,-0.88423 c 0.13306,-0.0335 0.31767,-0.0313 0.41026,0.005 0.0926,0.0362 -0.0163,0.0636 -0.24192,0.0609 -0.22565,-0.003 -0.3014,-0.0323 -0.16834,-0.0658 z"
         id="path905"
         sodipodi:nodetypes="ssssscssssscssscssssssscscccsscssscsssscsssssssscsscsssssscsscsssssssssssssscssscssssssssssscssssssssssssssssssssssssssssscssssscsssssssscssssssssscsssccsccccsccsssssssssssssssscsssscssscssssssssccsscsssscscccsssssssssssscsscscccscssssssssscscsccsccccsccssssscscssccsssssscsssscsssscssssssssscsssscsssssssssscsssscsssscssscsssscsssscsssscsscccccscssscccccssssccscc" />
      <path
         style="fill:#cdd2d1;stroke-width:0.134413"
         d="m 143.07096,172.64268 c 1.2e-4,-1.52589 0.02,-2.13203 0.0443,-1.34697 0.0242,0.78506 0.0241,2.03352 -1.3e-4,2.77435 -0.0243,0.74084 -0.0442,0.0985 -0.044,-1.42738 z m -41.97289,-2.84041 -0.82053,-0.0877 0.85471,-0.0223 c 0.49397,-0.0129 0.85472,0.0336 0.85472,0.10991 0,0.0727 -0.0154,0.12211 -0.0342,0.1099 -0.0188,-0.0122 -0.40343,-0.0616 -0.85472,-0.1099 z m -9.26507,-0.0875 c 0.09402,-0.0366 0.247867,-0.0366 0.341884,0 0.09402,0.0366 0.0171,0.0667 -0.170942,0.0667 -0.188035,0 -0.26496,-0.03 -0.170942,-0.0667 z m 34.46194,-0.0115 c 1.74873,-0.0209 4.61031,-0.0209 6.35904,0 1.74875,0.0209 0.31796,0.038 -3.17952,0.038 -3.49747,0 -4.92826,-0.0171 -3.17952,-0.038 z m 6.77236,-9.28102 c 0,-0.32698 0.0267,-0.46074 0.0592,-0.29725 0.0326,0.16349 0.0326,0.43102 0,0.5945 -0.0326,0.16349 -0.0592,0.0297 -0.0592,-0.29725 z m 4.39109,-5.74689 c 2.7e-4,-0.87194 0.0224,-1.21145 0.0491,-0.75447 0.0267,0.45699 0.0266,1.17039 -5.4e-4,1.58535 -0.0271,0.41496 -0.049,0.0411 -0.0487,-0.83088 z m -3.4967,-1.87377 c 0.0987,-0.0382 0.21667,-0.0335 0.26211,0.0104 0.0454,0.0439 -0.0353,0.0751 -0.17948,0.0694 -0.15931,-0.006 -0.19172,-0.0377 -0.0826,-0.0798 z m 3.92313,-4.93001 c -0.90023,-0.87195 -1.60601,-1.58536 -1.5684,-1.58536 0.0376,0 0.80492,0.71341 1.70515,1.58536 0.90022,0.87194 1.606,1.58535 1.5684,1.58535 -0.0376,0 -0.80493,-0.71341 -1.70515,-1.58535 z m 5.81013,-17.80215 -1.84427,-1.81654 1.88036,1.78168 c 1.74673,1.65506 1.94232,1.8514 1.84427,1.8514 -0.0199,0 -0.86601,-0.81744 -1.88036,-1.81654 z m -2.03861,-3.94135 c 0.006,-0.15391 0.039,-0.18521 0.0826,-0.0798 0.0395,0.0954 0.0347,0.20932 -0.0108,0.25322 -0.0454,0.0439 -0.0778,-0.0342 -0.0718,-0.1734 z m 0.13676,-1.18901 c 0.006,-0.15391 0.039,-0.18521 0.0826,-0.0798 0.0395,0.0954 0.0347,0.20932 -0.0108,0.25322 -0.0454,0.0439 -0.0778,-0.0342 -0.0718,-0.1734 z m -51.71406,-0.28625 -0.331534,-0.36331 0.376073,0.32028 c 0.351497,0.29936 0.438787,0.40634 0.331533,0.40634 -0.02449,0 -0.193728,-0.16349 -0.376072,-0.36331 z m 8.489082,-0.20648 c 0,-0.0227 0.200002,-0.21595 0.444449,-0.42936 l 0.44445,-0.38803 -0.401658,0.42937 c -0.374402,0.40022 -0.487241,0.49009 -0.487241,0.38802 z m 43.391908,-1.67612 c 0,-0.39964 0.0257,-0.56313 0.057,-0.36331 0.0313,0.19982 0.0313,0.5268 0,0.72662 -0.0313,0.19982 -0.057,0.0363 -0.057,-0.36331 z m -30.67381,-0.5945 c -0.56035,-0.54496 -0.98804,-0.99085 -0.95043,-0.99085 0.0376,0 0.52684,0.44589 1.08719,0.99085 0.56034,0.54496 0.98803,0.99084 0.95042,0.99084 -0.0376,0 -0.52683,-0.44588 -1.08718,-0.99084 z m 30.67381,-1.38718 c 0,-0.39964 0.0257,-0.56313 0.057,-0.36331 0.0313,0.19982 0.0313,0.5268 0,0.72662 -0.0313,0.19981 -0.057,0.0363 -0.057,-0.36331 z m -0.16693,-2.19087 c 0.006,-0.1539 0.039,-0.18521 0.0826,-0.0798 0.0395,0.0954 0.0347,0.20932 -0.0108,0.25322 -0.0454,0.0439 -0.0778,-0.0342 -0.0718,-0.1734 z m -48.695128,-6.91709 c 0,-0.0684 0.06084,-0.16064 0.135189,-0.20503 0.07752,-0.0463 0.100445,0.007 0.05374,0.12432 -0.09091,0.22887 -0.188933,0.27075 -0.188933,0.0807 z m 5.344193,-7.8795 c 0.0066,-0.1539 0.03897,-0.1852 0.08262,-0.0798 0.0395,0.0954 0.03465,0.20931 -0.01079,0.25321 -0.04544,0.0439 -0.07776,-0.0341 -0.07182,-0.1734 z m 0.672972,-2.08661 c 0,-0.0274 0.107693,-0.13147 0.239318,-0.2312 l 0.23932,-0.18131 -0.187686,0.2312 c -0.178651,0.22006 -0.290952,0.29005 -0.290952,0.18131 z m 34.243813,-1.04004 -0.26051,-0.29726 0.30769,0.25168 c 0.28916,0.23651 0.36996,0.34283 0.26051,0.34283 -0.026,0 -0.1644,-0.13377 -0.30769,-0.29725 z m 0.20068,-0.4624 -0.18769,-0.231201 0.23933,0.181321 c 0.22779,0.17259 0.30023,0.28108 0.18768,0.28108 -0.0284,0 -0.13609,-0.10404 -0.23932,-0.2312 z m -2.18097,-1.453231 -0.33153,-0.36331 0.37607,0.32028 c 0.20684,0.17615 0.37607,0.33964 0.37607,0.36331 0,0.10361 -0.11074,0.0193 -0.42061,-0.32028 z m -1.10112,-0.92479 -0.18769,-0.2312 0.23932,0.18132 c 0.2278,0.17259 0.30024,0.28108 0.18769,0.28108 -0.0284,0 -0.13609,-0.10404 -0.23932,-0.2312 z m -26.9304,-6.73773 -0.47128,-0.49542 0.51283,0.45528 c 0.28205,0.2504 0.51283,0.47334 0.51283,0.49542 0,0.10088 -0.11573,0.006 -0.55438,-0.45528 z m 10.63997,0.27581 c 0.094,-0.0366 0.24786,-0.0366 0.34188,0 0.094,0.0367 0.0171,0.0666 -0.17094,0.0666 -0.18804,0 -0.26496,-0.03 -0.17094,-0.0666 z m -7.99191,-1.16753 c 7.8e-4,-0.43597 0.0263,-0.5984 0.0568,-0.36095 0.0304,0.23746 0.0298,0.59416 -0.002,0.79268 -0.0312,0.19852 -0.0561,0.004 -0.0554,-0.43173 z"
         id="path903"
         sodipodi:nodetypes="ccccccccsscccssccsscsssscsccccscccsssssscsssccsccccsccscssssscsssssssssssssssccsccsssssssssssscssscsssscsssscsssscsssscsssssssccccc" />
      <path
         style="fill:#bdc9c9;stroke-width:0.134413"
         d="m 141.78005,172.5436 -0.002,-2.80739 -0.30544,-0.5147 c -0.16799,-0.28308 -0.52083,-0.62944 -0.78408,-0.76969 l -0.47864,-0.255 0.61539,0.0902 c 0.88194,0.12925 1.62502,0.57065 1.92867,1.14564 l 0.25939,0.4912 v 2.71357 2.71356 h -0.61539 -0.61539 l -0.002,-2.80738 z m -10.34111,-2.18088 -8.22367,-0.0341 -0.0583,-0.29623 -0.0583,-0.29623 8.07681,10e-4 c 7.95487,0.001 8.69222,0.0353 8.69222,0.39561 0,0.27434 0.33125,0.26534 -8.42881,0.22907 z m -40.529027,-0.20897 c 0,-0.4311 0.633084,-0.48086 5.712396,-0.44903 5.008541,0.0314 5.421391,0.0652 5.275681,0.43206 -0.11018,0.27736 -10.988077,0.29417 -10.988077,0.017 z m 47.000317,-2.63042 c -0.70536,-1.0598 -2.34668,-2.47408 -3.94731,-3.4013 -1.61004,-0.93266 -1.90399,-1.2628 -2.23559,-2.51074 -0.28349,-1.06693 -0.21516,-2.08413 0.20193,-3.00555 l 0.31396,-0.69359 h 0.80368 c 0.93455,0 0.90708,-0.0524 0.43506,0.83009 -0.30228,0.56517 -0.36964,0.86872 -0.37427,1.68674 l -0.005,0.99752 0.47684,0.9181 c 0.41337,0.79591 0.57694,0.97333 1.22898,1.33312 2.48557,1.37145 3.74632,2.35858 4.70566,3.68434 l 0.61858,0.85486 h -0.88012 -0.88012 l -0.46162,-0.69359 z m -2.67839,-10.00637 c 0.91046,-0.46488 1.01193,-0.75215 1.01193,-2.8649 v -1.87292 l -0.28011,-0.373 c -0.15406,-0.20515 -0.53867,-0.49036 -0.85471,-0.6338 l -0.5746,-0.26081 v -0.44885 c 0,-1.92649 0.77772,-4.91747 2.80236,-10.77738 4.42847,-12.8174 4.78175,-19.60774 1.50232,-28.87671 -3.30911,-9.35288 -11.67426,-16.602761 -21.49145,-18.626141 -2.20048,-0.45353 -2.22241,-0.33798 -0.15483,0.81561 10.70899,5.97499 16.98323,12.880781 19.32797,21.273491 0.75572,2.70503 1.00104,5.22647 0.2929,3.01054 -3.41019,-10.6712 -10.41523,-18.476761 -19.0745,-21.254271 l -1.54719,-0.49627 0.84245,-0.22627 0.84245,-0.22627 -0.18416,-0.21737 c -0.57374,-0.67717 -7.95748,-5.54653 -9.75692,-6.43438 l -0.95727,-0.47233 -0.10643,0.62664 c -0.31306,1.84336 0.45906,6.37081 1.24501,7.30034 l 0.22896,0.27077 0.61539,-0.19892 c 0.56225,-0.18175 2.74779,-0.50195 2.8371,-0.41567 0.0209,0.0202 -0.37819,0.20374 -0.88677,0.40798 -2.54471,1.02197 -5.63218,2.74183 -7.33587,4.086401 l -0.80428,0.63476 -0.80599,0.0457 c -0.8467,0.048 -1.83754,0.39548 -2.141188,0.7509 -0.208324,0.24385 -0.704837,2.45102 -0.707478,3.14499 -0.0029,0.7787 -0.375503,1.59966 -1.166965,2.57165 -3.532914,4.3387 -7.711105,10.06025 -8.612201,11.7934 -0.876132,1.68514 0.07263,4.26341 2.153626,5.85252 0.788746,0.60231 0.692144,0.67718 -0.178635,0.13844 -2.093361,-1.29513 -3.559415,-4.13911 -2.972896,-5.76708 0.455798,-1.26514 4.795641,-7.33363 8.314192,-11.62589 1.496721,-1.82585 1.431567,-1.69274 1.713613,-3.50098 0.453164,-2.90531 0.500799,-2.97009 3.482542,-4.735311 1.09061,-0.64566 1.99994,-1.25666 2.02072,-1.35779 0.0208,-0.10113 -0.58581,-1.22003 -1.348,-2.48644 l -1.3858,-2.30257 0.25397,-0.18468 c 0.47278,-0.34378 2.57362,-1.3127 3.46769,-1.59932 1.29123,-0.41393 1.2172,-0.2885 1.26054,-2.13563 l 0.0386,-1.64625 0.2735,0.0314 c 0.15044,0.0173 1.68892,0.71425 3.41885,1.54887 l 3.14534,1.51749 0.95727,0.0829 c 10.62291,0.91982 19.81845,7.1634 24.67768,16.755641 4.46912,8.82215 4.46959,17.30063 0.002,29.53981 -2.1134,5.78931 -3.08158,8.81901 -3.6308,11.36167 -0.50908,2.35691 -0.5391,2.2686 0.89863,2.64364 0.37898,0.0989 0.7842,0.33484 1.05984,0.61719 l 0.44628,0.45713 -5.5e-4,1.80713 c -6.8e-4,2.40933 -0.54068,3.19569 -2.18755,3.18559 l -0.47863,-0.003 0.49236,-0.25139 z M 106.25387,97.570919 c 1.49382,-0.70783 1.47702,-0.6794 0.96503,-1.63275 -0.20624,-0.38402 -0.53165,-1.29613 -0.72312,-2.02691 l -0.34814,-1.32869 -0.33673,0.0456 c -1.23353,0.16705 -3.3639,1.25621 -3.31631,1.69547 0.0236,0.21801 1.17031,2.22654 2.04183,3.57645 0.24918,0.38594 0.18043,0.39911 1.71744,-0.32918 z m 21.96974,55.618251 c -5.69362,-0.0312 -6.52597,-0.061 -6.59597,-0.2373 l -0.0801,-0.20168 6.37304,0.0148 c 6.13397,0.0143 7.02405,0.0665 7.02405,0.41229 0,0.061 -0.0461,0.0966 -0.10256,0.0792 -0.0564,-0.0175 -3.03471,-0.0477 -6.61844,-0.0673 z m -32.206052,-0.22656 c 0.393264,-0.28783 6.379672,-0.29588 6.379672,-0.009 0,0.17591 -0.42926,0.20153 -3.316281,0.19787 -2.873418,-0.004 -3.282507,-0.0289 -3.063391,-0.18929 z m 6.174542,-26.22898 c 0.29378,-0.29065 0.56491,-0.52845 0.60252,-0.52845 0.0376,0 -0.17199,0.2378 -0.46577,0.52845 -0.29378,0.29064 -0.56492,0.52844 -0.60252,0.52844 -0.0376,0 0.17199,-0.2378 0.46577,-0.52844 z m -22.154109,-2.51014 c 0.900224,-0.87194 1.667539,-1.58535 1.705147,-1.58535 0.03761,0 -0.668169,0.71341 -1.568393,1.58535 -0.900224,0.87194 -1.667539,1.58535 -1.705147,1.58535 -0.03761,0 0.668169,-0.71341 1.568393,-1.58535 z m 18.803638,-22.90532 c 0,-0.0274 0.107694,-0.13147 0.23932,-0.2312 l 0.239318,-0.18132 -0.187686,0.2312 c -0.178651,0.22007 -0.290952,0.29005 -0.290952,0.18132 z"
         id="path901"
         sodipodi:nodetypes="ccsscsscccccccccccssccssssscssscssccsssccccccscsscsssssssscccsscsscsssscssccssssssssscssccsscsscsssccccccssscsssssssccsssscscccsssssssssssscss" />
      <path
         style="fill:#b6b6b6;stroke-width:0.134413"
         d="m 124.85903,153.18925 c 1.78634,-0.0209 4.70945,-0.0209 6.4958,0 1.78634,0.0209 0.32478,0.0379 -3.24791,0.0379 -3.57269,0 -5.03424,-0.0171 -3.24789,-0.0379 z m -30.0089,-2.10508 c 0.09872,-0.0382 0.216669,-0.0335 0.262111,0.0104 0.04544,0.0439 -0.03533,0.0751 -0.179489,0.0694 -0.159311,-0.006 -0.191715,-0.0377 -0.08262,-0.0798 z m -7.290684,-10.21452 c 1.653438,-1.59856 3.03702,-2.90647 3.074628,-2.90647 0.03761,0 -1.284437,1.30791 -2.937874,2.90647 -1.653437,1.59856 -3.03702,2.90647 -3.074628,2.90647 -0.03761,0 1.284437,-1.30791 2.937874,-2.90647 z m -15.59036,-7.03498 -8.068035,-7.82766 8.102659,7.79421 c 7.531867,7.24515 8.16404,7.8611 8.068034,7.8611 -0.01904,0 -3.665239,-3.52244 -8.102658,-7.82765 z m 76.923214,0.99084 -2.93902,-2.87344 2.9744,2.83926 c 1.63591,1.56159 2.97439,2.85464 2.97439,2.87344 0,0.0938 -0.2789,-0.16932 -3.00977,-2.83926 z m -49.640409,-5.25147 c 1.314639,-1.27158 2.421029,-2.31197 2.458639,-2.31197 0.0376,0 -1.00724,1.04039 -2.321885,2.31197 -1.314643,1.27158 -2.42103,2.31197 -2.458637,2.31197 -0.03761,0 1.00724,-1.04039 2.321883,-2.31197 z m -16.273695,-8.19096 c 0.711567,-0.6903 1.324529,-1.25508 1.362136,-1.25508 0.03761,0 -0.513816,0.56478 -1.225382,1.25508 -0.711567,0.69028 -1.324528,1.25506 -1.362135,1.25506 -0.03761,0 0.513815,-0.56478 1.225381,-1.25506 z m 65.915294,-4.2276 c 1.6158,-1.56223 2.96859,-2.84042 3.0062,-2.84042 0.0376,0 -1.25364,1.27819 -2.86945,2.84042 -1.61579,1.56223 -2.96859,2.84041 -3.00619,2.84041 -0.0376,0 1.25364,-1.27818 2.86944,-2.84041 z m 6.08438,-0.0991 -3.00742,-2.9395 3.04277,2.90535 c 1.67353,1.59794 3.04277,2.92071 3.04277,2.9395 0,0.0937 -0.28366,-0.17399 -3.07812,-2.90535 z m -63.315812,-4.06245 c 0.598187,-0.5813 1.118384,-1.0569 1.155991,-1.0569 0.03761,0 -0.42105,0.4756 -1.019237,1.0569 -0.598187,0.58129 -1.118383,1.05689 -1.15599,1.05689 -0.03761,0 0.42105,-0.4756 1.019236,-1.05689 z m 42.051582,-18.198481 -18.52995,-17.93426 18.56432,17.90105 c 10.21038,9.845571 18.56433,17.915991 18.56433,17.934251 0,0.0924 -1.37138,-1.22753 -18.5987,-17.901041 z m 8.95639,10.370821 -3.00742,-2.9395 3.04278,2.90534 c 2.82731,2.69963 3.10446,2.97366 3.00741,2.97366 -0.0195,0 -1.38869,-1.32278 -3.04277,-2.9395 z m -40.84546,-3.88848 c 0.0987,-0.0382 0.21667,-0.0335 0.26211,0.0104 0.0454,0.0439 -0.0353,0.0751 -0.17949,0.0694 -0.15931,-0.006 -0.19171,-0.0376 -0.0826,-0.0798 z m 28.67438,-7.869521 -3.00742,-2.9395 3.04278,2.90534 c 1.67351,1.59794 3.04276,2.92072 3.04276,2.9395 0,0.0937 -0.28366,-0.17399 -3.07812,-2.90534 z m -12.37505,-5.97809 c 1.6158,-1.56223 2.96859,-2.84042 3.0062,-2.84042 0.0376,0 -1.25364,1.27819 -2.86945,2.84042 -1.6158,1.56223 -2.96858,2.84042 -3.00619,2.84042 -0.0376,0 1.25364,-1.27819 2.86944,-2.84042 z m 0.0672,-5.912029 -3.00742,-2.9395 3.04277,2.905347 c 1.67353,1.59794 3.04278,2.920712 3.04278,2.939502 0,0.0937 -0.28367,-0.17399 -3.07813,-2.905349 z"
         id="path899"
         sodipodi:nodetypes="cssccscccsssssscsssscssssssssssssssssssscssssssssscsssscssssscssscssssssssscsss" />
      <path
         style="fill:#a8a8a8;stroke-width:0.134413"
         d="m 86.054573,147.44225 -6.016582,-5.84598 6.051353,5.81238 c 5.624565,5.40245 6.112798,5.87956 6.016582,5.87956 -0.01913,0 -2.742234,-2.63068 -6.051353,-5.84596 z m 11.795592,5.74734 c 0.846164,-0.0231 2.230795,-0.0231 3.076955,0 0.84617,0.0232 0.15385,0.0422 -1.538475,0.0422 -1.692328,0 -2.384644,-0.0189 -1.53848,-0.0422 z M 152.1072,139.68064 c 7.74683,-7.48417 14.11591,-13.60758 14.15352,-13.60758 0.0376,0 -6.26994,6.12341 -14.01676,13.60758 -7.74683,7.48417 -14.11591,13.60757 -14.15352,13.60757 -0.0376,0 6.26994,-6.1234 14.01676,-13.60757 z m -56.384247,11.03138 c 0.0028,-0.21798 0.03344,-0.29116 0.06811,-0.16262 0.03467,0.12854 0.03239,0.30689 -0.005,0.39634 -0.03746,0.0894 -0.06583,-0.0157 -0.06304,-0.23372 z m -0.263376,-23.54149 c 0.133057,-0.0335 0.317675,-0.0313 0.410261,0.005 0.09259,0.0362 -0.01627,0.0636 -0.241921,0.0609 -0.225644,-0.003 -0.301398,-0.0323 -0.16834,-0.0658 z m 65.672213,-4.16908 -3.00743,-2.9395 3.04278,2.90535 c 2.82731,2.69962 3.10446,2.97365 3.00742,2.97365 -0.0195,0 -1.38869,-1.32277 -3.04277,-2.9395 z m -2.05065,-3.69915 -6.83718,-6.63864 6.87187,6.60512 c 3.77953,3.63282 6.87188,6.62021 6.87188,6.63864 0,0.0929 -0.55135,-0.43442 -6.90657,-6.60512 z m -15.04241,2.27894 c 0.8248,-0.79928 1.5304,-1.45324 1.568,-1.45324 0.0376,0 -0.60645,0.65396 -1.43124,1.45324 -0.8248,0.79928 -1.5304,1.45324 -1.56801,1.45324 -0.0376,0 0.60646,-0.65396 1.43125,-1.45324 z m -68.787119,-4.3597 c 1.653437,-1.59857 3.03702,-2.90648 3.074626,-2.90648 0.03761,0 -1.284435,1.30791 -2.937873,2.90648 -1.653437,1.59855 -3.03702,2.90646 -3.074627,2.90646 -0.03761,0 1.284436,-1.30791 2.937874,-2.90646 z m 73.572339,-6.1102 -3.00742,-2.9395 3.04278,2.90534 c 2.82731,2.69962 3.10445,2.97365 3.00741,2.97365 -0.0195,0 -1.38869,-1.32277 -3.04277,-2.93949 z m -61.230334,-5.77991 3.042751,-2.97176 2.769282,2.7075 2.769283,2.7075 -2.769322,-2.64065 -2.769321,-2.64065 -3.042713,2.90491 -3.042711,2.90491 z m 48.922504,-6.110211 -3.00743,-2.9395 3.04278,2.90535 c 2.82731,2.699621 3.10446,2.973651 3.00741,2.973651 -0.0195,0 -1.38869,-1.32277 -3.04276,-2.939501 z M 103.081,101.05394 c 0,-0.0274 0.10769,-0.13147 0.23932,-0.23119 l 0.23932,-0.18132 -0.18769,0.2312 c -0.17865,0.22006 -0.29095,0.29005 -0.29095,0.18131 z m -3.282095,-7.546581 c 1.615805,-1.56223 2.968595,-2.84042 3.006195,-2.84042 0.0376,0 -1.25364,1.27819 -2.869441,2.84042 -1.615801,1.56223 -2.968589,2.84042 -3.006197,2.84042 -0.03761,0 1.253642,-1.27819 2.869443,-2.84042 z m 5.617695,-3.18171 c 0.006,-0.1539 0.039,-0.1852 0.0826,-0.0798 0.0395,0.0954 0.0347,0.20931 -0.0108,0.25321 -0.0454,0.0439 -0.0778,-0.0341 -0.0718,-0.1734 z m 18.92843,-2.86243 -3.00742,-2.9395 3.04278,2.90534 c 2.8273,2.69962 3.10446,2.97366 3.00741,2.97366 -0.0195,0 -1.38869,-1.32278 -3.04277,-2.9395 z m -17.56089,2.4661 c 0.006,-0.15391 0.039,-0.18521 0.0826,-0.0798 0.0395,0.0954 0.0347,0.20931 -0.0108,0.25321 -0.0454,0.0439 -0.0778,-0.0341 -0.0718,-0.17339 z m 5.3226,-8.312074 c 1.6158,-1.562229 2.96858,-2.840417 3.00619,-2.840417 0.0376,0 -1.25363,1.278188 -2.86943,2.840417 -1.61581,1.562228 -2.96859,2.840414 -3.0062,2.840414 -0.0376,0 1.25364,-1.278186 2.86944,-2.840414 z"
         id="path897"
         sodipodi:nodetypes="scsssccscssssscsccccccccscsssscsssssssssssssscssscccccccccscssssscsssssssccsccscsssccsccsssss" />
      <path
         style="fill:#8b9190;stroke-width:0.134413"
         d="m 127.66248,170.36382 c 2.1248,-0.0204 5.60177,-0.0204 7.72658,0 2.12481,0.0205 0.38633,0.0372 -3.8633,0.0372 -4.24961,0 -5.98809,-0.0168 -3.86328,-0.0372 z m -36.137176,-1.35423 c 0.136138,-0.14533 0.278292,-0.26423 0.315899,-0.26423 0.03761,0 -0.04301,0.1189 -0.179145,0.26423 -0.136136,0.14532 -0.278291,0.26422 -0.315898,0.26422 -0.03761,0 0.043,-0.1189 0.179144,-0.26422 z m 11.008676,-0.0661 c 0.17665,-0.18166 0.35195,-0.33028 0.38956,-0.33028 0.0376,0 -0.0762,0.14862 -0.25281,0.33028 -0.17665,0.18165 -0.35195,0.33028 -0.38956,0.33028 -0.0376,0 0.0762,-0.14863 0.25281,-0.33028 z m 36.63255,0.0991 -0.18768,-0.2312 0.23931,0.18132 c 0.13163,0.0997 0.23932,0.20377 0.23932,0.23119 0,0.10874 -0.1123,0.0387 -0.29095,-0.18131 z m -2.06805,-0.78109 c 0.094,-0.0366 0.24787,-0.0366 0.34188,0 0.094,0.0366 0.0171,0.0667 -0.17093,0.0667 -0.18805,0 -0.26497,-0.03 -0.17095,-0.0667 z m -35.89755,-7.64107 c 0.002,-0.29065 0.0295,-0.39399 0.0622,-0.22966 0.0327,0.16435 0.0315,0.40215 -0.003,0.52846 -0.0342,0.1263 -0.061,-0.008 -0.0595,-0.2988 z m -2.21175,-0.011 c 0.0066,-0.1539 0.03897,-0.1852 0.08262,-0.0798 0.0395,0.0954 0.03465,0.20931 -0.01079,0.25322 -0.04544,0.0439 -0.07776,-0.0341 -0.07182,-0.17341 z m 1.35674,-2.69729 c -0.12325,-0.0769 -0.14012,-0.12888 -0.0423,-0.13009 0.0896,-7.5e-4 0.20091,0.0575 0.24739,0.13009 0.10493,0.16402 0.0576,0.16402 -0.20513,0 z m -7.636616,-2.37802 c 0,-0.18166 0.03104,-0.25597 0.06898,-0.16514 0.03794,0.0908 0.03794,0.23945 0,0.33027 -0.03794,0.0908 -0.06898,0.0166 -0.06898,-0.16513 z m 0,-1.58535 c 0,-0.18166 0.03104,-0.25597 0.06898,-0.16515 0.03794,0.0908 0.03794,0.23946 0,0.33028 -0.03794,0.0908 -0.06898,0.0166 -0.06898,-0.16513 z m 3.371609,-0.75081 c 0.09872,-0.0382 0.21667,-0.0335 0.262112,0.0104 0.04544,0.0439 -0.03533,0.0751 -0.179489,0.0693 -0.159311,-0.006 -0.191715,-0.0377 -0.08262,-0.0798 z m 6.589817,-0.88443 c 0,-0.0274 0.1077,-0.13146 0.23932,-0.23119 l 0.23932,-0.18132 -0.18768,0.2312 c -0.17865,0.22007 -0.29096,0.29005 -0.29096,0.18131 z m -3.456078,-2.42348 c 0.24277,-0.0292 0.673544,-0.0297 0.957278,-7.5e-4 0.28373,0.0286 0.0851,0.0525 -0.441401,0.053 -0.526502,5.3e-4 -0.758648,-0.0229 -0.515877,-0.052 z m 1.689078,-0.9065 c 0.007,-0.15391 0.039,-0.18521 0.0826,-0.0798 0.0395,0.0954 0.0346,0.20932 -0.0108,0.25321 -0.0454,0.0439 -0.0778,-0.0341 -0.0718,-0.17339 z m 5.04909,-11.86294 c 0,-0.0274 0.1077,-0.13147 0.23932,-0.23119 l 0.23932,-0.18132 -0.18768,0.2312 c -0.17866,0.22006 -0.29096,0.29005 -0.29096,0.18131 z m -1.77779,-0.13211 c 0,-0.0274 0.10769,-0.13147 0.23932,-0.2312 l 0.23932,-0.18131 -0.1877,0.2312 c -0.17865,0.22006 -0.29094,0.29005 -0.29094,0.18131 z m 2.32481,-0.51991 c 0,-0.0228 0.2,-0.21594 0.44445,-0.42936 l 0.44444,-0.38803 -0.40165,0.42937 c -0.3744,0.40022 -0.48724,0.49009 -0.48724,0.38802 z m -1.64105,-0.26422 c 0,-0.0227 0.20001,-0.21595 0.44445,-0.42937 l 0.44445,-0.38802 -0.40165,0.42936 c -0.37441,0.40023 -0.48725,0.49009 -0.48725,0.38803 z m 5.12827,-3.12936 c 0.37042,-0.36331 0.70425,-0.66056 0.74186,-0.66056 0.0376,0 -0.23469,0.29725 -0.60511,0.66056 -0.37041,0.36331 -0.70426,0.66056 -0.74187,0.66056 -0.0376,0 0.2347,-0.29725 0.60512,-0.66056 z m -1.84618,-0.0661 c 0.17665,-0.18166 0.35195,-0.33028 0.38956,-0.33028 0.0376,0 -0.0761,0.14862 -0.2528,0.33028 -0.17666,0.18165 -0.35196,0.33028 -0.38956,0.33028 -0.0376,0 0.0761,-0.14863 0.2528,-0.33028 z m 1.63533,-1.42021 c 0.56671,-0.5833 0.68949,-0.68819 0.68949,-0.58899 0,0.0212 -0.29232,0.3036 -0.64958,0.62754 l -0.64958,0.58899 z m 4.51859,-2.65056 c 0,-0.0227 0.2,-0.21595 0.44445,-0.42937 l 0.44444,-0.38802 -0.40165,0.42936 c -0.3744,0.40023 -0.48724,0.4901 -0.48724,0.38803 z m -0.75214,-1.01556 c 0.29378,-0.29065 0.56491,-0.52845 0.60252,-0.52845 0.0376,0 -0.17199,0.2378 -0.46577,0.52845 -0.29378,0.29064 -0.56492,0.52845 -0.60253,0.52845 -0.0376,0 0.172,-0.23781 0.46578,-0.52845 z m 1.98292,-0.31411 c 0,-0.0274 0.10769,-0.13147 0.23932,-0.23119 l 0.23932,-0.18132 -0.18769,0.2312 c -0.17865,0.22007 -0.29095,0.29005 -0.29095,0.18131 z m 0.68377,-0.79267 c 0,-0.0274 0.10769,-0.13148 0.23932,-0.23119 l 0.23932,-0.18133 -0.18769,0.23121 c -0.17865,0.22006 -0.29095,0.29004 -0.29095,0.18131 z m -1.29916,-0.34646 c 0.13614,-0.14532 0.27829,-0.26422 0.3159,-0.26422 0.0376,0 -0.043,0.1189 -0.17915,0.26422 -0.13613,0.14533 -0.27828,0.26423 -0.31589,0.26423 -0.0376,0 0.043,-0.1189 0.17914,-0.26423 z m -13.54118,-2.01471 -1.36497,-1.35415 1.40172,1.31864 c 1.30193,1.22477 1.4639,1.38966 1.36497,1.38966 -0.0202,0 -0.65099,-0.60937 -1.40172,-1.35415 z m 14.3617,1.08993 c 0.13614,-0.14533 0.2783,-0.26423 0.3159,-0.26423 0.0376,0 -0.043,0.1189 -0.17914,0.26423 -0.13614,0.14532 -0.27829,0.26422 -0.3159,0.26422 -0.0376,0 0.043,-0.1189 0.17914,-0.26422 z m 0.47864,-0.57834 c 0,-0.0274 0.10769,-0.13147 0.23932,-0.23119 l 0.23932,-0.18132 -0.18769,0.2312 c -0.17865,0.22007 -0.29095,0.29005 -0.29095,0.18131 z m -22.808484,-0.2276 c 0.128526,-0.0695 0.352982,-0.0704 0.539767,-0.002 0.274677,0.1003 0.243666,0.11706 -0.220021,0.11895 -0.39098,0.002 -0.479119,-0.0306 -0.319746,-0.11676 z m 23.355494,-0.43295 c 0,-0.0274 0.1077,-0.13147 0.23932,-0.2312 l 0.23933,-0.18131 -0.1877,0.23119 c -0.17865,0.22007 -0.29095,0.29005 -0.29095,0.18132 z m -21.607081,-0.3878 c 0,-0.0228 0.200002,-0.21595 0.444449,-0.42937 l 0.44445,-0.38802 -0.401658,0.42937 c -0.374402,0.40022 -0.487241,0.49009 -0.487241,0.38802 z m 2.322369,-1.31282 c 0.78841,-0.78111 1.449956,-1.4202 1.470103,-1.4202 0.09876,0 -0.06801,0.16935 -1.433471,1.45559 l -1.470102,1.38482 z m 0.344328,-1.28809 c 0.370418,-0.36331 0.704257,-0.66056 0.741864,-0.66056 0.03761,0 -0.234692,0.29725 -0.60511,0.66056 -0.370418,0.36331 -0.704257,0.66056 -0.741865,0.66056 -0.03761,0 0.234694,-0.29725 0.605111,-0.66056 z m 6.599964,-1.41456 c 0.17011,-0.0316 0.41627,-0.0304 0.54701,0.003 0.13075,0.0331 -0.009,0.059 -0.30928,0.0575 -0.30087,-0.002 -0.40784,-0.0285 -0.23773,-0.0601 z m 1.51124,-0.12892 c 0.0987,-0.0382 0.21668,-0.0335 0.26212,0.0104 0.0454,0.0439 -0.0354,0.0751 -0.17949,0.0694 -0.15932,-0.006 -0.19172,-0.0377 -0.0826,-0.0798 z m -1.64959,-0.79566 c 0.16923,-0.0315 0.44616,-0.0315 0.61539,0 0.16924,0.0315 0.0308,0.0572 -0.3077,0.0572 -0.33846,0 -0.47692,-0.0258 -0.30769,-0.0572 z m 1.64959,-0.12913 c 0.0987,-0.0382 0.21668,-0.0335 0.26212,0.0104 0.0454,0.0439 -0.0354,0.0751 -0.17949,0.0694 -0.15932,-0.006 -0.19172,-0.0377 -0.0826,-0.0798 z m 14.459,-0.16485 c -0.0433,-0.0676 -0.0161,-0.16033 0.0603,-0.20596 0.0765,-0.0456 0.13898,0.01 0.13898,0.12298 0,0.23206 -0.082,0.26623 -0.19929,0.083 z m -7.59567,-1.38013 c 0,-0.0274 0.10769,-0.13148 0.23932,-0.2312 l 0.23932,-0.18132 -0.18769,0.2312 c -0.17864,0.22006 -0.29095,0.29005 -0.29095,0.18132 z m -0.13675,-0.79268 c 0,-0.0274 0.10769,-0.13147 0.23932,-0.2312 l 0.23932,-0.18131 -0.18769,0.2312 c -0.17865,0.22006 -0.29095,0.29005 -0.29095,0.18131 z m 1.09403,-0.13211 c 0,-0.0274 0.10769,-0.13147 0.23932,-0.23119 l 0.23931,-0.18132 -0.18768,0.23119 c -0.17865,0.22007 -0.29095,0.29005 -0.29095,0.18132 z m 0.13675,-1.0569 c 0,-0.0274 0.10769,-0.13147 0.23932,-0.2312 l 0.23932,-0.18131 -0.18768,0.2312 c -0.17866,0.22006 -0.29096,0.29005 -0.29096,0.18131 z m -26.326259,-4.21074 -3.007416,-2.9395 3.042769,2.90534 c 1.673525,1.59795 3.042771,2.92072 3.042771,2.9395 0,0.0937 -0.283662,-0.17399 -3.078124,-2.90534 z m 28.058469,1.39819 c -0.0502,-0.0485 -0.0912,-0.14951 -0.0912,-0.22459 0,-0.0828 0.0637,-0.075 0.16183,0.0198 0.089,0.086 0.13003,0.18705 0.0912,0.22459 -0.0388,0.0375 -0.11168,0.0286 -0.16182,-0.0198 z m -13.13424,-0.59054 c 0.271,-0.28928 0.43463,-0.33483 0.19317,-0.0538 -0.14166,0.16491 -0.0219,0.19922 0.83797,0.24007 l 1.00326,0.0476 -1.1325,0.006 -1.1325,0.006 0.2306,-0.24617 z m 13.18192,-0.0733 c 0.005,-0.24374 0.2671,-0.5163 0.26932,-0.27982 7.7e-4,0.12287 -0.0595,0.26014 -0.13466,0.30505 -0.0752,0.0449 -0.13581,0.0336 -0.13466,-0.0252 z m -8.89109,-0.22282 c 0,-0.0274 0.1077,-0.13147 0.23933,-0.23119 l 0.23932,-0.18132 -0.18769,0.23119 c -0.17866,0.22007 -0.29096,0.29005 -0.29096,0.18132 z m 0.25607,-1.76666 -0.18769,-0.2312 0.23932,0.18132 c 0.2278,0.17258 0.30024,0.28108 0.18769,0.28108 -0.0284,0 -0.13609,-0.10405 -0.23932,-0.2312 z m 25.64577,-10.635051 -0.26052,-0.29725 0.3077,0.25167 c 0.16924,0.13842 0.3077,0.27218 0.3077,0.29725 0,0.10572 -0.11006,0.0277 -0.35488,-0.25167 z m -25.88025,-8.81848 c 0,-0.18166 0.031,-0.25597 0.069,-0.16514 0.0379,0.0908 0.0379,0.23945 0,0.33028 -0.0379,0.0908 -0.069,0.0165 -0.069,-0.16514 z m -1.37833,-0.4734 c 0.006,-0.15391 0.039,-0.18521 0.0826,-0.0798 0.0395,0.0954 0.0347,0.20931 -0.0108,0.25321 -0.0454,0.0439 -0.0778,-0.0341 -0.0718,-0.17339 z"
         id="path895"
         sodipodi:nodetypes="ssssssssssssssscssscssccscccssssssccsssssssssscscccsscssccsccssssssscsssscsssscsssscssssssssssssssscssscssssssssscsssscsscssscscssssscsssscsscccccsscsssscssssscssssssccscccscccccsccscccscssssccsssscsssccsssscssscssscscsccsccccccsccsssccssscsssscsssscssccscc" />
      <path
         style="fill:#798b8a;stroke-width:0.134413"
         d="m 139.64683,169.80022 c -0.0917,-0.0886 -2.95082,-0.12225 -8.42468,-0.0991 -4.5572,0.0192 -8.26284,-7.5e-4 -8.23476,-0.0447 0.11218,-0.17524 -0.88351,-1.07025 -1.38686,-1.24663 l -0.53643,-0.18797 8.34199,0.0402 c 4.58808,0.0221 8.43428,0.0688 8.5471,0.10383 0.65589,0.20346 1.45657,0.78961 1.74477,1.27729 0.18617,0.31501 0.16851,0.36925 -0.0512,0.15706 z m -48.486837,-0.26218 c 0.116492,-0.29407 0.55743,-0.62915 1.301328,-0.98891 l 0.662509,-0.32041 5.350747,-0.009 c 4.677883,-0.008 5.317033,0.015 5.082653,0.18055 -0.14745,0.10416 -0.31492,0.16142 -0.37216,0.12725 -0.0572,-0.0342 -0.10407,0.004 -0.10407,0.0856 0,0.0812 -0.0526,0.1163 -0.11688,0.0779 -0.14645,-0.0874 -0.64454,0.42791 -0.75467,0.7808 l -0.0825,0.26423 h -5.522752 c -4.852833,0 -5.513228,-0.024 -5.444247,-0.19817 z m 7.171932,-6.30837 c 0.76251,-1.41347 0.907161,-3.19262 0.362517,-4.45879 -0.09377,-0.21799 -0.16055,-0.44092 -0.148403,-0.49542 0.01214,-0.0545 -0.03753,-0.0991 -0.11038,-0.0991 -0.07285,0 -0.09704,-0.0892 -0.05374,-0.19817 0.0587,-0.14776 0.302737,-0.19816 0.959514,-0.19816 h 0.880797 l 0.33279,0.3469 c 0.18304,0.19079 0.31041,0.38401 0.28304,0.42936 -0.0274,0.0454 0.013,0.23109 0.0896,0.41275 0.29584,0.7011 0.34381,2.05872 0.1027,2.90647 -0.093,0.32697 -0.18031,0.65396 -0.19402,0.72662 -0.0137,0.0727 -0.10107,0.26587 -0.19412,0.42937 l -0.16917,0.29725 h -1.097296 c -0.60351,0 -1.073237,-0.0446 -1.043837,-0.0991 z m -5.606967,-8.48822 c 0,-0.32698 0.02667,-0.46074 0.05926,-0.29725 0.03259,0.16349 0.03259,0.43102 0,0.59451 -0.03259,0.16348 -0.05926,0.0297 -0.05926,-0.29726 z m 3.026542,-1.76223 c 0.20767,-1.14803 1.092295,-1.40847 5.05054,-1.48696 l 3.30461,-0.0655 -0.62857,0.32845 c -0.34572,0.18066 -0.73176,0.48059 -0.85787,0.66653 l -0.22929,0.33806 h -3.134428 -3.134428 l -0.219206,0.29725 -0.219205,0.29725 z m 46.98807,-4.51311 c 2.59409,-2.50683 4.74729,-4.55788 4.7849,-4.55788 0.0376,0 -2.05406,2.05105 -4.64815,4.55788 -2.59408,2.50684 -4.74728,4.55788 -4.78489,4.55788 -0.0376,0 2.05406,-2.05104 4.64814,-4.55788 z m -14.55253,4.32539 -6.55244,-0.0343 -0.51909,-0.52716 c -0.2855,-0.28993 -0.58309,-0.53458 -0.66132,-0.54366 -0.0782,-0.009 -0.19864,-0.024 -0.26758,-0.033 -0.0689,-0.009 -0.17665,-0.069 -0.23933,-0.13302 -0.21782,-0.2227 13.09341,-0.004 13.65928,0.22441 0.5296,0.21376 1.42564,0.96078 1.24268,1.03599 -0.0604,0.0248 -3.05836,0.0297 -6.6622,0.0108 z m -29.571671,-2.97123 c -0.03486,-0.0545 -0.03063,-0.15029 0.0094,-0.21287 0.04004,-0.0626 0.108929,-0.34497 0.153092,-0.62754 0.04416,-0.28256 0.110559,-0.66238 0.147543,-0.84403 0.03698,-0.18165 0.09149,-0.44918 0.12112,-0.5945 0.11248,-0.55167 0.195761,-0.82804 0.617046,-2.04775 0.238424,-0.69028 0.4463,-1.31451 0.46194,-1.38717 0.0156,-0.0727 0.0963,-0.25102 0.17931,-0.39634 0.083,-0.14533 0.14785,-0.29396 0.14414,-0.33028 -0.004,-0.0363 0.11885,-0.30386 0.27234,-0.59451 0.15348,-0.29065 0.28847,-0.57179 0.29998,-0.62477 0.0575,-0.26498 0.76567,-1.64354 0.9223,-1.79552 0.0988,-0.0959 0.21726,-0.31885 0.26313,-0.49542 0.0459,-0.17657 0.12428,-0.32104 0.17424,-0.32104 0.05,0 0.21251,-0.22295 0.36124,-0.49543 0.14873,-0.27248 0.40888,-0.64343 0.57812,-0.82435 0.16923,-0.18091 0.30769,-0.37412 0.30769,-0.42936 0,-0.0553 0.10769,-0.20942 0.23932,-0.34262 0.13163,-0.13319 0.70086,-0.77111 1.26497,-1.41758 1.17558,-1.34723 1.60614,-1.77089 3.01249,-2.96417 1.18436,-1.00493 5.81529,-5.45553 6.67025,-6.41052 0.32374,-0.36163 0.72849,-0.80612 0.89944,-0.98777 0.51686,-0.54924 1.45214,-1.68324 1.45214,-1.76067 0,-0.0399 0.18463,-0.26787 0.41027,-0.50653 0.22564,-0.23867 0.41025,-0.48263 0.41025,-0.54213 0,-0.0596 0.12308,-0.23582 0.27351,-0.3918 0.15043,-0.15599 0.27351,-0.36158 0.27351,-0.45688 0,-0.0953 0.0604,-0.17325 0.13417,-0.17325 0.0738,0 0.49697,-0.71084 0.94039,-1.57964 0.88777,-1.73942 1.06416,-1.89144 0.69258,-0.59687 -0.13504,0.47046 -0.21112,0.85538 -0.16906,0.85538 0.042,0 0.009,0.079 -0.0744,0.17551 -0.0829,0.0965 -0.17079,0.28975 -0.19525,0.42937 -0.0245,0.13962 -0.15036,0.44707 -0.27975,0.68322 -0.12939,0.23615 -0.20133,0.42936 -0.15985,0.42936 0.0801,0 -0.28886,0.73511 -0.49111,0.97844 -0.33079,0.39802 -1.35507,1.94553 -1.35507,2.0473 0,0.0642 -0.0923,0.15091 -0.20514,0.19274 -0.11282,0.0418 -0.20512,0.16708 -0.20512,0.27836 0,0.11127 -0.0498,0.20231 -0.11052,0.20231 -0.0608,0 -0.29156,0.23936 -0.51283,0.5319 -0.22127,0.29254 -0.55615,0.69794 -0.74419,0.90088 -0.18803,0.20295 -0.77266,0.84035 -1.29916,1.41646 -1.06997,1.1708 -1.90214,1.9739 -5.12443,4.94539 -1.22132,1.12626 -2.52283,2.40445 -2.89227,2.84042 -0.36943,0.43597 -0.76297,0.88683 -0.87455,1.00192 -0.11158,0.11509 -0.20287,0.25145 -0.20287,0.30303 0,0.0515 -0.14969,0.24971 -0.33264,0.44032 -0.18295,0.19061 -0.44449,0.55958 -0.58121,0.81994 -0.13671,0.26035 -0.28409,0.5031 -0.32752,0.53943 -0.0787,0.0658 -1.28806,2.35719 -1.34097,2.54076 -0.0153,0.0532 -0.12499,0.32071 -0.2437,0.59451 -0.11872,0.2738 -0.22967,0.55727 -0.24656,0.62993 -0.0169,0.0727 -0.10337,0.30371 -0.19218,0.51344 -0.0888,0.20972 -0.18133,0.47725 -0.2056,0.5945 -0.0243,0.11726 -0.0824,0.30236 -0.12909,0.41135 -0.0467,0.10899 -0.11437,0.3468 -0.15029,0.52845 -0.0359,0.18166 -0.1041,0.47891 -0.1515,0.66056 -0.18088,0.69323 -0.44242,2.08755 -0.53813,2.86886 -0.10945,0.89347 -0.11346,0.89635 -1.247311,0.89635 -0.572192,0 -1.068873,-0.0446 -1.103737,-0.0991 z m 43.987451,-14.96174 c 1.6158,-1.56222 2.96859,-2.84041 3.00619,-2.84041 0.0376,0 -1.25364,1.27819 -2.86944,2.84041 -1.6158,1.56223 -2.96859,2.84042 -3.0062,2.84042 -0.0376,0 1.25365,-1.27819 2.86945,-2.84042 z m 9.76928,-8.29005 -0.40165,-0.42936 0.44445,0.38803 c 0.24444,0.21341 0.44445,0.40662 0.44445,0.42936 0,0.10206 -0.11284,0.0122 -0.48725,-0.38803 z m -58.727113,-1.76415 c 0,-0.0159 0.276927,-0.15833 0.615392,-0.31661 0.338466,-0.15829 0.615392,-0.34195 0.615392,-0.40813 0,-0.0662 0.06786,-0.12032 0.150811,-0.12032 0.15522,0 3.593136,-3.26258 3.691645,-3.50337 0.07053,-0.1724 1.297363,-0.92495 1.832823,-1.12427 0.65477,-0.24373 0.98228,-0.27899 3.00859,-0.32387 1.053,-0.0233 2.12993,-0.0762 2.39318,-0.11752 0.78836,-0.12371 1.14432,-0.19008 1.5043,-0.28048 0.18803,-0.0473 0.46496,-0.10378 0.61539,-0.12568 0.15043,-0.0219 0.27351,-0.0523 0.27351,-0.0676 0,-0.0153 0.17956,-0.0559 0.39901,-0.0904 0.21946,-0.0344 0.6052,-0.1459 0.85719,-0.24762 0.252,-0.10172 0.47244,-0.18019 0.48989,-0.17438 0.0778,0.0259 1.81434,-0.89129 1.85508,-0.97986 0.025,-0.0545 0.13277,-0.0991 0.23932,-0.0991 0.10656,0 0.19374,-0.0595 0.19374,-0.13211 0,-0.0727 0.0769,-0.13232 0.17094,-0.13256 0.42233,-7.5e-4 2.48063,-2.40862 2.624,-3.0692 0.0743,-0.34216 0.43962,-1.02771 0.51098,-0.95877 0.0407,0.0393 -0.0453,0.41187 -0.19102,0.8279 -0.14574,0.41604 -0.28062,0.81589 -0.29972,0.88855 -0.0801,0.30464 -0.43691,0.94277 -0.66033,1.1809 -0.13216,0.14086 -0.2403,0.30434 -0.2403,0.3633 0,0.12673 -1.48034,1.5534 -1.85817,1.79082 -0.55954,0.35157 -2.34006,1.19457 -2.85983,1.35399 -0.30086,0.0923 -0.60855,0.2029 -0.68377,0.24581 -0.0752,0.0429 -0.19829,0.0911 -0.27351,0.10704 -0.0752,0.016 -0.2906,0.0652 -0.47864,0.10957 -0.18803,0.0443 -0.49573,0.10845 -0.68376,0.14255 -0.18805,0.0341 -0.52651,0.10001 -0.75215,0.14647 -0.59216,0.12195 -0.76228,0.1362 -2.80345,0.23479 -3.89908,0.18832 -3.86502,0.17464 -6.290093,2.52575 -1.736648,1.68369 -2.659211,2.29571 -3.550403,2.35531 -0.228821,0.0153 -0.416037,0.0148 -0.416037,-7.4e-4 z m 50.186563,-6.49287 -1.70737,-1.68443 1.74361,1.64942 c 1.61963,1.53214 1.80562,1.71944 1.70737,1.71944 -0.0199,0 -0.80455,-0.75799 -1.74361,-1.68443 z M 115.66233,112.143 c 0,-0.1047 0.0558,-0.22368 0.124,-0.26441 0.0682,-0.0407 0.0918,0.0449 0.0524,0.19038 -0.0835,0.30848 -0.17642,0.34748 -0.17642,0.074 z m -12.90283,-0.41739 c 0.44996,-0.57105 1.49342,-1.47018 1.82372,-1.57145 0.15157,-0.0464 0.27557,-0.14985 0.27557,-0.22973 0,-0.0799 0.0358,-0.11066 0.0795,-0.0684 0.0437,0.0422 0.28793,-0.007 0.54263,-0.1101 1.49405,-0.60306 2.53064,0.63083 1.44173,1.71617 -0.55197,0.55017 -0.9874,0.6473 -2.9672,0.6619 l -1.51871,0.0112 z m -0.84179,-6.52724 c -0.71582,-0.76413 0.28021,-1.29274 1.50517,-0.79881 0.22564,0.091 0.48541,0.17761 0.57725,0.19252 0.40932,0.0664 0.13383,0.44138 -0.40631,0.553 -0.0564,0.0117 -0.11795,0.0332 -0.13676,0.0478 -0.0188,0.0146 -0.15726,0.048 -0.30769,0.0742 -0.15043,0.0262 -0.43584,0.0782 -0.63425,0.11574 -0.24748,0.0468 -0.43506,-0.0112 -0.59741,-0.18449 z"
         id="path893"
         sodipodi:nodetypes="cccscccscccscsssssscsccsssssscsscssscssssssssscsscccccssssssccscscccscccsssssssssssssssssssssssssssssccsscscssssssssssscssssssssssccsssssscssssssssscsccsssccsscsssssssscsscssscssscssscscccccsccsccccsssscssss" />
      <path
         style="fill:#6f7171;stroke-width:0.134413"
         d="m 141.67727,174.95464 c 0,-0.25431 0.0281,-0.35835 0.0626,-0.23119 0.0344,0.12716 0.0344,0.33524 0,0.46239 -0.0344,0.12716 -0.0626,0.0231 -0.0626,-0.2312 z m -34.45947,-4.72297 c 2.91456,-0.0199 7.68384,-0.0199 10.59841,0 2.91456,0.0199 0.52992,0.0362 -5.29921,0.0362 -5.82913,0 -8.21377,-0.0163 -5.2992,-0.0362 z m -4.85317,-0.52285 c 0.17011,-0.0316 0.41627,-0.0304 0.54702,0.003 0.13075,0.033 -0.008,0.0589 -0.30929,0.0574 -0.30086,-10e-4 -0.40784,-0.0285 -0.23773,-0.0601 z m 20.2465,0.003 c 0.0987,-0.0382 0.21667,-0.0335 0.26211,0.0104 0.0454,0.0439 -0.0353,0.0751 -0.17949,0.0694 -0.1593,-0.006 -0.19171,-0.0377 -0.0826,-0.0798 z m 8.78868,-9.3668 c 0.006,-0.1539 0.039,-0.18521 0.0826,-0.0798 0.0395,0.0954 0.0347,0.20932 -0.0108,0.25322 -0.0454,0.0439 -0.0778,-0.0341 -0.0718,-0.1734 z m -10.78015,-7.14806 c 0.13162,-0.0333 0.34701,-0.0333 0.47863,0 0.13163,0.0332 0.024,0.0604 -0.23931,0.0604 -0.26326,0 -0.37095,-0.0272 -0.23932,-0.0604 z m -42.428095,-13.6154 -14.017007,-13.57455 14.051446,13.54128 c 7.728296,7.4477 14.051446,13.55624 14.051446,13.57455 0,0.0925 -1.054772,-0.92152 -14.085885,-13.54128 z m 29.241345,13.21128 c 2.5816,-0.0201 6.76626,-0.0201 9.29925,2e-5 2.533,0.0201 0.42079,0.0365 -4.69379,0.0365 -5.1146,-1e-5 -7.18705,-0.0165 -4.60546,-0.0366 z m -8.965473,-1.31688 c 0.207874,-0.0303 0.51557,-0.0296 0.683768,0.001 0.168199,0.0314 -0.0019,0.0562 -0.377952,0.0552 -0.376073,-7.4e-4 -0.51369,-0.0267 -0.305816,-0.057 z m 32.140233,-0.003 c 0.43523,-0.0263 1.11217,-0.0261 1.5043,5.2e-4 0.39213,0.0266 0.0361,0.0481 -0.79133,0.0478 -0.82736,-2.6e-4 -1.1482,-0.022 -0.71297,-0.0484 z m -37.031059,-4.79039 c 1.653437,-1.59856 3.037019,-2.90647 3.074627,-2.90647 0.03761,0 -1.284436,1.30791 -2.937874,2.90647 -1.653437,1.59857 -3.03702,2.90648 -3.074627,2.90648 -0.03761,0 1.284437,-1.30791 2.937874,-2.90648 z m 63.111839,-11.69194 c 5.07657,-4.90468 9.26089,-8.91759 9.2985,-8.91759 0.0376,0 -4.08518,4.01291 -9.16174,8.91759 -5.07657,4.90467 -9.26089,8.91758 -9.29849,8.91758 -0.0376,0 4.08517,-4.01291 9.16173,-8.91758 z m -69.198573,-0.16514 -2.939012,-2.87345 2.974393,2.83927 c 1.635916,1.56159 2.974393,2.85464 2.974393,2.87344 0,0.0938 -0.278907,-0.16932 -3.009774,-2.83926 z m 20.651003,0.033 c 0.40854,-0.39964 0.77358,-0.72662 0.81119,-0.72662 0.0376,0 -0.26589,0.32698 -0.67443,0.72662 -0.40854,0.39964 -0.77357,0.72662 -0.81118,0.72662 -0.0376,0 0.26589,-0.32698 0.67442,-0.72662 z m 3.14534,-2.89029 c 0,-0.0274 0.10769,-0.13148 0.23932,-0.2312 l 0.23932,-0.18132 -0.18769,0.2312 c -0.17865,0.22006 -0.29095,0.29005 -0.29095,0.18132 z m 44.03331,-2.55935 -2.52856,-2.4771 2.56414,2.44274 c 1.41027,1.34351 2.56413,2.4582 2.56413,2.47711 0,0.094 -0.25042,-0.14126 -2.59971,-2.44275 z m -44.37519,1.02388 c 0.13613,-0.14532 0.27828,-0.26423 0.31589,-0.26423 0.0376,0 -0.043,0.11891 -0.17914,0.26423 -0.13614,0.14532 -0.27829,0.26422 -0.3159,0.26422 -0.0376,0 0.043,-0.1189 0.17915,-0.26422 z m 2.52994,-0.57833 c 0,-0.0274 0.1077,-0.13147 0.23932,-0.2312 l 0.23932,-0.18131 -0.18769,0.23119 c -0.17865,0.22007 -0.29095,0.29005 -0.29095,0.18132 z m -1.02566,-0.87491 c 0.13615,-0.14532 0.2783,-0.26422 0.31591,-0.26422 0.0376,0 -0.043,0.1189 -0.17915,0.26422 -0.13614,0.14533 -0.27829,0.26423 -0.3159,0.26423 -0.0376,0 0.043,-0.1189 0.17914,-0.26423 z m -37.198175,-5.97808 -3.007417,-2.9395 3.042771,2.90534 c 1.673524,1.59794 3.042771,2.92072 3.042771,2.9395 0,0.0937 -0.283664,-0.17399 -3.078125,-2.90534 z m 65.437685,-21.73249 -25.50444,-24.671991 25.53877,24.638831 c 14.04631,13.55135 25.53875,24.65375 25.53875,24.67199 0,0.0923 -1.86073,-1.70044 -25.57308,-24.63883 z m 14.22253,21.69946 c 1.61579,-1.56223 2.96859,-2.84042 3.0062,-2.84042 0.0376,0 -1.25365,1.27819 -2.86945,2.84042 -1.6158,1.56223 -2.96859,2.84041 -3.00619,2.84041 -0.0376,0 1.25364,-1.27818 2.86944,-2.84041 z m -65.248975,2.08077 -0.187686,-0.2312 0.239318,0.18132 c 0.131626,0.0997 0.23932,0.20376 0.23932,0.23119 0,0.10874 -0.112301,0.0387 -0.290952,-0.18131 z m 6.718377,-2.32882 c 0,-0.0274 0.107694,-0.13147 0.239319,-0.2312 l 0.239319,-0.18131 -0.187686,0.23119 c -0.178651,0.22007 -0.290952,0.29005 -0.290952,0.18132 z m 5.034248,-1.09726 c 0.0987,-0.0382 0.21667,-0.0335 0.26211,0.0104 0.0454,0.0439 -0.0353,0.0751 -0.17949,0.0694 -0.15931,-0.006 -0.19171,-0.0377 -0.0826,-0.0798 z m 0.27351,-1.58536 c 0.0987,-0.0381 0.21667,-0.0335 0.26211,0.0104 0.0454,0.0439 -0.0353,0.0751 -0.17949,0.0694 -0.15931,-0.006 -0.19172,-0.0377 -0.0826,-0.0798 z m -26.436209,-2.94833 c 1.653437,-1.59856 3.03702,-2.90648 3.074626,-2.90648 0.03761,0 -1.284435,1.30792 -2.937873,2.90648 -1.653437,1.59855 -3.03702,2.90647 -3.074627,2.90647 -0.03761,0 1.284436,-1.30792 2.937874,-2.90647 z m 27.660039,1.88825 c 0.17011,-0.0316 0.41627,-0.0304 0.54701,0.003 0.13075,0.0331 -0.008,0.059 -0.30929,0.0575 -0.30086,-0.002 -0.40783,-0.0285 -0.23772,-0.0601 z m 0.16935,-7.75108 c 0,-0.0274 0.10769,-0.13147 0.23932,-0.23119 l 0.23932,-0.18132 -0.18769,0.2312 c -0.17865,0.22006 -0.29095,0.29004 -0.29095,0.18131 z m -15.58993,-5.96119 c 1.615801,-1.56223 2.968589,-2.84041 3.006196,-2.84041 0.03761,0 -1.253641,1.27818 -2.869443,2.84041 -1.615801,1.56223 -2.96859,2.84042 -3.006197,2.84042 -0.03761,0 1.253642,-1.27819 2.869444,-2.84042 z m 44.29785,-4.65696 -0.33153,-0.36331 0.37607,0.32028 c 0.20684,0.17616 0.37608,0.33965 0.37608,0.36331 0,0.10362 -0.11075,0.0193 -0.42062,-0.32028 z m 1.77071,-0.52845 -0.18769,-0.231201 0.23933,0.181321 c 0.22779,0.17259 0.30023,0.28108 0.18768,0.28108 -0.0284,0 -0.13609,-0.10404 -0.23932,-0.2312 z M 99.730529,93.441299 c 1.653441,-1.59856 3.037021,-2.90647 3.074631,-2.90647 0.0376,0 -1.28444,1.30791 -2.937878,2.90647 -1.653437,1.59856 -3.03702,2.90648 -3.074627,2.90648 -0.03761,0 1.284436,-1.30792 2.937874,-2.90648 z M 112.03837,81.551188 c 1.65343,-1.598559 3.03701,-2.906472 3.07462,-2.906472 0.0376,0 -1.28443,1.307913 -2.93787,2.906472 -1.65343,1.59856 -3.03702,2.906471 -3.07463,2.906471 -0.0376,0 1.28444,-1.307911 2.93788,-2.906471 z m 5.60547,-0.429365 -2.46015,-2.411051 2.49576,2.376646 c 2.31878,2.208113 2.55754,2.445456 2.46014,2.445456 -0.0196,0 -1.14268,-1.084973 -2.49575,-2.411051 z"
         id="path891"
         sodipodi:nodetypes="ssssssssccscccscccccsccssssscsssccsccccccccscccssssssssssscsssssssssscssscssssscsssscsscssscscsssscssssssssccsscsscsscsccccscccsssssccsccsscsssssssscsssscsssssssssssssscsss" />
      <path
         style="fill:#5b6b6c;stroke-width:0.134413"
         d="m 141.68792,173.83169 c 7.7e-4,-0.43597 0.0263,-0.5984 0.0567,-0.36094 0.0304,0.23745 0.0298,0.59415 -0.002,0.79267 -0.0312,0.19852 -0.0561,0.005 -0.0554,-0.43173 z m 0.002,-2.7083 c 0,-0.47231 0.0248,-0.66552 0.0551,-0.42937 0.0303,0.23616 0.0303,0.62258 0,0.85873 -0.0303,0.23615 -0.0551,0.0429 -0.0551,-0.42936 z m -38.369,-0.49541 c 6.63768,-0.0189 17.49935,-0.0189 24.13703,0 6.63768,0.0189 1.20685,0.0344 -12.06851,0.0344 -13.27537,0 -18.706205,-0.0155 -12.06852,-0.0344 z m -1.33335,-0.60873 c 0,-0.30737 1.30795,-0.3491 10.94326,-0.3491 9.41696,0 10.04351,0.0213 10.17216,0.3451 0.0617,0.15542 -1.54121,0.18335 -10.52129,0.18335 -8.83174,0 -10.59413,-0.0298 -10.59413,-0.17935 z m -3.008582,-1.80233 -5.128265,-0.0709 5.162453,-0.0306 c 3.371594,-0.02 5.162454,0.0152 5.162454,0.10151 0,0.0727 -0.0154,0.11833 -0.0342,0.1015 -0.0188,-0.0169 -2.3419,-0.0625 -5.162451,-0.1015 z M 95.967663,153.6153 c -0.09514,-0.11074 -0.146502,-0.22694 -0.114134,-0.25821 0.03237,-0.0313 0.13397,0.0593 0.225778,0.20136 0.19854,0.30712 0.132327,0.34084 -0.111644,0.0568 z m 6.566927,-0.55279 v -0.23669 h 9.50438 9.50438 v 0.21943 0.21942 l -9.50438,0.0172 -9.50438,0.0172 z m -4.675273,-1.582 c 0.09872,-0.0382 0.21667,-0.0335 0.262112,0.0104 0.04544,0.0439 -0.03533,0.0751 -0.179489,0.0694 -0.159312,-0.006 -0.191716,-0.0377 -0.08262,-0.0798 z m 13.837323,-21.77435 c 0.25515,-0.25432 0.49468,-0.4624 0.53229,-0.4624 0.0376,0 -0.14039,0.20808 -0.39554,0.4624 -0.25515,0.25431 -0.49468,0.46239 -0.53229,0.46239 -0.0376,0 0.14038,-0.20808 0.39554,-0.46239 z m -44.786852,-4.55788 c 0.522467,-0.50864 0.98071,-0.92479 1.018318,-0.92479 0.03761,0 -0.359097,0.41615 -0.881565,0.92479 -0.522467,0.50863 -0.98071,0.92478 -1.018317,0.92478 -0.03761,0 0.359097,-0.41615 0.881564,-0.92478 z m 31.795087,-1.51929 c 0.176652,-0.18166 0.351954,-0.33028 0.389561,-0.33028 0.03761,0 -0.07616,0.14862 -0.252807,0.33028 -0.176651,0.18165 -0.351953,0.33028 -0.389561,0.33028 -0.03761,0 0.07616,-0.14863 0.252807,-0.33028 z m 56.204585,-6.50654 -2.93901,-2.87344 2.97439,2.83926 c 2.76375,2.63818 3.03609,2.90762 2.93902,2.90762 -0.0195,0 -1.35794,-1.29304 -2.9744,-2.87344 z m -12.30783,-11.89012 -2.93902,-2.87344 2.9744,2.83926 c 1.63591,1.5616 2.97439,2.85465 2.97439,2.87345 0,0.0938 -0.2789,-0.16932 -3.00977,-2.83927 z m -12.23943,-11.824051 -3.00742,-2.9395 3.04277,2.90534 c 1.67353,1.59794 3.04277,2.92072 3.04277,2.9395 0,0.0937 -0.28367,-0.17399 -3.07812,-2.90534 z m -9.78409,-9.44604 -0.47128,-0.495421 0.51283,0.455281 c 0.28205,0.25041 0.51282,0.47334 0.51282,0.49542 0,0.10089 -0.11572,0.006 -0.55437,-0.45528 z"
         id="path889"
         sodipodi:nodetypes="cccccsssssssssssssccsscccscsssccccccccccscccsssssssssssssssscsssscsssscsssscsss" />
      <path
         style="fill:#4e4e4e;stroke-width:0.134413"
         d="m 87.269278,173.76563 c 0,-0.83561 0.02221,-1.17744 0.04935,-0.75964 0.02714,0.41781 0.02714,1.10149 0,1.51929 -0.02714,0.41781 -0.04935,0.076 -0.04935,-0.75965 z m 54.415372,-1.25506 c 7.8e-4,-0.36331 0.0276,-0.49626 0.059,-0.29544 0.0314,0.20082 0.0306,0.49808 -0.002,0.66056 -0.0325,0.16249 -0.0581,-0.001 -0.0571,-0.36512 z m -5.2532,-6.50653 -0.18768,-0.23121 0.23932,0.18132 c 0.13163,0.0997 0.23932,0.20376 0.23932,0.2312 0,0.10873 -0.1123,0.0387 -0.29096,-0.18131 z m -3.84424,-8.18533 c 0.1701,-0.0316 0.41626,-0.0304 0.54701,0.003 0.13074,0.033 -0.008,0.059 -0.30929,0.0575 -0.30086,-0.001 -0.40784,-0.0285 -0.23772,-0.0601 z m -7.51361,-1.72302 c 1.82916,-0.0208 4.78304,-0.0208 6.56419,5e-5 1.78114,0.0208 0.28456,0.0379 -3.32573,0.0379 -3.6103,-2e-5 -5.06761,-0.0171 -3.23846,-0.0379 z m 17.5976,-9.41309 c 1.65343,-1.59857 3.03702,-2.90648 3.07462,-2.90648 0.0376,0 -1.28443,1.30791 -2.93787,2.90648 -1.65344,1.59856 -3.03702,2.90647 -3.07462,2.90647 -0.0376,0 1.28443,-1.30791 2.93787,-2.90647 z m -3.62398,-8.2913 c 0,-0.0552 0.13847,-0.18251 0.3077,-0.28295 l 0.30769,-0.1826 -0.26051,0.28294 c -0.27872,0.3027 -0.35488,0.3419 -0.35488,0.18261 z m 15.86344,-3.53277 c 1.61579,-1.56222 2.96859,-2.84041 3.0062,-2.84041 0.0376,0 -1.25365,1.27819 -2.86945,2.84041 -1.6158,1.56223 -2.96859,2.84042 -3.00619,2.84042 -0.0376,0 1.25364,-1.27819 2.86944,-2.84042 z m -55.728655,-0.62752 -2.323305,-2.27894 2.359002,2.24445 c 2.191648,2.08523 2.420818,2.31342 2.323308,2.31342 -0.0196,0 -1.08119,-1.02552 -2.359005,-2.27893 z m 4.993025,0.23119 c 0.25515,-0.25432 0.49468,-0.46239 0.53229,-0.46239 0.0376,0 -0.14039,0.20807 -0.39554,0.46239 -0.25515,0.25432 -0.49468,0.46239 -0.53229,0.46239 -0.0376,0 0.14038,-0.20807 0.39554,-0.46239 z m 44.65008,-5.48266 c 1.65344,-1.59857 3.03703,-2.90648 3.07463,-2.90648 0.0376,0 -1.28443,1.30791 -2.93787,2.90648 -1.65344,1.59855 -3.03702,2.90647 -3.07463,2.90647 -0.0376,0 1.28444,-1.30792 2.93787,-2.90647 z m -58.543582,-3.33584 -0.260515,-0.29726 0.307696,0.25168 c 0.289158,0.23651 0.369952,0.34283 0.260515,0.34283 -0.02595,0 -0.164414,-0.13376 -0.307696,-0.29725 z m 8.628478,-1.42021 c 0.29378,-0.29065 0.564916,-0.52845 0.602523,-0.52845 0.03761,0 -0.171989,0.2378 -0.465769,0.52845 -0.29378,0.29064 -0.564916,0.52845 -0.602523,0.52845 -0.03761,0 0.171989,-0.23781 0.465769,-0.52845 z m -12.035837,-1.8826 -2.323304,-2.27894 2.359001,2.24445 c 2.191647,2.08523 2.420822,2.31342 2.323305,2.31342 -0.01964,0 -1.081184,-1.02551 -2.359002,-2.27893 z m 11.146938,1.96483 c 0,-0.0274 0.107694,-0.13147 0.239319,-0.23119 l 0.239319,-0.18132 -0.187686,0.2312 c -0.178652,0.22007 -0.290952,0.29004 -0.290952,0.18131 z M 70.054969,122.1097 c 1.201669,-1.1626 2.215623,-2.11381 2.25323,-2.11381 0.03761,0 -0.914807,0.95121 -2.116476,2.11381 -1.20167,1.16258 -2.215624,2.11379 -2.253231,2.11379 -0.03761,0 0.914807,-0.95121 2.116477,-2.11379 z m 29.060168,1.13912 c 0,-0.0274 0.107693,-0.13147 0.239318,-0.23119 l 0.23932,-0.18132 -0.187686,0.2312 c -0.178651,0.22006 -0.290952,0.29004 -0.290952,0.18131 z m 2.982943,-1.62571 c 0.0987,-0.0382 0.21667,-0.0335 0.26211,0.0104 0.0454,0.0439 -0.0353,0.0751 -0.17949,0.0694 -0.15931,-0.006 -0.19171,-0.0377 -0.0826,-0.0798 z m 0.27351,-1.58535 c 0.0987,-0.0381 0.21667,-0.0335 0.26211,0.0104 0.0454,0.0439 -0.0353,0.0751 -0.17949,0.0694 -0.15931,-0.006 -0.19172,-0.0377 -0.0826,-0.0798 z m 11.58133,-1.89144 c 0.13614,-0.14532 0.27829,-0.26423 0.3159,-0.26423 0.0376,0 -0.043,0.11891 -0.17915,0.26423 -0.13613,0.14533 -0.27829,0.26423 -0.31589,0.26423 -0.0376,0 0.043,-0.1189 0.17914,-0.26423 z m 6.56417,-0.26423 c 0.0465,-0.0727 0.11166,-0.13211 0.14483,-0.13211 0.0332,0 0.0603,0.0595 0.0603,0.13211 0,0.0727 -0.0652,0.13212 -0.14483,0.13212 -0.0797,0 -0.10679,-0.0595 -0.0603,-0.13212 z m -39.111562,-6.73772 c 1.728708,-1.67123 3.173875,-3.03859 3.211483,-3.03859 0.03761,0 -1.346021,1.36736 -3.074729,3.03859 -1.728708,1.67122 -3.173875,3.03858 -3.211482,3.03858 -0.03761,0 1.346021,-1.36736 3.074728,-3.03858 z m 62.019812,-0.72662 c 1.23994,-1.23526 2.28253,-2.22869 2.31686,-2.20763 0.0343,0.021 -0.98016,1.03172 -2.25444,2.24592 l -2.31686,2.20762 z M 93.576611,99.386359 c 1.653437,-1.59856 3.037019,-2.90647 3.074627,-2.90647 0.03761,0 -1.284436,1.30791 -2.937874,2.90647 -1.653437,1.598561 -3.03702,2.906471 -3.074627,2.906471 -0.03761,0 1.284437,-1.30791 2.937874,-2.906471 z m 34.729009,2.080771 -0.54058,-0.56148 0.5812,0.52224 c 0.54051,0.48567 0.64405,0.60072 0.54058,0.60072 -0.0223,0 -0.28388,-0.25267 -0.5812,-0.56148 z m -29.463991,-0.28108 c 0,-0.0274 0.107694,-0.13147 0.23932,-0.23119 l 0.239318,-0.18132 -0.187686,0.2312 c -0.178651,0.22006 -0.290952,0.29005 -0.290952,0.18131 z m -0.207104,-3.021731 -1.775825,-1.75049 1.811987,1.71556 c 1.683183,1.5936 1.873973,1.78542 1.775823,1.78542 -0.0199,0 -0.83528,-0.78772 -1.811985,-1.75049 z m 15.908145,-7.3234 c 0.0987,-0.0382 0.21667,-0.0335 0.26211,0.0104 0.0454,0.0439 -0.0354,0.0751 -0.17949,0.0694 -0.15931,-0.006 -0.19171,-0.0376 -0.0826,-0.0798 z m -8.65939,-3.3122 c 1.65408,-1.61642 3.03771,-2.93895 3.07473,-2.93895 0.037,0 -0.62608,0.67177 -1.47356,1.49281 -0.84747,0.82105 -1.50802,1.53445 -1.46787,1.58535 0.0402,0.0509 0.0299,0.0608 -0.0227,0.0221 -0.0526,-0.0388 -0.77574,0.57036 -1.60685,1.3536 -0.83111,0.78324 -0.15778,0.10154 1.4963,-1.51488 z"
         id="path887"
         sodipodi:nodetypes="sssscscccccsscccsccccsccssssssscsssssssscsssssssssssssscssssssssscssssscssssssssscsscsccccsccccsssccssscsssssssscssssssscssssscssscssssscsscssssscc" />
      <path
         style="fill:#324447;stroke-width:0.134413"
         d="m 87.244222,171.98212 c 0.0028,-0.21799 0.03344,-0.29117 0.06811,-0.16263 0.03467,0.12854 0.03239,0.30689 -0.005,0.39634 -0.03746,0.0894 -0.06583,-0.0157 -0.06304,-0.23371 z m 4.144329,-1.5193 c 0.315918,-0.13114 25.427429,-0.13577 39.111569,-0.007 6.96122,0.0654 3.17912,0.0916 -15.04292,0.10406 -13.67716,0.009 -24.222325,-0.033 -24.068649,-0.0969 z m 30.325139,-2.34353 c 0.43248,-0.0262 1.14018,-0.0262 1.57266,0 0.43249,0.0262 0.0786,0.0476 -0.78633,0.0476 -0.86496,0 -1.21882,-0.0214 -0.78633,-0.0476 z M 96.20912,153.67397 c -0.131625,-0.0741 -0.239319,-0.19025 -0.239319,-0.2582 0,-0.0761 7.464219,-0.12456 19.419029,-0.12619 12.45131,-0.001 19.41903,0.0433 19.41903,0.12546 0,0.0705 -0.11903,0.18965 -0.26452,0.26487 -0.36494,0.18867 -37.998703,0.18285 -38.33422,-0.006 z m -8.719243,-6.95834 -2.939012,-2.87345 2.974393,2.83926 c 1.635916,1.5616 2.974393,2.85465 2.974393,2.87345 0,0.0938 -0.278907,-0.16932 -3.009774,-2.83926 z m 55.111753,-5.94506 -2.93902,-2.87345 2.9744,2.83927 c 2.76374,2.63818 3.03609,2.90762 2.93901,2.90762 -0.0195,0 -1.35794,-1.29305 -2.97439,-2.87344 z m -67.351185,-5.87901 -3.007417,-2.93949 3.042771,2.90534 c 2.827312,2.69962 3.104459,2.97365 3.007417,2.97365 -0.01944,0 -1.388692,-1.32277 -3.042771,-2.9395 z m -8.340812,-11.72497 c 1.653438,-1.59856 3.03702,-2.90647 3.074627,-2.90647 0.03761,0 -1.284435,1.30791 -2.937874,2.90647 -1.653438,1.59856 -3.03702,2.90647 -3.074627,2.90647 -0.03761,0 1.284435,-1.30791 2.937874,-2.90647 z"
         id="path885"
         sodipodi:nodetypes="cscccccsccsssscscssccscsssscsssscssssssss" />
      <path
         style="fill:#373636;stroke-width:0.134413"
         d="m 87.258542,170.99128 c 0,-0.39964 0.02564,-0.56313 0.05697,-0.36331 0.03134,0.19981 0.03134,0.5268 0,0.72662 -0.03133,0.19981 -0.05697,0.0363 -0.05697,-0.36331 z m 51.480988,-2.72975 c 0.094,-0.0366 0.24786,-0.0366 0.34188,0 0.094,0.0366 0.0171,0.0667 -0.17094,0.0667 -0.18804,0 -0.26496,-0.03 -0.17094,-0.0667 z m -13.12052,-0.14336 c 0.92569,-0.0229 2.40263,-0.0228 3.28209,1.3e-4 0.87946,0.023 0.12208,0.0417 -1.68308,0.0416 -1.80515,-9e-5 -2.5247,-0.0189 -1.59901,-0.0418 z m 7.92387,-10.29351 c 0.094,-0.0366 0.24787,-0.0366 0.34189,0 0.094,0.0366 0.017,0.0667 -0.17094,0.0667 -0.18804,0 -0.26497,-0.03 -0.17095,-0.0667 z m 2.65917,-3.14926 c 0.003,-0.21799 0.0334,-0.29117 0.0682,-0.16263 0.0347,0.12854 0.0324,0.30689 -0.005,0.39634 -0.0374,0.0894 -0.0658,-0.0157 -0.063,-0.23371 z m -41.041975,-4.1065 c 0.0066,-0.1539 0.03897,-0.18521 0.08262,-0.0798 0.0395,0.0954 0.03465,0.20932 -0.01079,0.25322 -0.04544,0.0439 -0.07776,-0.0342 -0.07182,-0.1734 z m -1.584629,-9.73228 -3.007417,-2.9395 3.04277,2.90535 c 2.827312,2.69962 3.104459,2.97365 3.007417,2.97365 -0.01944,0 -1.388692,-1.32277 -3.04277,-2.9395 z m 0.0012,-5.91203 c 1.653437,-1.59856 3.037019,-2.90647 3.074626,-2.90647 0.03761,0 -1.284435,1.30791 -2.937873,2.90647 -1.653438,1.59856 -3.03702,2.90647 -3.074627,2.90647 -0.03761,0 1.284436,-1.30791 2.937874,-2.90647 z m -12.239459,-0.0661 c 1.615801,-1.56222 2.968589,-2.84041 3.006196,-2.84041 0.03761,0 -1.253641,1.27819 -2.869443,2.84041 -1.615802,1.56223 -2.96859,2.84042 -3.006197,2.84042 -0.03761,0 1.253641,-1.27819 2.869444,-2.84042 z m 23.726773,-1.25506 c 0.13614,-0.14533 0.27829,-0.26423 0.3159,-0.26423 0.0376,0 -0.043,0.1189 -0.17915,0.26423 -0.13613,0.14533 -0.27829,0.26423 -0.31589,0.26423 -0.0376,0 0.043,-0.1189 0.17914,-0.26423 z m -29.880692,-4.55788 c 1.615801,-1.56223 2.96859,-2.84041 3.006198,-2.84041 0.03761,0 -1.253643,1.27818 -2.869444,2.84041 -1.615802,1.56223 -2.96859,2.84042 -3.006197,2.84042 -0.03761,0 1.253642,-1.27819 2.869443,-2.84042 z m 6.152725,-0.033 -2.939012,-2.87345 2.974394,2.83927 c 2.763742,2.63818 3.036093,2.90762 2.939012,2.90762 -0.01946,0 -1.357937,-1.29305 -2.974394,-2.87344 z m 6.155111,0.033 c 1.615802,-1.56223 2.96859,-2.84041 3.006197,-2.84041 0.03761,0 -1.253642,1.27818 -2.869443,2.84041 -1.615801,1.56223 -2.96859,2.84042 -3.006197,2.84042 -0.03761,0 1.253642,-1.27819 2.869443,-2.84042 z M 69.95259,120.32614 c 7.866189,-7.75751 45.16277,-43.760858 45.16277,-43.596789 0,0.07264 -11.45772,11.189818 -25.461597,24.704849 -14.003878,13.51502 -22.869406,22.01639 -19.701173,18.89194 z m 34.97461,3.63309 c 1.12635,-1.08993 2.07866,-1.98169 2.11627,-1.98169 0.0376,0 -0.85317,0.89176 -1.97951,1.98169 -1.12634,1.08992 -2.07865,1.98168 -2.11626,1.98168 -0.0376,0 0.85317,-0.89176 1.9795,-1.98168 z m 43.89679,-0.95782 -3.00742,-2.9395 3.04278,2.90535 c 2.82731,2.69962 3.10445,2.97365 3.00741,2.97365 -0.0195,0 -1.38869,-1.32277 -3.04277,-2.9395 z m -52.102007,0.42936 c 0.136138,-0.14532 0.278292,-0.26422 0.315899,-0.26422 0.03761,0 -0.04301,0.1189 -0.179145,0.26422 -0.136137,0.14533 -0.278291,0.26423 -0.315898,0.26423 -0.03761,0 0.043,-0.1189 0.179144,-0.26423 z m -9.230876,-6.27533 c 1.615801,-1.56223 2.968589,-2.84042 3.006196,-2.84042 0.03761,0 -1.253641,1.27819 -2.869443,2.84042 -1.615801,1.56223 -2.96859,2.84041 -3.006197,2.84041 -0.03761,0 1.253642,-1.27818 2.869444,-2.84041 z m 40.058493,-14.56539 -0.33154,-0.36331 0.37607,0.32028 c 0.3515,0.29935 0.43879,0.40634 0.33154,0.40634 -0.0245,0 -0.19373,-0.16349 -0.37607,-0.36331 z m -1.69907,-10.602021 c 0.82479,-0.79928 1.53039,-1.45324 1.568,-1.45324 0.0376,0 -0.60645,0.65396 -1.43125,1.45324 -0.82479,0.79928 -1.53039,1.45323 -1.568,1.45323 -0.0376,0 0.60645,-0.65395 1.43125,-1.45323 z m -13.8133,-4.52485 -3.00741,-2.9395 3.04277,2.90534 c 2.82731,2.69962 3.10445,2.97366 3.00742,2.97366 -0.0195,0 -1.3887,-1.32278 -3.04278,-2.9395 z m -6.60979,1.22204 c 0,-0.18166 0.031,-0.25597 0.069,-0.16514 0.0379,0.0908 0.0379,0.23945 0,0.33028 -0.0379,0.0908 -0.069,0.0165 -0.069,-0.16514 z"
         id="path883"
         sodipodi:nodetypes="sssscssccsscccssccccccsssssscssssssssssssscssscsssssscsssssssscsscsssssscsssssssssssssscssssssssscsssscss" />
      <path
         style="fill:#272627;stroke-width:0.134413"
         d="m 131.82588,168.1184 c 0.80439,-0.0233 2.15826,-0.0234 3.00859,-1.3e-4 0.85033,0.0232 0.19219,0.0423 -1.46253,0.0424 -1.65472,9e-5 -2.35044,-0.0189 -1.54606,-0.0422 z m -32.950062,-4.75377 c 0.282054,-0.0285 0.743598,-0.0285 1.025653,0 0.282059,0.0285 0.05129,0.0518 -0.512826,0.0518 -0.56411,0 -0.794882,-0.0233 -0.512827,-0.0518 z m 7.111192,-9.51492 c 5.171,-0.0192 13.63264,-0.0192 18.80363,0 5.17101,0.0192 0.94019,0.0348 -9.40181,0.0348 -10.342,0 -14.57282,-0.0157 -9.40182,-0.0348 z m -14.396348,-3.17072 -1.159387,-1.15598 1.196595,1.12004 c 1.111362,1.04026 1.25889,1.19193 1.159387,1.19193 -0.02046,0 -0.558931,-0.52019 -1.196595,-1.15599 z m 46.841168,0.0991 c 0.59819,-0.5813 1.11839,-1.0569 1.15599,-1.0569 0.0376,0 -0.42105,0.4756 -1.01924,1.0569 -0.59819,0.5813 -1.11838,1.0569 -1.15599,1.0569 -0.0376,0 0.42106,-0.4756 1.01924,-1.0569 z m -43.271755,-0.60551 c 0.0066,-0.15391 0.03897,-0.18521 0.08262,-0.0798 0.0395,0.0954 0.03465,0.20932 -0.01079,0.25321 -0.04544,0.0439 -0.07776,-0.0342 -0.07182,-0.17339 z m 42.724745,-2.16886 c -0.90023,-0.87194 -1.60601,-1.58535 -1.5684,-1.58535 0.0376,0 0.80492,0.71341 1.70515,1.58535 0.90022,0.87194 1.606,1.58535 1.5684,1.58535 -0.0376,0 -0.80493,-0.71341 -1.70515,-1.58535 z m -56.417181,-7.106 -3.070693,-3.0006 3.042771,2.90535 3.04277,2.90534 3.008607,-2.90424 3.008608,-2.90424 -3.042797,-2.97363 -3.042794,-2.97363 3.111159,2.97143 3.11116,2.97144 -3.042783,2.96868 c -1.673531,1.63277 -3.045603,2.98353 -3.049049,3.00169 -0.0034,0.0181 -1.388077,-1.31725 -3.076959,-2.96759 z m 67.356311,-0.12715 3.00742,-2.93951 -3.00742,-2.9395 -3.00742,-2.93949 3.07186,2.90646 c 1.68952,1.59857 3.08723,2.90921 3.10601,2.91253 0.0188,0.003 -1.36354,1.34097 -3.07185,2.97253 l -3.10601,2.96648 z m -9.63998,-2.60756 c 0,-0.12288 0.36903,-0.46406 0.50192,-0.46406 0.0612,0 1.46556,-1.29305 3.12089,-2.87344 l 3.00969,-2.87344 -2.80342,2.75017 c -2.62771,2.57782 -3.82908,3.66362 -3.82908,3.46077 z m -40.10453,-3.86737 c -1.259014,-1.21786 -2.289116,-2.27262 -2.289116,-2.34392 0,-0.0713 1.355473,-1.44005 3.01216,-3.0417 l 3.012166,-2.91209 -1.41967,-1.34961 c -0.78082,-0.74229 -1.382,-1.34961 -1.33596,-1.34961 0.046,0 1.71406,1.59017 3.70671,3.53372 1.99266,1.94356 2.60701,2.56786 1.36523,1.38735 l -2.25777,-2.14638 -2.973057,2.87437 c -1.63518,1.58091 -2.973056,2.9327 -2.973056,3.00398 0,0.0713 1.030103,1.12603 2.289117,2.34389 1.259016,1.21787 2.258346,2.2143 2.220736,2.2143 -0.0376,0 -1.09848,-0.99643 -2.35749,-2.2143 z m 61.84838,-5.25005 c 1.69107,-1.63489 3.10545,-2.97253 3.14306,-2.97253 0.0376,0 -1.31523,1.33764 -3.0063,2.97253 -1.69108,1.6349 -3.10545,2.97253 -3.14306,2.97253 -0.0376,0 1.31522,-1.33763 3.0063,-2.97253 z m -91.831293,-0.0991 -3.007417,-2.9395 3.042771,2.90534 c 2.827312,2.69963 3.104459,2.97366 3.007416,2.97366 -0.01944,0 -1.388691,-1.32278 -3.04277,-2.9395 z m 24.469359,0.0263 c -1.867112,-1.79847 -2.917152,-2.89975 -2.764825,-2.89975 0.135082,0 0.245605,0.063 0.245605,0.13991 0,0.0769 0.07693,0.0971 0.170943,0.0449 0.09402,-0.0523 0.1225,-0.0437 0.06329,0.0191 -0.05921,0.0628 1.137961,1.31859 2.660375,2.79064 1.522416,1.47206 2.738106,2.70538 2.701534,2.74071 -0.03657,0.0354 -1.421188,-1.24066 -3.076924,-2.83552 z m 55.259224,-0.0664 c 1.72994,-1.66591 4.51346,-4.339 6.18559,-5.9402 l 3.04026,-2.91127 3.04529,2.97603 3.04529,2.97604 -3.03452,-2.89738 -3.03452,-2.89737 -6.19636,5.86154 c -3.408,3.22385 -4.78096,4.49853 -3.05103,2.83261 z m -53.641643,-1.60685 c 0.20684,-0.0302 0.545306,-0.0302 0.752145,0 0.20684,0.0303 0.03761,0.0551 -0.376072,0.0551 -0.41368,0 -0.582913,-0.0248 -0.376073,-0.0551 z m -1.15386,-0.12773 c 0.09872,-0.0382 0.21667,-0.0335 0.262112,0.0104 0.04544,0.0439 -0.03533,0.0751 -0.179489,0.0694 -0.159312,-0.006 -0.191715,-0.0377 -0.08262,-0.0798 z m -18.845275,-4.05847 -3.07586,-3.0514 3.178425,3.0375 c 1.748135,1.67063 3.178426,3.05286 3.178426,3.07162 0,0.16077 -0.605857,-0.40386 -3.280991,-3.05772 z m 6.255385,-0.0789 3.04277,-2.97178 3.042771,2.97178 3.042771,2.97178 -3.042771,-2.90497 -3.042771,-2.90497 -3.04277,2.90497 -3.042771,2.90497 z m 16.513013,2.24592 c 0.136137,-0.14533 0.278291,-0.26423 0.315898,-0.26423 0.03761,0 -0.043,0.1189 -0.179144,0.26423 -0.136137,0.14532 -0.278292,0.26422 -0.315899,0.26422 -0.03761,0 0.04301,-0.1189 0.179145,-0.26422 z m 13.33773,-2.97029 -1.02141,-1.05914 1.08354,1.01889 c 0.59594,0.5604 1.05558,1.03702 1.02141,1.05915 -0.0342,0.0222 -0.52177,-0.43637 -1.08354,-1.0189 z m -14.22663,0.81514 c 0,-0.0227 0.200003,-0.21594 0.44445,-0.42936 l 0.44445,-0.38802 -0.401658,0.42936 c -0.374402,0.40023 -0.487242,0.49009 -0.487242,0.38802 z m 5.84622,-1.49939 c 0.094,-0.0366 0.24787,-0.0366 0.34189,0 0.094,0.0366 0.0171,0.0667 -0.17094,0.0667 -0.18804,0 -0.26497,-0.03 -0.17095,-0.0667 z m 0.13676,-1.58535 c 0.094,-0.0366 0.24786,-0.0366 0.34188,0 0.094,0.0366 0.0171,0.0667 -0.17094,0.0667 -0.18804,0 -0.26496,-0.03 -0.17094,-0.0667 z m -21.704559,-2.8801 c -1.612996,-1.55951 -2.901957,-2.8652 -2.864356,-2.90153 0.0376,-0.0363 1.418875,1.23965 3.0695,2.83549 1.650626,1.59584 2.939586,2.90153 2.864357,2.90153 -0.07523,0 -1.456505,-1.27597 -3.069501,-2.83549 z m 6.150298,-5.94999 -3.075479,-3.03858 3.13797,3.00024 c 1.725884,1.65013 3.109849,3.01749 3.07548,3.03858 -0.03437,0.0211 -1.446457,-1.32901 -3.137971,-3.00024 z m 4.097182,2.01359 c 0.486721,-0.48985 0.909646,-0.89063 0.939833,-0.89063 0.08835,0 -0.304205,0.45235 -0.494309,0.5696 -0.0956,0.0589 -0.131888,0.17786 -0.08064,0.26422 0.05125,0.0864 0.04104,0.11123 -0.02269,0.0553 -0.06373,-0.0559 -0.365909,0.12187 -0.671506,0.39521 -0.305596,0.27335 -0.157402,0.0962 0.32932,-0.39365 z m 57.167139,-2.01345 -2.93768,-2.84029 -2.32614,2.21275 -2.32615,2.21275 2.32349,-2.27911 2.3235,-2.27912 2.97571,2.8725 c 1.63665,1.57987 2.97572,2.88786 2.97572,2.90665 0,0.0932 -0.27639,-0.16466 -3.00845,-2.80613 z m -10.39342,-7.66261 c 0.636,-0.61762 1.18714,-1.12295 1.22475,-1.12295 0.0376,0 -0.45199,0.50533 -1.08799,1.12295 -0.63601,0.61763 -1.18714,1.12296 -1.22475,1.12296 -0.0376,0 0.452,-0.50533 1.08799,-1.12296 z m -1.84733,-4.194571 -3.00743,-2.9395 3.04278,2.90535 c 2.82731,2.699621 3.10446,2.973651 3.00741,2.973651 -0.0195,0 -1.38869,-1.32277 -3.04276,-2.939501 z m -37.943256,-1.08533 c -1.010697,-0.97841 -1.80985,-1.79586 -1.775897,-1.81655 0.03395,-0.0207 0.89006,0.77983 1.90246,1.77893 1.012401,0.9991 1.811553,1.816541 1.775903,1.816541 -0.0357,0 -0.891768,-0.800511 -1.902466,-1.778921 z m 34.183686,0.92019 c -0.33218,-0.32698 -0.5732,-0.5945 -0.53559,-0.5945 0.0376,0 0.34017,0.26752 0.67234,0.5945 0.33219,0.32698 0.57319,0.59451 0.53559,0.59451 -0.0376,0 -0.34016,-0.26753 -0.67234,-0.59451 z m -0.2735,-1.84957 c 0.48454,-0.4723 0.91176,-0.85873 0.94937,-0.85873 0.0376,0 -0.32807,0.38643 -0.81262,0.85873 -0.48455,0.4723 -0.91177,0.85873 -0.94937,0.85873 -0.0376,0 0.32806,-0.38643 0.81262,-0.85873 z m -19.03441,-6.62981 c 0.0987,-0.0382 0.21666,-0.0335 0.26211,0.0104 0.0454,0.0439 -0.0354,0.0751 -0.17949,0.0694 -0.15931,-0.006 -0.19171,-0.0376 -0.0826,-0.0798 z m 4.74364,-3.21257 c 1.65344,-1.59856 3.03702,-2.90647 3.07463,-2.90647 0.0376,0 -1.28444,1.30791 -2.93788,2.90647 -1.65343,1.59856 -3.03702,2.90648 -3.07463,2.90648 -0.0376,0 1.28444,-1.30792 2.93788,-2.90648 z m 6.08435,0.033 -2.93902,-2.87344 2.9744,2.83926 c 1.63591,1.5616 2.97439,2.85465 2.97439,2.87345 0,0.0938 -0.2789,-0.16932 -3.00977,-2.83927 z"
         id="path881"
         sodipodi:nodetypes="sssssscssssssscssssssssssssssssssscccccccccscsccccscsccssscssssscsssscssssssssssscssscssssscccsscccccsssssscscccscssscccccccccsssssscscssscsscssccsscsssssscscscscsssccscccccssssssssscsssssssssssssssssssscsssssssscsss" />
      <path
         style="fill:#191818;stroke-width:0.134413"
         d="m 91.320174,169.09182 c 0,-0.0274 0.107693,-0.13147 0.239319,-0.2312 l 0.239319,-0.18131 -0.187686,0.23119 c -0.178651,0.22007 -0.290952,0.29006 -0.290952,0.18132 z m 45.094546,-0.9624 c 0.094,-0.0366 0.24786,-0.0366 0.34188,0 0.094,0.0366 0.017,0.0667 -0.17095,0.0667 -0.18803,0 -0.26496,-0.03 -0.17093,-0.0667 z M 78.060635,139.61997 c -7.706151,-7.44488 -13.983035,-13.55342 -13.94863,-13.57455 0.03441,-0.0211 6.369983,6.07013 14.079064,13.53614 7.709082,7.46599 13.985965,13.57455 13.94863,13.57455 -0.03733,0 -6.372913,-6.09127 -14.079064,-13.53614 z m 74.012435,-0.0383 14.05134,-13.57444 -25.53874,-24.70512 -25.53873,-24.705126 25.60708,24.704826 25.60708,24.70483 -14.05113,13.57474 c -7.72814,7.4661 -14.08199,13.57474 -14.11969,13.57474 -0.0377,0 6.25456,-6.1085 13.98279,-13.57445 z m -60.314066,11.15996 -1.122519,-1.08442 3.041591,-2.94053 3.041591,-2.94055 -3.041657,-2.9406 -3.041655,-2.9406 3.008608,-2.90425 c 1.654734,-1.59733 3.008607,-2.9934 3.008607,-3.10238 0,-0.10898 -1.275242,-1.43116 -2.833873,-2.93817 l -2.833872,-2.74002 0.953508,0.37226 c 1.226231,0.47872 2.011114,0.66336 3.249993,0.76453 l 1.00001,0.0817 0.930693,-1.08677 c 1.265061,-1.47721 2.678123,-2.91097 2.868949,-2.91097 0.08632,0 0.755512,0.58043 1.487092,1.28984 l 1.33014,1.28984 -3.007944,2.90361 c -1.654368,1.59698 -3.007942,2.96421 -3.007942,3.0383 0,0.0741 1.041377,1.13942 2.314172,2.36742 l 2.314174,2.23273 -0.81912,1.03951 c -2.926324,3.71372 -4.958398,8.44514 -5.393675,12.55849 l -0.09437,0.89175 h -0.466543 c -0.464907,0 -1.152179,0.26824 -1.552652,0.60597 -0.182541,0.15395 -0.361226,0.0324 -1.333309,-0.90665 z m 45.031786,0.62069 c -0.30086,-0.17361 -0.6701,-0.31754 -0.82053,-0.31986 -0.71588,-0.0109 -0.66779,-1.12414 0.16767,-3.88149 l 0.1953,-0.64459 1.6647,1.56938 1.66468,1.56937 -1.10336,1.02387 c -0.60685,0.56313 -1.12994,1.01828 -1.1624,1.01142 -0.0325,-0.007 -0.30521,-0.15449 -0.60606,-0.3281 z m 5.91895,-10.55622 -3.04713,-2.90897 3.07696,-2.93741 3.07696,-2.93742 -1.8988,-1.83819 -1.89881,-1.83819 0.22225,-1.43368 c 0.12224,-0.78852 0.26199,-1.97777 0.31056,-2.64277 l 0.0883,-1.20909 1.55426,-1.49725 1.55425,-1.49724 -1.76932,-1.71943 -1.76932,-1.71942 -0.14581,-0.79268 c -0.0802,-0.43597 -0.28878,-1.30898 -0.46353,-1.94002 l -0.31774,-1.14736 2.26686,-2.18655 2.26684,-2.18655 3.0454,2.93395 3.0454,2.93395 -3.04424,2.9431 -3.04425,2.94311 3.00627,2.9065 3.00628,2.9065 -3.0717,2.96965 -3.07171,2.96965 3.06884,2.97539 3.06883,2.97539 -3.03438,2.942 -3.03439,2.94199 z m -61.307921,-0.0669 -3.012294,-2.90317 2.978105,-2.8748 c 1.637957,-1.58114 2.978103,-2.93526 2.978103,-3.00916 0,-0.0739 -1.340297,-1.42817 -2.978438,-3.00949 l -2.978438,-2.87513 3.048246,-2.93419 3.048247,-2.93418 2.974102,2.87093 c 1.635756,1.57902 3.036618,2.87094 3.113025,2.87094 0.07641,0 -1.276966,1.36784 -3.007499,3.03964 l -3.14642,3.03963 3.040573,2.93955 3.040571,2.93956 -2.975559,2.87234 c -1.636558,1.57979 -3.005815,2.87197 -3.042796,2.87153 -0.03698,-4e-4 -1.422768,-1.30725 -3.079528,-2.904 z m 28.516861,-7.44984 c 0,-0.0274 0.1077,-0.13147 0.23932,-0.23119 l 0.23932,-0.18132 -0.18768,0.2312 c -0.17866,0.22006 -0.29096,0.29005 -0.29096,0.18131 z m -4.23937,-0.26422 c 0,-0.0274 0.1077,-0.13147 0.23932,-0.23119 l 0.23932,-0.18133 -0.18768,0.2312 c -0.17865,0.22007 -0.29096,0.29005 -0.29096,0.18132 z m -36.478016,-4.04773 -3.041734,-2.97466 3.007937,-2.90359 3.007936,-2.9036 3.040173,2.93699 3.040173,2.93699 -3.006374,2.94126 -3.006377,2.94127 z m 85.776316,7.5e-4 -3.00561,-2.90585 3.04018,-2.93699 3.04017,-2.93699 3.04459,2.90434 3.0446,2.90429 -3.07917,2.9385 -3.07916,2.9385 -3.0056,-2.90585 z m -49.82113,-0.83397 -2.21244,-2.14029 2.02045,-1.94863 2.02045,-1.94862 1.63298,-0.39842 1.63298,-0.39842 1.03048,0.9976 1.0305,0.99761 -0.52065,0.95466 c -0.59386,1.08889 -2.36559,3.57223 -3.59188,5.03454 l -0.83044,0.99026 z m -7.066996,-6.03454 c 0.136136,-0.14532 0.278291,-0.26423 0.315898,-0.26423 0.03761,0 -0.04301,0.11891 -0.179145,0.26423 -0.136136,0.14532 -0.278291,0.26422 -0.315898,0.26422 -0.03761,0 0.04301,-0.1189 0.179145,-0.26422 z M 97.7476,121.25092 c 0.176651,-0.18166 0.351953,-0.33028 0.389561,-0.33028 0.03761,0 -0.07616,0.14862 -0.252808,0.33028 -0.176652,0.18165 -0.351953,0.33028 -0.389561,0.33028 -0.03761,0 0.07616,-0.14863 0.252808,-0.33028 z m -13.351155,-1.21598 c 0.136027,-0.13141 -5.813601,-5.85368 -5.990711,-5.76178 -0.08005,0.0415 1.254474,-1.28439 2.965601,-2.94651 l 3.111145,-3.02201 3.040878,2.93767 3.040879,2.93767 -3.006686,2.95382 c -1.653678,1.62461 -3.063098,2.9629 -3.132045,2.97399 -0.06895,0.0111 -0.08203,-0.0217 -0.02906,-0.0729 z m 6.380674,-5.71476 c -0.110643,-0.0676 -0.170882,-0.14101 -0.133863,-0.16313 0.03702,-0.0221 0.397479,-0.33746 0.801024,-0.70077 l 0.733715,-0.66056 -0.57076,0.82571 c -0.313918,0.45414 -0.583851,0.82479 -0.599852,0.82368 -0.016,-7.5e-4 -0.119621,-0.0573 -0.230264,-0.12493 z m 2.627339,-9.2872 -2.767971,-2.67642 3.044238,-2.938731 3.044238,-2.93874 1.844667,1.79871 c 1.186445,1.1569 1.77832,1.822651 1.65874,1.865791 -1.040376,0.3753 -2.135165,1.85218 -2.278702,3.07399 -0.249703,2.12552 -0.498787,2.94557 -1.133625,3.73217 -0.337196,0.41781 -0.619952,0.75965 -0.628347,0.75965 -0.0084,0 -1.260853,-1.20439 -2.783238,-2.67642 z m 43.184342,-1.50549 c -0.98656,-1.36505 -2.58123,-3.20506 -3.80174,-4.386651 l -1.00411,-0.9721 0.86287,-0.87747 0.86287,-0.87748 3.07696,2.97726 3.07696,2.977261 -1.17101,1.08585 -1.17102,1.08585 z M 123.73081,93.188689 c -1.26358,-0.63597 -4.36938,-1.56534 -6.65527,-1.9915 -0.80793,-0.15062 -1.57835,-0.36948 -1.71203,-0.48636 -0.19854,-0.17357 -0.28129,-0.18185 -0.45173,-0.0452 -0.49407,0.39613 -1.75317,0.0524 -4.02208,-1.09809 -2.7118,-1.37504 -3.7407,-1.81902 -4.4192,-1.90693 l -0.54238,-0.0703 1.54916,-1.50084 1.54915,-1.50083 3.01138,2.90701 c 1.65625,1.59886 3.07292,2.90701 3.14816,2.90701 0.0753,0 1.47542,-1.29418 3.11149,-2.87595 l 2.97469,-2.87596 3.04132,2.90899 3.04131,2.90898 -1.50206,1.48626 c -0.82614,0.81745 -1.53384,1.48364 -1.57267,1.48043 -0.0388,-0.003 -0.28599,-0.11425 -0.54924,-0.24675 z m -20.31067,-2.12816 -0.5369,-0.53116 1.34762,-1.28538 c 0.74119,-0.70696 1.30876,-1.17648 1.26128,-1.04338 -0.0475,0.1331 -0.0863,0.84742 -0.0863,1.58737 v 1.34536 l -0.66793,0.22918 c -0.36737,0.12605 -0.69334,0.22918 -0.7244,0.22918 -0.0311,0 -0.29806,-0.23902 -0.59334,-0.53117 z"
         id="path879"
         sodipodi:nodetypes="sscsscsscsssssscccccsssscccccssscsscssscssscsscsssscscccscsccccccsscccccssccccccccccccccccscssscccssscccscssscsssscsscccccccccccccccccccccccccccssccssssssssssccccccssccccscsccscccsssssssscccccccsssscsscccssscccssssscscscsss" />
      <path
         style="fill:#000000;stroke-width:0.134413"
         d="m 87.354316,172.7346 v -2.61638 l 0.411976,-0.62758 c 0.431554,-0.65739 1.233885,-1.13301 1.920888,-1.13871 0.457114,-0.004 0.690864,-0.20025 1.133591,-0.95275 0.637781,-1.08404 2.714202,-2.6875 5.139303,-3.9687 1.281479,-0.67701 1.666553,-4.03434 0.602801,-5.25564 l -0.34388,-0.3948 h -0.779388 c -1.909198,0 -2.530553,-0.72302 -2.590825,-3.01471 l -0.04406,-1.67528 0.318672,-0.4624 c 0.386101,-0.56023 1.35051,-1.05689 2.052257,-1.05689 0.586304,0 0.586649,-6.6e-4 0.724444,-1.5193 0.475043,-5.23519 3.324308,-10.47515 8.548435,-15.72109 6.19055,-6.21638 9.15654,-10.69301 10.12433,-15.28082 0.15577,-0.73849 0.34156,-1.448 0.41285,-1.57668 0.34235,-0.61799 0.0523,-0.49517 -0.67886,0.28743 -2.45669,2.62961 -5.91557,3.81828 -11.11619,3.82016 l -2.14677,7.5e-4 -0.79343,0.64113 c -0.991713,0.80136 -2.770666,2.59683 -3.655589,3.68955 l -0.671922,0.8297 -0.831284,-0.0795 c -3.661438,-0.35009 -6.820285,-3.83178 -5.901364,-6.5045 0.428153,-1.2453 5.113891,-7.8344 8.053763,-11.32524 1.495746,-1.77607 1.83773,-2.45158 2.017708,-3.98551 0.332408,-2.83309 0.870478,-3.47886 2.898688,-3.47886 h 0.67178 l 0.70558,-0.57465 c 1.61224,-1.313081 4.35899,-2.897221 6.6808,-3.853031 0.85043,-0.35009 1.6047,-0.6861 1.67615,-0.74667 0.21741,-0.18431 -1.16361,-0.11874 -2.18122,0.10357 -1.41692,0.30954 -1.44059,0.30644 -1.73003,-0.2266 -0.70526,-1.29883 -1.52369,-7.39155 -0.99184,-7.38355 0.62497,0.009 9.43347,5.62609 10.42944,6.65027 l 0.29692,0.30533 -0.8293,0.22274 c -0.72668,0.19518 -1.01212,0.48232 -0.47947,0.48232 0.9246,0 5.05141,1.77429 6.97965,3.00085 6.02828,3.834601 11.151,11.067981 13.47639,19.028891 0.53013,1.81489 0.70419,1.34342 0.32922,-0.89176 -1.59846,-9.52846 -8.22328,-17.4457 -20.16466,-24.098531 -1.17442,-0.65429 -1.45146,-0.85492 -1.09403,-0.79226 10.80492,1.89409 19.40414,9.070511 22.92294,19.130191 3.13399,8.95958 2.777,15.86934 -1.45115,28.0876 -2.29147,6.62173 -2.9438,9.1491 -3.00766,11.65273 -0.002,0.0511 0.27291,0.21055 0.60937,0.35432 1.00512,0.42953 1.16503,0.82148 1.16503,2.85559 0,2.55922 -0.49008,3.09569 -2.83347,3.10174 l -1.12506,0.003 -0.19662,0.29726 c -1.21735,1.84034 -0.58383,4.79199 1.24259,5.78935 2.11212,1.15338 3.69592,2.43717 4.50901,3.6549 0.49765,0.74532 0.59229,0.78773 1.92411,0.86236 1.72166,0.0965 1.95061,0.58782 1.95061,4.18616 v 2.78092 H 114.49993 87.354316 Z m 52.443314,-2.26993 0.24579,-0.26236 -0.33508,-0.62903 c -0.27227,-0.51112 -0.48555,-0.70339 -1.13777,-1.02573 l -0.80268,-0.3967 -8.45446,-0.0404 c -8.33928,-0.0398 -9.31123,0.005 -7.91324,0.36916 0.29849,0.0776 0.7738,0.36137 1.05984,0.63263 l 0.51863,0.49184 -10.31264,0.0339 c -5.67195,0.0187 -10.33853,0.009 -10.37017,-0.0217 -0.18493,-0.17865 0.38406,-0.6872 1.17277,-1.04819 l 0.91154,-0.4172 -5.395422,-0.0346 c -6.699233,-0.0429 -7.220144,0.0551 -7.941668,1.49501 l -0.30058,0.59983 0.241661,0.25797 0.24166,0.25797 h 24.163019 24.16301 z m -39.30892,-7.13904 c 0.78864,-0.40774 1.03161,-3.22626 0.41257,-4.78595 l -0.3015,-0.75964 h -1.152584 c -1.310875,0 -1.29427,-0.0205 -0.858612,1.0569 0.408521,1.01023 0.404225,2.55993 -0.01,3.59835 -0.166277,0.41687 -0.263797,0.81816 -0.21671,0.89176 0.111714,0.17462 1.788486,0.17351 2.126816,-0.002 z m 31.208,-7.22991 c -1.82396,-0.0208 -4.8086,-0.0208 -6.63256,0 -1.82395,0.0208 -0.33162,0.0378 3.31628,0.0378 3.6479,0 5.14023,-0.017 3.31628,-0.0378 z m 3.13167,-2.37814 c 0.35985,-0.34766 0.2053,-1.09191 -0.32407,-1.56057 -0.79968,-0.70798 -0.99069,-0.72399 -8.19115,-0.68662 l -6.60947,0.0343 0.66374,0.33029 c 0.36506,0.18165 0.75558,0.46404 0.86783,0.62753 l 0.20409,0.29726 h -9.38431 c -5.16136,0 -9.38431,-0.0491 -9.38431,-0.10909 0,-0.1932 0.6037,-0.66425 1.16428,-0.90848 l 0.54515,-0.23751 -3.41885,-0.0368 c -3.802764,-0.0409 -4.265773,0.0328 -4.919243,0.78303 -0.510897,0.58656 -0.368392,1.48794 0.254166,1.60766 0.805611,0.15491 38.368137,0.0174 38.532147,-0.14102 z m -33.87636,-4.02943 c 0.0354,-0.16348 0.16291,-0.89176 0.28343,-1.61838 1.02542,-6.18202 3.0477,-9.48101 9.51575,-15.5232 6.84327,-6.39273 9.26397,-9.7845 9.84035,-13.78789 0.18645,-1.29498 0.11749,-1.37485 -0.27475,-0.31827 -1.40063,3.77294 -5.01864,8.06011 -12.57723,14.90346 -5.21697,4.72332 -8.393861,10.2638 -9.106592,15.88189 l -0.09637,0.75964 h 1.175558 1.175564 z m -5.665988,-25.14427 c 0.565161,-0.25367 1.188586,-0.76555 2.507718,-2.05905 2.30524,-2.26045 2.39385,-2.29944 5.49131,-2.41624 7.59098,-0.28626 11.68077,-2.82759 12.5816,-7.818 0.28119,-1.55774 0.11005,-2.07707 -0.21218,-0.64383 -1.05035,4.6719 -5.00624,7.05268 -12.16471,7.32113 l -2.53143,0.0949 -0.80745,0.35712 c -0.658086,0.29105 -1.214361,0.75527 -3.007098,2.50944 -2.266981,2.21822 -2.997116,2.73045 -3.891936,2.73045 -0.260865,0 -0.408724,0.0545 -0.359014,0.13212 0.171744,0.26846 1.61014,0.14341 2.39319,-0.20806 z m 11.282178,-12.65102 c 1.67272,-0.9881 0.9586,-2.80827 -0.91418,-2.3301 -1.001,0.25559 -3.39257,2.08471 -3.39382,2.59567 -5.5e-4,0.23143 3.87064,-0.007 4.308,-0.26557 z m -3.13359,-6.62349 c 0.37223,-0.10679 0.79407,-0.27701 0.93743,-0.37828 l 0.26064,-0.18412 -0.75292,-0.27214 c -1.54386,-0.55802 -2.30307,-0.43978 -2.30307,0.3587 0,0.64428 0.67142,0.81624 1.85792,0.47584 z m 0.28691,-8.948241 c -0.58509,-0.95927 -1.07626,-1.86589 -1.09148,-2.01472 -0.0311,-0.30393 1.42511,-1.07119 2.72922,-1.43799 l 0.70561,-0.19846 0.22006,0.94715 c 0.24584,1.0581 0.85488,2.68893 1.04703,2.80366 0.32884,0.19633 0.021,0.4736 -1.14798,1.03407 -0.70023,0.33572 -1.30138,0.6104 -1.3359,0.6104 -0.0345,0 -0.54147,-0.78485 -1.12656,-1.74411 z"
         id="path877"
         sodipodi:nodetypes="ccscssscsscsssssccccsscssssscssssssscsssssssssccsccsssssccccccsscccscccsccscccccccscssssccssssssscsscssscsssssssssssscccssssssscssscscsccsscsssssscsssss" />
    </g>
  </g>
</svg>
